<svg xmlns="http://www.w3.org/2000/svg" xmlns:xlink="http://www.w3.org/1999/xlink" width="400" zoomAndPan="magnify" viewBox="0 0 300 299.999988" height="400" preserveAspectRatio="xMidYMid meet" version="1.0"><defs><clipPath id="e3c9202bc7"><path d="M 37.054688 27 L 262.804688 27 L 262.804688 273.667969 L 37.054688 273.667969 Z M 37.054688 27 " clip-rule="nonzero"/></clipPath></defs><rect x="-30" width="360" fill="#ffffff" y="-29.999999" height="359.999986" fill-opacity="1"/><rect x="-30" width="360" fill="#ffffff" y="-29.999999" height="359.999986" fill-opacity="1"/><g clip-path="url(#e3c9202bc7)"><path fill="#fdf0d7" d="M 261.15625 40.035156 C 260.703125 39.253906 260.136719 38.554688 259.5 37.945312 C 252.214844 30.296875 239.054688 34.175781 229.054688 33.183594 C 218.242188 32.113281 219.492188 29.730469 203.308594 27.917969 C 187.703125 26.171875 180.515625 30.316406 170.6875 30.78125 C 170.285156 30.792969 169.890625 30.804688 169.492188 30.816406 C 159.105469 30.976562 148.484375 27.011719 133.265625 27.011719 C 120.230469 27.011719 106.164062 29.667969 96.765625 30.609375 C 95.898438 30.667969 95.03125 30.726562 94.179688 30.789062 C 93.601562 30.832031 93.011719 30.878906 92.425781 30.921875 C 92.410156 30.921875 92.394531 30.921875 92.378906 30.925781 C 83.4375 31.191406 73.59375 27.691406 60.804688 29.484375 C 52.113281 30.703125 45.671875 34.03125 42.4375 36.039062 C 41.574219 36.457031 40.785156 36.992188 40.097656 37.632812 C 40.097656 37.632812 40.09375 37.640625 40.09375 37.640625 C 38.203125 39.410156 37.0625 41.925781 37.089844 44.652344 C 37.128906 48.472656 37.160156 52.359375 37.179688 56.203125 C 37.203125 60.058594 37.242188 64.003906 37.296875 67.917969 C 37.332031 70.566406 38.476562 73.082031 40.453125 74.847656 C 41.386719 75.683594 42.472656 76.308594 43.628906 76.714844 C 43.628906 76.714844 43.632812 76.714844 43.632812 76.71875 C 46.046875 78.414062 46.105469 79.839844 45.714844 80.753906 C 45.410156 81.089844 45.125 81.449219 44.871094 81.832031 C 44.867188 81.835938 44.863281 81.835938 44.863281 81.835938 C 44.863281 81.835938 44.867188 81.835938 44.867188 81.835938 C 44.488281 82.40625 44.164062 83.019531 43.910156 83.675781 C 42.339844 87.730469 43.730469 92.335938 47.289062 94.84375 L 50.1875 96.886719 L 48.53125 101.710938 C 47.226562 105.511719 48.464844 109.722656 51.621094 112.214844 C 53.332031 113.570312 55.410156 114.257812 57.492188 114.257812 C 58.582031 114.257812 59.675781 114.066406 60.71875 113.691406 C 60.761719 114.183594 60.785156 114.601562 60.800781 114.929688 C 59.769531 115.375 58.355469 115.90625 57.296875 116.304688 C 53.085938 117.886719 50.574219 122.210938 51.273438 126.652344 C 51.976562 131.089844 55.707031 134.425781 60.195312 134.632812 C 60.914062 134.667969 61.621094 134.6875 62.320312 134.710938 C 63.136719 134.738281 63.886719 134.761719 64.585938 134.800781 C 64.878906 135.742188 65.164062 136.699219 65.464844 137.691406 C 65.65625 138.324219 65.84375 138.953125 66.035156 139.582031 C 67.265625 143.617188 70.984375 146.296875 75.09375 146.296875 C 75.5625 146.296875 76.039062 146.261719 76.515625 146.191406 C 81.164062 145.488281 84.59375 141.480469 84.570312 136.777344 C 84.5625 134.996094 84.433594 133.308594 84.320312 131.816406 L 84.28125 131.339844 C 84.34375 131.3125 84.414062 131.28125 84.480469 131.253906 C 86.4375 140.78125 89.210938 149.261719 92.757812 156.5625 C 95.316406 161.824219 98.28125 166.480469 101.632812 170.527344 C 98.988281 172.230469 97.347656 175.128906 97.28125 178.285156 L 97.230469 180.691406 C 97.199219 182.410156 97.164062 184.128906 97.121094 185.847656 C 97.035156 189.1875 96.519531 189.980469 96.515625 189.988281 C 96.507812 189.996094 95.914062 190.695312 92.570312 191.648438 C 92.3125 191.722656 92.046875 191.792969 91.785156 191.859375 C 91.292969 191.992188 90.730469 192.136719 90.121094 192.324219 C 89.4375 192.53125 88.835938 192.746094 88.308594 192.9375 C 88.132812 193 87.960938 193.0625 87.789062 193.121094 C 83.519531 194.609375 80.894531 198.90625 81.523438 203.382812 C 82.152344 207.859375 85.855469 211.269531 90.367188 211.523438 C 94.824219 211.777344 97.1875 212.125 98.566406 213.421875 C 99.675781 214.46875 100.246094 216.714844 101.082031 220.289062 C 101.289062 221.179688 101.507812 222.101562 101.75 223.066406 C 102.832031 227.3125 106.652344 230.203125 110.921875 230.203125 C 111.359375 230.203125 111.800781 230.171875 112.246094 230.109375 C 117.027344 229.441406 120.542969 225.28125 120.402344 220.453125 C 120.210938 214.03125 120.921875 212.230469 121.101562 211.882812 C 122.007812 211.199219 125.613281 210.25 128.519531 209.484375 C 129.148438 209.316406 129.796875 209.148438 130.46875 208.96875 C 130.660156 208.917969 130.84375 208.851562 131.027344 208.792969 L 131.027344 227.484375 C 117.164062 231.003906 108.835938 238.882812 104.101562 245.417969 C 98.074219 253.730469 96.511719 261.632812 96.355469 262.507812 C 95.855469 265.269531 96.605469 268.113281 98.40625 270.265625 C 100.207031 272.421875 102.867188 273.667969 105.675781 273.667969 L 187.996094 273.667969 C 190.820312 273.667969 193.496094 272.40625 195.296875 270.230469 C 197.097656 268.054688 197.832031 265.191406 197.300781 262.417969 C 197.136719 261.546875 195.5 253.65625 189.402344 245.363281 C 184.613281 238.851562 176.222656 230.992188 162.351562 227.480469 L 162.351562 199.546875 C 169.847656 195.394531 175.472656 188.199219 178.660156 178.597656 C 180.699219 177.082031 182.664062 175.414062 184.554688 173.597656 C 185.039062 173.871094 185.550781 174.109375 186.089844 174.300781 C 186.769531 174.539062 187.441406 174.761719 188.101562 174.984375 C 188.878906 175.246094 189.589844 175.484375 190.246094 175.726562 C 190.253906 176.710938 190.257812 177.710938 190.257812 178.75 C 190.257812 179.40625 190.257812 180.0625 190.257812 180.722656 C 190.273438 185.421875 193.738281 189.402344 198.390625 190.066406 C 198.84375 190.128906 199.292969 190.160156 199.738281 190.160156 C 203.878906 190.160156 207.613281 187.441406 208.816406 183.371094 C 209.320312 181.664062 209.683594 180.007812 210.003906 178.550781 L 210.105469 178.078125 C 210.761719 178.003906 211.464844 177.941406 212.210938 177.875 C 212.628906 177.839844 213.046875 177.800781 213.464844 177.761719 C 218.25 177.308594 221.9375 173.34375 222.039062 168.535156 C 222.144531 163.730469 218.628906 159.609375 213.867188 158.949219 C 212.539062 158.765625 211.976562 158.46875 211.824219 158.375 C 211.75 158.195312 211.507812 157.480469 211.585938 155.84375 C 211.605469 155.601562 211.613281 155.359375 211.613281 155.117188 C 211.613281 150.210938 207.886719 146.1875 203.109375 145.703125 C 204.847656 141.683594 206.429688 137.402344 207.851562 132.882812 C 207.917969 133.394531 207.980469 133.90625 208.046875 134.417969 C 208.652344 139.082031 212.582031 142.59375 217.285156 142.671875 C 217.335938 142.675781 217.390625 142.675781 217.445312 142.675781 C 222.078125 142.675781 226.039062 139.316406 226.792969 134.730469 C 227.089844 132.902344 227.25 131.136719 227.390625 129.582031 L 227.449219 128.914062 C 227.457031 128.855469 227.460938 128.796875 227.46875 128.742188 C 227.515625 128.730469 227.570312 128.71875 227.625 128.703125 C 228.351562 128.519531 229.140625 128.351562 229.976562 128.171875 C 230.40625 128.078125 230.835938 127.984375 231.265625 127.890625 C 235.957031 126.839844 239.121094 122.445312 238.621094 117.664062 C 238.542969 116.917969 238.371094 116.203125 238.132812 115.523438 C 239.617188 114.179688 240.675781 112.378906 241.078125 110.324219 L 242.253906 104.304688 L 246.78125 103.566406 C 250.867188 102.894531 254.046875 99.652344 254.628906 95.550781 C 255.210938 91.453125 253.066406 87.449219 249.328125 85.667969 L 241.890625 82.121094 L 240.484375 77.25 C 241.25 77.398438 242.039062 77.476562 242.84375 77.476562 C 243.269531 77.476562 243.703125 77.453125 244.140625 77.414062 C 245.542969 77.28125 246.902344 76.941406 248.1875 76.40625 C 249.535156 75.847656 250.777344 75.085938 251.867188 74.144531 C 253.589844 72.652344 254.816406 70.742188 255.417969 68.613281 C 255.566406 68.085938 255.675781 67.5625 255.746094 67.039062 C 255.746094 67.015625 255.75 66.988281 255.753906 66.964844 C 255.875 65.984375 255.851562 64.988281 255.6875 63.996094 C 255.605469 63.492188 255.488281 63 255.347656 62.515625 C 255.648438 61.949219 255.949219 61.382812 256.246094 60.832031 C 257.003906 59.421875 257.792969 57.941406 258.585938 56.425781 C 258.597656 56.402344 258.609375 56.378906 258.621094 56.355469 C 258.996094 55.632812 259.363281 54.839844 259.710938 54.007812 C 260.03125 53.246094 260.335938 52.453125 260.625 51.640625 C 260.875 50.941406 261.113281 50.253906 261.34375 49.578125 C 261.570312 48.910156 261.777344 48.296875 261.960938 47.734375 C 262.800781 45.171875 262.507812 42.367188 261.15625 40.035156 Z M 261.15625 40.035156 " fill-opacity="1" fill-rule="nonzero"/></g><path fill="#ff809b" d="M 245.25 94.738281 L 233.976562 89.359375 L 229.878906 75.210938 L 225.144531 87.898438 L 213.539062 85.996094 L 221.648438 94.097656 L 213.914062 104.082031 L 226.484375 99.785156 L 231.78125 109.027344 L 234.222656 96.542969 Z M 245.25 94.738281 " fill-opacity="1" fill-rule="nonzero"/><path fill="#ff809b" d="M 73.503906 95.175781 L 80.015625 91.058594 L 71.265625 89.957031 L 66.539062 78.933594 L 63.109375 88.925781 L 52.742188 87.621094 L 61.453125 93.757812 L 57.492188 105.304688 L 68.21875 98.519531 L 77.847656 105.304688 Z M 73.503906 95.175781 " fill-opacity="1" fill-rule="nonzero"/><path fill="#ff5b1d" d="M 121.800781 167.117188 C 121.800781 167.117188 121.957031 194.578125 145.816406 194.667969 C 169.675781 194.753906 171.578125 167.300781 171.578125 167.300781 Z M 121.800781 167.117188 " fill-opacity="1" fill-rule="nonzero"/><path fill="#ff9800" d="M 91.183594 78.738281 C 91.183594 78.738281 80.480469 180.890625 143.773438 180.890625 C 207.070312 180.890625 206.875 78.738281 206.875 78.738281 Z M 91.183594 78.738281 " fill-opacity="1" fill-rule="nonzero"/><path fill="#ffffff" d="M 130.679688 127.664062 L 116.730469 116.792969 L 136.964844 116.242188 L 150.246094 92.117188 L 155.832031 115.722656 L 179.8125 115.066406 L 158.53125 127.128906 L 164.984375 154.402344 L 142.003906 136.492188 L 118.476562 149.824219 Z M 130.679688 127.664062 " fill-opacity="1" fill-rule="nonzero"/><path fill="#ff5b1d" d="M 105.675781 264.714844 C 105.675781 264.714844 110.933594 235.625 146.691406 235.625 C 182.445312 235.625 187.996094 264.714844 187.996094 264.714844 Z M 105.675781 264.714844 " fill-opacity="1" fill-rule="nonzero"/><path fill="#ff5b1d" d="M 140.5 188.953125 L 152.878906 188.953125 L 152.878906 241.402344 L 140.5 241.402344 Z M 140.5 188.953125 " fill-opacity="1" fill-rule="nonzero"/><path fill="#6d23e2" d="M 68.394531 67.710938 C 66.726562 68.105469 65.058594 68.5 63.394531 68.902344 C 62.949219 67.773438 62.5 66.652344 62.050781 65.535156 C 61.605469 64.417969 61.167969 63.296875 60.738281 62.164062 C 58 62.496094 55.261719 62.835938 52.527344 63.1875 C 52.316406 64.730469 52.105469 66.273438 51.898438 67.816406 C 50.1875 67.976562 48.476562 68.140625 46.769531 68.304688 C 46.714844 64.40625 46.675781 60.527344 46.652344 56.671875 C 46.632812 52.816406 46.601562 48.953125 46.5625 45.078125 C 48.171875 44.660156 49.78125 44.289062 51.386719 43.972656 C 52.996094 43.652344 54.628906 43.425781 56.289062 43.292969 C 58.3125 43.132812 60.335938 43.007812 62.363281 42.925781 C 62.914062 45.257812 63.453125 47.585938 63.984375 49.90625 C 64.515625 52.226562 65.0625 54.550781 65.625 56.878906 C 66.035156 58.71875 66.472656 60.53125 66.933594 62.320312 C 67.394531 64.109375 67.878906 65.90625 68.394531 67.710938 Z M 59.183594 57.632812 C 59.144531 57.429688 59.058594 57.054688 58.921875 56.503906 C 58.785156 55.957031 58.636719 55.375 58.472656 54.757812 C 58.308594 54.144531 58.132812 53.585938 57.941406 53.085938 C 57.753906 52.589844 57.589844 52.300781 57.445312 52.21875 C 57.398438 52.199219 57.289062 52.1875 57.117188 52.175781 C 56.949219 52.167969 56.765625 52.160156 56.570312 52.15625 C 56.378906 52.148438 56.191406 52.152344 56.011719 52.167969 C 55.832031 52.179688 55.707031 52.191406 55.640625 52.199219 C 55.527344 52.207031 55.375 52.21875 55.183594 52.234375 C 54.992188 52.253906 54.789062 52.273438 54.574219 52.304688 C 54.363281 52.335938 54.160156 52.378906 53.976562 52.441406 C 53.789062 52.503906 53.664062 52.570312 53.601562 52.644531 C 53.558594 52.671875 53.515625 52.824219 53.46875 53.101562 C 53.425781 53.382812 53.371094 53.722656 53.304688 54.128906 C 53.238281 54.535156 53.175781 54.972656 53.113281 55.433594 C 53.050781 55.898438 52.996094 56.339844 52.941406 56.757812 C 52.886719 57.171875 52.84375 57.53125 52.816406 57.832031 C 52.785156 58.132812 52.761719 58.308594 52.742188 58.355469 C 54.890625 58.105469 57.035156 57.867188 59.183594 57.632812 Z M 59.183594 57.632812 " fill-opacity="1" fill-rule="nonzero"/><path fill="#ff5b1d" d="M 101.5625 66.324219 C 101.140625 66.320312 100.726562 66.308594 100.324219 66.28125 C 99.988281 66.253906 99.660156 66.234375 99.335938 66.226562 C 99.011719 66.222656 98.773438 66.222656 98.617188 66.230469 C 97.75 66.273438 96.886719 66.332031 96.019531 66.414062 C 95.15625 66.492188 94.300781 66.597656 93.460938 66.734375 C 93.433594 65.789062 93.402344 64.855469 93.367188 63.945312 C 93.332031 63.03125 93.292969 62.101562 93.242188 61.15625 C 93.15625 59.464844 93.042969 57.789062 92.898438 56.125 C 92.757812 54.460938 92.621094 52.796875 92.492188 51.128906 C 90.398438 56.601562 88.34375 62.085938 86.324219 67.589844 C 85.136719 64.832031 83.875 62.128906 82.535156 59.476562 C 81.195312 56.828125 79.792969 54.1875 78.335938 51.558594 C 78.875 57.128906 79.410156 62.703125 79.945312 68.273438 C 79.703125 68.289062 79.453125 68.300781 79.195312 68.304688 C 78.941406 68.3125 78.679688 68.324219 78.414062 68.34375 C 77.570312 68.402344 76.746094 68.492188 75.941406 68.617188 C 75.132812 68.742188 74.324219 68.871094 73.507812 69 C 73.472656 66.886719 73.4375 64.785156 73.402344 62.695312 C 73.371094 60.601562 73.28125 58.503906 73.132812 56.402344 C 72.964844 53.933594 72.777344 51.480469 72.570312 49.035156 C 72.367188 46.59375 72.167969 44.140625 71.972656 41.675781 C 73.613281 41.566406 75.207031 41.421875 76.761719 41.234375 C 78.3125 41.050781 79.90625 40.832031 81.535156 40.582031 C 82.191406 42.359375 82.859375 44.117188 83.542969 45.855469 C 84.226562 47.59375 84.945312 49.328125 85.703125 51.050781 C 86.304688 49.339844 87.007812 47.660156 87.816406 46.011719 C 88.621094 44.363281 89.449219 42.730469 90.296875 41.105469 C 91.84375 40.984375 93.371094 40.867188 94.882812 40.757812 C 96.394531 40.644531 97.921875 40.546875 99.46875 40.460938 C 99.628906 42.480469 99.804688 44.480469 99.992188 46.453125 C 100.183594 48.429688 100.367188 50.425781 100.546875 52.445312 C 100.6875 54.039062 100.816406 55.632812 100.945312 57.226562 C 101.070312 58.824219 101.191406 60.40625 101.304688 61.976562 C 101.367188 62.921875 101.433594 63.863281 101.496094 64.808594 C 101.519531 65.3125 101.539062 65.820312 101.5625 66.324219 Z M 101.5625 66.324219 " fill-opacity="1" fill-rule="nonzero"/><path fill="#ff809b" d="M 129.632812 64.707031 C 127.945312 65 126.261719 65.292969 124.578125 65.59375 C 124.195312 64.464844 123.8125 63.339844 123.429688 62.21875 C 123.046875 61.097656 122.671875 59.972656 122.308594 58.839844 C 119.558594 59.011719 116.808594 59.191406 114.0625 59.382812 C 113.761719 60.886719 113.464844 62.386719 113.167969 63.890625 C 111.453125 63.953125 109.738281 64.015625 108.023438 64.085938 C 108.191406 60.257812 108.375 56.449219 108.574219 52.667969 C 108.773438 48.886719 108.960938 45.09375 109.144531 41.292969 C 110.773438 40.972656 112.398438 40.699219 114.019531 40.476562 C 115.640625 40.253906 117.285156 40.121094 118.945312 40.085938 C 120.972656 40.039062 123 40.03125 125.027344 40.066406 C 125.441406 42.382812 125.847656 44.695312 126.246094 47 C 126.644531 49.304688 127.058594 51.617188 127.488281 53.929688 C 127.792969 55.757812 128.125 57.558594 128.480469 59.339844 C 128.839844 61.117188 129.222656 62.90625 129.632812 64.707031 Z M 121.019531 54.308594 C 120.988281 54.105469 120.925781 53.734375 120.820312 53.1875 C 120.714844 52.640625 120.601562 52.0625 120.472656 51.449219 C 120.34375 50.839844 120.199219 50.28125 120.039062 49.78125 C 119.878906 49.28125 119.730469 48.988281 119.59375 48.902344 C 119.546875 48.882812 119.4375 48.863281 119.269531 48.84375 C 119.097656 48.824219 118.917969 48.808594 118.722656 48.789062 C 118.53125 48.773438 118.34375 48.765625 118.164062 48.769531 C 117.984375 48.777344 117.859375 48.777344 117.792969 48.78125 C 117.679688 48.785156 117.527344 48.789062 117.335938 48.792969 C 117.140625 48.796875 116.9375 48.808594 116.726562 48.828125 C 116.511719 48.84375 116.308594 48.878906 116.117188 48.925781 C 115.925781 48.976562 115.796875 49.039062 115.734375 49.105469 C 115.6875 49.128906 115.636719 49.277344 115.578125 49.546875 C 115.515625 49.816406 115.441406 50.152344 115.351562 50.546875 C 115.261719 50.941406 115.175781 51.363281 115.085938 51.816406 C 115 52.265625 114.917969 52.695312 114.839844 53.101562 C 114.761719 53.507812 114.699219 53.855469 114.652344 54.148438 C 114.605469 54.441406 114.570312 54.613281 114.550781 54.65625 C 116.707031 54.535156 118.863281 54.417969 121.019531 54.308594 Z M 121.019531 54.308594 " fill-opacity="1" fill-rule="nonzero"/><path fill="#6d23e2" d="M 156.597656 48.089844 C 155.484375 49.007812 154.355469 49.894531 153.214844 50.753906 C 152.070312 51.613281 150.894531 52.429688 149.679688 53.203125 C 146.953125 54.984375 144.242188 56.78125 141.546875 58.589844 C 143.917969 58.484375 146.285156 58.375 148.648438 58.261719 C 151.011719 58.148438 153.390625 58.101562 155.785156 58.113281 C 155.742188 59.941406 155.695312 61.769531 155.648438 63.59375 C 152.507812 63.960938 149.367188 64.226562 146.226562 64.398438 C 144.269531 64.519531 142.328125 64.65625 140.402344 64.808594 C 138.480469 64.960938 136.5625 65.132812 134.652344 65.320312 C 134.503906 64.25 134.390625 63.1875 134.308594 62.132812 C 134.226562 61.074219 134.054688 60.011719 133.796875 58.945312 C 136.269531 56.546875 138.757812 54.191406 141.265625 51.886719 C 143.773438 49.582031 146.363281 47.3125 149.039062 45.078125 C 147.792969 45.097656 146.5625 45.101562 145.351562 45.089844 C 144.136719 45.078125 142.921875 45.074219 141.695312 45.078125 C 140.335938 45.082031 138.988281 45.117188 137.652344 45.183594 C 136.316406 45.25 134.96875 45.320312 133.609375 45.402344 C 133.492188 43.675781 133.378906 41.949219 133.265625 40.222656 C 137.203125 40.1875 141.140625 40.167969 145.078125 40.175781 C 146.878906 40.175781 148.664062 40.199219 150.441406 40.242188 C 152.214844 40.289062 154.003906 40.34375 155.800781 40.40625 C 156.042969 41.695312 156.203125 42.972656 156.285156 44.25 C 156.367188 45.523438 156.472656 46.804688 156.597656 48.089844 Z M 156.597656 48.089844 " fill-opacity="1" fill-rule="nonzero"/><path fill="#ff9800" d="M 175.539062 40.601562 C 175.390625 41.941406 175.3125 43.277344 175.300781 44.609375 C 175.292969 45.941406 175.25 47.269531 175.171875 48.589844 C 173.917969 48.511719 172.664062 48.4375 171.414062 48.363281 C 171.375 49.132812 171.339844 49.894531 171.3125 50.644531 C 171.285156 51.390625 171.265625 52.152344 171.25 52.925781 C 171.230469 53.851562 171.214844 54.757812 171.207031 55.652344 C 171.203125 56.546875 171.199219 57.453125 171.203125 58.382812 C 172.34375 58.425781 173.484375 58.472656 174.625 58.523438 C 174.566406 59.160156 174.527344 59.808594 174.511719 60.46875 C 174.496094 61.128906 174.480469 61.789062 174.464844 62.449219 C 174.449219 63 174.453125 63.550781 174.476562 64.101562 C 174.496094 64.652344 174.554688 65.195312 174.652344 65.726562 C 170.660156 65.707031 166.667969 65.710938 162.675781 65.734375 C 162.6875 64.652344 162.691406 63.585938 162.683594 62.535156 C 162.675781 61.488281 162.644531 60.417969 162.589844 59.335938 C 163.316406 59.332031 164.042969 59.332031 164.773438 59.332031 C 164.691406 57.253906 164.59375 55.199219 164.476562 53.164062 C 164.359375 51.128906 164.234375 49.082031 164.105469 47.023438 C 163.035156 46.875 161.960938 46.726562 160.886719 46.578125 C 160.851562 45.648438 160.824219 44.726562 160.800781 43.804688 C 160.777344 42.886719 160.746094 41.964844 160.710938 41.035156 C 163.191406 40.984375 165.65625 40.925781 168.105469 40.859375 C 170.550781 40.792969 173.027344 40.707031 175.539062 40.601562 Z M 175.539062 40.601562 " fill-opacity="1" fill-rule="nonzero"/><path fill="#ff5b1d" d="M 207.351562 55.492188 C 207.25 57.40625 207.140625 59.296875 207.027344 61.15625 C 206.914062 63.019531 206.792969 64.910156 206.667969 66.824219 C 205.292969 66.6875 203.925781 66.585938 202.570312 66.523438 C 201.90625 66.492188 201.230469 66.492188 200.550781 66.527344 C 199.867188 66.5625 199.191406 66.617188 198.519531 66.699219 C 197.761719 64.847656 196.996094 63.015625 196.226562 61.199219 C 195.457031 59.378906 194.683594 57.542969 193.90625 55.691406 C 193.335938 54.332031 192.792969 52.972656 192.285156 51.613281 C 191.773438 50.253906 191.265625 48.882812 190.75 47.5 C 190.433594 50.449219 190.113281 53.382812 189.785156 56.300781 C 189.460938 59.214844 189.175781 62.152344 188.933594 65.105469 C 186.53125 64.957031 184.128906 64.8125 181.726562 64.679688 C 181.746094 60.460938 181.773438 56.261719 181.8125 52.082031 C 181.851562 47.90625 181.820312 43.707031 181.722656 39.480469 C 186.175781 39.613281 190.628906 39.773438 195.082031 39.964844 C 195.492188 41.078125 195.871094 42.199219 196.21875 43.320312 C 196.570312 44.445312 196.898438 45.582031 197.210938 46.734375 C 197.652344 48.488281 198.164062 50.226562 198.738281 51.949219 C 199.3125 53.675781 199.882812 55.402344 200.453125 57.136719 C 200.5625 54.40625 200.640625 51.6875 200.691406 48.976562 C 200.742188 46.265625 200.8125 43.53125 200.898438 40.777344 C 203.183594 41.160156 205.46875 41.550781 207.75 41.945312 C 207.71875 44.21875 207.675781 46.476562 207.621094 48.722656 C 207.566406 50.96875 207.476562 53.226562 207.351562 55.492188 Z M 207.351562 55.492188 " fill-opacity="1" fill-rule="nonzero"/><path fill="#ff809b" d="M 235.007812 68.363281 C 232.324219 68.109375 229.582031 67.839844 226.777344 67.558594 C 223.976562 67.273438 221.238281 66.894531 218.570312 66.421875 C 218.257812 66.359375 217.914062 66.300781 217.523438 66.242188 C 217.136719 66.1875 216.792969 66.09375 216.488281 65.96875 C 215.859375 65.691406 215.367188 65.394531 215.019531 65.078125 C 214.671875 64.761719 214.40625 64.410156 214.230469 64.019531 C 214.054688 63.625 213.933594 63.195312 213.875 62.722656 C 213.8125 62.25 213.765625 61.71875 213.734375 61.125 C 213.628906 59.59375 213.5625 58.058594 213.542969 56.519531 C 213.523438 54.980469 213.558594 53.441406 213.652344 51.894531 C 213.671875 51.613281 213.695312 51.273438 213.734375 50.871094 C 213.769531 50.46875 213.816406 50.050781 213.875 49.621094 C 213.9375 49.1875 214.011719 48.777344 214.101562 48.390625 C 214.195312 48.003906 214.304688 47.683594 214.433594 47.429688 C 215.046875 46.335938 215.902344 45.480469 217 44.867188 C 218.097656 44.25 219.292969 43.800781 220.589844 43.507812 C 221.886719 43.21875 223.214844 43.066406 224.578125 43.046875 C 225.9375 43.027344 227.183594 43.0625 228.320312 43.148438 C 230.75 43.339844 233.164062 43.761719 235.558594 44.417969 C 235.460938 46.734375 235.367188 49.046875 235.273438 51.363281 C 233.027344 50.484375 230.671875 49.949219 228.210938 49.761719 C 227.757812 49.726562 227.15625 49.703125 226.410156 49.691406 C 225.660156 49.679688 224.894531 49.707031 224.105469 49.769531 C 223.320312 49.832031 222.578125 49.953125 221.886719 50.132812 C 221.191406 50.3125 220.699219 50.589844 220.402344 50.960938 C 220.253906 51.148438 220.117188 51.410156 219.992188 51.75 C 219.867188 52.089844 219.765625 52.449219 219.683594 52.824219 C 219.601562 53.199219 219.539062 53.570312 219.492188 53.9375 C 219.445312 54.304688 219.414062 54.609375 219.398438 54.847656 C 219.367188 55.347656 219.367188 55.9375 219.398438 56.628906 C 219.433594 57.316406 219.480469 58.023438 219.546875 58.746094 C 219.609375 59.46875 219.699219 60.160156 219.8125 60.820312 C 219.925781 61.480469 220.058594 62.023438 220.207031 62.445312 C 222.183594 62.574219 224.160156 62.710938 226.132812 62.847656 C 226.183594 60.753906 226.234375 58.660156 226.285156 56.566406 C 227.828125 56.785156 229.375 56.949219 230.9375 57.058594 C 232.496094 57.167969 234.050781 57.285156 235.597656 57.410156 C 235.605469 59.257812 235.546875 61.085938 235.421875 62.898438 C 235.292969 64.707031 235.160156 66.53125 235.007812 68.363281 Z M 235.007812 68.363281 " fill-opacity="1" fill-rule="nonzero"/><path fill="#6d23e2" d="M 252.960938 45.304688 C 252.785156 45.835938 252.589844 46.417969 252.375 47.050781 C 252.160156 47.683594 251.9375 48.328125 251.707031 48.976562 C 251.472656 49.628906 251.230469 50.257812 250.972656 50.867188 C 250.71875 51.476562 250.460938 52.039062 250.199219 52.546875 C 249.433594 54.007812 248.667969 55.445312 247.902344 56.867188 C 247.140625 58.285156 246.378906 59.726562 245.617188 61.191406 C 244.398438 60.964844 243.179688 60.738281 241.960938 60.511719 C 242.417969 57.820312 242.871094 55.121094 243.324219 52.425781 C 243.5625 50.96875 243.84375 49.519531 244.171875 48.074219 C 244.5 46.632812 244.816406 45.179688 245.128906 43.71875 C 247.738281 44.238281 250.351562 44.765625 252.960938 45.304688 Z M 246.304688 66.554688 C 246.203125 66.90625 245.992188 67.21875 245.671875 67.5 C 245.347656 67.777344 244.976562 68.003906 244.558594 68.179688 C 244.136719 68.351562 243.699219 68.460938 243.25 68.503906 C 242.796875 68.546875 242.398438 68.519531 242.058594 68.425781 C 241.734375 68.335938 241.414062 68.1875 241.089844 67.976562 C 240.769531 67.765625 240.488281 67.519531 240.253906 67.242188 C 240.015625 66.964844 239.847656 66.65625 239.746094 66.316406 C 239.644531 65.976562 239.644531 65.617188 239.746094 65.242188 C 239.855469 64.847656 240.078125 64.523438 240.417969 64.265625 C 240.753906 64.011719 241.132812 63.824219 241.546875 63.707031 C 241.964844 63.585938 242.398438 63.527344 242.851562 63.527344 C 243.304688 63.53125 243.710938 63.582031 244.078125 63.683594 C 244.683594 63.851562 245.191406 64.140625 245.597656 64.542969 C 246.007812 64.949219 246.253906 65.453125 246.339844 66.058594 C 246.359375 66.152344 246.363281 66.238281 246.355469 66.316406 C 246.34375 66.390625 246.328125 66.46875 246.304688 66.554688 Z M 246.304688 66.554688 " fill-opacity="1" fill-rule="nonzero"/><path fill="#ff9800" d="M 106.949219 179.105469 C 107.546875 182.386719 108.125 185.671875 108.75 188.945312 C 109.808594 194.449219 113.019531 197.898438 118.566406 198.988281 C 120.667969 199.402344 122.804688 199.632812 124.921875 199.941406 C 125.761719 200.0625 126.601562 200.15625 128.023438 200.335938 C 115.109375 203.789062 110.429688 204.089844 110.933594 221.25 C 109.550781 215.824219 108.929688 210.691406 105.058594 207.046875 C 101.113281 203.335938 96.109375 202.882812 90.90625 202.589844 C 91.5625 202.359375 92.214844 202.109375 92.878906 201.90625 C 93.640625 201.675781 94.414062 201.496094 95.175781 201.277344 C 103.683594 198.84375 106.367188 195.398438 106.589844 186.609375 C 106.65625 184.074219 106.699219 181.539062 106.75 179.003906 C 106.816406 179.035156 106.882812 179.070312 106.949219 179.105469 Z M 106.949219 179.105469 " fill-opacity="1" fill-rule="nonzero"/><path fill="#ff9800" d="M 204.492188 119.128906 C 213.761719 117.316406 215.992188 116.75 216.597656 106.757812 C 217.121094 114.714844 221.089844 119.066406 229.199219 119.164062 C 227.90625 119.453125 226.605469 119.714844 225.316406 120.039062 C 220.429688 121.265625 218.480469 123.546875 218.019531 128.566406 C 217.859375 130.285156 217.722656 132.003906 217.441406 133.722656 C 217.160156 131.546875 216.902344 129.363281 216.59375 127.1875 C 216.101562 123.738281 214.1875 121.449219 210.824219 120.519531 C 208.792969 119.957031 206.699219 119.605469 204.492188 119.128906 Z M 204.492188 119.128906 " fill-opacity="1" fill-rule="nonzero"/><path fill="#ff9800" d="M 189.234375 165.882812 C 198.207031 165.273438 200.378906 165.003906 202.140625 155.636719 C 201.6875 163.214844 204.921875 167.792969 212.570312 168.855469 C 211.3125 168.972656 210.050781 169.0625 208.796875 169.214844 C 204.03125 169.792969 201.921875 171.71875 200.886719 176.40625 C 200.535156 178.011719 200.203125 179.617188 199.730469 181.210938 C 199.726562 179.117188 199.738281 177.027344 199.707031 174.933594 C 199.652344 171.617188 198.113281 169.226562 195.050781 167.953125 C 193.195312 167.179688 191.261719 166.597656 189.234375 165.882812 Z M 189.234375 165.882812 " fill-opacity="1" fill-rule="nonzero"/><path fill="#ff9800" d="M 60.632812 125.691406 C 69.046875 122.523438 71.054688 121.640625 70.039062 112.164062 C 71.789062 119.546875 76.207031 123.003906 83.835938 121.816406 C 82.664062 122.292969 81.484375 122.742188 80.328125 123.25 C 75.929688 125.175781 74.464844 127.628906 74.824219 132.414062 C 74.945312 134.050781 75.089844 135.683594 75.097656 137.34375 C 74.488281 135.34375 73.902344 133.335938 73.265625 131.34375 C 72.261719 128.179688 70.097656 126.335938 66.796875 125.996094 C 64.800781 125.789062 62.777344 125.789062 60.632812 125.691406 Z M 60.632812 125.691406 " fill-opacity="1" fill-rule="nonzero"/></svg>