<svg xmlns="http://www.w3.org/2000/svg" xmlns:xlink="http://www.w3.org/1999/xlink" width="400" zoomAndPan="magnify" viewBox="0 0 300 299.999988" height="400" preserveAspectRatio="xMidYMid meet" version="1.0"><rect x="-30" width="360" fill="#ffffff" y="-29.999999" height="359.999986" fill-opacity="1"/><rect x="-30" width="360" fill="#ffffff" y="-29.999999" height="359.999986" fill-opacity="1"/><path fill="#f4878e" d="M 247.886719 42.398438 C 247.753906 44.046875 241.558594 42.9375 241.558594 42.9375 C 241.558594 42.9375 245.171875 44.359375 245.214844 46.679688 C 245.257812 48.996094 238.574219 43.828125 238.574219 43.828125 L 214.085938 103.648438 C 218.761719 116.070312 219.566406 129.179688 215.988281 140.347656 C 210.207031 158.363281 193.378906 169.761719 174.5 175.1875 C 180.539062 184.105469 195.941406 210.148438 195.941406 210.148438 L 192.597656 211.304688 C 192.597656 211.304688 173.664062 184.894531 168.296875 176.738281 C 156.289062 179.324219 143.875 179.609375 133.234375 177.738281 C 126.648438 187.429688 110.140625 210.457031 110.140625 210.457031 L 106.84375 209.300781 C 106.84375 209.300781 120.253906 186.621094 126.957031 176.339844 C 101.921875 169.464844 83.921875 148.730469 87.949219 114.914062 C 88.71875 108.453125 90.136719 102.4375 92.132812 96.917969 L 70.417969 43.824219 C 70.417969 43.824219 63.734375 48.992188 63.777344 46.671875 C 63.777344 44.355469 67.433594 42.929688 67.433594 42.929688 C 67.433594 42.929688 61.234375 44.046875 61.097656 42.398438 C 60.96875 40.707031 66.980469 39.414062 66.980469 39.414062 C 66.980469 39.414062 60.609375 35.136719 62.304688 33.714844 C 64.042969 32.246094 68.898438 37.410156 68.898438 37.410156 C 68.898438 37.410156 65.335938 30.015625 66.9375 30.144531 C 68.5 30.277344 72.0625 35.9375 72.0625 35.9375 C 72.0625 35.9375 76.03125 31.570312 77.101562 32.6875 C 78.125 33.800781 74.425781 39.367188 74.425781 39.367188 L 96.632812 87 C 98.046875 84.480469 99.597656 82.105469 101.296875 79.882812 C 102.347656 78.492188 103.480469 77.171875 104.636719 75.898438 C 115.273438 64.394531 130.308594 58 148.410156 58.226562 C 163.109375 58.410156 175.800781 62.566406 186.164062 69.171875 C 187.632812 70.09375 189.042969 71.066406 190.410156 72.097656 C 198.339844 78.023438 204.683594 85.4375 209.308594 93.507812 L 234.515625 39.367188 C 234.515625 39.367188 230.8125 33.800781 231.882812 32.6875 C 232.90625 31.574219 236.921875 35.9375 236.921875 35.9375 C 236.921875 35.9375 240.484375 30.28125 242.046875 30.144531 C 243.609375 30.015625 240.082031 37.40625 240.082031 37.40625 C 240.082031 37.40625 244.898438 32.238281 246.636719 33.707031 C 248.328125 35.132812 241.996094 39.414062 241.996094 39.414062 C 241.996094 39.414062 248.015625 40.707031 247.886719 42.398438 Z M 247.886719 42.398438 " fill-opacity="1" fill-rule="nonzero"/><path fill="#000000" d="M 191.074219 209.660156 L 194.996094 207.4375 C 194.996094 207.4375 201.101562 207.257812 201.144531 207.835938 C 201.191406 208.417969 193.570312 213.09375 193.570312 213.09375 C 193.570312 213.09375 191.167969 210.953125 191.074219 209.660156 Z M 111.652344 208.8125 L 107.773438 206.585938 C 107.773438 206.585938 101.625 206.40625 101.578125 206.988281 C 101.535156 207.570312 109.15625 212.242188 109.15625 212.242188 C 109.15625 212.242188 111.5625 210.0625 111.652344 208.8125 Z M 183.390625 96.777344 C 179.3125 96.820312 176.015625 100.140625 176 104.207031 C 175.984375 108.308594 179.234375 111.621094 183.320312 111.667969 C 187.511719 111.722656 190.851562 108.449219 190.863281 104.273438 C 190.882812 100.105469 187.519531 96.734375 183.390625 96.777344 Z M 123.351562 96.855469 C 119.253906 96.851562 115.941406 100.101562 115.894531 104.183594 C 115.839844 108.335938 119.164062 111.695312 123.332031 111.699219 C 127.449219 111.703125 130.730469 108.46875 130.769531 104.375 C 130.808594 100.183594 127.53125 96.859375 123.351562 96.855469 Z M 146.589844 136.878906 C 150.433594 133.125 157.039062 132.304688 160.605469 137.46875 C 161.015625 138.0625 161.359375 138.941406 162.382812 138.789062 C 164.296875 136.417969 165.585938 133.757812 165.992188 130.714844 C 166.242188 128.835938 166.128906 128.652344 164.351562 128.429688 C 157.082031 127.527344 149.796875 127.71875 142.519531 128.332031 C 140.417969 128.507812 140.398438 128.675781 140.859375 130.835938 C 141.441406 133.59375 142.820312 135.996094 144.117188 138.445312 C 145.570312 138.9375 145.910156 137.542969 146.589844 136.878906 Z M 146.589844 136.878906 " fill-opacity="1" fill-rule="evenodd"/><path fill="#ffffff" d="M 185.730469 99.988281 C 186.949219 99.976562 187.882812 100.914062 187.847656 102.125 C 187.816406 103.238281 186.890625 104.148438 185.777344 104.164062 C 184.605469 104.179688 183.621094 103.179688 183.652344 102.003906 C 183.683594 100.867188 184.582031 99.996094 185.730469 99.988281 Z M 125.648438 99.894531 C 124.53125 99.894531 123.597656 100.792969 123.558594 101.910156 C 123.515625 103.0625 124.523438 104.109375 125.660156 104.105469 C 126.761719 104.101562 127.703125 103.175781 127.738281 102.066406 C 127.78125 100.835938 126.867188 99.890625 125.648438 99.894531 Z M 125.648438 99.894531 " fill-opacity="1" fill-rule="evenodd"/><path fill="#ffc709" d="M 116.101562 121.984375 C 119.472656 121.320312 122.5625 122.703125 123.058594 125.074219 C 123.558594 127.390625 121.238281 129.875 117.871094 130.59375 C 114.5 131.257812 111.410156 129.875 110.914062 127.558594 C 110.410156 125.1875 112.734375 122.703125 116.101562 121.984375 Z M 187.726562 121.957031 C 184.355469 122.671875 182.039062 125.15625 182.535156 127.527344 C 183.035156 129.847656 186.125 131.226562 189.492188 130.5625 C 192.859375 129.847656 195.179688 127.363281 194.683594 125.042969 C 194.1875 122.671875 191.09375 121.292969 187.726562 121.957031 Z M 187.726562 121.957031 " fill-opacity="1" fill-rule="evenodd"/><path fill="#ef4323" d="M 144.117188 138.445312 C 145.300781 138.175781 145.65625 137 146.4375 136.289062 C 149.003906 133.960938 151.929688 132.871094 155.398438 133.371094 C 157.273438 133.640625 158.808594 134.539062 160.039062 135.957031 C 160.847656 136.878906 161.601562 137.84375 162.382812 138.789062 C 160.566406 141.65625 158.105469 143.40625 154.574219 143.289062 C 153.199219 143.246094 151.828125 143.386719 150.460938 143.15625 C 147.542969 142.660156 145.527344 140.96875 144.117188 138.445312 Z M 144.117188 138.445312 " fill-opacity="1" fill-rule="evenodd"/><path fill="#000000" d="M 237.144531 231.957031 C 238.453125 236.675781 238.667969 242.292969 235.4375 246.4375 C 230.910156 252.25 221.582031 253.0625 215.6875 249.722656 C 211.765625 247.5 209.816406 243.195312 208.839844 239.082031 C 208 235.539062 207.960938 231.699219 209.117188 228.171875 C 210.191406 224.902344 212.351562 222.109375 215.347656 220.320312 C 219.117188 218.070312 223.707031 217.992188 227.597656 219.871094 C 231.957031 221.972656 235.890625 227.433594 237.144531 231.957031 Z M 215.269531 237.082031 C 216.597656 242.402344 221.578125 247.804688 227.421875 244.851562 C 231.460938 242.808594 231.414062 238.246094 230.628906 234.777344 C 229.949219 231.769531 228.625 228.589844 226.339844 226.378906 C 224.949219 225.03125 223.121094 224.164062 221.082031 224.460938 C 216.679688 225.105469 214.84375 229.859375 214.84375 233.539062 C 214.847656 234.648438 214.972656 235.890625 215.269531 237.082031 Z M 153.988281 226.628906 C 155.144531 226.636719 156.308594 227.261719 156.96875 228.242188 C 157.492188 229.023438 157.898438 229.921875 158.261719 230.777344 C 161.871094 239.183594 165.792969 247.53125 169.96875 255.671875 C 170.425781 256.554688 170.777344 257.46875 170.726562 258.460938 C 170.660156 259.800781 169.121094 260.554688 167.660156 260.800781 C 166.824219 260.9375 166.011719 260.789062 165.277344 260.445312 C 164.59375 260.125 164.058594 259.425781 163.664062 258.867188 C 163.355469 258.433594 163.089844 257.980469 162.847656 257.515625 C 162.609375 257.070312 162.34375 256.652344 162.105469 256.207031 C 161.925781 255.875 161.742188 255.539062 161.578125 255.199219 C 161.4375 254.910156 161.320312 254.601562 161.042969 254.394531 C 160.816406 254.222656 160.519531 254.132812 160.222656 254.101562 C 159.667969 254.035156 159.078125 254.089844 158.527344 254.101562 C 157.957031 254.105469 157.378906 254.113281 156.808594 254.121094 C 155.714844 254.128906 154.621094 254.140625 153.523438 254.132812 C 151.53125 254.132812 149.535156 254.101562 147.542969 254.023438 C 146.742188 253.988281 146.003906 254.382812 145.667969 255.023438 C 145.007812 256.28125 144.34375 257.546875 143.519531 258.726562 C 142 260.894531 139.628906 261.019531 137.441406 259.515625 C 136.246094 258.695312 136.378906 257.507812 136.878906 256.449219 C 137.679688 254.765625 138.597656 253.113281 139.472656 251.464844 C 143.203125 244.429688 146.746094 237.210938 150.15625 229.996094 C 150.65625 228.9375 151.195312 227.8125 152.175781 227.15625 C 152.730469 226.789062 153.355469 226.625 153.988281 226.628906 Z M 157.957031 246.605469 C 156.847656 244.320312 155.773438 242.046875 154.714844 239.734375 C 154.410156 239.070312 153.410156 239.054688 153.089844 239.714844 C 151.96875 242 150.835938 244.238281 149.667969 246.496094 C 149.382812 247.039062 149.808594 247.667969 150.472656 247.6875 C 152.257812 247.738281 155.335938 247.777344 157.121094 247.777344 C 157.785156 247.769531 158.222656 247.152344 157.957031 246.605469 Z M 97.597656 235.582031 C 97.542969 235.734375 97.820312 235.910156 97.921875 235.992188 C 98.378906 236.359375 98.707031 236.832031 99.027344 237.300781 C 99.441406 237.914062 99.792969 238.574219 100.046875 239.25 C 100.414062 240.226562 100.609375 241.253906 100.660156 242.273438 C 100.785156 244.585938 100.457031 247.003906 98.875 248.738281 C 95.46875 252.476562 89.375 251.851562 84.796875 250.8125 C 82.972656 250.398438 81.066406 249.851562 79.25 249.230469 C 78.308594 248.910156 77.371094 248.570312 76.433594 248.226562 C 75.628906 247.925781 74.753906 247.636719 74.175781 247.003906 C 73.542969 246.320312 73.449219 245.332031 73.542969 244.53125 C 73.699219 243.160156 74.3125 241.804688 74.734375 240.5 C 75.1875 239.085938 75.640625 237.671875 76.101562 236.253906 C 77.910156 230.648438 79.726562 225.042969 81.558594 219.441406 C 81.570312 219.417969 81.578125 219.386719 81.582031 219.363281 C 81.886719 218.441406 82.28125 217.460938 83.03125 216.796875 C 84.300781 215.679688 86.089844 216.277344 87.570312 216.585938 C 89.488281 216.984375 91.390625 217.449219 93.246094 218.058594 C 95.78125 218.894531 98.464844 219.917969 100.441406 221.78125 C 103.503906 224.660156 104.078125 229.566406 101.636719 232.90625 C 100.894531 233.921875 99.738281 234.757812 98.519531 235.234375 C 98.34375 235.304688 98.164062 235.367188 97.980469 235.410156 C 97.871094 235.441406 97.640625 235.457031 97.597656 235.582031 Z M 82.222656 238.835938 C 81.738281 240.046875 80.914062 241.925781 81.804688 243.195312 C 83.066406 245.003906 85.101562 245.40625 87.222656 245.75 C 88.914062 246.03125 91.128906 246.253906 92.261719 244.945312 C 93.382812 243.648438 93.78125 241.855469 93.328125 240.199219 C 92.8125 238.308594 91.132812 236.914062 89.277344 236.085938 C 88.324219 235.65625 87.304688 235.359375 86.269531 235.195312 C 85.277344 235.039062 84.273438 234.824219 83.644531 235.621094 C 82.929688 236.519531 82.6875 237.679688 82.273438 238.714844 C 82.257812 238.757812 82.238281 238.796875 82.222656 238.835938 Z M 91.039062 223.226562 C 91.03125 223.222656 91.019531 223.222656 91.011719 223.21875 C 90.160156 222.96875 89.121094 222.578125 88.25 222.90625 C 87.246094 223.28125 87.105469 224.160156 86.800781 225.03125 C 86.441406 226.082031 86.015625 227.128906 85.960938 228.253906 C 85.875 230.105469 87.550781 230.628906 89.164062 231.054688 C 90.679688 231.449219 92.703125 231.726562 94.164062 231.167969 C 95.695312 230.574219 96.824219 228.617188 96.503906 227.058594 C 96.058594 224.894531 92.917969 223.777344 91.039062 223.226562 Z M 127.023438 244.082031 C 126.996094 244.152344 126.988281 244.230469 127.007812 244.335938 C 127.097656 244.832031 127.429688 245.378906 127.625 245.855469 C 128.445312 247.875 129.332031 249.882812 130.226562 251.890625 C 130.664062 252.878906 131.109375 253.875 131.542969 254.871094 C 131.914062 255.726562 132.382812 256.554688 132.042969 257.46875 C 131.460938 259.019531 128.820312 259.652344 127.289062 258.632812 C 126.785156 258.296875 126.414062 257.84375 126.078125 257.378906 C 124.699219 255.503906 123.875 253.453125 122.988281 251.398438 C 122 249.117188 121.066406 246.828125 120.160156 244.535156 C 120.007812 244.152344 119.8125 243.996094 119.355469 243.929688 C 117.460938 243.683594 115.570312 243.371094 113.59375 243.035156 C 113.453125 243.007812 113.320312 243.09375 113.296875 243.21875 C 112.730469 246.515625 112.085938 249.8125 111.515625 253.09375 C 111.324219 254.191406 110.878906 255.144531 109.710938 255.695312 C 107.800781 256.601562 105.324219 255.496094 104.824219 253.617188 C 104.464844 252.25 104.980469 250.621094 105.210938 249.273438 C 105.933594 245.027344 106.902344 240.8125 107.734375 236.585938 C 108.21875 234.148438 108.707031 231.707031 109.195312 229.269531 C 109.492188 227.789062 109.683594 226.1875 110.207031 224.773438 C 110.429688 224.167969 110.785156 223.59375 111.308594 223.203125 C 112.347656 222.425781 113.90625 222.957031 115.074219 223.132812 C 117.191406 223.457031 119.273438 223.890625 121.355469 224.328125 C 123.429688 224.765625 125.519531 225.164062 127.472656 226.027344 C 131.378906 227.753906 133.726562 231.574219 133.625 235.730469 C 133.570312 237.8125 132.960938 239.773438 131.492188 241.371094 C 130.855469 242.058594 130.09375 242.644531 129.246094 243.097656 C 128.820312 243.324219 128.375 243.519531 127.914062 243.683594 C 127.550781 243.820312 127.132812 243.824219 127.023438 244.082031 Z M 114.320312 237.464844 C 114.300781 237.597656 114.398438 237.714844 114.539062 237.738281 C 114.75 237.777344 114.957031 237.8125 115.164062 237.847656 C 115.710938 237.9375 116.265625 238.03125 116.816406 238.121094 C 117.984375 238.308594 119.15625 238.492188 120.324219 238.652344 C 120.332031 238.652344 120.335938 238.652344 120.34375 238.65625 C 120.519531 238.679688 120.703125 238.707031 120.878906 238.730469 C 122.804688 238.976562 124.859375 238.289062 125.941406 236.773438 C 126.753906 235.625 126.839844 233.96875 126.15625 232.726562 C 125.460938 231.46875 123.945312 230.824219 122.601562 230.445312 C 120.832031 229.945312 119 229.59375 117.183594 229.320312 C 116.871094 229.273438 116.226562 229.0625 115.925781 229.152344 C 115.59375 229.253906 115.632812 229.800781 115.570312 230.160156 C 115.378906 231.265625 115.195312 232.367188 115.007812 233.46875 C 114.824219 234.566406 114.644531 235.664062 114.441406 236.761719 C 114.394531 236.996094 114.355469 237.230469 114.320312 237.464844 Z M 190.492188 249.015625 C 190.441406 249.011719 190.410156 248.960938 190.386719 248.921875 C 190.230469 248.640625 190.074219 248.355469 189.914062 248.078125 C 189.726562 247.757812 189.550781 247.429688 189.378906 247.101562 C 189.035156 246.449219 188.695312 245.789062 188.351562 245.136719 C 187.324219 243.207031 186.320312 241.277344 185.347656 239.328125 C 184.699219 238.03125 184.03125 236.703125 183.4375 235.417969 C 181.851562 231.964844 179.148438 224.808594 174.796875 226.574219 C 172.308594 227.585938 173.371094 231.671875 174.226562 233.738281 C 176.886719 240.144531 179.878906 246.46875 183.527344 252.371094 C 184.96875 254.707031 187.441406 258.460938 190.933594 258.625 C 192.523438 258.695312 194 257.898438 194.984375 256.832031 C 195.730469 256.027344 196.296875 255.054688 196.683594 254.128906 C 199.558594 247.152344 200.421875 239.105469 201.980469 231.527344 C 202.371094 229.621094 202.726562 227.578125 202.019531 225.6875 C 201.355469 223.90625 199.746094 222.761719 197.8125 223.53125 C 195.335938 224.503906 195.105469 228.191406 194.65625 230.371094 C 194.300781 232.101562 194.023438 233.855469 193.652344 235.585938 C 193.003906 238.640625 192.355469 241.746094 191.597656 244.75 C 191.332031 245.804688 191.085938 246.894531 190.816406 247.960938 C 190.742188 248.257812 190.703125 248.5625 190.636719 248.859375 C 190.625 248.898438 190.621094 248.933594 190.597656 248.96875 C 190.578125 248.996094 190.539062 249.019531 190.5 249.019531 C 190.5 249.015625 190.5 249.015625 190.492188 249.015625 Z M 190.492188 249.015625 " fill-opacity="1" fill-rule="nonzero"/></svg>