<svg xmlns="http://www.w3.org/2000/svg" xmlns:xlink="http://www.w3.org/1999/xlink" width="400" zoomAndPan="magnify" viewBox="0 0 300 299.999988" height="400" preserveAspectRatio="xMidYMid meet" version="1.0"><defs><clipPath id="fc43cd3ce2"><path d="M 37 81 L 262.734375 81 L 262.734375 258 L 37 258 Z M 37 81 " clip-rule="nonzero"/></clipPath><clipPath id="d48ab8744f"><path d="M 63 40.273438 L 247 40.273438 L 247 89 L 63 89 Z M 63 40.273438 " clip-rule="nonzero"/></clipPath></defs><rect x="-30" width="360" fill="#ffffff" y="-29.999999" height="359.999986" fill-opacity="1"/><rect x="-30" width="360" fill="#ffffff" y="-29.999999" height="359.999986" fill-opacity="1"/><g clip-path="url(#fc43cd3ce2)"><path fill="#cc99cc" d="M 262.039062 105.101562 C 261.351562 107.171875 257.722656 104.917969 257.722656 104.917969 C 257.722656 104.917969 256.472656 126.101562 239.839844 144.15625 C 229.976562 154.867188 216.699219 157.898438 207.53125 158.59375 C 215.023438 175.550781 218.9375 190.25 215.519531 196.1875 C 211.117188 203.824219 188.125 208.183594 162.496094 209.265625 C 162.214844 218.867188 157.3125 257.792969 157.3125 257.792969 L 153.496094 256.539062 C 153.496094 256.539062 154.847656 221.582031 155.683594 209.476562 C 152.960938 209.527344 150.234375 209.546875 147.503906 209.527344 C 148.339844 221.679688 149.683594 256.539062 149.683594 256.539062 L 145.929688 257.792969 C 145.929688 257.792969 141.03125 219.226562 140.695312 209.402344 C 113.566406 208.609375 88.46875 204.203125 83.851562 196.1875 C 80.425781 190.246094 84.347656 175.527344 91.847656 158.558594 C 82.714844 157.808594 69.699219 154.714844 59.972656 144.152344 C 43.277344 126.097656 42.027344 104.910156 42.027344 104.910156 C 42.027344 104.910156 38.398438 107.167969 37.710938 105.097656 C 37.023438 103.09375 41.710938 102.277344 41.710938 102.277344 C 41.710938 102.277344 41.585938 102.214844 41.148438 102.089844 C 40.710938 101.902344 37.335938 99.269531 38.898438 97.890625 C 40.460938 96.449219 43.460938 100.457031 43.460938 100.457031 C 43.460938 100.457031 41.460938 95.632812 43.398438 95.003906 C 45.273438 94.378906 45.027344 101.082031 45.027344 101.082031 C 45.027344 101.082031 46.839844 95.695312 48.464844 96.820312 C 50.089844 98.011719 46.339844 102.589844 46.339844 102.589844 C 46.339844 102.589844 52.589844 101.714844 51.652344 104.40625 C 50.78125 107.042969 45.402344 105.285156 45.402344 105.285156 C 45.402344 105.285156 48.46875 126.597656 67.097656 140.574219 C 79.082031 149.554688 89.894531 150.210938 96.058594 149.542969 C 111.777344 117.5625 137.21875 81.863281 149.679688 81.863281 C 162.132812 81.863281 187.554688 117.523438 203.273438 149.492188 C 209.328125 150.238281 220.355469 149.789062 232.648438 140.574219 C 251.277344 126.597656 254.339844 105.285156 254.339844 105.285156 C 254.339844 105.285156 248.964844 107.039062 248.089844 104.40625 C 247.21875 101.714844 253.46875 102.589844 253.46875 102.589844 C 253.46875 102.589844 249.652344 98.015625 251.277344 96.820312 C 252.964844 95.695312 254.714844 101.082031 254.714844 101.082031 C 254.714844 101.082031 254.460938 94.375 256.402344 95.003906 C 258.277344 95.628906 256.339844 100.457031 256.339844 100.457031 C 256.339844 100.457031 259.339844 96.449219 260.84375 97.890625 C 262.40625 99.269531 259.09375 101.898438 258.652344 102.089844 C 258.214844 102.214844 258.089844 102.277344 258.089844 102.277344 C 258.089844 102.277344 262.726562 103.097656 262.039062 105.101562 Z M 262.039062 105.101562 " fill-opacity="1" fill-rule="evenodd"/></g><path fill="#000000" d="M 150.183594 254.097656 C 150.929688 255.285156 150.308594 258.863281 150.308594 258.863281 C 150.308594 258.863281 140.238281 259.992188 139.867188 259.425781 C 139.496094 258.863281 145.117188 254.789062 145.117188 254.789062 Z M 153.246094 253.976562 C 152.496094 255.230469 153.121094 258.800781 153.121094 258.800781 C 153.121094 258.800781 163.25 259.929688 163.5625 259.367188 C 163.9375 258.800781 158.3125 254.726562 158.3125 254.726562 Z M 153.246094 253.976562 " fill-opacity="1" fill-rule="evenodd"/><path fill="#000000" d="M 185.253906 141.136719 C 185.238281 144.953125 182.195312 147.949219 178.378906 147.902344 C 174.652344 147.855469 171.691406 144.824219 171.703125 141.078125 C 171.71875 137.359375 174.726562 134.324219 178.4375 134.285156 C 182.203125 134.238281 185.265625 137.320312 185.253906 141.136719 Z M 123.714844 134.347656 C 119.976562 134.34375 116.960938 137.3125 116.914062 141.046875 C 116.871094 144.84375 119.898438 147.914062 123.695312 147.917969 C 127.445312 147.925781 130.441406 144.96875 130.476562 141.222656 C 130.507812 137.390625 127.523438 134.351562 123.714844 134.347656 Z M 144.488281 170.886719 C 147.992188 167.460938 154.015625 166.707031 157.265625 171.429688 C 157.640625 171.972656 157.949219 172.777344 158.882812 172.640625 C 160.628906 170.472656 161.804688 168.042969 162.171875 165.261719 C 162.398438 163.542969 162.296875 163.371094 160.671875 163.171875 C 154.046875 162.347656 147.40625 162.519531 140.773438 163.082031 C 138.859375 163.246094 138.84375 163.394531 139.257812 165.371094 C 139.789062 167.890625 141.042969 170.089844 142.222656 172.324219 C 143.5625 172.765625 143.871094 171.492188 144.488281 170.886719 Z M 144.488281 170.886719 " fill-opacity="1" fill-rule="evenodd"/><path fill="#ffffff" d="M 180.570312 137.214844 C 181.683594 137.203125 182.53125 138.0625 182.5 139.167969 C 182.472656 140.183594 181.625 141.019531 180.609375 141.027344 C 179.542969 141.042969 178.644531 140.128906 178.675781 139.054688 C 178.707031 138.015625 179.523438 137.222656 180.570312 137.214844 Z M 125.804688 137.125 C 124.785156 137.125 123.9375 137.945312 123.894531 138.96875 C 123.859375 140.015625 124.777344 140.980469 125.816406 140.972656 C 126.816406 140.96875 127.675781 140.121094 127.710938 139.105469 C 127.746094 137.992188 126.917969 137.125 125.804688 137.125 Z M 125.804688 137.125 " fill-opacity="1" fill-rule="evenodd"/><path fill="#ffc709" d="M 117.101562 157.324219 C 120.171875 156.71875 122.988281 157.980469 123.445312 160.148438 C 123.894531 162.269531 121.785156 164.542969 118.714844 165.195312 C 115.644531 165.800781 112.828125 164.539062 112.371094 162.421875 C 111.921875 160.253906 114.03125 157.980469 117.101562 157.324219 Z M 182.390625 157.300781 C 179.324219 157.957031 177.207031 160.230469 177.664062 162.398438 C 178.113281 164.519531 180.9375 165.777344 184.003906 165.171875 C 187.074219 164.515625 189.191406 162.242188 188.734375 160.125 C 188.28125 157.957031 185.460938 156.695312 182.390625 157.300781 Z M 182.390625 157.300781 " fill-opacity="1" fill-rule="evenodd"/><path fill="#ef4323" d="M 142.234375 172.320312 C 143.316406 172.070312 143.636719 171 144.351562 170.347656 C 146.683594 168.214844 149.359375 167.222656 152.515625 167.679688 C 154.222656 167.925781 155.628906 168.753906 156.75 170.042969 C 157.484375 170.886719 158.171875 171.769531 158.882812 172.636719 C 157.226562 175.257812 154.984375 176.855469 151.761719 176.75 C 150.511719 176.707031 149.261719 176.84375 148.015625 176.628906 C 145.359375 176.175781 143.523438 174.628906 142.234375 172.320312 Z M 142.234375 172.320312 " fill-opacity="1" fill-rule="evenodd"/><g clip-path="url(#d48ab8744f)"><path fill="#000000" d="M 132.605469 40.558594 C 133.769531 40.457031 134.988281 40.898438 135.699219 41.691406 C 136.265625 42.324219 136.722656 43.066406 137.113281 43.78125 C 140.910156 50.683594 144.460938 57.808594 147.703125 64.996094 C 148.046875 65.757812 148.289062 66.5625 148.222656 67.414062 C 148.136719 68.558594 146.941406 69.164062 145.828125 69.351562 C 145.191406 69.457031 144.574219 69.328125 144.003906 69.03125 C 143.480469 68.761719 143.058594 68.164062 142.742188 67.691406 C 142.496094 67.320312 142.28125 66.933594 142.074219 66.542969 C 141.878906 66.167969 141.660156 65.8125 141.460938 65.4375 C 141.308594 65.152344 141.15625 64.875 141.015625 64.585938 C 140.894531 64.34375 140.789062 64.082031 140.558594 63.910156 C 140.375 63.769531 140.132812 63.703125 139.890625 63.683594 C 139.445312 63.652344 138.96875 63.722656 138.523438 63.753906 C 138.0625 63.789062 137.601562 63.824219 137.140625 63.863281 C 136.261719 63.9375 135.378906 64.015625 134.5 64.105469 C 132.898438 64.261719 131.300781 64.433594 129.695312 64.601562 C 129.054688 64.667969 128.515625 65.097656 128.335938 65.683594 C 127.984375 66.835938 127.644531 67.996094 127.183594 69.105469 C 126.339844 71.148438 124.625 71.601562 122.714844 70.730469 C 121.667969 70.25 121.535156 69.238281 121.726562 68.257812 C 122.023438 66.703125 122.429688 65.15625 122.851562 63.621094 C 124.667969 56.9375 126.785156 50.3125 129.160156 43.855469 C 129.515625 42.894531 129.933594 41.867188 130.847656 41.195312 C 131.355469 40.820312 131.972656 40.613281 132.605469 40.558594 Z M 137.65625 57.359375 C 136.589844 55.460938 135.496094 53.585938 134.359375 51.691406 C 134.035156 51.148438 133.125 51.226562 132.890625 51.8125 C 132.082031 53.863281 131.3125 55.894531 130.570312 57.945312 C 130.390625 58.4375 130.820312 58.925781 131.378906 58.871094 C 132.894531 58.722656 135.5 58.507812 137.015625 58.40625 C 137.574219 58.363281 137.914062 57.8125 137.65625 57.359375 Z M 101.441406 57.339844 C 100.484375 56.503906 99.511719 55.679688 98.542969 54.855469 C 96.121094 52.796875 93.714844 50.714844 90.773438 49.148438 C 89.5 48.464844 88.238281 48.660156 86.957031 49.269531 C 84.402344 50.476562 85.730469 53.4375 86.207031 55.101562 C 87.226562 58.601562 88.207031 62.121094 89.308594 65.597656 C 90.40625 69.0625 91.46875 72.535156 92.648438 75.96875 C 92.921875 76.761719 93.453125 77.445312 94.359375 77.707031 C 96.382812 78.285156 98.304688 76.679688 97.984375 74.652344 C 97.847656 73.796875 97.671875 72.945312 97.445312 72.109375 C 97.066406 70.742188 96.695312 69.378906 96.3125 68.011719 C 96.285156 67.914062 96.257812 67.816406 96.230469 67.714844 C 96.023438 66.976562 95.824219 66.238281 95.625 65.503906 C 95.402344 64.683594 95.183594 63.855469 94.960938 63.035156 C 94.75 62.253906 94.539062 61.464844 94.328125 60.683594 C 94.160156 60.058594 93.992188 59.421875 93.816406 58.804688 C 93.71875 58.460938 93.621094 58.117188 93.507812 57.777344 C 93.484375 57.703125 93.582031 57.636719 93.652344 57.679688 C 93.777344 57.753906 93.898438 57.832031 94.015625 57.917969 C 94.253906 58.085938 94.484375 58.261719 94.714844 58.433594 C 95.394531 58.949219 96.058594 59.46875 96.722656 59.992188 C 97.375 60.503906 98.019531 61.023438 98.671875 61.539062 C 99.730469 62.378906 101.105469 63.585938 102.585938 63.753906 C 103.109375 63.816406 103.644531 63.695312 104.085938 63.410156 C 105.4375 62.539062 105.917969 60.617188 106.492188 59.3125 C 107.246094 57.605469 108.027344 55.878906 108.808594 54.191406 C 108.832031 54.140625 108.875 54.074219 108.941406 54.078125 C 109 54.085938 109.027344 54.148438 109.039062 54.207031 C 109.183594 54.914062 109.320312 55.621094 109.46875 56.328125 C 110.292969 60.167969 111.117188 64.011719 111.933594 67.859375 C 112.113281 68.6875 112.261719 69.527344 112.46875 70.351562 C 112.664062 71.121094 112.996094 71.84375 113.660156 72.339844 C 115.394531 73.628906 118.140625 72.277344 118.050781 70.152344 C 118.007812 69.152344 117.851562 68.160156 117.683594 67.175781 C 117.226562 64.5625 116.761719 61.945312 116.292969 59.328125 C 115.652344 55.734375 114.976562 52.121094 114.335938 48.546875 C 114.191406 47.734375 114.03125 46.914062 113.882812 46.101562 C 113.753906 45.402344 113.609375 44.683594 113.125 44.105469 C 112.222656 43.027344 110.042969 43.074219 108.851562 44 C 108.050781 44.625 107.441406 45.640625 106.941406 46.441406 C 106.023438 47.902344 105.457031 49.480469 104.785156 51.015625 C 104.015625 52.777344 103.277344 54.546875 102.554688 56.3125 C 102.382812 56.734375 102.238281 57.207031 102.027344 57.667969 C 102.007812 57.722656 101.925781 57.738281 101.878906 57.707031 C 101.726562 57.578125 101.550781 57.433594 101.441406 57.339844 Z M 202.753906 48.96875 C 202.378906 48.09375 201.996094 47.203125 201.339844 46.4375 C 200.683594 45.671875 199.707031 45.042969 198.636719 44.949219 C 197.644531 44.867188 196.703125 45.253906 196.050781 45.839844 C 194.871094 46.910156 194.710938 48.316406 194.398438 49.726562 C 194.050781 51.285156 193.707031 52.84375 193.359375 54.40625 C 192.292969 59.203125 191.226562 64.007812 190.171875 68.808594 C 189.953125 69.792969 189.738281 70.800781 189.917969 71.796875 C 190.09375 72.796875 190.746094 73.789062 191.738281 74.082031 C 192.820312 74.402344 194 73.816406 194.675781 72.953125 C 195.351562 72.089844 195.632812 71 195.898438 69.945312 C 197.109375 65.066406 197.71875 62.621094 198.9375 57.738281 C 199.046875 57.316406 199.714844 57.304688 199.886719 57.726562 C 202.15625 63.195312 204.203125 68.753906 206.003906 74.394531 C 206.339844 75.445312 206.675781 76.515625 207.371094 77.386719 C 208.0625 78.261719 209.203125 78.894531 210.296875 78.683594 C 211.789062 78.398438 212.503906 76.804688 212.988281 75.410156 C 214.628906 70.652344 216.273438 65.890625 217.914062 61.128906 C 218.609375 59.101562 219.3125 57.074219 219.890625 55.007812 C 220.136719 54.132812 220.359375 53.21875 220.1875 52.289062 C 220.015625 51.355469 219.359375 50.386719 218.335938 49.996094 C 217.160156 49.542969 215.839844 49.976562 215.078125 50.742188 C 214.3125 51.503906 213.984375 52.53125 213.667969 53.523438 C 212.15625 58.292969 211.402344 60.675781 209.894531 65.445312 C 209.761719 65.867188 209.105469 65.839844 208.960938 65.40625 C 207.113281 59.847656 205.039062 54.363281 202.753906 48.96875 Z M 234.996094 79.042969 C 234.394531 79.683594 234 80.371094 233.167969 80.796875 C 232.433594 81.175781 231.582031 81.289062 230.730469 81.226562 C 229.585938 81.136719 228.511719 80.863281 227.539062 80.179688 C 226.332031 79.332031 225.492188 78.359375 225.074219 77 C 224.6875 75.742188 224.574219 74.417969 224.765625 73.15625 C 225.0625 71.171875 225.515625 69.296875 226.550781 67.5625 C 227.609375 65.78125 229.085938 64.082031 231.246094 63.324219 C 232.785156 62.789062 234.636719 62.769531 236.289062 63.4375 C 238.449219 64.308594 239.566406 66.042969 239.777344 68.007812 C 239.9375 69.519531 239.902344 71.640625 241.808594 72.4375 C 242.707031 72.8125 243.761719 72.6875 244.445312 72.171875 C 245.089844 71.679688 245.558594 70.761719 245.839844 70.03125 C 246.15625 69.210938 246.285156 68.308594 246.234375 67.402344 C 246.144531 65.597656 245.351562 63.703125 243.9375 62.207031 C 242.101562 60.261719 239.816406 58.894531 237.269531 57.929688 C 237.058594 57.851562 236.851562 57.777344 236.636719 57.703125 C 232.683594 56.367188 228.386719 56.816406 225.554688 59.015625 C 222.398438 61.46875 219.820312 66.230469 218.992188 70.066406 C 218.558594 72.066406 218.371094 74.269531 218.707031 76.382812 C 219.367188 80.503906 222.144531 83.734375 226 85.582031 C 228.074219 86.574219 230.359375 87.0625 232.65625 87.078125 C 236.222656 87.097656 238.714844 84.296875 240.214844 81.550781 C 240.738281 80.585938 241.367188 79.5625 241.683594 78.503906 C 241.917969 77.714844 241.867188 76.734375 241.167969 76.058594 C 240.816406 75.722656 240.378906 75.480469 239.949219 75.242188 C 238.71875 74.570312 237.480469 73.917969 236.1875 73.386719 C 235.113281 72.945312 233.679688 72.265625 232.578125 72.652344 C 231.429688 73.054688 230.925781 74.339844 231.539062 75.421875 C 231.980469 76.199219 232.875 76.808594 233.640625 77.292969 C 234.09375 77.578125 234.765625 77.6875 235.125 78.078125 C 235.191406 78.148438 235.242188 78.226562 235.269531 78.316406 C 235.269531 78.320312 235.269531 78.320312 235.273438 78.324219 C 235.339844 78.585938 235.175781 78.847656 234.996094 79.042969 Z M 66 57.023438 C 67.09375 56.554688 68.410156 56.582031 69.34375 57.109375 C 70.089844 57.53125 70.757812 58.09375 71.355469 58.644531 C 77.152344 63.996094 82.785156 69.648438 88.128906 75.457031 C 88.695312 76.078125 89.179688 76.757812 89.378906 77.59375 C 89.644531 78.707031 88.683594 79.660156 87.671875 80.191406 C 87.089844 80.492188 86.453125 80.5625 85.816406 80.464844 C 85.226562 80.371094 84.636719 79.941406 84.179688 79.589844 C 83.828125 79.320312 83.5 79.015625 83.183594 78.710938 C 82.878906 78.417969 82.558594 78.148438 82.25 77.855469 C 82.019531 77.636719 81.78125 77.417969 81.550781 77.1875 C 81.363281 76.996094 81.179688 76.78125 80.902344 76.6875 C 80.679688 76.613281 80.421875 76.628906 80.183594 76.6875 C 79.742188 76.800781 79.304688 77.015625 78.886719 77.1875 C 78.449219 77.363281 78.019531 77.546875 77.585938 77.726562 C 76.757812 78.078125 75.929688 78.4375 75.105469 78.800781 C 73.605469 79.464844 72.113281 80.140625 70.609375 80.816406 C 70.007812 81.085938 69.617188 81.667969 69.628906 82.285156 C 69.640625 83.496094 69.671875 84.707031 69.566406 85.910156 C 69.378906 88.128906 67.855469 89.113281 65.730469 88.898438 C 64.5625 88.785156 64.121094 87.863281 64.003906 86.871094 C 63.816406 85.292969 63.734375 83.691406 63.671875 82.09375 C 63.375 75.144531 63.378906 68.160156 63.683594 61.261719 C 63.730469 60.230469 63.820312 59.125 64.5 58.191406 C 64.875 57.667969 65.40625 57.273438 66 57.023438 Z M 76.078125 71.382812 C 74.457031 69.921875 72.824219 68.488281 71.140625 67.050781 C 70.65625 66.636719 69.796875 67 69.753906 67.636719 C 69.609375 69.847656 69.492188 72.019531 69.402344 74.210938 C 69.378906 74.738281 69.945312 75.066406 70.46875 74.832031 C 71.886719 74.207031 74.34375 73.167969 75.777344 72.585938 C 76.3125 72.367188 76.46875 71.730469 76.078125 71.382812 Z M 159.835938 63.867188 C 160.511719 63.035156 161.191406 62.210938 161.878906 61.386719 C 165.046875 57.582031 168.453125 53.851562 171.941406 50.34375 C 172.84375 49.441406 173.75 48.527344 174.671875 47.625 C 175.421875 46.894531 176.359375 46.171875 176.894531 45.296875 C 177.316406 44.609375 177.46875 43.738281 177.039062 43.023438 C 176.308594 41.792969 174.085938 41.496094 172.652344 41.253906 C 170.007812 40.804688 167.277344 40.734375 164.597656 40.609375 C 161.839844 40.480469 159.0625 40.417969 156.320312 40.417969 C 155.199219 40.417969 154.070312 40.265625 153.074219 40.792969 C 152.265625 41.21875 151.722656 41.972656 151.75 42.792969 C 151.777344 43.574219 152.152344 44.339844 152.972656 44.742188 C 153.96875 45.226562 155.566406 45.234375 156.6875 45.324219 C 157.828125 45.410156 158.976562 45.375 160.109375 45.464844 C 162.539062 45.652344 164.980469 45.761719 167.402344 45.980469 C 167.453125 45.984375 167.511719 45.988281 167.5625 46 C 167.722656 46.023438 167.804688 46.191406 167.699219 46.296875 C 165.460938 48.667969 163.292969 51.085938 161.195312 53.496094 C 158.007812 57.167969 154.855469 61.0625 152.089844 65.078125 C 151.636719 65.730469 151.445312 66.621094 151.726562 67.371094 C 152.015625 68.140625 152.785156 68.539062 153.566406 68.71875 C 154.175781 68.859375 154.808594 68.875 155.433594 68.894531 C 159.320312 69 163.203125 69.21875 167.074219 69.582031 C 168.457031 69.714844 169.847656 69.859375 171.246094 69.84375 C 172.304688 69.835938 173.472656 69.679688 173.871094 68.5625 C 174.285156 67.40625 173.972656 66.355469 172.796875 65.835938 C 171.917969 65.441406 170.921875 65.238281 169.957031 65.125 C 166.648438 64.730469 163.324219 64.496094 160.003906 64.3125 C 159.957031 64.308594 159.910156 64.308594 159.863281 64.304688 C 159.710938 64.289062 159.632812 64.128906 159.71875 64.011719 C 159.761719 63.960938 159.800781 63.914062 159.835938 63.867188 Z M 185.097656 67.8125 C 186.132812 63.082031 187.039062 58.269531 187.921875 53.546875 C 188.332031 51.371094 188.777344 49.167969 189.210938 46.984375 C 189.46875 45.652344 189.671875 44.097656 188.257812 43.144531 C 187.371094 42.550781 186.175781 42.464844 185.210938 42.855469 C 183.132812 43.699219 182.796875 45.5 182.527344 47.183594 C 182.234375 49.023438 181.945312 50.871094 181.652344 52.714844 C 180.886719 57.539062 180.113281 62.382812 179.375 67.199219 C 179.167969 68.519531 179.007812 70.011719 179.886719 71.070312 C 180.695312 72.042969 182.140625 72.292969 183.222656 71.640625 C 184.0625 71.136719 184.484375 70.210938 184.753906 69.265625 C 184.898438 68.773438 184.996094 68.261719 185.097656 67.8125 Z M 185.097656 67.8125 " fill-opacity="1" fill-rule="nonzero"/></g></svg>