<svg xmlns="http://www.w3.org/2000/svg" xmlns:xlink="http://www.w3.org/1999/xlink" width="400" zoomAndPan="magnify" viewBox="0 0 300 299.999988" height="400" preserveAspectRatio="xMidYMid meet" version="1.0"><defs><clipPath id="0ef115e90f"><path d="M 37.238281 45.03125 L 262.988281 45.03125 L 262.988281 255.03125 L 37.238281 255.03125 Z M 37.238281 45.03125 " clip-rule="nonzero"/></clipPath></defs><rect x="-30" width="360" fill="#ffffff" y="-29.999999" height="359.999986" fill-opacity="1"/><rect x="-30" width="360" fill="#ffffff" y="-29.999999" height="359.999986" fill-opacity="1"/><g clip-path="url(#0ef115e90f)"><path fill="#57cbf5" d="M 37.507812 137.257812 L 87.246094 105.9375 L 74.359375 52.410156 L 132.882812 85.628906 L 176.191406 45.03125 L 196.332031 99.46875 L 259.070312 97.027344 L 228.496094 145.042969 L 262.738281 185.171875 L 217.851562 196.777344 L 210.945312 244.867188 L 148.558594 211.820312 L 96.503906 255.015625 L 94.179688 208.257812 L 40.914062 208.449219 L 89.203125 159.835938 Z M 37.507812 137.257812 " fill-opacity="1" fill-rule="nonzero"/></g><path fill="#f7b3d0" d="M 225 176.195312 C 225 176.1875 225 176.1875 225.003906 176.183594 C 225.136719 175.84375 225.261719 175.507812 225.378906 175.183594 C 226.664062 171.609375 227.058594 168.773438 226.605469 166.390625 C 226.023438 163.324219 224.015625 161.066406 220.5 159.507812 C 220.449219 158.703125 220.300781 158.03125 220.03125 157.515625 C 219.574219 156.636719 218.742188 155.964844 217.800781 155.710938 C 217.171875 155.539062 216.523438 155.578125 215.933594 155.804688 C 215.929688 155.796875 215.925781 155.78125 215.921875 155.769531 C 215.921875 155.765625 215.914062 155.765625 215.914062 155.761719 C 215.855469 155.648438 215.78125 155.539062 215.710938 155.429688 C 215 154.378906 213.765625 153.753906 212.574219 153.878906 C 211.78125 153.964844 210.390625 154.46875 209.574219 156.714844 C 209.484375 156.730469 209.398438 156.753906 209.324219 156.8125 C 209.117188 156.984375 209.089844 157.296875 209.261719 157.507812 C 209.28125 157.527344 210.808594 159.71875 208.019531 167.472656 C 208.015625 167.492188 208.007812 167.503906 208 167.523438 C 207.941406 167.691406 207.878906 167.867188 207.808594 168.042969 C 207.773438 168.136719 207.738281 168.226562 207.703125 168.320312 C 207.652344 168.46875 207.589844 168.613281 207.53125 168.765625 C 207.476562 168.902344 207.421875 169.039062 207.363281 169.183594 C 207.316406 169.308594 207.265625 169.429688 207.214844 169.554688 C 207.128906 169.777344 207.035156 170 206.933594 170.226562 C 206.910156 170.28125 206.890625 170.328125 206.867188 170.386719 C 206.839844 170.441406 206.816406 170.496094 206.796875 170.550781 C 206.703125 170.773438 206.601562 170.996094 206.507812 171.210938 C 206.457031 171.332031 206.40625 171.445312 206.351562 171.5625 C 206.289062 171.710938 206.21875 171.859375 206.152344 171.996094 C 206.09375 172.125 206.035156 172.253906 205.976562 172.382812 C 205.921875 172.496094 205.867188 172.609375 205.8125 172.722656 C 205.742188 172.863281 205.679688 173 205.617188 173.136719 C 205.582031 173.210938 205.542969 173.285156 205.507812 173.359375 C 204.390625 175.613281 203.367188 177.210938 202.484375 178.335938 C 202.480469 178.339844 202.472656 178.347656 202.472656 178.351562 C 202.078125 178.855469 201.71875 179.265625 201.382812 179.601562 C 201.375 179.605469 201.371094 179.609375 201.371094 179.609375 C 201.046875 179.941406 200.75 180.191406 200.492188 180.390625 C 200.484375 180.394531 200.476562 180.40625 200.46875 180.410156 C 200.382812 180.472656 200.304688 180.527344 200.230469 180.582031 C 200.152344 180.636719 200.078125 180.679688 200.007812 180.726562 C 200.003906 180.726562 200.003906 180.730469 200 180.730469 C 199.9375 180.765625 199.878906 180.800781 199.824219 180.828125 C 199.816406 180.835938 199.800781 180.84375 199.792969 180.847656 C 199.742188 180.875 199.699219 180.898438 199.65625 180.917969 C 199.652344 180.921875 199.644531 180.921875 199.636719 180.929688 C 199.59375 180.949219 199.550781 180.96875 199.507812 180.980469 C 199.5 180.988281 199.488281 180.988281 199.480469 180.992188 C 199.457031 181.003906 199.429688 181.011719 199.40625 181.015625 C 199.394531 181.023438 199.386719 181.023438 199.375 181.027344 C 199.355469 181.03125 199.339844 181.035156 199.328125 181.042969 C 199.320312 181.042969 199.316406 181.046875 199.3125 181.046875 C 199.292969 181.050781 199.28125 181.054688 199.273438 181.054688 C 199.265625 181.054688 199.261719 181.054688 199.257812 181.054688 C 198.992188 181.082031 198.792969 181.316406 198.8125 181.585938 C 198.816406 181.679688 198.859375 181.757812 198.910156 181.832031 C 197.871094 183.972656 198.46875 185.316406 198.957031 185.949219 C 198.957031 185.949219 198.960938 185.953125 198.960938 185.953125 C 199.574219 186.742188 200.585938 187.1875 201.628906 187.1875 C 201.835938 187.1875 202.039062 187.164062 202.246094 187.128906 C 202.378906 187.105469 202.511719 187.078125 202.640625 187.039062 C 202.648438 187.039062 202.648438 187.039062 202.652344 187.039062 C 202.660156 187.035156 202.675781 187.03125 202.6875 187.03125 C 202.933594 187.613281 203.351562 188.101562 203.917969 188.4375 C 204.460938 188.761719 205.097656 188.929688 205.738281 188.929688 C 206.085938 188.929688 206.429688 188.878906 206.761719 188.78125 C 206.910156 188.738281 207.0625 188.679688 207.222656 188.605469 C 207.636719 188.40625 208.070312 188.121094 208.515625 187.734375 C 208.515625 187.734375 208.519531 187.734375 208.519531 187.742188 C 210.148438 188.398438 211.667969 188.734375 213.078125 188.734375 C 213.898438 188.734375 214.683594 188.617188 215.441406 188.398438 C 216.230469 188.164062 216.988281 187.816406 217.714844 187.335938 C 220.148438 185.742188 222.203125 182.828125 224.175781 178.183594 L 224.507812 177.398438 C 224.660156 177.03125 224.800781 176.675781 224.945312 176.328125 C 224.945312 176.328125 224.945312 176.320312 224.949219 176.320312 C 224.96875 176.277344 224.984375 176.234375 225 176.195312 Z M 225 176.195312 " fill-opacity="1" fill-rule="nonzero"/><path fill="#3858a7" d="M 226.546875 166.136719 C 226.523438 166.035156 226.5 165.925781 226.476562 165.820312 C 226.453125 165.71875 226.417969 165.621094 226.386719 165.515625 C 226.363281 165.433594 226.34375 165.347656 226.3125 165.269531 C 226.28125 165.15625 226.234375 165.046875 226.191406 164.9375 C 226.164062 164.875 226.140625 164.804688 226.117188 164.734375 C 226.066406 164.617188 226.011719 164.503906 225.964844 164.390625 C 225.9375 164.335938 225.914062 164.28125 225.890625 164.226562 C 225.828125 164.105469 225.765625 163.992188 225.703125 163.871094 C 225.675781 163.828125 225.652344 163.785156 225.628906 163.738281 C 225.558594 163.617188 225.480469 163.496094 225.398438 163.375 C 225.375 163.339844 225.355469 163.300781 225.332031 163.265625 C 225.246094 163.140625 225.15625 163.019531 225.0625 162.898438 C 225.042969 162.871094 225.023438 162.839844 225 162.816406 C 224.902344 162.691406 224.796875 162.570312 224.695312 162.445312 C 224.675781 162.425781 224.652344 162.402344 224.632812 162.375 C 224.519531 162.253906 224.40625 162.128906 224.285156 162.007812 C 224.269531 161.992188 224.253906 161.972656 224.234375 161.957031 C 224.109375 161.832031 223.976562 161.710938 223.84375 161.589844 C 223.828125 161.582031 223.820312 161.566406 223.804688 161.558594 C 223.667969 161.433594 223.519531 161.316406 223.371094 161.203125 C 223.359375 161.191406 223.351562 161.1875 223.339844 161.175781 C 223.1875 161.058594 223.027344 160.941406 222.859375 160.828125 C 222.855469 160.820312 222.847656 160.816406 222.839844 160.8125 C 222.671875 160.699219 222.5 160.585938 222.324219 160.472656 C 222.316406 160.464844 222.3125 160.464844 222.308594 160.460938 C 222.125 160.347656 221.941406 160.238281 221.75 160.136719 C 221.746094 160.136719 221.746094 160.128906 221.738281 160.128906 C 221.546875 160.023438 221.347656 159.917969 221.140625 159.820312 C 221.136719 159.820312 221.136719 159.8125 221.132812 159.8125 C 220.929688 159.710938 220.71875 159.613281 220.5 159.519531 C 220.5 159.519531 220.496094 159.519531 220.496094 159.511719 C 220.484375 159.324219 220.464844 159.152344 220.445312 158.980469 C 220.441406 158.945312 220.433594 158.914062 220.429688 158.882812 C 220.410156 158.734375 220.386719 158.59375 220.351562 158.457031 C 220.335938 158.386719 220.316406 158.320312 220.296875 158.253906 C 220.273438 158.15625 220.246094 158.058594 220.214844 157.96875 C 220.160156 157.816406 220.097656 157.667969 220.03125 157.535156 C 220.027344 157.527344 220.027344 157.519531 220.019531 157.515625 C 219.847656 157.183594 219.625 156.886719 219.363281 156.625 C 219.355469 156.617188 219.339844 156.601562 219.324219 156.589844 C 219.25 156.515625 219.171875 156.449219 219.085938 156.378906 C 219.058594 156.355469 219.023438 156.335938 218.988281 156.308594 C 218.925781 156.261719 218.855469 156.210938 218.785156 156.160156 C 218.769531 156.152344 218.761719 156.148438 218.746094 156.136719 C 218.449219 155.949219 218.128906 155.800781 217.789062 155.707031 C 217.648438 155.667969 217.507812 155.648438 217.367188 155.628906 C 217.332031 155.625 217.292969 155.617188 217.257812 155.617188 C 217.121094 155.605469 216.984375 155.597656 216.84375 155.609375 C 216.835938 155.609375 216.824219 155.609375 216.820312 155.613281 C 216.679688 155.625 216.546875 155.644531 216.414062 155.667969 C 216.390625 155.671875 216.371094 155.675781 216.34375 155.683594 C 216.203125 155.71875 216.058594 155.757812 215.921875 155.8125 C 215.914062 155.800781 215.910156 155.785156 215.90625 155.777344 C 215.800781 155.574219 215.667969 155.390625 215.53125 155.214844 C 214.914062 154.433594 213.992188 153.929688 213.050781 153.871094 C 212.984375 153.867188 212.917969 153.875 212.851562 153.875 C 212.753906 153.875 212.65625 153.871094 212.554688 153.878906 C 212.550781 153.878906 212.546875 153.878906 212.546875 153.878906 C 212.496094 153.886719 212.449219 153.890625 212.398438 153.902344 C 212.375 153.90625 212.355469 153.910156 212.328125 153.914062 C 212.292969 153.921875 212.261719 153.929688 212.226562 153.933594 C 212.195312 153.941406 212.164062 153.949219 212.136719 153.960938 C 212.105469 153.96875 212.078125 153.972656 212.046875 153.984375 C 212.011719 153.996094 211.976562 154.007812 211.9375 154.019531 C 211.914062 154.027344 211.882812 154.039062 211.855469 154.046875 C 211.816406 154.0625 211.777344 154.078125 211.734375 154.097656 C 211.710938 154.109375 211.6875 154.117188 211.660156 154.132812 C 211.617188 154.152344 211.574219 154.171875 211.527344 154.195312 C 211.507812 154.207031 211.488281 154.214844 211.46875 154.226562 C 211.421875 154.253906 211.367188 154.28125 211.316406 154.316406 C 211.304688 154.320312 211.300781 154.324219 211.292969 154.328125 C 211.035156 154.488281 210.777344 154.703125 210.527344 154.992188 C 210.519531 154.996094 210.515625 155 210.511719 155.007812 C 210.457031 155.070312 210.398438 155.144531 210.34375 155.214844 C 210.332031 155.226562 210.324219 155.242188 210.3125 155.253906 C 210.257812 155.320312 210.210938 155.402344 210.15625 155.480469 C 210.144531 155.5 210.128906 155.519531 210.121094 155.539062 C 210.070312 155.617188 210.023438 155.703125 209.972656 155.792969 C 209.960938 155.8125 209.949219 155.835938 209.9375 155.855469 C 209.886719 155.945312 209.839844 156.039062 209.792969 156.136719 C 209.785156 156.15625 209.78125 156.171875 209.769531 156.191406 C 209.71875 156.292969 209.671875 156.40625 209.625 156.523438 C 207.523438 154.632812 199.765625 149.171875 189.613281 142.375 C 189.570312 142.34375 189.53125 142.3125 189.488281 142.289062 C 189.0625 142.007812 188.636719 141.722656 188.203125 141.429688 C 188.109375 141.367188 188.015625 141.308594 187.921875 141.242188 C 187.539062 140.992188 187.15625 140.734375 186.769531 140.476562 C 186.617188 140.375 186.464844 140.269531 186.304688 140.167969 C 185.949219 139.929688 185.582031 139.6875 185.222656 139.453125 C 185.039062 139.328125 184.859375 139.210938 184.675781 139.085938 C 184.347656 138.867188 184.011719 138.652344 183.683594 138.429688 C 183.449219 138.277344 183.222656 138.125 182.992188 137.96875 C 182.695312 137.777344 182.398438 137.582031 182.101562 137.382812 C 181.828125 137.203125 181.5625 137.027344 181.285156 136.851562 C 181.015625 136.671875 180.742188 136.496094 180.464844 136.3125 C 180.164062 136.113281 179.863281 135.917969 179.558594 135.714844 C 179.296875 135.542969 179.027344 135.367188 178.761719 135.195312 C 178.449219 134.992188 178.132812 134.785156 177.824219 134.582031 C 177.566406 134.414062 177.308594 134.25 177.050781 134.082031 C 176.722656 133.863281 176.390625 133.652344 176.054688 133.433594 C 175.808594 133.277344 175.566406 133.113281 175.320312 132.953125 C 174.972656 132.734375 174.625 132.503906 174.28125 132.285156 C 174.042969 132.128906 173.800781 131.972656 173.558594 131.820312 C 173.199219 131.585938 172.84375 131.355469 172.484375 131.125 C 172.25 130.976562 172.023438 130.828125 171.792969 130.679688 C 171.425781 130.441406 171.054688 130.203125 170.691406 129.96875 C 170.460938 129.820312 170.230469 129.671875 170 129.523438 C 169.628906 129.285156 169.253906 129.046875 168.882812 128.808594 C 168.65625 128.664062 168.425781 128.515625 168.199219 128.375 C 167.820312 128.132812 167.4375 127.886719 167.058594 127.644531 C 166.839844 127.503906 166.628906 127.367188 166.410156 127.226562 C 166.019531 126.980469 165.636719 126.734375 165.246094 126.488281 C 165.027344 126.351562 164.804688 126.210938 164.589844 126.074219 C 164.207031 125.832031 163.824219 125.589844 163.441406 125.347656 C 163.21875 125.203125 162.992188 125.066406 162.769531 124.921875 C 162.386719 124.679688 162 124.433594 161.613281 124.191406 C 161.402344 124.058594 161.195312 123.925781 160.984375 123.796875 C 160.59375 123.550781 160.195312 123.304688 159.808594 123.0625 C 159.589844 122.929688 159.378906 122.789062 159.164062 122.65625 C 158.785156 122.421875 158.398438 122.179688 158.019531 121.941406 C 157.796875 121.804688 157.578125 121.664062 157.355469 121.527344 C 156.980469 121.292969 156.605469 121.058594 156.234375 120.824219 C 156.011719 120.6875 155.789062 120.550781 155.566406 120.410156 C 155.199219 120.179688 154.828125 119.953125 154.457031 119.726562 C 154.238281 119.589844 154.023438 119.457031 153.804688 119.320312 C 153.429688 119.089844 153.054688 118.855469 152.683594 118.628906 C 152.472656 118.5 152.261719 118.371094 152.050781 118.242188 C 151.679688 118.015625 151.308594 117.789062 150.941406 117.5625 C 150.726562 117.433594 150.515625 117.300781 150.300781 117.171875 C 149.941406 116.957031 149.585938 116.738281 149.230469 116.519531 C 149.011719 116.386719 148.789062 116.253906 148.574219 116.121094 C 148.222656 115.910156 147.875 115.703125 147.53125 115.488281 C 147.3125 115.355469 147.089844 115.226562 146.875 115.09375 C 146.53125 114.890625 146.195312 114.691406 145.859375 114.488281 C 145.640625 114.355469 145.421875 114.21875 145.199219 114.09375 C 144.867188 113.894531 144.539062 113.699219 144.210938 113.5 C 143.992188 113.371094 143.773438 113.238281 143.554688 113.109375 C 143.238281 112.921875 142.921875 112.734375 142.609375 112.550781 C 142.386719 112.417969 142.160156 112.285156 141.9375 112.15625 C 141.628906 111.972656 141.320312 111.796875 141.015625 111.613281 C 140.800781 111.492188 140.585938 111.363281 140.371094 111.238281 C 140.066406 111.0625 139.765625 110.886719 139.464844 110.710938 C 139.25 110.585938 139.039062 110.464844 138.828125 110.339844 C 138.535156 110.171875 138.242188 110.003906 137.957031 109.84375 C 137.746094 109.71875 137.539062 109.601562 137.324219 109.480469 C 137.046875 109.324219 136.773438 109.164062 136.5 109.011719 C 136.289062 108.894531 136.074219 108.769531 135.867188 108.652344 C 135.601562 108.5 135.335938 108.351562 135.070312 108.203125 C 134.863281 108.089844 134.65625 107.972656 134.453125 107.855469 C 134.199219 107.714844 133.945312 107.574219 133.695312 107.4375 C 133.492188 107.324219 133.289062 107.210938 133.085938 107.101562 C 132.839844 106.964844 132.597656 106.835938 132.355469 106.703125 C 132.15625 106.59375 131.964844 106.488281 131.773438 106.386719 C 131.535156 106.257812 131.308594 106.140625 131.082031 106.015625 C 130.886719 105.914062 130.695312 105.808594 130.507812 105.710938 C 130.285156 105.589844 130.074219 105.484375 129.859375 105.371094 C 129.671875 105.269531 129.484375 105.171875 129.300781 105.078125 C 129.09375 104.96875 128.890625 104.867188 128.691406 104.761719 C 128.511719 104.667969 128.324219 104.574219 128.152344 104.484375 C 127.957031 104.386719 127.769531 104.292969 127.582031 104.199219 C 127.40625 104.109375 127.226562 104.023438 127.058594 103.9375 C 126.875 103.847656 126.703125 103.765625 126.527344 103.675781 C 126.363281 103.597656 126.195312 103.511719 126.03125 103.4375 C 125.859375 103.355469 125.695312 103.28125 125.527344 103.203125 C 125.375 103.128906 125.21875 103.054688 125.070312 102.984375 C 124.902344 102.910156 124.746094 102.84375 124.585938 102.769531 C 124.445312 102.707031 124.304688 102.640625 124.167969 102.585938 C 124.011719 102.515625 123.863281 102.457031 123.710938 102.394531 C 123.585938 102.34375 123.457031 102.285156 123.339844 102.238281 C 123.160156 102.164062 122.992188 102.105469 122.832031 102.042969 C 122.75 102.011719 122.667969 101.976562 122.589844 101.949219 C 121.101562 101.402344 119.667969 101.164062 118.292969 101.171875 C 114.152344 101.207031 110.480469 103.484375 107.113281 106.292969 C 105.613281 107.542969 104.175781 108.894531 102.789062 110.207031 C 99.917969 112.914062 97.210938 115.46875 94.410156 116.847656 C 93.402344 117.34375 92.171875 117.636719 90.988281 117.921875 C 89.308594 118.328125 87.855469 118.679688 87.292969 119.570312 C 87.289062 119.578125 87.28125 119.582031 87.28125 119.585938 C 87.269531 119.609375 87.242188 119.636719 87.226562 119.660156 C 87.21875 119.675781 87.222656 119.691406 87.214844 119.703125 C 87.207031 119.71875 87.199219 119.730469 87.195312 119.746094 C 87.183594 119.773438 87.183594 119.804688 87.179688 119.832031 C 87.179688 119.84375 87.175781 119.847656 87.175781 119.859375 C 86.925781 120.875 87.667969 122.152344 88.542969 123.628906 C 88.546875 123.640625 88.550781 123.644531 88.558594 123.652344 C 88.605469 123.734375 88.652344 123.816406 88.699219 123.894531 C 89.273438 124.875 89.847656 125.871094 90.167969 126.863281 C 90.425781 127.664062 90.613281 128.523438 90.753906 129.421875 C 91.144531 131.859375 91.179688 134.617188 91.21875 137.496094 C 91.285156 142.605469 91.359375 148.164062 93.671875 152.386719 C 94.820312 154.476562 96.515625 156.246094 99.042969 157.464844 C 99.164062 157.523438 99.296875 157.582031 99.425781 157.636719 C 99.542969 157.691406 99.652344 157.746094 99.777344 157.800781 C 99.910156 157.859375 100.058594 157.917969 100.195312 157.976562 C 100.328125 158.039062 100.457031 158.089844 100.601562 158.152344 C 100.738281 158.210938 100.898438 158.269531 101.039062 158.328125 C 101.195312 158.394531 101.347656 158.453125 101.511719 158.515625 C 101.664062 158.574219 101.832031 158.640625 101.988281 158.699219 C 102.160156 158.761719 102.324219 158.828125 102.503906 158.894531 C 102.671875 158.960938 102.855469 159.023438 103.027344 159.089844 C 103.210938 159.152344 103.386719 159.222656 103.574219 159.285156 C 103.757812 159.351562 103.949219 159.417969 104.132812 159.484375 C 104.332031 159.550781 104.523438 159.621094 104.726562 159.691406 C 104.914062 159.753906 105.117188 159.824219 105.3125 159.886719 C 105.527344 159.960938 105.734375 160.03125 105.949219 160.105469 C 106.152344 160.175781 106.367188 160.242188 106.574219 160.3125 C 106.796875 160.386719 107.011719 160.460938 107.246094 160.535156 C 107.460938 160.605469 107.683594 160.679688 107.90625 160.746094 C 108.140625 160.820312 108.371094 160.894531 108.609375 160.96875 C 108.835938 161.039062 109.066406 161.113281 109.300781 161.1875 C 109.546875 161.261719 109.789062 161.339844 110.035156 161.417969 C 110.269531 161.492188 110.511719 161.5625 110.746094 161.636719 C 111.003906 161.714844 111.261719 161.792969 111.523438 161.871094 C 111.765625 161.945312 112.007812 162.015625 112.253906 162.089844 C 112.527344 162.167969 112.796875 162.253906 113.074219 162.332031 C 113.320312 162.40625 113.574219 162.480469 113.824219 162.554688 C 114.105469 162.636719 114.386719 162.71875 114.675781 162.800781 C 114.925781 162.875 115.183594 162.949219 115.4375 163.019531 C 115.738281 163.101562 116.035156 163.191406 116.339844 163.28125 C 116.589844 163.355469 116.855469 163.421875 117.109375 163.496094 C 117.417969 163.585938 117.722656 163.667969 118.039062 163.757812 C 118.3125 163.832031 118.585938 163.910156 118.859375 163.984375 C 119.171875 164.070312 119.476562 164.160156 119.792969 164.242188 C 120.066406 164.316406 120.339844 164.390625 120.613281 164.46875 C 120.9375 164.558594 121.265625 164.648438 121.597656 164.742188 C 121.867188 164.816406 122.144531 164.890625 122.421875 164.964844 C 122.757812 165.050781 123.09375 165.144531 123.433594 165.234375 C 123.710938 165.308594 123.988281 165.382812 124.261719 165.457031 C 124.613281 165.550781 124.960938 165.644531 125.316406 165.738281 C 125.597656 165.8125 125.878906 165.886719 126.160156 165.960938 C 126.511719 166.054688 126.855469 166.144531 127.210938 166.238281 C 127.503906 166.316406 127.800781 166.390625 128.09375 166.46875 C 128.441406 166.5625 128.792969 166.652344 129.148438 166.746094 C 129.445312 166.824219 129.742188 166.898438 130.039062 166.976562 C 130.398438 167.070312 130.757812 167.164062 131.121094 167.257812 C 131.417969 167.332031 131.707031 167.410156 132.003906 167.484375 C 132.375 167.578125 132.75 167.671875 133.121094 167.773438 C 133.414062 167.847656 133.707031 167.921875 134 167.996094 C 134.375 168.089844 134.75 168.183594 135.125 168.28125 C 135.421875 168.355469 135.722656 168.429688 136.019531 168.507812 C 136.402344 168.601562 136.785156 168.699219 137.167969 168.792969 C 137.46875 168.867188 137.769531 168.941406 138.066406 169.015625 C 138.441406 169.109375 138.8125 169.203125 139.1875 169.292969 C 139.507812 169.371094 139.828125 169.449219 140.152344 169.53125 C 140.515625 169.617188 140.882812 169.707031 141.246094 169.800781 C 141.570312 169.878906 141.894531 169.957031 142.214844 170.039062 C 142.582031 170.125 142.941406 170.214844 143.308594 170.304688 C 143.636719 170.382812 143.96875 170.46875 144.300781 170.546875 C 144.664062 170.636719 145.03125 170.722656 145.398438 170.8125 C 145.71875 170.890625 146.042969 170.972656 146.363281 171.046875 C 146.734375 171.132812 147.109375 171.222656 147.480469 171.3125 C 147.808594 171.390625 148.136719 171.46875 148.464844 171.546875 C 148.820312 171.632812 149.175781 171.714844 149.53125 171.800781 C 149.871094 171.878906 150.21875 171.964844 150.558594 172.042969 C 150.910156 172.125 151.265625 172.210938 151.617188 172.292969 C 151.957031 172.371094 152.292969 172.453125 152.632812 172.53125 C 152.984375 172.613281 153.339844 172.695312 153.691406 172.777344 C 154.03125 172.855469 154.371094 172.9375 154.714844 173.015625 C 155.058594 173.09375 155.40625 173.171875 155.746094 173.257812 C 156.09375 173.335938 156.4375 173.414062 156.785156 173.5 C 157.121094 173.578125 157.460938 173.65625 157.796875 173.730469 C 158.148438 173.808594 158.496094 173.894531 158.84375 173.972656 C 159.164062 174.046875 159.480469 174.121094 159.800781 174.191406 C 160.167969 174.273438 160.53125 174.355469 160.894531 174.441406 C 161.191406 174.511719 161.488281 174.574219 161.78125 174.644531 C 162.164062 174.734375 162.546875 174.816406 162.929688 174.90625 C 163.210938 174.96875 163.492188 175.035156 163.769531 175.09375 C 164.148438 175.175781 164.535156 175.265625 164.910156 175.351562 C 165.1875 175.414062 165.464844 175.472656 165.738281 175.539062 C 166.121094 175.621094 166.503906 175.710938 166.882812 175.792969 C 167.152344 175.851562 167.417969 175.914062 167.6875 175.972656 C 168.066406 176.054688 168.445312 176.140625 168.824219 176.222656 C 169.066406 176.277344 169.300781 176.328125 169.539062 176.382812 C 169.953125 176.46875 170.363281 176.5625 170.773438 176.652344 C 170.960938 176.691406 171.148438 176.738281 171.335938 176.777344 C 171.773438 176.871094 172.207031 176.96875 172.636719 177.058594 C 172.824219 177.097656 173 177.136719 173.1875 177.175781 C 173.625 177.269531 174.058594 177.363281 174.488281 177.457031 C 174.636719 177.488281 174.78125 177.523438 174.921875 177.550781 C 175.382812 177.648438 175.835938 177.75 176.292969 177.84375 C 176.410156 177.867188 176.523438 177.890625 176.636719 177.917969 C 177.117188 178.019531 177.589844 178.117188 178.058594 178.21875 C 178.121094 178.234375 178.179688 178.242188 178.238281 178.253906 C 188.464844 180.410156 196.25 181.859375 198.792969 182.039062 C 198.742188 182.148438 198.699219 182.253906 198.660156 182.363281 C 198.648438 182.382812 198.640625 182.410156 198.636719 182.429688 C 198.597656 182.527344 198.566406 182.625 198.535156 182.71875 C 198.527344 182.746094 198.523438 182.769531 198.511719 182.792969 C 198.480469 182.886719 198.457031 182.980469 198.4375 183.070312 C 198.433594 183.09375 198.429688 183.121094 198.421875 183.140625 C 198.402344 183.226562 198.382812 183.316406 198.367188 183.40625 C 198.363281 183.425781 198.363281 183.445312 198.359375 183.460938 C 198.34375 183.550781 198.335938 183.636719 198.324219 183.722656 C 198.324219 183.730469 198.324219 183.742188 198.324219 183.75 C 198.292969 184.121094 198.320312 184.453125 198.378906 184.738281 C 198.382812 184.753906 198.382812 184.769531 198.386719 184.785156 C 198.398438 184.835938 198.414062 184.890625 198.429688 184.941406 C 198.433594 184.964844 198.441406 184.992188 198.449219 185.015625 C 198.460938 185.058594 198.476562 185.105469 198.492188 185.148438 C 198.503906 185.179688 198.511719 185.207031 198.523438 185.234375 C 198.535156 185.273438 198.550781 185.304688 198.566406 185.339844 C 198.582031 185.371094 198.597656 185.398438 198.605469 185.429688 C 198.621094 185.460938 198.636719 185.488281 198.648438 185.519531 C 198.671875 185.554688 198.683594 185.582031 198.703125 185.617188 C 198.71875 185.636719 198.730469 185.660156 198.742188 185.683594 C 198.769531 185.722656 198.792969 185.753906 198.8125 185.796875 C 198.824219 185.804688 198.828125 185.820312 198.835938 185.835938 C 198.871094 185.882812 198.902344 185.929688 198.9375 185.96875 C 199.550781 186.757812 200.5625 187.203125 201.605469 187.203125 C 201.6875 187.203125 201.777344 187.191406 201.859375 187.183594 C 202.117188 187.164062 202.375 187.128906 202.625 187.054688 C 202.636719 187.050781 202.652344 187.042969 202.660156 187.042969 C 202.722656 187.183594 202.789062 187.316406 202.867188 187.445312 C 202.878906 187.457031 202.890625 187.472656 202.898438 187.488281 C 203.058594 187.730469 203.246094 187.953125 203.472656 188.144531 C 203.492188 188.164062 203.515625 188.179688 203.535156 188.199219 C 203.648438 188.289062 203.769531 188.378906 203.894531 188.449219 C 204.441406 188.777344 205.078125 188.945312 205.71875 188.945312 C 206.066406 188.945312 206.410156 188.894531 206.742188 188.796875 C 206.890625 188.753906 207.042969 188.6875 207.203125 188.617188 C 207.285156 188.578125 207.371094 188.53125 207.453125 188.484375 C 207.515625 188.449219 207.582031 188.417969 207.652344 188.378906 C 207.765625 188.308594 207.882812 188.230469 207.996094 188.144531 C 208.027344 188.125 208.054688 188.101562 208.085938 188.082031 C 208.21875 187.980469 208.355469 187.875 208.496094 187.753906 C 208.496094 187.753906 208.5 187.75 208.5 187.75 C 208.503906 187.75 208.503906 187.75 208.511719 187.753906 C 208.707031 187.835938 208.910156 187.914062 209.101562 187.980469 C 209.109375 187.980469 209.113281 187.988281 209.113281 187.988281 C 209.304688 188.054688 209.503906 188.121094 209.691406 188.183594 C 209.699219 188.191406 209.710938 188.191406 209.722656 188.195312 C 209.902344 188.253906 210.089844 188.308594 210.273438 188.355469 C 210.292969 188.363281 210.3125 188.367188 210.332031 188.371094 C 210.507812 188.417969 210.675781 188.460938 210.84375 188.496094 C 210.875 188.503906 210.917969 188.511719 210.949219 188.519531 C 211.105469 188.550781 211.253906 188.585938 211.40625 188.609375 C 211.464844 188.617188 211.523438 188.625 211.578125 188.632812 C 211.707031 188.652344 211.835938 188.671875 211.957031 188.6875 C 212.050781 188.699219 212.140625 188.703125 212.234375 188.710938 C 212.328125 188.722656 212.421875 188.734375 212.511719 188.738281 C 212.695312 188.746094 212.878906 188.753906 213.058594 188.753906 C 213.070312 188.753906 213.085938 188.753906 213.09375 188.753906 C 213.90625 188.746094 214.679688 188.640625 215.421875 188.417969 C 216.207031 188.183594 216.960938 187.835938 217.683594 187.359375 C 220.121094 185.765625 222.175781 182.851562 224.144531 178.207031 L 224.476562 177.429688 C 224.800781 176.65625 225.089844 175.921875 225.347656 175.214844 C 226.636719 171.640625 227.027344 168.808594 226.570312 166.425781 C 226.589844 166.304688 226.566406 166.222656 226.546875 166.136719 Z M 206.871094 170.382812 C 205.996094 172.457031 205.160156 174.121094 204.386719 175.46875 L 189.324219 170.378906 C 188.976562 170.261719 188.617188 170.347656 188.359375 170.574219 L 124.417969 148.957031 C 125.109375 148.375 125.5625 147.769531 125.816406 147.09375 C 126.03125 146.511719 126.082031 145.914062 126.128906 145.332031 L 126.152344 145.09375 C 126.304688 143.402344 126.679688 141.730469 127.261719 140.132812 C 127.347656 139.90625 127.441406 139.667969 127.582031 139.566406 C 127.714844 139.464844 127.945312 139.4375 128.1875 139.402344 C 128.542969 139.351562 128.941406 139.296875 129.28125 139.015625 C 129.96875 138.457031 129.851562 137.53125 129.765625 136.855469 C 129.574219 135.339844 129.78125 133.789062 130.359375 132.378906 C 130.746094 131.4375 131.296875 130.539062 131.835938 129.675781 L 134.097656 126.035156 L 194.140625 156.953125 C 194.160156 157.292969 194.347656 157.613281 194.667969 157.78125 L 208.800781 165.058594 C 208.371094 166.558594 207.753906 168.316406 206.871094 170.382812 Z M 99.484375 156.5625 C 92.410156 153.160156 92.3125 145.1875 92.21875 137.472656 C 92.167969 133.453125 92.117188 129.65625 91.121094 126.546875 C 90.742188 125.371094 90.039062 124.1875 89.421875 123.140625 C 88.714844 121.945312 87.988281 120.710938 88.140625 120.082031 C 88.488281 119.53125 89.882812 119.195312 91.230469 118.871094 C 92.410156 118.589844 93.753906 118.269531 94.859375 117.71875 C 97.792969 116.277344 100.554688 113.671875 103.480469 110.914062 C 109.09375 105.621094 114.902344 100.140625 122.269531 102.863281 C 137.671875 108.542969 204.78125 152.84375 209.261719 157.507812 C 209.359375 157.660156 210.144531 159.074219 209.296875 163.097656 L 195.574219 156.027344 C 195.246094 155.859375 194.875 155.894531 194.589844 156.078125 L 131.046875 123.351562 C 130.804688 123.230469 130.507812 123.324219 130.378906 123.566406 C 130.253906 123.808594 130.347656 124.105469 130.589844 124.230469 L 133.214844 125.578125 L 130.996094 129.152344 C 130.4375 130.050781 129.859375 130.984375 129.445312 132.003906 C 128.804688 133.570312 128.574219 135.289062 128.789062 136.972656 C 128.847656 137.445312 128.921875 138.03125 128.660156 138.242188 C 128.53125 138.34375 128.300781 138.378906 128.050781 138.410156 C 127.710938 138.453125 127.332031 138.507812 126.992188 138.761719 C 126.628906 139.03125 126.460938 139.429688 126.332031 139.78125 C 125.714844 141.460938 125.324219 143.210938 125.164062 144.996094 L 125.144531 145.238281 C 125.097656 145.773438 125.054688 146.277344 124.886719 146.738281 C 124.644531 147.390625 124.128906 147.972656 123.289062 148.5625 L 120.640625 147.671875 C 120.386719 147.582031 120.105469 147.71875 120.015625 147.980469 C 119.925781 148.242188 120.0625 148.519531 120.328125 148.609375 L 123.046875 149.527344 C 123.132812 149.589844 123.234375 149.625 123.339844 149.625 L 188.039062 171.5 C 188.109375 171.835938 188.339844 172.121094 188.6875 172.238281 L 203.3125 177.1875 C 200.996094 180.621094 199.421875 181.015625 199.265625 181.046875 C 199.261719 181.046875 199.261719 181.046875 199.261719 181.046875 C 192.6875 181.050781 114.269531 163.667969 99.484375 156.5625 Z M 199.742188 185.347656 C 199.097656 184.523438 199.203125 183.277344 200.019531 181.839844 C 200.859375 181.480469 202.382812 180.4375 204.316406 177.480469 C 204.324219 177.480469 204.335938 177.488281 204.347656 177.488281 C 204.757812 177.488281 205.140625 177.226562 205.28125 176.816406 C 205.375 176.542969 205.332031 176.257812 205.207031 176.019531 C 206.011719 174.617188 206.871094 172.894531 207.773438 170.769531 C 208.679688 168.640625 209.320312 166.828125 209.765625 165.273438 C 210.027344 165.207031 210.253906 165.03125 210.386719 164.777344 C 210.589844 164.378906 210.5 163.910156 210.195312 163.621094 C 210.980469 160.175781 210.664062 158.351562 210.34375 157.5 C 210.808594 155.914062 211.628906 154.976562 212.667969 154.863281 C 213.574219 154.765625 214.570312 155.34375 215.035156 156.230469 C 215.101562 156.347656 215.15625 156.488281 215.203125 156.640625 C 215.660156 158.066406 215.761719 161.996094 211.390625 172.304688 C 207.019531 182.613281 204.117188 185.265625 202.78125 185.933594 C 202.636719 186.003906 202.5 186.058594 202.371094 186.097656 C 201.40625 186.382812 200.304688 186.066406 199.742188 185.347656 Z M 206.480469 187.839844 C 205.804688 188.042969 205.019531 187.949219 204.425781 187.59375 C 204.132812 187.417969 203.777344 187.113281 203.582031 186.609375 C 206.074219 185.074219 209.078125 180.285156 212.300781 172.6875 C 215.523438 165.085938 216.878906 159.601562 216.246094 156.75 C 216.746094 156.542969 217.214844 156.582031 217.539062 156.667969 C 218.207031 156.847656 218.820312 157.351562 219.144531 157.972656 C 219.667969 158.980469 220.367188 162.570312 215.5 174.046875 C 210.632812 185.519531 207.570312 187.511719 206.480469 187.839844 Z M 223.601562 177.011719 L 223.269531 177.796875 C 221.402344 182.195312 219.414062 185.050781 217.175781 186.511719 C 214.953125 187.96875 212.375 188.125 209.304688 186.984375 C 211.441406 184.71875 213.851562 180.480469 216.414062 174.429688 C 218.976562 168.382812 220.355469 163.703125 220.5 160.597656 C 223.453125 162.011719 225.132812 163.972656 225.632812 166.582031 C 226.136719 169.199219 225.46875 172.609375 223.601562 177.011719 Z M 125.65625 73.410156 C 124.925781 72.421875 125.136719 71.03125 126.125 70.304688 C 127.113281 69.574219 128.507812 69.785156 129.234375 70.773438 C 131.53125 73.882812 133.121094 77.320312 134.664062 80.640625 C 135.757812 83.007812 136.816406 85.277344 138.074219 87.367188 C 140.179688 82.59375 142.5625 77.320312 145.632812 72.960938 C 146.339844 71.960938 147.726562 71.71875 148.730469 72.421875 C 149.734375 73.128906 149.976562 74.515625 149.269531 75.519531 C 146.261719 79.796875 143.964844 85.019531 141.746094 90.070312 L 141.40625 90.851562 C 139.765625 94.574219 137.09375 98.582031 134.058594 101.851562 C 133.621094 102.324219 133.027344 102.5625 132.429688 102.5625 C 131.890625 102.5625 131.347656 102.363281 130.917969 101.96875 C 130.019531 101.132812 129.964844 99.726562 130.800781 98.828125 C 132.710938 96.769531 134.453125 94.386719 135.824219 92.007812 C 133.660156 89.039062 132.117188 85.726562 130.632812 82.519531 C 129.113281 79.242188 127.6875 76.15625 125.65625 73.410156 Z M 143.792969 101.03125 C 144.0625 102.402344 144.359375 103.464844 144.710938 104.378906 C 145.871094 107.375 147.875 108.929688 150.480469 108.929688 C 151.355469 108.929688 152.292969 108.757812 153.289062 108.402344 C 157.773438 106.820312 160.9375 102.660156 162.707031 96.039062 C 163.230469 94.089844 163.683594 91.972656 163.515625 89.726562 C 163.28125 86.65625 161.742188 84.375 159.1875 83.3125 C 156.058594 82.011719 151.9375 82.839844 148.949219 85.386719 C 144.84375 88.871094 142.675781 95.453125 143.792969 101.03125 Z M 151.828125 88.769531 C 153.5 87.351562 155.925781 86.769531 157.480469 87.414062 C 158.453125 87.820312 158.980469 88.6875 159.085938 90.066406 C 159.210938 91.652344 158.832031 93.324219 158.414062 94.894531 C 157.046875 100.011719 154.828125 103.148438 151.8125 104.214844 C 150.144531 104.808594 149.53125 104.511719 148.859375 102.773438 C 148.601562 102.105469 148.375 101.273438 148.152344 100.160156 C 147.359375 96.199219 148.972656 91.195312 151.828125 88.769531 Z M 182.605469 94.695312 C 182.023438 93.617188 182.421875 92.269531 183.503906 91.683594 C 184.585938 91.101562 185.933594 91.503906 186.515625 92.582031 C 188.101562 95.515625 188.769531 98.925781 188.394531 102.191406 C 188.265625 103.320312 187.304688 104.160156 186.191406 104.160156 C 186.105469 104.160156 186.023438 104.15625 185.933594 104.144531 C 184.714844 104.007812 183.839844 102.90625 183.976562 101.6875 C 184.25 99.316406 183.761719 96.835938 182.605469 94.695312 Z M 189.195312 123.75 C 188.101562 124.15625 187.5 125.34375 187.847656 126.46875 C 187.953125 126.828125 188.152344 127.144531 188.40625 127.390625 C 187.949219 129.257812 187.429688 131.109375 186.832031 132.945312 C 186.453125 134.109375 187.09375 135.363281 188.261719 135.742188 C 188.488281 135.816406 188.71875 135.851562 188.949219 135.851562 C 189.886719 135.851562 190.757812 135.253906 191.0625 134.316406 C 191.835938 131.9375 192.488281 129.535156 193.039062 127.109375 C 193.347656 126.992188 193.660156 126.871094 193.957031 126.75 C 194.589844 131.820312 196.046875 135.957031 198.378906 139.324219 C 201.707031 144.125 206.992188 147.0625 212.144531 147.0625 C 212.574219 147.0625 213.003906 147.042969 213.433594 147 C 214.65625 146.878906 215.550781 145.792969 215.429688 144.570312 C 215.3125 143.351562 214.222656 142.453125 213 142.574219 C 209.027344 142.960938 204.734375 140.691406 202.035156 136.789062 C 199.875 133.671875 198.617188 129.648438 198.191406 124.507812 C 199.203125 123.832031 200.121094 123.101562 200.925781 122.308594 C 204.21875 119.054688 205.804688 114.5625 205.0625 110.574219 C 204.652344 108.371094 203.574219 106.53125 202.023438 105.390625 C 199.890625 103.820312 197.074219 103.582031 193.640625 104.671875 C 193.328125 104.523438 192.984375 104.441406 192.613281 104.453125 C 191.460938 104.496094 190.5625 105.410156 190.488281 106.53125 C 190.226562 107.085938 190.1875 107.75 190.453125 108.355469 C 190.472656 108.402344 190.5 108.433594 190.523438 108.472656 C 190.601562 113.613281 190.15625 118.722656 189.195312 123.75 Z M 199.390625 108.957031 C 200.019531 109.421875 200.492188 110.300781 200.695312 111.378906 C 201.167969 113.9375 200.0625 116.910156 197.804688 119.140625 C 196.777344 120.160156 195.539062 121.039062 194.042969 121.816406 C 194.699219 117.554688 195.015625 113.238281 194.976562 108.898438 C 196.582031 108.386719 198.304688 108.160156 199.390625 108.957031 Z M 228.699219 125.554688 C 227.570312 125.074219 226.265625 125.597656 225.785156 126.730469 C 224.890625 128.828125 223.257812 131.660156 220.515625 133.265625 C 218.167969 134.632812 215.277344 134.742188 213.328125 133.53125 C 211.835938 132.609375 210.714844 130.875 210.238281 128.773438 C 210.101562 128.15625 210.011719 127.515625 209.976562 126.824219 C 213.984375 127.007812 218.035156 125.21875 220.515625 122 C 222.289062 119.699219 222.878906 116.984375 222.101562 114.742188 C 221.121094 111.933594 218 110.097656 214.824219 110.46875 C 212.285156 110.765625 209.914062 112.339844 208.316406 114.777344 C 206.894531 116.957031 206.316406 119.417969 205.976562 121.324219 C 205.863281 121.941406 205.773438 122.539062 205.699219 123.117188 C 205.625 123.25 205.566406 123.394531 205.515625 123.546875 C 205.375 124.011719 205.394531 124.480469 205.535156 124.902344 C 205.441406 126.664062 205.5625 128.25 205.898438 129.742188 C 206.628906 133.003906 208.480469 135.757812 210.980469 137.308594 C 212.605469 138.316406 214.527344 138.8125 216.503906 138.8125 C 218.617188 138.8125 220.796875 138.242188 222.753906 137.097656 C 225.75 135.34375 228.214844 132.359375 229.871094 128.46875 C 230.355469 127.335938 229.832031 126.035156 228.699219 125.554688 Z M 210.347656 122.109375 C 210.613281 120.617188 211.050781 118.710938 212.039062 117.203125 C 212.898438 115.890625 214.128906 115.019531 215.335938 114.878906 C 216.425781 114.75 217.601562 115.355469 217.894531 116.207031 C 218.230469 117.167969 217.648438 118.425781 216.988281 119.285156 C 215.441406 121.292969 212.859375 122.429688 210.296875 122.378906 C 210.316406 122.292969 210.332031 122.203125 210.347656 122.109375 Z M 162.222656 105.972656 C 163.140625 101.425781 164.550781 96.960938 166.40625 92.707031 C 166.902344 91.582031 168.210938 91.066406 169.332031 91.5625 C 170.457031 92.054688 170.972656 93.363281 170.476562 94.484375 C 168.742188 98.449219 167.429688 102.609375 166.574219 106.851562 C 165.988281 109.753906 165.546875 113.089844 166.734375 115.878906 C 167.652344 118.042969 170.199219 119.972656 172.394531 119.296875 C 173.546875 118.933594 174.597656 117.894531 175.277344 116.4375 C 176 114.898438 176.273438 113.109375 176.507812 111.261719 C 176.984375 107.554688 177.289062 103.78125 177.421875 100.042969 C 177.46875 98.820312 178.476562 97.855469 179.726562 97.902344 C 180.949219 97.945312 181.914062 98.972656 181.867188 100.199219 C 181.730469 104.074219 181.414062 107.984375 180.921875 111.828125 C 180.648438 113.949219 180.296875 116.199219 179.308594 118.316406 C 178.097656 120.910156 176.058594 122.808594 173.71875 123.539062 C 172.96875 123.773438 172.210938 123.882812 171.46875 123.882812 C 167.605469 123.882812 164.058594 120.953125 162.640625 117.617188 C 160.976562 113.6875 161.546875 109.328125 162.222656 105.972656 Z M 89.4375 166.566406 C 89.109375 162.414062 86.335938 158.800781 82.671875 157.777344 C 78.9375 156.730469 75.285156 158.417969 72.863281 159.773438 C 68.121094 162.4375 65.4375 165.492188 64.667969 169.105469 C 64.410156 170.304688 65.175781 171.484375 66.375 171.742188 C 67.570312 171.996094 68.757812 171.234375 69.015625 170.03125 C 69.25 168.914062 69.847656 167.839844 70.800781 166.804688 C 70.585938 167.25 70.5 167.761719 70.625 168.285156 C 71.527344 172.144531 72.253906 176.046875 72.8125 179.964844 C 72.769531 180.207031 72.757812 180.460938 72.804688 180.71875 C 72.839844 180.921875 72.90625 181.109375 72.992188 181.289062 C 73.832031 187.667969 74.214844 194.109375 74.136719 200.539062 C 74.121094 201.769531 75.105469 202.777344 76.332031 202.792969 C 76.339844 202.792969 76.351562 202.792969 76.359375 202.792969 C 76.636719 202.792969 76.898438 202.738281 77.140625 202.644531 C 77.328125 202.699219 77.527344 202.734375 77.730469 202.734375 C 77.835938 202.734375 77.949219 202.722656 78.058594 202.707031 C 82.890625 201.988281 87.113281 198.074219 88.5625 192.96875 C 89.566406 189.4375 89.183594 185.734375 87.523438 182.8125 C 86.515625 181.035156 85.03125 179.601562 83.320312 178.640625 C 87.054688 175.550781 89.789062 171.070312 89.4375 166.566406 Z M 72.289062 165.625 C 72.171875 165.65625 72.058594 165.699219 71.949219 165.742188 C 72.796875 165.03125 73.824219 164.339844 75.046875 163.65625 C 77.800781 162.105469 79.847656 161.597656 81.476562 162.054688 C 83.34375 162.578125 84.828125 164.621094 85.011719 166.914062 C 85.328125 170.980469 81.167969 175.605469 76.9375 177.449219 C 76.40625 174.035156 75.746094 170.644531 74.960938 167.277344 C 74.679688 166.089844 73.484375 165.34375 72.289062 165.625 Z M 78.488281 181.777344 C 80.488281 181.785156 82.566406 183.085938 83.660156 185.011719 C 84.738281 186.90625 84.964844 189.371094 84.289062 191.757812 C 83.449219 194.714844 81.195312 197.140625 78.59375 198.023438 C 78.558594 192.652344 78.21875 187.285156 77.566406 181.960938 C 77.761719 181.890625 77.964844 181.816406 78.164062 181.738281 C 78.273438 181.757812 78.375 181.777344 78.488281 181.777344 Z M 114.796875 199.953125 C 108.929688 196.792969 104.539062 190.832031 103.210938 184.304688 C 105.171875 182.417969 106.589844 179.800781 107.179688 176.691406 C 107.886719 172.984375 106.5 169.027344 103.886719 167.289062 C 101.765625 165.875 99.105469 166.019531 96.585938 167.679688 C 95.253906 168.550781 94.132812 169.757812 93.253906 171.207031 C 92.339844 171.546875 91.722656 172.453125 91.8125 173.46875 C 91.835938 173.734375 91.863281 174.007812 91.886719 174.273438 C 91.53125 175.398438 91.285156 176.605469 91.164062 177.871094 C 91.078125 178.839844 91.625 179.707031 92.464844 180.09375 C 93.238281 187.089844 94.300781 194.082031 95.644531 200.964844 C 95.851562 202.027344 96.78125 202.761719 97.824219 202.761719 C 97.96875 202.761719 98.109375 202.746094 98.253906 202.722656 C 99.460938 202.484375 100.246094 201.320312 100.011719 200.117188 C 99.183594 195.851562 98.460938 191.546875 97.847656 187.222656 C 98.324219 187.113281 98.792969 186.976562 99.242188 186.808594 C 101.179688 194.03125 106.074219 200.304688 112.699219 203.867188 C 113.035156 204.050781 113.394531 204.132812 113.75 204.132812 C 114.542969 204.132812 115.308594 203.710938 115.710938 202.964844 C 116.285156 201.882812 115.878906 200.535156 114.796875 199.953125 Z M 96.40625 174.851562 C 97.019531 173.335938 97.921875 172.121094 99.039062 171.386719 C 100.546875 170.394531 101.207031 170.835938 101.425781 170.980469 C 102.417969 171.640625 103.21875 173.761719 102.820312 175.859375 C 102.285156 178.660156 100.523438 181.871094 97.257812 182.789062 C 96.929688 180.148438 96.644531 177.496094 96.40625 174.851562 Z M 116.933594 172.566406 C 115.335938 178.804688 115.28125 185.410156 116.785156 191.675781 C 117.070312 192.871094 116.335938 194.070312 115.140625 194.351562 C 114.964844 194.390625 114.792969 194.410156 114.621094 194.410156 C 113.617188 194.410156 112.703125 193.722656 112.460938 192.707031 C 110.796875 185.746094 110.855469 178.402344 112.628906 171.464844 C 112.9375 170.273438 114.144531 169.558594 115.332031 169.863281 C 116.515625 170.171875 117.238281 171.378906 116.933594 172.566406 Z M 140.777344 201.386719 C 140.6875 202.609375 139.617188 203.527344 138.398438 203.4375 C 134.160156 203.128906 129.867188 203.109375 125.617188 203.378906 C 125.339844 203.5625 125.019531 203.695312 124.664062 203.738281 C 124.574219 203.75 124.480469 203.753906 124.398438 203.753906 C 123.640625 203.753906 122.960938 203.363281 122.554688 202.757812 C 122.222656 202.402344 122 201.941406 121.960938 201.425781 C 121.9375 201.136719 121.976562 200.863281 122.054688 200.601562 C 121.097656 192.332031 120.527344 183.929688 120.378906 175.605469 C 120.359375 174.382812 121.335938 173.363281 122.5625 173.34375 C 122.578125 173.34375 122.589844 173.34375 122.605469 173.34375 C 123.8125 173.34375 124.800781 174.3125 124.828125 175.527344 C 124.964844 183.300781 125.480469 191.152344 126.339844 198.886719 C 130.464844 198.664062 134.617188 198.703125 138.726562 199.003906 C 139.949219 199.09375 140.867188 200.160156 140.777344 201.386719 Z M 145.570312 193.324219 C 145.53125 194.523438 144.542969 195.472656 143.347656 195.472656 C 143.320312 195.472656 143.296875 195.472656 143.273438 195.472656 C 140.550781 195.382812 137.730469 195.101562 135 194.824219 C 134.441406 194.769531 133.882812 194.710938 133.332031 194.65625 C 132.246094 194.554688 131.402344 193.675781 131.332031 192.589844 C 130.941406 186.480469 130.914062 180.285156 131.242188 174.175781 C 131.308594 172.949219 132.355469 171.992188 133.585938 172.078125 C 134.808594 172.140625 135.75 173.1875 135.683594 174.417969 C 135.398438 179.722656 135.394531 185.097656 135.664062 190.425781 C 138.253906 190.6875 140.925781 190.949219 143.425781 191.03125 C 144.644531 191.074219 145.609375 192.097656 145.570312 193.324219 Z M 151.859375 200.882812 C 151.9375 202.105469 151.003906 203.160156 149.777344 203.242188 C 149.730469 203.246094 149.683594 203.246094 149.636719 203.246094 C 148.46875 203.246094 147.492188 202.34375 147.417969 201.167969 C 147.035156 195.160156 147.027344 184.214844 147.390625 178.203125 C 147.464844 176.980469 148.519531 176.039062 149.75 176.121094 C 150.972656 176.195312 151.90625 177.25 151.832031 178.472656 C 151.472656 184.335938 151.484375 195.015625 151.859375 200.882812 Z M 193 191.027344 C 193.023438 191.789062 193.640625 209.765625 192.820312 219.347656 C 192.738281 220.347656 191.992188 221.164062 191.007812 221.34375 C 190.875 221.367188 190.742188 221.378906 190.609375 221.378906 C 189.761719 221.378906 188.976562 220.898438 188.601562 220.113281 C 186.8125 216.378906 184.828125 210.921875 182.726562 205.152344 C 181.824219 202.660156 180.90625 200.136719 179.996094 197.730469 C 179.988281 205.113281 179.695312 212.195312 179.675781 212.660156 C 179.625 213.882812 178.59375 214.84375 177.363281 214.789062 C 176.136719 214.738281 175.183594 213.703125 175.234375 212.476562 C 175.238281 212.300781 175.960938 194.863281 175.195312 186.300781 C 175.101562 185.246094 175.757812 184.273438 176.769531 183.972656 C 177.777344 183.671875 178.867188 184.117188 179.363281 185.050781 C 181.769531 189.511719 184.382812 196.695312 186.90625 203.640625 C 187.542969 205.386719 188.167969 207.109375 188.78125 208.753906 C 188.863281 200.214844 188.558594 191.3125 188.550781 191.1875 C 188.507812 189.960938 189.472656 188.929688 190.695312 188.890625 C 190.722656 188.890625 190.75 188.890625 190.777344 188.890625 C 191.972656 188.886719 192.953125 189.828125 193 191.027344 Z M 172.898438 201.164062 C 172.8125 199.96875 171.796875 199.070312 170.605469 199.109375 C 169.675781 193.25 168.632812 187.144531 167.414062 182.34375 C 167.152344 181.308594 166.183594 180.613281 165.117188 180.675781 C 164.050781 180.746094 163.179688 181.558594 163.050781 182.621094 C 162.320312 188.574219 160.550781 194.464844 157.859375 200.007812 L 154.871094 200.21875 C 153.648438 200.308594 152.722656 201.371094 152.8125 202.59375 C 152.894531 203.765625 153.867188 204.65625 155.023438 204.65625 C 155.078125 204.65625 155.132812 204.65625 155.183594 204.652344 L 155.339844 204.644531 C 154.644531 205.796875 153.914062 206.933594 153.136719 208.042969 C 152.4375 209.050781 152.679688 210.433594 153.6875 211.140625 C 154.695312 211.839844 156.078125 211.597656 156.785156 210.589844 C 158.210938 208.554688 159.503906 206.433594 160.671875 204.269531 L 166.832031 203.828125 C 166.832031 203.832031 166.832031 203.839844 166.832031 203.84375 C 167.226562 206.378906 167.597656 208.773438 167.960938 210.921875 C 168.144531 212.007812 169.089844 212.773438 170.152344 212.773438 C 170.273438 212.773438 170.398438 212.761719 170.523438 212.742188 C 171.730469 212.542969 172.546875 211.394531 172.34375 210.183594 C 172.003906 208.148438 171.648438 205.871094 171.273438 203.464844 C 172.28125 203.175781 172.972656 202.234375 172.898438 201.164062 Z M 162.917969 199.648438 C 163.785156 197.664062 164.550781 195.648438 165.191406 193.605469 C 165.527344 195.523438 165.84375 197.480469 166.15625 199.421875 Z M 214.09375 193.320312 C 214.0625 194.527344 213.074219 195.484375 211.871094 195.484375 C 211.851562 195.484375 211.835938 195.484375 211.816406 195.484375 L 206 195.347656 C 206.015625 195.429688 206.035156 195.511719 206.039062 195.59375 C 206.367188 201.433594 206.414062 213.675781 206.226562 219.226562 C 206.1875 220.425781 205.199219 221.371094 204.011719 221.371094 C 203.984375 221.371094 203.960938 221.371094 203.929688 221.371094 C 202.707031 221.332031 201.742188 220.300781 201.785156 219.078125 C 201.976562 213.613281 201.925781 201.582031 201.605469 195.847656 C 201.59375 195.640625 201.617188 195.441406 201.664062 195.25 L 197.429688 195.148438 C 196.203125 195.121094 195.230469 194.105469 195.261719 192.878906 C 195.289062 191.65625 196.324219 190.691406 197.535156 190.710938 L 211.925781 191.046875 C 213.148438 191.078125 214.121094 192.09375 214.09375 193.320312 Z M 214.09375 193.320312 " fill-opacity="1" fill-rule="nonzero"/><path fill="#fdd700" d="M 202.691406 187.03125 Z M 88.550781 123.621094 C 88.558594 123.628906 88.5625 123.632812 88.566406 123.644531 C 88.617188 123.722656 88.660156 123.808594 88.710938 123.886719 C 88.660156 123.808594 88.617188 123.722656 88.566406 123.644531 C 88.5625 123.632812 88.558594 123.625 88.550781 123.621094 Z M 91.230469 137.480469 C 91.195312 134.605469 91.15625 131.84375 90.765625 129.40625 C 91.15625 131.84375 91.191406 134.605469 91.230469 137.480469 C 91.292969 142.585938 91.367188 148.148438 93.679688 152.371094 C 91.363281 148.148438 91.289062 142.589844 91.230469 137.480469 Z M 74.660156 175.746094 C 74.25 175.785156 73.953125 176.144531 73.992188 176.550781 L 75.175781 189.234375 C 75.210938 189.621094 75.535156 189.90625 75.910156 189.90625 C 75.933594 189.90625 75.957031 189.90625 75.980469 189.902344 C 76.390625 189.863281 76.6875 189.503906 76.648438 189.097656 L 75.464844 176.410156 C 75.425781 176.007812 75.054688 175.707031 74.660156 175.746094 Z M 86.195312 141.757812 C 75.964844 145.359375 65.75 149.402344 55.824219 153.773438 C 55.449219 153.933594 55.28125 154.375 55.445312 154.75 C 55.566406 155.027344 55.839844 155.195312 56.121094 155.195312 C 56.21875 155.195312 56.324219 155.175781 56.417969 155.128906 C 66.308594 150.777344 76.488281 146.746094 86.683594 143.160156 C 87.070312 143.019531 87.273438 142.601562 87.140625 142.214844 C 87.007812 141.820312 86.585938 141.625 86.195312 141.757812 Z M 205.742188 188.929688 Z M 198.960938 185.953125 C 198.960938 185.953125 198.957031 185.949219 198.957031 185.949219 C 198.960938 185.949219 198.960938 185.953125 198.960938 185.953125 C 199.574219 186.742188 200.585938 187.1875 201.628906 187.1875 C 200.585938 187.1875 199.574219 186.742188 198.960938 185.953125 Z M 209.84375 191.996094 C 205.601562 192.277344 201.289062 192.429688 197.03125 192.449219 C 196.621094 192.449219 196.289062 192.785156 196.292969 193.195312 C 196.292969 193.605469 196.625 193.929688 197.035156 193.929688 C 197.035156 193.929688 197.035156 193.929688 197.039062 193.929688 C 201.332031 193.910156 205.675781 193.757812 209.949219 193.476562 C 210.359375 193.453125 210.664062 193.097656 210.640625 192.6875 C 210.605469 192.277344 210.25 191.976562 209.84375 191.996094 Z M 99.707031 167.566406 C 97.949219 168.101562 96.332031 169.445312 95.15625 171.347656 C 94.121094 173.023438 93.511719 174.914062 92.976562 176.589844 C 92.855469 176.980469 93.066406 177.394531 93.457031 177.523438 C 93.53125 177.546875 93.609375 177.554688 93.683594 177.554688 C 94 177.554688 94.289062 177.355469 94.390625 177.042969 C 94.898438 175.453125 95.476562 173.652344 96.421875 172.132812 C 97.410156 170.535156 98.734375 169.421875 100.144531 168.988281 C 100.535156 168.867188 100.757812 168.453125 100.636719 168.058594 C 100.515625 167.664062 100.101562 167.441406 99.707031 167.566406 Z M 205.824219 172.722656 C 205.878906 172.609375 205.929688 172.496094 205.984375 172.382812 C 206.046875 172.253906 206.105469 172.125 206.164062 171.996094 C 206.226562 171.855469 206.296875 171.707031 206.363281 171.5625 C 206.414062 171.449219 206.464844 171.332031 206.519531 171.210938 C 206.613281 170.996094 206.707031 170.777344 206.804688 170.550781 C 206.832031 170.496094 206.855469 170.441406 206.875 170.386719 C 206.898438 170.335938 206.917969 170.28125 206.945312 170.226562 C 207.039062 170 207.132812 169.769531 207.226562 169.554688 C 207.273438 169.425781 207.324219 169.308594 207.375 169.183594 C 207.429688 169.046875 207.488281 168.902344 207.542969 168.765625 C 207.601562 168.617188 207.65625 168.46875 207.714844 168.320312 C 207.75 168.226562 207.785156 168.132812 207.820312 168.042969 C 207.882812 167.871094 207.945312 167.691406 208.011719 167.523438 C 208.015625 167.503906 208.027344 167.492188 208.03125 167.472656 C 208.34375 166.601562 208.597656 165.800781 208.8125 165.066406 L 194.679688 157.789062 C 194.351562 157.621094 194.164062 157.300781 194.148438 156.960938 L 134.09375 126.039062 L 131.832031 129.683594 C 131.292969 130.546875 130.738281 131.445312 130.355469 132.382812 C 129.777344 133.792969 129.574219 135.34375 129.761719 136.859375 C 129.84375 137.535156 129.964844 138.460938 129.277344 139.023438 C 128.9375 139.304688 128.53125 139.359375 128.179688 139.40625 C 127.9375 139.441406 127.710938 139.472656 127.578125 139.570312 C 127.433594 139.679688 127.339844 139.910156 127.257812 140.136719 C 126.667969 141.738281 126.296875 143.40625 126.144531 145.097656 L 126.125 145.335938 C 126.078125 145.914062 126.027344 146.515625 125.808594 147.097656 C 125.558594 147.773438 125.101562 148.382812 124.410156 148.964844 L 188.355469 170.582031 C 188.613281 170.359375 188.972656 170.269531 189.320312 170.382812 L 204.378906 175.472656 C 204.742188 174.839844 205.117188 174.140625 205.507812 173.359375 C 205.542969 173.285156 205.582031 173.210938 205.617188 173.136719 C 205.683594 173 205.753906 172.863281 205.824219 172.722656 Z M 123.453125 183.25 C 123.429688 182.839844 123.066406 182.53125 122.667969 182.550781 C 122.257812 182.578125 121.945312 182.925781 121.972656 183.335938 C 122.132812 185.988281 122.394531 188.660156 122.757812 191.285156 C 122.804688 191.65625 123.128906 191.925781 123.488281 191.925781 C 123.523438 191.925781 123.558594 191.925781 123.589844 191.921875 C 123.996094 191.867188 124.277344 191.492188 124.222656 191.085938 C 123.875 188.496094 123.613281 185.859375 123.453125 183.25 Z M 215.457031 188.390625 C 215.457031 188.390625 215.449219 188.390625 215.449219 188.390625 C 215.449219 188.390625 215.449219 188.390625 215.457031 188.390625 Z M 134 180.128906 C 134.019531 179.71875 133.707031 179.371094 133.296875 179.347656 C 132.882812 179.332031 132.542969 179.640625 132.519531 180.050781 C 132.339844 183.457031 132.386719 186.90625 132.648438 190.308594 C 132.675781 190.699219 133.003906 190.992188 133.382812 190.992188 C 133.402344 190.992188 133.421875 190.992188 133.441406 190.992188 C 133.851562 190.964844 134.152344 190.609375 134.125 190.199219 C 133.871094 186.863281 133.828125 183.46875 134 180.128906 Z M 215.910156 155.761719 C 215.910156 155.765625 215.914062 155.765625 215.914062 155.769531 C 215.851562 155.652344 215.78125 155.539062 215.703125 155.429688 C 215.78125 155.535156 215.851562 155.648438 215.910156 155.761719 Z M 122.671875 180.671875 C 122.6875 180.671875 122.703125 180.671875 122.71875 180.671875 C 123.128906 180.648438 123.4375 180.296875 123.414062 179.890625 L 123.179688 175.859375 C 123.15625 175.449219 122.800781 175.15625 122.402344 175.160156 C 121.992188 175.1875 121.679688 175.539062 121.703125 175.941406 L 121.9375 179.976562 C 121.957031 180.371094 122.28125 180.671875 122.671875 180.671875 Z M 114.984375 170.753906 C 114.605469 170.601562 114.175781 170.785156 114.023438 171.164062 C 113.078125 173.507812 112.628906 176.085938 112.71875 178.609375 C 112.734375 179.007812 113.058594 179.324219 113.460938 179.324219 C 113.46875 179.324219 113.480469 179.324219 113.484375 179.324219 C 113.894531 179.308594 114.214844 178.964844 114.199219 178.558594 C 114.117188 176.238281 114.53125 173.875 115.394531 171.714844 C 115.550781 171.339844 115.367188 170.90625 114.984375 170.753906 Z M 199.3125 181.042969 C 199.316406 181.042969 199.320312 181.035156 199.328125 181.035156 C 199.339844 181.03125 199.355469 181.027344 199.375 181.023438 C 199.386719 181.015625 199.394531 181.015625 199.40625 181.011719 C 199.425781 181.007812 199.449219 180.996094 199.480469 180.988281 C 199.488281 180.980469 199.5 180.980469 199.507812 180.976562 C 199.550781 180.960938 199.589844 180.941406 199.636719 180.921875 C 199.644531 180.917969 199.652344 180.917969 199.65625 180.914062 C 199.699219 180.894531 199.746094 180.867188 199.792969 180.84375 C 199.800781 180.839844 199.816406 180.828125 199.824219 180.824219 C 199.878906 180.792969 199.933594 180.765625 200 180.726562 C 200.003906 180.726562 200.003906 180.71875 200.007812 180.71875 C 200.078125 180.675781 200.152344 180.632812 200.230469 180.578125 C 200.304688 180.527344 200.382812 180.46875 200.46875 180.40625 C 200.476562 180.398438 200.484375 180.390625 200.492188 180.386719 C 200.75 180.1875 201.046875 179.9375 201.371094 179.605469 C 201.375 179.601562 201.382812 179.59375 201.382812 179.59375 C 201.710938 179.257812 202.078125 178.851562 202.472656 178.347656 C 202.480469 178.339844 202.484375 178.335938 202.484375 178.332031 C 202.746094 177.996094 203.023438 177.617188 203.3125 177.1875 L 188.6875 172.238281 C 188.339844 172.121094 188.109375 171.835938 188.039062 171.5 L 123.34375 149.636719 C 123.242188 149.636719 123.136719 149.601562 123.054688 149.535156 L 120.332031 148.617188 C 120.074219 148.53125 119.9375 148.253906 120.019531 147.992188 C 120.105469 147.730469 120.390625 147.597656 120.648438 147.679688 L 123.296875 148.574219 C 124.136719 147.980469 124.648438 147.394531 124.890625 146.746094 C 125.058594 146.292969 125.101562 145.785156 125.148438 145.246094 L 125.167969 145.003906 C 125.324219 143.222656 125.722656 141.46875 126.339844 139.792969 C 126.464844 139.441406 126.632812 139.042969 126.996094 138.769531 C 127.332031 138.519531 127.714844 138.464844 128.058594 138.417969 C 128.304688 138.386719 128.535156 138.355469 128.664062 138.25 C 128.925781 138.039062 128.851562 137.453125 128.792969 136.984375 C 128.582031 135.300781 128.808594 133.582031 129.449219 132.011719 C 129.867188 130.996094 130.441406 130.066406 131 129.164062 L 133.21875 125.589844 L 130.597656 124.242188 C 130.355469 124.117188 130.261719 123.816406 130.382812 123.574219 C 130.507812 123.332031 130.808594 123.234375 131.050781 123.363281 L 194.59375 156.085938 C 194.878906 155.90625 195.25 155.871094 195.578125 156.039062 L 209.300781 163.105469 C 210.148438 159.089844 209.363281 157.671875 209.265625 157.519531 C 204.785156 152.855469 137.675781 108.554688 122.273438 102.871094 C 114.90625 100.152344 109.101562 105.632812 103.484375 110.921875 C 100.5625 113.683594 97.800781 116.285156 94.867188 117.730469 C 93.757812 118.273438 92.414062 118.59375 91.234375 118.878906 C 89.882812 119.207031 88.492188 119.542969 88.148438 120.089844 C 87.992188 120.722656 88.714844 121.957031 89.425781 123.152344 C 90.042969 124.199219 90.746094 125.382812 91.125 126.558594 C 92.128906 129.667969 92.171875 133.464844 92.222656 137.480469 C 92.316406 145.191406 92.414062 153.167969 99.488281 156.570312 C 114.273438 163.679688 192.691406 181.0625 199.265625 181.0625 C 199.265625 181.0625 199.273438 181.0625 199.273438 181.0625 C 199.28125 181.050781 199.296875 181.046875 199.3125 181.042969 Z M 149.667969 178.015625 C 149.261719 178.023438 148.933594 178.359375 148.945312 178.769531 L 149.046875 183.558594 C 149.058594 183.964844 149.386719 184.285156 149.789062 184.285156 C 149.792969 184.285156 149.796875 184.285156 149.804688 184.285156 C 150.214844 184.273438 150.539062 183.9375 150.53125 183.53125 L 150.425781 178.742188 C 150.414062 178.332031 150.078125 177.992188 149.667969 178.015625 Z M 213.089844 188.726562 Z M 213.089844 188.726562 Z M 118.3125 101.164062 C 114.171875 101.199219 110.5 103.472656 107.132812 106.28125 C 110.496094 103.472656 114.171875 101.199219 118.3125 101.164062 Z M 208.515625 187.734375 C 208.519531 187.734375 208.519531 187.734375 208.515625 187.734375 C 208.519531 187.734375 208.519531 187.734375 208.515625 187.734375 C 208.515625 187.742188 208.515625 187.734375 208.515625 187.734375 Z M 177.65625 187.089844 C 177.246094 187.097656 176.925781 187.4375 176.933594 187.847656 L 177.269531 199.613281 C 177.28125 200.011719 177.609375 200.332031 178.011719 200.332031 C 178.015625 200.332031 178.027344 200.332031 178.03125 200.332031 C 178.441406 200.324219 178.761719 199.984375 178.75 199.574219 L 178.414062 187.808594 C 178.40625 187.398438 178.066406 187.0625 177.65625 187.089844 Z M 190.632812 191.207031 C 190.628906 191.207031 190.617188 191.207031 190.613281 191.207031 C 190.203125 191.214844 189.882812 191.554688 189.890625 191.964844 L 189.996094 195.914062 C 190.003906 196.320312 190.335938 196.636719 190.734375 196.636719 C 190.742188 196.636719 190.75 196.636719 190.757812 196.636719 C 191.164062 196.625 191.488281 196.285156 191.476562 195.875 L 191.375 191.925781 C 191.359375 191.527344 191.03125 191.207031 190.632812 191.207031 Z M 198.816406 182.019531 Z M 164.96875 184.824219 C 164.570312 184.773438 164.195312 185.070312 164.148438 185.472656 C 163.753906 188.929688 162.914062 192.320312 161.664062 195.566406 C 161.515625 195.945312 161.707031 196.375 162.089844 196.523438 C 162.179688 196.558594 162.265625 196.570312 162.355469 196.570312 C 162.652344 196.570312 162.933594 196.394531 163.046875 196.097656 C 164.347656 192.734375 165.210938 189.222656 165.621094 185.640625 C 165.671875 185.238281 165.378906 184.867188 164.96875 184.824219 Z M 118.378906 92.519531 C 118.394531 92.519531 118.40625 92.519531 118.417969 92.519531 C 118.828125 92.5 119.140625 92.148438 119.121094 91.738281 C 118.492188 80.09375 118.640625 68.292969 119.554688 56.664062 C 119.589844 56.257812 119.285156 55.902344 118.875 55.871094 C 118.464844 55.835938 118.109375 56.140625 118.078125 56.550781 C 117.160156 68.242188 117.011719 80.109375 117.644531 91.820312 C 117.664062 92.214844 117.988281 92.519531 118.378906 92.519531 Z M 225.003906 176.183594 C 224.984375 176.226562 224.96875 176.277344 224.949219 176.320312 C 224.949219 176.320312 224.949219 176.316406 224.957031 176.316406 C 224.96875 176.277344 224.988281 176.234375 225.003906 176.195312 C 225.003906 176.1875 225.003906 176.1875 225.003906 176.183594 Z M 106.246094 96.671875 C 106.378906 96.917969 106.636719 97.054688 106.898438 97.054688 C 107.019531 97.054688 107.140625 97.027344 107.253906 96.96875 C 107.617188 96.769531 107.742188 96.320312 107.546875 95.960938 C 101.242188 84.476562 94.320312 73.160156 86.984375 62.308594 C 86.757812 61.96875 86.292969 61.878906 85.957031 62.109375 C 85.617188 62.335938 85.527344 62.800781 85.761719 63.136719 C 93.070312 73.949219 99.964844 85.226562 106.246094 96.671875 Z M 225.378906 175.183594 Z M 75 160.671875 C 74.800781 160.316406 74.347656 160.191406 73.992188 160.390625 C 70.6875 162.253906 67.921875 164.957031 65.984375 168.214844 C 65.777344 168.566406 65.890625 169.019531 66.242188 169.234375 C 66.363281 169.300781 66.488281 169.335938 66.617188 169.335938 C 66.871094 169.335938 67.117188 169.207031 67.253906 168.976562 C 69.058594 165.941406 71.636719 163.421875 74.714844 161.683594 C 75.074219 161.476562 75.203125 161.027344 75 160.671875 Z M 76.988281 120.871094 C 77.386719 120.871094 77.714844 120.554688 77.730469 120.15625 C 77.742188 119.746094 77.417969 119.402344 77.011719 119.394531 C 67.203125 119.097656 57.300781 118.203125 47.589844 116.75 C 47.183594 116.683594 46.808594 116.964844 46.746094 117.371094 C 46.6875 117.773438 46.960938 118.148438 47.367188 118.214844 C 57.136719 119.679688 67.097656 120.574219 76.96875 120.875 C 76.972656 120.871094 76.976562 120.871094 76.988281 120.871094 Z M 91.582031 105.078125 C 91.707031 105.160156 91.847656 105.203125 91.992188 105.203125 C 92.226562 105.203125 92.464844 105.089844 92.609375 104.871094 C 92.835938 104.53125 92.742188 104.070312 92.398438 103.84375 C 83.503906 97.925781 74.839844 91.453125 66.636719 84.605469 C 66.328125 84.34375 65.859375 84.382812 65.597656 84.699219 C 65.335938 85.015625 65.375 85.480469 65.691406 85.742188 C 73.929688 92.625 82.640625 99.128906 91.582031 105.078125 Z M 74.277344 174.261719 C 74.671875 174.164062 74.917969 173.765625 74.820312 173.371094 C 74.394531 171.648438 74.035156 169.886719 73.738281 168.132812 C 73.667969 167.726562 73.28125 167.457031 72.882812 167.523438 C 72.476562 167.59375 72.207031 167.972656 72.273438 168.378906 C 72.574219 170.171875 72.945312 171.96875 73.375 173.726562 C 73.460938 174.0625 73.761719 174.289062 74.097656 174.289062 C 74.15625 174.289062 74.214844 174.277344 74.277344 174.261719 Z M 201.632812 187.1875 Z M 208.519531 187.734375 C 208.523438 187.734375 208.523438 187.734375 208.53125 187.742188 C 208.523438 187.734375 208.523438 187.734375 208.519531 187.734375 Z M 177.527344 203.136719 C 177.117188 203.136719 176.785156 203.46875 176.785156 203.878906 L 176.785156 209.679688 C 176.785156 210.089844 177.117188 210.417969 177.527344 210.417969 C 177.9375 210.417969 178.265625 210.089844 178.265625 209.679688 L 178.265625 203.878906 C 178.265625 203.46875 177.933594 203.136719 177.527344 203.136719 Z M 207.222656 188.605469 Z M 202.246094 187.128906 C 202.382812 187.109375 202.519531 187.078125 202.652344 187.039062 C 202.652344 187.039062 202.648438 187.039062 202.640625 187.039062 C 202.511719 187.082031 202.378906 187.109375 202.246094 187.128906 Z M 202.246094 187.128906 " fill-opacity="1" fill-rule="nonzero"/><path fill="#ffffff" d="M 150.144531 123.210938 C 150.019531 123.210938 149.890625 123.179688 149.777344 123.109375 L 132.933594 113.519531 C 129.066406 111.316406 124.679688 108.820312 120.011719 108.222656 C 113.132812 107.347656 106.613281 111.886719 105.175781 118.554688 C 105.089844 118.953125 104.691406 119.207031 104.296875 119.121094 C 103.894531 119.039062 103.640625 118.644531 103.726562 118.242188 C 105.324219 110.828125 112.566406 105.785156 120.199219 106.75 C 125.15625 107.382812 129.683594 109.960938 133.667969 112.230469 L 150.515625 121.824219 C 150.871094 122.023438 150.992188 122.480469 150.792969 122.835938 C 150.648438 123.070312 150.402344 123.210938 150.144531 123.210938 Z M 179.320312 140.371094 C 179.539062 140.023438 179.4375 139.566406 179.09375 139.347656 C 171.75 134.683594 164.109375 130.300781 156.378906 126.316406 C 156.011719 126.128906 155.566406 126.269531 155.378906 126.636719 C 155.191406 127 155.335938 127.445312 155.703125 127.632812 C 163.394531 131.59375 170.996094 135.957031 178.300781 140.601562 C 178.425781 140.679688 178.5625 140.714844 178.699219 140.714844 C 178.9375 140.714844 179.175781 140.589844 179.320312 140.371094 Z M 179.320312 140.371094 " fill-opacity="1" fill-rule="nonzero"/></svg>