<svg xmlns="http://www.w3.org/2000/svg" xmlns:xlink="http://www.w3.org/1999/xlink" width="400" zoomAndPan="magnify" viewBox="0 0 300 299.999988" height="400" preserveAspectRatio="xMidYMid meet" version="1.0"><defs><clipPath id="b5db749bbd"><path d="M 99 60 L 257.539062 60 L 257.539062 173 L 99 173 Z M 99 60 " clip-rule="nonzero"/></clipPath><clipPath id="9a5941e8da"><path d="M 49 78 L 240 78 L 240 251.25 L 49 251.25 Z M 49 78 " clip-rule="nonzero"/></clipPath><clipPath id="8b3718063c"><path d="M 42.289062 79 L 253 79 L 253 187 L 42.289062 187 Z M 42.289062 79 " clip-rule="nonzero"/></clipPath></defs><rect x="-30" width="360" fill="#ffffff" y="-29.999999" height="359.999986" fill-opacity="1"/><rect x="-30" width="360" fill="#ffffff" y="-29.999999" height="359.999986" fill-opacity="1"/><path fill="#805ef2" d="M 228.902344 132.027344 C 228.945312 131.867188 228.972656 131.773438 228.972656 131.773438 C 231.714844 121.628906 230.691406 114.597656 229.351562 110.476562 C 229.28125 110.195312 229.214844 109.910156 229.140625 109.628906 C 228.78125 108.292969 228.097656 107.097656 227.253906 106.046875 C 227.25 106.035156 227.242188 106.027344 227.242188 106.027344 C 226.8125 105.488281 226.335938 104.984375 225.839844 104.519531 C 224.164062 102.945312 221.90625 102.382812 219.636719 102.714844 C 217.554688 103.011719 215.601562 103.816406 214.03125 105.335938 C 213.234375 106.101562 212.363281 106.792969 211.621094 107.597656 C 210.875 108.410156 210.164062 109.285156 209.578125 110.214844 C 208.625 111.726562 207.757812 113.292969 206.902344 114.863281 C 206.121094 116.296875 205.414062 117.765625 204.65625 119.210938 C 203.992188 120.46875 203.300781 121.71875 202.621094 122.972656 C 202.5625 123.066406 202.503906 123.15625 202.445312 123.25 C 202.410156 123.234375 202.378906 123.21875 202.34375 123.207031 C 206.699219 113.71875 210.015625 102.972656 211.425781 98.105469 C 211.683594 97.257812 211.925781 96.40625 212.144531 95.546875 C 212.15625 95.496094 212.164062 95.460938 212.164062 95.460938 C 214.664062 87.730469 214.734375 72.152344 214.734375 72.152344 C 213.941406 59.207031 209.867188 54.222656 207.425781 52.386719 C 207.277344 52.238281 207.140625 52.085938 206.988281 51.949219 C 206.679688 51.804688 206.371094 51.675781 206.0625 51.554688 C 205.75 51.410156 205.5625 51.363281 205.5625 51.363281 C 198.316406 48.75 193.28125 52.851562 191.691406 54.433594 C 191.0625 55.117188 190.445312 55.800781 189.832031 56.488281 C 187.09375 60.417969 184.683594 69.28125 183.175781 75.835938 C 182.816406 77.757812 182.460938 79.679688 182.085938 81.597656 C 181.945312 82.308594 181.726562 83.003906 181.546875 83.703125 C 181.269531 83.5 181.1875 83.335938 181.160156 83.167969 C 180.742188 80.710938 180.386719 78.246094 179.90625 75.800781 C 179.230469 72.359375 178.601562 68.898438 177.699219 65.519531 C 176.945312 62.683594 175.851562 59.957031 174.207031 57.449219 C 172.738281 55.214844 170.820312 53.5 168.5625 52.238281 C 166 50.8125 163.132812 50.394531 160.214844 50.789062 C 156.5625 51.277344 152.914062 54.957031 152.394531 58.722656 C 152.160156 60.457031 152 62.199219 151.859375 63.949219 C 151.855469 64.507812 151.6875 96.621094 143.425781 113.121094 C 139.542969 104.984375 133.601562 99.96875 130.265625 97.632812 C 130.214844 97.59375 130.15625 97.558594 130.105469 97.523438 C 129.730469 97.265625 129.390625 97.039062 129.089844 96.847656 L 129.097656 96.84375 C 129.097656 96.84375 129 96.78125 128.847656 96.695312 C 128.824219 96.683594 128.800781 96.667969 128.785156 96.65625 C 128.707031 96.601562 128.625 96.550781 128.542969 96.503906 C 128.503906 96.476562 128.460938 96.457031 128.414062 96.433594 C 128.007812 96.191406 127.777344 96.066406 127.777344 96.066406 L 127.78125 96.082031 C 126.574219 95.425781 125.316406 94.882812 124.03125 94.402344 C 122.679688 93.867188 121.082031 93.320312 119.296875 92.828125 C 117.824219 92.394531 116.339844 92.0625 114.847656 91.847656 C 113.574219 91.636719 112.234375 91.476562 110.835938 91.382812 C 109.011719 91.261719 107.183594 91.363281 105.375 91.632812 C 104.6875 91.738281 103.90625 91.875 103.058594 92.054688 C 102.078125 92.195312 101.109375 92.40625 100.160156 92.757812 C 100.046875 92.800781 99.933594 92.835938 99.816406 92.878906 C 98.496094 93.269531 97.105469 93.761719 95.695312 94.375 C 94.851562 94.699219 94.019531 95.042969 93.222656 95.457031 C 91.722656 96.230469 90.34375 97.203125 89.066406 98.304688 C 87.332031 99.710938 85.738281 101.402344 84.417969 103.421875 C 84.347656 103.519531 84.277344 103.617188 84.210938 103.71875 C 84.199219 103.742188 84.179688 103.761719 84.167969 103.785156 C 84.167969 103.785156 83.488281 104.660156 82.773438 106.101562 C 82.765625 106.121094 82.757812 106.132812 82.746094 106.152344 C 82.070312 107.375 81.558594 108.726562 81.386719 110.109375 C 81 112.015625 80.941406 114.203125 81.679688 116.476562 C 81.679688 116.476562 83.710938 122.226562 89.542969 123.363281 C 92.425781 124.023438 95.375 123.507812 98.28125 122.550781 C 101.226562 121.582031 104.128906 120.585938 107.214844 120.050781 C 108.292969 119.859375 109.355469 119.808594 110.40625 119.828125 L 110.410156 119.820312 C 123.816406 119.046875 128.628906 132.621094 128.628906 132.621094 C 128.628906 132.621094 128.640625 132.640625 128.648438 132.667969 C 128.847656 133.109375 129.035156 133.5625 129.195312 134.023438 C 129.535156 134.984375 129.742188 135.949219 129.847656 136.917969 C 130.535156 140.550781 130.722656 145.820312 127.601562 150.09375 C 124.472656 154.363281 120.921875 155.835938 118.511719 156.324219 C 118.625 156.316406 118.722656 156.308594 118.828125 156.304688 C 119.09375 156.28125 119.355469 156.265625 119.601562 156.246094 C 119.375 156.265625 119.117188 156.28125 118.828125 156.304688 C 118.722656 156.3125 118.617188 156.320312 118.511719 156.324219 C 116.820312 156.671875 115.6875 156.542969 115.6875 156.542969 C 103.621094 157.453125 98.496094 142.34375 98.453125 142.207031 C 98.191406 141.675781 97.933594 141.140625 97.683594 140.601562 C 96.550781 138.179688 95.480469 135.730469 94.3125 133.328125 C 94.199219 133.09375 94.078125 132.867188 93.945312 132.644531 C 91.867188 128.230469 88.613281 126.230469 86.617188 125.375 C 86.152344 125.140625 85.664062 124.972656 85.164062 124.855469 C 84.984375 124.808594 84.878906 124.785156 84.878906 124.785156 C 84.859375 124.78125 84.84375 124.78125 84.824219 124.777344 C 84.816406 124.777344 84.804688 124.773438 84.796875 124.769531 C 81.980469 124.0625 79.746094 124.316406 78.066406 124.886719 C 77 125.136719 76.085938 125.683594 75.273438 126.371094 C 74.574219 126.914062 74.230469 127.351562 74.230469 127.351562 C 73.261719 128.230469 72.480469 129.25 71.847656 130.339844 C 71.539062 130.839844 71.273438 131.363281 71.050781 131.910156 C 68.835938 136.960938 69.273438 142.691406 69.273438 142.691406 C 69.285156 143.042969 69.304688 143.390625 69.324219 143.742188 C 69.335938 143.910156 69.351562 144.085938 69.359375 144.257812 C 69.371094 144.363281 69.375 144.472656 69.386719 144.578125 C 69.433594 145.152344 69.492188 145.726562 69.570312 146.296875 C 70.660156 154.722656 74.203125 162.289062 74.203125 162.289062 L 74.207031 162.28125 C 74.699219 163.4375 75.210938 164.582031 75.753906 165.714844 C 77.117188 168.554688 78.570312 171.371094 80.238281 174.039062 C 81.917969 176.730469 83.835938 179.285156 85.792969 181.785156 C 87.082031 183.433594 88.558594 184.945312 90.066406 186.40625 C 92.207031 188.476562 94.339844 190.578125 96.675781 192.410156 C 99.402344 194.542969 102.277344 196.5 105.214844 198.339844 C 107.304688 199.648438 109.535156 200.734375 111.734375 201.867188 C 134.035156 214.300781 158.425781 209.695312 158.425781 209.695312 C 158.4375 209.691406 158.453125 209.691406 158.464844 209.6875 C 159.972656 209.449219 161.46875 209.140625 162.945312 208.6875 C 163.132812 208.628906 163.320312 208.582031 163.503906 208.523438 C 164.347656 208.304688 165.167969 208.074219 165.980469 207.832031 C 167.570312 207.402344 169.164062 206.96875 170.699219 206.390625 C 171.601562 206.054688 172.480469 205.652344 173.351562 205.238281 C 178.390625 203.171875 182.589844 200.824219 185.972656 198.578125 C 186.832031 198.042969 187.675781 197.488281 188.492188 196.894531 C 188.941406 196.570312 189.363281 196.214844 189.777344 195.851562 C 194.550781 192.160156 196.847656 189.269531 196.847656 189.269531 C 197.238281 188.878906 197.609375 188.472656 197.976562 188.058594 C 210.296875 174.644531 214.800781 164.992188 214.800781 164.992188 C 219.863281 157.402344 223.726562 147.804688 226.132812 140.886719 C 226.253906 140.585938 226.382812 140.285156 226.496094 139.984375 C 227.148438 138.292969 227.613281 136.527344 228.113281 134.785156 C 228.476562 133.582031 228.726562 132.699219 228.859375 132.226562 C 228.875 132.128906 228.890625 132.078125 228.902344 132.027344 Z M 228.902344 132.027344 " fill-opacity="1" fill-rule="nonzero"/><g clip-path="url(#b5db749bbd)"><path fill="#fdae23" d="M 255.949219 161.558594 C 255.828125 161.585938 255.507812 161.660156 255.078125 161.75 C 254.6875 161.839844 254.292969 161.925781 253.902344 162.015625 C 253.1875 162.175781 252.375 162.359375 251.550781 162.546875 C 251.125 162.644531 250.699219 162.738281 250.273438 162.832031 C 249.601562 162.980469 248.96875 163.125 248.457031 163.238281 C 248.425781 163.246094 248.398438 163.253906 248.367188 163.257812 C 247.644531 163.417969 247.167969 163.53125 247.167969 163.53125 C 247.167969 163.53125 244.984375 171.660156 244.601562 171.964844 C 244.21875 172.273438 243.429688 171.078125 240.351562 164.605469 C 240.351562 164.605469 234.214844 165.429688 232.074219 164.820312 C 232.074219 164.820312 230.5 164.503906 233.527344 162.296875 C 236.550781 160.089844 238.085938 158.800781 238.085938 158.800781 C 238.085938 158.800781 235.011719 152.625 235.667969 152.203125 C 235.914062 152.046875 236.105469 151.992188 236.632812 152.113281 C 236.828125 152.085938 237.035156 152.125 237.246094 152.195312 C 238.59375 152.636719 239.9375 153.09375 241.28125 153.542969 C 242 153.765625 242.8125 154.019531 243.75 154.308594 L 247.949219 150.695312 C 247.949219 150.695312 248.882812 149.71875 249.265625 149.871094 C 249.640625 150.023438 248.480469 156.097656 248.816406 156.621094 C 248.828125 156.636719 248.84375 156.65625 248.855469 156.671875 C 249.382812 157.09375 255.570312 160.3125 255.949219 160.5 C 256.328125 160.6875 256.703125 161.386719 255.949219 161.558594 Z M 257.089844 134.542969 C 256.890625 134.308594 251.652344 132.046875 251.652344 132.046875 L 251.671875 130.109375 C 251.671875 125.351562 251.289062 124.953125 250.894531 125.1875 C 250.5 125.425781 246.632812 129.921875 246.632812 129.921875 C 246.632812 129.921875 245.613281 129.53125 244.386719 129.085938 C 243.851562 128.863281 243.296875 128.648438 242.707031 128.503906 C 241.457031 128.085938 240.347656 127.765625 240.191406 127.894531 C 239.816406 128.195312 243.292969 133.679688 243.292969 133.679688 C 242.214844 135.066406 241.132812 136.445312 240.0625 137.835938 C 239.761719 138.222656 239.4375 138.59375 239.152344 139.011719 C 238.816406 139.453125 238.542969 139.796875 238.398438 139.992188 C 237.632812 140.992188 238.398438 141.152344 238.398438 141.152344 C 238.765625 141.152344 239.136719 141.136719 239.496094 141.109375 L 239.507812 141.109375 C 241.933594 140.933594 244.226562 140.199219 246.539062 139.574219 C 246.554688 139.597656 250.082031 145.792969 250.953125 145.1875 C 250.953125 145.1875 251.292969 145.535156 251.398438 143.851562 C 251.410156 143.847656 251.425781 143.835938 251.433594 143.832031 C 251.433594 143.46875 251.433594 143.113281 251.429688 142.757812 C 251.429688 142.742188 251.429688 142.734375 251.429688 142.722656 L 251.429688 142.71875 C 251.425781 141.875 251.425781 141.050781 251.429688 140.234375 L 251.410156 137.421875 L 252.027344 137.136719 L 252.03125 137.132812 C 252.3125 136.984375 252.601562 136.839844 252.890625 136.703125 L 252.929688 136.6875 C 252.980469 136.664062 253.027344 136.640625 253.070312 136.621094 C 255.695312 135.613281 257.285156 134.78125 257.089844 134.542969 Z M 116.792969 67.09375 C 116.792969 67.09375 117.328125 59.976562 116.296875 60.144531 C 115.265625 60.316406 111.117188 65.132812 111.117188 65.132812 C 111.117188 65.132812 105.792969 63.292969 103.40625 62.929688 C 103.335938 62.90625 103.269531 62.890625 103.195312 62.867188 C 103.195312 62.882812 103.199219 62.890625 103.199219 62.902344 C 102.757812 62.851562 102.429688 62.855469 102.3125 62.957031 C 101.660156 63.550781 106.296875 69.789062 106.296875 69.789062 C 106.09375 70.546875 105.265625 70.828125 102.480469 73.785156 C 102.464844 73.808594 102.449219 73.824219 102.433594 73.847656 C 101.410156 74.957031 100.480469 76.140625 99.816406 77.582031 C 99.832031 77.589844 99.84375 77.601562 99.859375 77.609375 C 99.53125 78.324219 99.613281 78.609375 99.816406 78.667969 C 100.238281 78.78125 109.8125 76.164062 109.8125 76.164062 L 112.484375 80.488281 C 112.484375 80.488281 112.515625 80.53125 112.554688 80.597656 C 113.050781 81.421875 113.585938 82.21875 114.199219 82.960938 C 114.890625 83.832031 115.59375 84.535156 115.898438 84.226562 C 116.585938 83.539062 116.148438 73.777344 116.148438 73.777344 L 118.304688 72.761719 C 120.46875 71.820312 121.769531 71.195312 122.554688 70.765625 C 122.773438 70.664062 122.996094 70.558594 123.214844 70.457031 C 123.207031 70.429688 123.199219 70.414062 123.191406 70.386719 C 123.914062 69.898438 123.613281 69.789062 123.519531 69.605469 C 123.339844 69.261719 116.792969 67.09375 116.792969 67.09375 Z M 116.792969 67.09375 " fill-opacity="1" fill-rule="nonzero"/></g><g clip-path="url(#9a5941e8da)"><path fill="#ff00c4" d="M 79.5625 210.058594 C 75.527344 215.453125 71.394531 220.902344 67.179688 226.394531 C 65.945312 225.363281 64.878906 224.46875 63.699219 223.484375 C 64.875 221.953125 66.007812 220.476562 67.328125 218.757812 C 67.3125 218.761719 67.292969 218.761719 67.28125 218.761719 C 67.277344 218.742188 67.273438 218.726562 67.257812 218.71875 C 67.246094 218.707031 67.21875 218.714844 67.203125 218.714844 C 67.195312 218.730469 67.179688 218.75 67.171875 218.769531 C 67.183594 218.769531 67.199219 218.769531 67.210938 218.769531 C 66.339844 218.878906 65.703125 218.949219 65.070312 219.046875 C 61.605469 219.589844 58.441406 218.832031 55.753906 216.601562 C 54.296875 215.394531 53.421875 213.683594 52.832031 211.878906 C 51.09375 206.515625 52.703125 201.675781 55.535156 197.226562 C 58.878906 191.964844 63.730469 188.628906 69.851562 187.304688 C 73.289062 186.558594 76.683594 186.769531 79.917969 188.328125 C 82.589844 189.617188 84.65625 191.566406 85.640625 194.371094 C 86.828125 197.742188 86.691406 201.097656 84.714844 204.222656 C 84.652344 204.324219 84.582031 204.425781 84.496094 204.515625 C 84.457031 204.5625 84.394531 204.578125 84.140625 204.726562 C 82.75 203.570312 81.339844 202.386719 79.914062 201.199219 C 80.589844 199.566406 80.824219 197.957031 80.242188 196.390625 C 79.253906 193.757812 77.21875 192.421875 74.46875 192.179688 C 69.460938 191.742188 65.449219 193.667969 62.214844 197.421875 C 60.140625 199.824219 58.386719 202.402344 57.738281 205.578125 C 57.101562 208.6875 58.6875 212.914062 62.515625 213.835938 C 63.953125 214.183594 65.34375 214.148438 66.71875 213.648438 C 68.445312 213.015625 70.097656 212.257812 71.269531 210.746094 C 71.378906 210.605469 71.515625 210.484375 71.613281 210.332031 C 71.699219 210.210938 71.75 210.070312 71.882812 209.804688 C 69.257812 207.429688 66.632812 205.050781 63.957031 202.628906 C 65 201.378906 66.027344 200.15625 67.089844 198.882812 C 69.496094 200.4375 71.386719 202.421875 73.378906 204.292969 C 75.355469 206.164062 77.359375 208.011719 79.5625 210.058594 Z M 67.285156 218.777344 C 67.285156 218.773438 67.28125 218.769531 67.28125 218.765625 C 67.253906 218.769531 67.234375 218.769531 67.207031 218.773438 C 67.234375 218.773438 67.257812 218.777344 67.285156 218.777344 Z M 104.902344 221.144531 C 103.742188 224.792969 102.15625 228.21875 99.460938 230.949219 C 95.988281 234.476562 91.980469 237.207031 86.777344 237.160156 C 83.5 237.128906 80.835938 235.578125 78.960938 232.863281 C 76.714844 229.605469 76.296875 225.914062 76.941406 222.140625 C 77.410156 219.375 78.597656 216.847656 80.160156 214.464844 C 81.886719 211.824219 84.039062 209.679688 86.542969 207.808594 C 88.835938 206.09375 91.4375 205.457031 94.492188 205.355469 C 98.109375 205.683594 101.472656 206.976562 103.539062 210.53125 C 105.46875 213.863281 106.097656 217.371094 104.902344 221.144531 Z M 94.820312 210.371094 C 92.382812 209.933594 90.25 210.828125 88.363281 212.203125 C 86.273438 213.71875 84.75 215.75 83.589844 218.074219 C 82.457031 220.332031 81.636719 222.65625 81.609375 225.808594 C 81.496094 226.875 82.015625 228.351562 82.9375 229.695312 C 84.214844 231.5625 86.417969 232.621094 88.613281 232.167969 C 91.355469 231.605469 93.738281 230.320312 95.667969 228.300781 C 98.460938 225.386719 100.222656 221.941406 100.550781 217.863281 C 100.859375 214.042969 98.554688 211.042969 94.820312 210.371094 Z M 129.246094 227.046875 C 129.324219 227.890625 129.40625 228.738281 129.460938 229.269531 C 129.300781 232.582031 129.15625 235.578125 128.015625 238.382812 C 126.8125 241.34375 125.144531 243.964844 122.519531 245.941406 C 120.535156 247.445312 118.351562 248.402344 115.917969 248.351562 C 111.882812 248.269531 108.457031 246.78125 106.117188 243.273438 C 103.617188 239.523438 103.527344 235.480469 104.480469 231.253906 C 105.148438 228.296875 106.007812 225.425781 107.574219 222.816406 C 109.027344 220.390625 110.839844 218.34375 113.519531 217.121094 C 115.554688 216.1875 117.625 215.8125 119.789062 216.109375 C 121.726562 216.382812 123.539062 217.074219 125.050781 218.414062 C 127.644531 220.71875 128.933594 223.644531 129.246094 227.046875 Z M 123.183594 223.488281 C 120.125 219.777344 115.3125 219.585938 112.1875 223.691406 C 110.511719 225.890625 109.609375 228.445312 109.09375 231.105469 C 108.617188 233.578125 108.214844 236.132812 109.25 238.558594 C 109.796875 239.851562 110.476562 241.21875 111.46875 242.160156 C 114.21875 244.765625 119.464844 244.121094 121.914062 240.425781 C 124.082031 237.15625 124.800781 233.511719 124.875 229.683594 C 124.976562 227.421875 124.683594 225.3125 123.183594 223.488281 Z M 85.703125 92.195312 C 85.164062 91.113281 84.765625 90.25 84.316406 89.417969 C 82.667969 86.335938 81.011719 83.253906 79.332031 80.183594 C 79.054688 79.675781 78.660156 79.234375 78.347656 78.800781 C 76.628906 79.78125 75.089844 80.664062 73.539062 81.546875 C 75.921875 86.058594 78.234375 90.433594 80.65625 95.019531 C 82.453125 94.011719 84.046875 93.121094 85.703125 92.195312 Z M 150.046875 228.757812 Z M 156.25 234.878906 L 156.253906 234.878906 C 155.933594 239.152344 154.273438 242.226562 152.953125 244.046875 C 152.945312 244.0625 152.933594 244.082031 152.921875 244.097656 C 152.523438 244.707031 152.058594 245.230469 151.554688 245.714844 C 151.492188 245.777344 151.4375 245.828125 151.394531 245.867188 C 151.378906 245.886719 151.359375 245.902344 151.34375 245.917969 C 151.289062 245.964844 151.25 246 151.25 246 C 149.355469 247.6875 147.542969 248.703125 146.453125 249.234375 C 146.417969 249.253906 146.378906 249.269531 146.34375 249.289062 C 145.90625 249.496094 145.605469 249.617188 145.476562 249.664062 C 144.1875 250.175781 142.832031 250.511719 141.441406 250.695312 C 138.355469 251.242188 135.707031 251.191406 134.160156 251.078125 C 134 251.082031 133.839844 251.085938 133.679688 251.09375 C 133.441406 251.101562 133.207031 251.007812 132.726562 250.921875 C 132.605469 239.914062 132.480469 228.90625 132.363281 217.867188 C 135.980469 217.070312 139.464844 217.269531 142.859375 218.015625 C 147.277344 218.984375 150.875 221.285156 153.5 225.152344 C 155.132812 227.554688 156.046875 230.121094 156.316406 232.910156 C 156.382812 233.554688 156.339844 234.21875 156.25 234.878906 Z M 150.324219 229.433594 C 150.242188 229.199219 150.148438 228.972656 150.046875 228.753906 C 146.902344 221.824219 137.257812 222.851562 137.257812 222.851562 C 137.257812 230.574219 137.257812 238.164062 137.257812 245.941406 C 137.257812 245.941406 144.03125 247.371094 149.578125 240.132812 C 151.707031 236.828125 151.636719 233.136719 150.324219 229.433594 Z M 186.671875 209.375 C 180.015625 211.945312 173.339844 214.378906 166.714844 217.152344 C 167.457031 218.808594 168.203125 220.480469 168.984375 222.226562 C 171.648438 221.132812 174.21875 220.078125 176.757812 219.039062 C 177.019531 219.378906 177.210938 219.550781 177.304688 219.769531 C 178.90625 223.554688 180.589844 227.304688 182.046875 231.140625 C 182.980469 233.597656 183.285156 236.207031 182.496094 238.824219 C 182 240.460938 180.8125 241.394531 179.5 241.558594 C 176.199219 242.183594 174.121094 238.445312 174.121094 238.445312 C 173.027344 238.878906 171.632812 239.4375 170.097656 240.050781 C 170.277344 240.53125 170.335938 240.871094 170.511719 241.136719 C 171.164062 242.121094 171.746094 243.183594 172.554688 244.023438 C 173.738281 245.261719 175.136719 246.238281 176.878906 246.609375 C 179.109375 247.089844 181.242188 246.6875 183.277344 245.796875 C 187.042969 244.148438 188.765625 240.339844 188.335938 236.277344 C 187.925781 232.414062 186.6875 228.761719 185.21875 225.183594 C 184.113281 222.492188 183.03125 219.792969 181.917969 217.03125 C 184.171875 216.109375 186.402344 215.203125 188.707031 214.261719 C 188.011719 212.585938 187.386719 211.097656 186.671875 209.375 Z M 238.105469 207.40625 C 237.441406 208.777344 236.648438 210.050781 235.777344 211.253906 L 235.792969 211.25 C 235.746094 211.3125 235.695312 211.375 235.648438 211.433594 C 235.078125 212.210938 234.46875 212.960938 233.832031 213.6875 C 232.660156 215.078125 231.59375 216.25 230.710938 217.167969 L 230.679688 217.199219 C 230.433594 217.453125 230.207031 217.691406 229.992188 217.902344 L 228.101562 219.835938 L 226.644531 218.363281 C 224.300781 215.890625 221.992188 213.394531 219.707031 210.867188 C 218.480469 209.515625 217.28125 208.152344 216.074219 206.785156 L 216.074219 206.789062 L 208.414062 198.75 C 207.929688 198.300781 207.441406 197.847656 206.96875 197.386719 C 206.285156 196.71875 205.695312 195.953125 205.011719 195.171875 C 206.503906 193.085938 208.089844 191.265625 209.910156 189.695312 L 209.875 189.703125 C 209.875 189.703125 215.039062 184.503906 219.550781 184.753906 C 219.550781 184.753906 219.574219 184.757812 219.585938 184.757812 C 220.136719 184.792969 220.675781 184.90625 221.191406 185.121094 C 223.019531 185.734375 225.726562 187.355469 225.789062 191.59375 C 225.792969 191.652344 225.796875 191.707031 225.796875 191.765625 C 225.796875 191.769531 225.796875 191.773438 225.796875 191.777344 C 225.828125 193.132812 225.507812 193.816406 225.507812 193.816406 C 225.507812 193.816406 229.332031 191.007812 233.714844 193.058594 L 233.714844 193.0625 C 234.203125 193.257812 234.691406 193.5 235.175781 193.820312 L 235.15625 193.828125 C 238.015625 195.460938 239.65625 198.058594 239.6875 201.46875 C 239.710938 203.511719 239.015625 205.511719 238.105469 207.40625 Z M 220.152344 196.960938 C 221.054688 195.683594 221.582031 194.257812 221.5625 192.625 C 221.535156 190.402344 219.675781 188.878906 217.53125 189.425781 C 214.675781 190.148438 212.746094 192.035156 211.152344 194.378906 C 213.160156 196.484375 215.085938 198.5 217.1875 200.699219 C 218.234375 199.386719 219.261719 198.222656 220.152344 196.960938 Z M 231.453125 197.53125 C 230.597656 197.351562 229.632812 197.398438 228.773438 197.589844 C 225.980469 198.21875 224.074219 200.144531 222.320312 202.242188 C 221.6875 202.992188 221.15625 203.828125 220.582031 204.621094 C 223.226562 207.421875 225.753906 210.101562 228.3125 212.808594 C 230.917969 210.699219 234.0625 206.375 234.324219 202.761719 C 234.5 200.34375 233.8125 198.023438 231.453125 197.53125 Z M 218.949219 220.761719 C 219.046875 222.332031 219.054688 223.980469 218.675781 225.480469 C 218.070312 227.847656 216.714844 229.855469 214.867188 231.527344 C 212.675781 233.511719 209.980469 234.339844 207.199219 234.566406 C 206.769531 234.601562 206.347656 234.605469 205.929688 234.59375 L 205.933594 234.605469 C 205.652344 234.59375 205.378906 234.574219 205.109375 234.539062 C 202.792969 234.308594 200.632812 233.378906 198.742188 231.78125 C 194.792969 228.4375 192.1875 224.234375 190.710938 219.292969 C 189.984375 216.84375 189.828125 214.308594 190.265625 211.847656 C 190.765625 209.050781 192.234375 206.703125 194.574219 204.933594 C 196.5625 203.421875 198.761719 202.617188 202.046875 202.492188 L 202.035156 202.46875 C 202.035156 202.46875 202.261719 202.453125 202.664062 202.476562 C 202.753906 202.476562 202.828125 202.46875 202.914062 202.46875 C 203.578125 202.453125 204.347656 202.617188 205.167969 202.90625 C 207.539062 203.5625 210.867188 205.1875 213.789062 209.179688 C 216.503906 212.558594 218.671875 216.289062 218.949219 220.761719 Z M 211.566406 214.140625 C 210.769531 212.851562 209.769531 211.699219 208.628906 210.640625 C 206.800781 208.949219 204.785156 207.722656 202.214844 207.65625 C 200.0625 207.628906 197.074219 209.023438 196.058594 210.644531 C 194.429688 213.257812 194.3125 216.058594 195.371094 218.890625 C 196.386719 221.605469 197.859375 224.054688 199.753906 226.304688 C 201.988281 228.953125 206.113281 230.542969 209.660156 228.90625 C 211.796875 227.921875 213.285156 226.464844 213.808594 224.460938 C 215.15625 219.105469 211.566406 214.140625 211.566406 214.140625 Z M 65.753906 118.929688 C 60.445312 118.242188 55.132812 117.550781 49.710938 116.84375 C 49.472656 118.921875 49.257812 120.835938 49.042969 122.722656 C 49.042969 122.722656 64.117188 124.242188 65.753906 124.3125 C 65.753906 122.527344 65.753906 120.824219 65.753906 118.929688 Z M 72.214844 103.265625 C 70.398438 102.136719 68.59375 100.996094 66.777344 99.863281 C 64.535156 98.464844 61.136719 96.402344 58.917969 95.019531 C 57.03125 98.324219 55.886719 100.421875 55.886719 100.421875 C 60.152344 102.730469 65.566406 105.699219 69.835938 108.007812 C 69.835938 108.007812 71.203125 105.203125 72.214844 103.265625 Z M 72.214844 103.265625 " fill-opacity="1" fill-rule="nonzero"/></g><g clip-path="url(#8b3718063c)"><path fill="#000000" d="M 238.03125 79.980469 C 239.390625 80.089844 240.753906 80.214844 242.234375 80.347656 C 242.234375 81.195312 242.234375 81.976562 242.234375 82.800781 C 240.003906 82.707031 237.816406 82.613281 235.351562 82.507812 C 235.226562 85.957031 235.109375 89.3125 234.988281 92.769531 C 231.90625 93.085938 228.742188 93.417969 225.496094 93.75 C 225.335938 93.011719 225.191406 92.359375 225.003906 91.476562 C 227.386719 91.082031 229.707031 90.699219 231.933594 90.332031 C 232.21875 86.957031 232.53125 83.726562 232.742188 80.492188 C 232.796875 79.648438 233.273438 79.644531 233.808594 79.671875 C 235.214844 79.742188 236.621094 79.863281 238.03125 79.980469 Z M 47.65625 177.835938 L 44.429688 174.113281 C 43.800781 174.710938 43.214844 175.269531 42.515625 175.929688 C 45.386719 179.460938 48.257812 182.882812 51.460938 186.125 C 51.460938 186.125 52.527344 185.238281 53.222656 184.480469 C 51.402344 182.292969 49.511719 180.042969 47.65625 177.835938 Z M 58.148438 163.085938 C 55.203125 161.847656 52.296875 160.632812 49.355469 159.394531 C 49.101562 160.148438 48.859375 160.871094 48.609375 161.609375 C 50.726562 162.507812 52.671875 163.332031 54.582031 164.140625 C 53.65625 166.164062 52.761719 168.125 51.863281 170.097656 C 54.527344 171.261719 56.964844 172.320312 59.359375 173.371094 C 59.34375 173.417969 59.296875 173.53125 59.234375 173.675781 C 59.109375 173.976562 58.976562 174.269531 58.832031 174.5625 C 57.964844 176.445312 56.347656 179.847656 56.347656 179.847656 C 57.207031 180.183594 57.9375 180.472656 58.648438 180.75 C 58.648438 180.75 62.628906 174.113281 63.054688 172.289062 C 60.429688 171.085938 57.964844 169.957031 55.382812 168.773438 C 56.316406 166.847656 57.199219 165.042969 58.148438 163.085938 Z M 252.386719 98.765625 C 252.4375 100.996094 250.058594 102.992188 247.71875 102.910156 C 245.828125 102.851562 243.914062 101.597656 243.367188 100.144531 L 243.367188 100.140625 C 243.246094 99.8125 243.191406 99.46875 243.226562 99.132812 C 243.226562 99.128906 243.226562 99.121094 243.226562 99.117188 C 243.167969 97.941406 243.40625 96.011719 245.261719 94.667969 C 245.34375 94.609375 245.421875 94.554688 245.5 94.5 C 245.539062 94.472656 245.574219 94.449219 245.613281 94.421875 L 245.617188 94.4375 C 246.269531 94.058594 247.003906 93.863281 247.816406 93.894531 C 250.839844 94.015625 252.320312 95.847656 252.386719 98.765625 Z M 249.71875 97.746094 C 249.699219 97.703125 249.679688 97.667969 249.660156 97.632812 C 249 96.234375 247.246094 96.664062 247.246094 96.664062 C 245.992188 97.199219 245.464844 97.996094 245.652344 98.976562 C 245.757812 99.519531 246.269531 99.9375 247.019531 100.171875 C 247.167969 100.21875 247.308594 100.253906 247.445312 100.277344 C 247.484375 100.285156 247.527344 100.289062 247.566406 100.300781 C 248.851562 100.457031 249.5 99.613281 249.5 99.613281 C 249.5625 99.519531 249.609375 99.433594 249.671875 99.332031 C 250.039062 98.640625 249.910156 98.09375 249.71875 97.746094 Z M 180.945312 83.75 C 180.722656 85.558594 180.585938 87.382812 180.269531 89.179688 C 180.125 90 179.902344 90.8125 179.671875 91.621094 C 178.417969 98.082031 176.121094 107.699219 172.726562 113.507812 C 171.871094 115.171875 170.960938 116.8125 169.992188 118.414062 C 169.238281 119.660156 168.300781 120.789062 167.550781 122.039062 C 167.285156 122.472656 167.140625 123.160156 167.289062 123.613281 C 167.625 124.601562 168.761719 124.75 169.492188 123.839844 C 170.335938 122.796875 171.140625 121.726562 171.941406 120.644531 C 173.589844 118.144531 176.675781 112.425781 179.761719 101.203125 C 179.765625 101.195312 179.765625 101.1875 179.769531 101.175781 C 179.816406 100.976562 183.148438 87.121094 181.132812 82.914062 C 181.054688 83.25 180.980469 83.496094 180.945312 83.75 Z M 202.34375 123.199219 C 199.328125 129.097656 194.886719 134.324219 194.886719 134.324219 L 194.898438 134.300781 C 194.429688 134.914062 193.878906 135.46875 193.386719 136.066406 C 191.492188 138.367188 189.355469 140.398438 186.890625 142.085938 C 186.242188 142.527344 185.511719 142.910156 185.125 143.683594 L 185.117188 143.6875 C 185.117188 143.6875 184.371094 144.714844 185.285156 145.160156 C 185.515625 145.207031 185.726562 145.222656 185.9375 145.230469 L 185.960938 145.234375 C 185.960938 145.234375 187.277344 145.882812 192.0625 141.589844 C 194.617188 139.296875 197.289062 134.863281 198.859375 132.015625 C 199.335938 131.195312 199.773438 130.347656 200.191406 129.488281 C 200.230469 129.402344 200.257812 129.359375 200.257812 129.359375 C 200.691406 128.449219 201.109375 127.527344 201.527344 126.621094 C 202.023438 125.542969 202.242188 124.335938 202.585938 123.191406 C 202.507812 123.152344 202.433594 123.117188 202.355469 123.078125 L 202.355469 123.199219 Z M 176.871094 165.453125 C 175.847656 165.484375 174.820312 165.648438 173.8125 165.84375 C 171.191406 166.34375 168.535156 166.738281 165.976562 167.457031 C 163.75 168.082031 161.589844 168.984375 159.488281 169.957031 C 157.449219 170.894531 155.460938 171.984375 153.546875 173.164062 C 150.644531 174.957031 147.734375 176.757812 145.003906 178.792969 C 142.972656 180.308594 141.121094 182.105469 139.742188 184.292969 C 139.386719 184.855469 139.148438 185.59375 139.613281 186.183594 C 140.101562 186.808594 140.761719 186.445312 141.34375 186.210938 C 141.5625 186.125 141.78125 185.996094 141.953125 185.832031 C 143.359375 184.511719 144.699219 183.113281 146.167969 181.871094 C 147.746094 180.53125 149.386719 179.230469 151.113281 178.09375 C 152.832031 176.960938 154.671875 176.003906 156.503906 175.0625 C 158.554688 174.007812 160.609375 172.964844 162.738281 172.085938 C 164.726562 171.265625 166.777344 170.574219 168.847656 169.984375 C 170.488281 169.511719 172.195312 169.277344 173.875 168.929688 C 174.996094 168.699219 176.144531 168.554688 177.226562 168.203125 C 178.089844 167.921875 178.527344 167.449219 178.652344 166.671875 C 178.347656 165.488281 176.871094 165.453125 176.871094 165.453125 Z M 176.871094 165.453125 " fill-opacity="1" fill-rule="nonzero"/></g></svg>