<svg xmlns="http://www.w3.org/2000/svg" xmlns:xlink="http://www.w3.org/1999/xlink" width="400" zoomAndPan="magnify" viewBox="0 0 300 299.999988" height="400" preserveAspectRatio="xMidYMid meet" version="1.0"><defs><clipPath id="fc17a8c37c"><path d="M 45 51.871094 L 247 51.871094 L 247 196 L 45 196 Z M 45 51.871094 " clip-rule="nonzero"/></clipPath></defs><rect x="-30" width="360" fill="#ffffff" y="-29.999999" height="359.999986" fill-opacity="1"/><rect x="-30" width="360" fill="#ffffff" y="-29.999999" height="359.999986" fill-opacity="1"/><g clip-path="url(#fc17a8c37c)"><path fill="#ffc709" d="M 246.933594 63.082031 C 246.355469 64.863281 243.152344 62.90625 243.152344 62.90625 C 243.152344 62.90625 242.042969 81.523438 227.40625 97.378906 C 217.519531 108.121094 203.753906 110.078125 195.863281 110.222656 L 196.539062 131.847656 C 196.539062 143.386719 187.351562 152.832031 176.121094 152.832031 L 171.539062 152.832031 C 173.207031 160.15625 177.050781 195.886719 177.050781 195.886719 L 173.535156 195.574219 C 173.535156 195.574219 166.65625 160.707031 165.535156 152.828125 L 132.140625 152.828125 C 130.9375 161.066406 124.167969 195.378906 124.167969 195.378906 L 120.652344 195.691406 C 120.652344 195.691406 124.429688 160.574219 126.121094 152.832031 L 118.726562 152.832031 C 107.496094 152.832031 98.308594 143.386719 98.308594 131.847656 L 98.957031 115.261719 L 54.507812 134.738281 C 54.507812 134.738281 58.515625 139.101562 56.910156 139.234375 C 55.265625 139.328125 54.066406 136.878906 54.066406 136.878906 C 54.066406 136.878906 55.222656 141.15625 54.066406 141.332031 C 52.910156 141.554688 51.664062 137.414062 51.664062 137.414062 C 51.664062 137.414062 49.042969 142.136719 47.925781 141.019531 C 46.816406 139.90625 50.105469 136.207031 50.105469 136.207031 C 50.105469 136.207031 45.167969 139.09375 45.167969 137.984375 C 45.167969 136.871094 48.90625 134.066406 48.90625 134.066406 C 48.90625 134.066406 45.613281 131.523438 46.324219 130.726562 C 47.035156 129.925781 51.128906 132.195312 51.128906 132.195312 L 99.378906 104.4375 L 100.609375 72.859375 C 100.605469 61.316406 109.796875 51.871094 121.023438 51.871094 L 174.28125 51.871094 C 185.511719 51.871094 194.699219 61.316406 194.699219 72.855469 L 195.613281 102.121094 C 201.035156 102.71875 210.542969 102.160156 221.136719 94.257812 C 237.507812 81.964844 240.175781 63.257812 240.175781 63.257812 C 240.175781 63.257812 235.460938 64.820312 234.703125 62.457031 C 233.902344 60.097656 239.417969 60.894531 239.417969 60.894531 C 239.417969 60.894531 236.085938 56.839844 237.507812 55.820312 C 238.929688 54.792969 240.535156 59.515625 240.535156 59.515625 C 240.535156 59.515625 240.3125 53.683594 242 54.214844 C 243.644531 54.75 241.910156 58.980469 241.910156 58.980469 C 241.910156 58.980469 244.578125 55.460938 245.917969 56.707031 C 247.292969 57.957031 244.359375 60.273438 243.960938 60.40625 C 243.558594 60.582031 243.46875 60.628906 243.46875 60.628906 C 243.46875 60.628906 247.5625 61.296875 246.933594 63.082031 Z M 246.933594 63.082031 " fill-opacity="1" fill-rule="nonzero"/></g><path fill="#000000" d="M 125.054688 193.375 C 125.5 194.53125 124.207031 197.46875 124.207031 197.46875 C 124.207031 197.46875 115.355469 196.398438 115.132812 195.824219 C 114.957031 195.289062 120.605469 192.929688 120.605469 192.929688 Z M 172.644531 193.570312 C 172.199219 194.726562 173.488281 197.664062 173.488281 197.664062 C 173.488281 197.664062 182.34375 196.59375 182.5625 196.019531 C 182.742188 195.484375 177.089844 193.125 177.089844 193.125 Z M 176.96875 82.144531 C 173.683594 82.183594 171.03125 84.859375 171.015625 88.144531 C 171.007812 91.449219 173.621094 94.121094 176.914062 94.167969 C 180.289062 94.207031 182.976562 91.566406 182.988281 88.195312 C 183.003906 84.832031 180.292969 82.109375 176.96875 82.144531 Z M 121.871094 82.203125 C 118.570312 82.199219 115.898438 84.824219 115.859375 88.121094 C 115.820312 91.472656 118.496094 94.179688 121.851562 94.183594 C 125.167969 94.1875 127.808594 91.582031 127.84375 88.273438 C 127.875 84.890625 125.238281 82.210938 121.871094 82.203125 Z M 121.871094 82.203125 " fill-opacity="1" fill-rule="evenodd"/><path fill="#ffffff" d="M 178.847656 84.730469 C 179.832031 84.722656 180.585938 85.480469 180.558594 86.457031 C 180.535156 87.351562 179.785156 88.089844 178.890625 88.097656 C 177.941406 88.105469 177.15625 87.300781 177.175781 86.355469 C 177.203125 85.445312 177.925781 84.746094 178.847656 84.730469 Z M 123.714844 84.660156 C 122.8125 84.660156 122.066406 85.378906 122.03125 86.28125 C 121.996094 87.210938 122.808594 88.0625 123.722656 88.050781 C 124.609375 88.046875 125.367188 87.300781 125.394531 86.40625 C 125.433594 85.421875 124.703125 84.660156 123.714844 84.660156 Z M 123.714844 84.660156 " fill-opacity="1" fill-rule="evenodd"/><path fill="#ef4323" d="M 138.691406 110.519531 C 138.519531 109.972656 138.765625 109.5 139.308594 109.324219 C 139.765625 109.140625 140.339844 109.316406 140.511719 109.855469 C 141.1875 111.59375 142.335938 113.058594 143.726562 114.050781 C 145.117188 115.042969 146.835938 115.566406 148.5625 115.496094 C 150.390625 115.351562 152.039062 114.660156 153.421875 113.503906 C 154.714844 112.328125 155.746094 110.6875 156.128906 108.769531 C 156.292969 108.277344 156.765625 108.003906 157.265625 108.085938 C 157.851562 108.179688 158.109375 108.734375 158.03125 109.238281 C 157.503906 111.5625 156.25 113.515625 154.667969 114.902344 C 152.980469 116.355469 150.957031 117.246094 148.714844 117.324219 C 146.539062 117.5 144.414062 116.824219 142.714844 115.617188 C 140.921875 114.386719 139.566406 112.632812 138.691406 110.519531 Z M 138.691406 110.519531 " fill-opacity="1" fill-rule="nonzero"/><path fill="#f4878e" d="M 116.027344 102.484375 C 118.742188 101.949219 121.230469 103.066406 121.632812 104.980469 C 122.03125 106.847656 120.164062 108.855469 117.449219 109.433594 C 114.734375 109.96875 112.246094 108.855469 111.84375 106.984375 C 111.445312 105.066406 113.3125 103.0625 116.027344 102.484375 Z M 180.460938 102.460938 C 177.75 103.042969 175.882812 105.046875 176.28125 106.960938 C 176.679688 108.832031 179.171875 109.945312 181.882812 109.410156 C 184.597656 108.832031 186.464844 106.828125 186.066406 104.957031 C 185.667969 103.042969 183.175781 101.925781 180.460938 102.460938 Z M 180.460938 102.460938 " fill-opacity="1" fill-rule="evenodd"/><path fill="#000000" d="M 228.171875 206.871094 C 228.535156 207.085938 228.992188 206.699219 228.820312 206.328125 C 226.867188 202.078125 225.890625 199.949219 223.933594 195.699219 C 223.527344 194.8125 223.113281 193.894531 223.097656 192.914062 C 223.078125 191.9375 223.558594 190.871094 224.480469 190.492188 C 225.28125 190.167969 226.226562 190.441406 226.898438 190.972656 C 227.566406 191.507812 228.011719 192.261719 228.421875 193.011719 C 229.390625 194.765625 230.269531 196.570312 231.148438 198.375 C 233.207031 202.613281 235.265625 206.84375 237.328125 211.082031 C 237.929688 212.320312 238.507812 213.859375 237.621094 215.058594 C 236.96875 215.945312 235.703125 216.289062 234.625 216.15625 C 233.546875 216.027344 232.605469 215.503906 231.699219 214.996094 C 226.902344 212.292969 222.175781 209.46875 217.523438 206.523438 C 217.171875 206.300781 216.714844 206.664062 216.871094 207.046875 C 218.679688 211.390625 219.582031 213.5625 221.382812 217.910156 C 221.773438 218.847656 222.171875 219.824219 222.113281 220.863281 C 222.054688 221.894531 221.417969 223.019531 220.347656 223.386719 C 219.359375 223.722656 218.277344 223.320312 217.601562 222.648438 C 216.925781 221.976562 216.574219 221.074219 216.230469 220.199219 C 214.558594 215.917969 212.886719 211.636719 211.210938 207.355469 C 210.664062 205.960938 210.121094 204.570312 209.574219 203.179688 C 209.078125 201.925781 208.496094 200.738281 208.730469 199.34375 C 208.863281 198.570312 209.273438 197.8125 209.945312 197.398438 C 210.675781 196.949219 211.613281 196.949219 212.421875 197.203125 C 213.238281 197.457031 213.953125 197.933594 214.660156 198.402344 C 219.09375 201.328125 223.601562 204.15625 228.171875 206.871094 Z M 191.582031 204.863281 C 191.019531 205.632812 190.917969 206.632812 190.835938 207.574219 C 190.273438 213.980469 189.6875 220.394531 188.9375 226.777344 C 188.765625 228.265625 188.574219 229.761719 188.480469 231.257812 C 188.417969 232.199219 188.660156 233.132812 189.761719 233.417969 C 191.765625 233.9375 193.4375 233.199219 193.929688 231.144531 C 194.199219 230.027344 194.324219 228.890625 194.457031 227.761719 C 194.519531 227.183594 194.949219 226.6875 195.542969 226.496094 C 197.019531 226.019531 198.488281 225.507812 199.953125 224.984375 C 200.753906 224.695312 201.554688 224.40625 202.355469 224.109375 C 202.777344 223.957031 203.195312 223.800781 203.613281 223.652344 C 204.019531 223.5 204.4375 223.3125 204.859375 223.214844 C 205.085938 223.167969 205.328125 223.15625 205.539062 223.230469 C 205.796875 223.320312 205.96875 223.523438 206.144531 223.707031 C 206.355469 223.921875 206.578125 224.132812 206.796875 224.339844 C 207.089844 224.617188 207.394531 224.871094 207.683594 225.148438 C 207.988281 225.4375 208.300781 225.71875 208.640625 225.96875 C 209.078125 226.296875 209.65625 226.695312 210.238281 226.769531 C 210.863281 226.84375 211.503906 226.757812 212.078125 226.445312 C 213.085938 225.902344 214.019531 224.945312 213.722656 223.90625 C 213.507812 223.128906 213.011719 222.515625 212.449219 221.953125 C 207.253906 216.753906 202.140625 211.394531 197.167969 205.96875 C 196.664062 205.417969 196.113281 204.839844 195.507812 204.390625 C 194.746094 203.824219 193.6875 203.664062 192.808594 203.972656 C 192.335938 204.136719 191.902344 204.433594 191.582031 204.863281 Z M 200.882812 219.195312 C 199.5625 219.664062 197.277344 220.449219 195.945312 220.898438 C 195.453125 221.0625 194.96875 220.699219 195.027344 220.214844 C 195.273438 218.183594 195.492188 216.179688 195.707031 214.148438 C 195.765625 213.5625 196.515625 213.304688 196.925781 213.726562 C 198.34375 215.199219 199.757812 216.648438 201.1875 218.089844 C 201.53125 218.441406 201.375 219.023438 200.882812 219.195312 Z M 183.167969 231.484375 C 182.101562 227.070312 180.878906 222.644531 179.671875 218.300781 C 179.121094 216.296875 178.585938 214.257812 178.042969 212.234375 C 177.710938 211.007812 177.246094 209.617188 175.871094 209.328125 C 175.015625 209.144531 174.136719 209.496094 173.582031 210.171875 C 172.382812 211.621094 172.753906 213.292969 173.148438 214.839844 C 173.585938 216.535156 174.019531 218.230469 174.453125 219.925781 C 175.585938 224.367188 176.71875 228.832031 177.863281 233.257812 C 178.175781 234.46875 178.582031 235.820312 179.800781 236.378906 C 180.917969 236.890625 182.371094 236.503906 183.085938 235.5 C 183.636719 234.722656 183.628906 233.765625 183.472656 232.855469 C 183.394531 232.378906 183.269531 231.90625 183.167969 231.484375 Z M 159.109375 236.179688 C 158.726562 234.175781 158.347656 232.160156 157.960938 230.164062 C 157.3125 226.859375 156.757812 223.507812 156.050781 220.195312 C 155.78125 218.914062 155.585938 217.515625 155.109375 216.292969 C 154.894531 215.734375 154.542969 215.136719 153.960938 214.914062 C 153.410156 214.707031 152.78125 214.699219 152.21875 214.875 C 151.472656 215.109375 150.867188 215.675781 150.589844 216.398438 C 150.574219 216.433594 150.5625 216.472656 150.550781 216.511719 C 150.285156 217.664062 150.550781 218.875 150.703125 220.035156 C 150.859375 221.257812 151.042969 222.472656 151.273438 223.679688 C 152.203125 228.558594 153.027344 233.46875 153.835938 238.363281 C 154.015625 239.417969 154.402344 241.035156 155.453125 241.636719 C 155.613281 241.726562 155.78125 241.796875 155.949219 241.867188 C 156.710938 242.210938 157.597656 242.113281 158.425781 242.039062 C 161.324219 241.800781 164.214844 241.269531 167.015625 240.472656 C 168.140625 240.148438 169.246094 239.785156 170.335938 239.382812 C 171.265625 239.039062 172.449219 238.714844 173.203125 238.097656 C 173.582031 237.789062 173.65625 237.292969 173.675781 236.855469 C 173.707031 236.082031 173.335938 235.238281 172.589844 234.859375 C 172.027344 234.574219 171.347656 234.511719 170.695312 234.574219 C 169.933594 234.648438 169.171875 234.875 168.425781 235.035156 C 167.277344 235.296875 166.132812 235.542969 164.980469 235.789062 C 163.675781 236.066406 162.367188 236.339844 161.054688 236.597656 C 160.984375 236.609375 160.480469 236.6875 160.015625 236.765625 C 159.582031 236.84375 159.167969 236.582031 159.097656 236.183594 C 159.109375 236.183594 159.109375 236.183594 159.109375 236.179688 Z M 125.902344 242.085938 C 125.652344 237.550781 125.253906 232.976562 124.859375 228.480469 C 124.679688 226.414062 124.527344 224.308594 124.359375 222.222656 C 124.253906 220.957031 124.050781 219.503906 122.75 218.964844 C 121.9375 218.628906 121.007812 218.816406 120.335938 219.378906 C 118.890625 220.589844 118.953125 222.296875 119.0625 223.890625 C 119.179688 225.636719 119.300781 227.390625 119.421875 229.136719 C 119.726562 233.707031 120.03125 238.304688 120.355469 242.867188 C 120.441406 244.113281 120.597656 245.519531 121.699219 246.285156 C 122.710938 246.992188 124.207031 246.875 125.097656 246.015625 C 125.78125 245.351562 125.949219 244.410156 125.960938 243.484375 C 125.960938 243.003906 125.925781 242.519531 125.902344 242.085938 Z M 87.023438 232.882812 C 87.164062 232.820312 87.296875 232.738281 87.421875 232.652344 C 88.316406 232.066406 89.101562 231.195312 89.535156 230.25 C 90.941406 227.148438 89.710938 223.257812 86.753906 221.4375 C 84.839844 220.261719 82.488281 219.890625 80.296875 219.660156 C 78.6875 219.492188 77.066406 219.460938 75.449219 219.484375 C 74.203125 219.5 72.648438 219.351562 71.839844 220.484375 C 71.359375 221.15625 71.226562 222.023438 71.152344 222.820312 C 71.152344 222.84375 71.148438 222.867188 71.148438 222.890625 C 70.71875 227.742188 70.316406 232.597656 69.910156 237.449219 C 69.804688 238.675781 69.703125 239.898438 69.605469 241.125 C 69.515625 242.253906 69.277344 243.460938 69.394531 244.589844 C 69.46875 245.246094 69.71875 246.023438 70.324219 246.457031 C 70.882812 246.851562 71.613281 246.929688 72.285156 247.015625 C 73.070312 247.121094 73.855469 247.21875 74.640625 247.308594 C 76.15625 247.472656 77.710938 247.59375 79.210938 247.582031 C 83.109375 247.566406 87.960938 247.007812 89.851562 243.515625 C 90.796875 241.765625 90.703125 239.839844 90.242188 237.984375 C 90.035156 237.167969 89.71875 236.367188 89.277344 235.636719 C 88.96875 235.128906 88.582031 234.652344 88.15625 234.21875 C 87.832031 233.894531 87.492188 233.566406 87.070312 233.34375 C 86.972656 233.296875 86.726562 233.199219 86.742188 233.066406 C 86.761719 232.972656 86.9375 232.921875 87.023438 232.882812 Z M 75.179688 238.285156 C 75.328125 237.378906 75.3125 236.394531 75.722656 235.539062 C 76.078125 234.789062 76.914062 234.777344 77.71875 234.722656 C 78.5625 234.667969 79.417969 234.734375 80.246094 234.910156 C 81.851562 235.257812 83.414062 236.097656 84.128906 237.535156 C 84.761719 238.800781 84.734375 240.316406 84.070312 241.558594 C 83.394531 242.8125 81.628906 243.007812 80.261719 243.078125 C 78.546875 243.167969 76.894531 243.210938 75.59375 241.980469 C 74.683594 241.113281 75 239.453125 75.167969 238.394531 C 75.167969 238.355469 75.175781 238.320312 75.179688 238.285156 Z M 84.464844 226.363281 C 84.984375 227.574219 84.40625 229.347656 83.285156 230.089844 C 82.21875 230.792969 80.5625 230.921875 79.289062 230.867188 C 77.9375 230.8125 76.511719 230.691406 76.253906 229.179688 C 76.101562 228.265625 76.25 227.34375 76.355469 226.433594 C 76.441406 225.675781 76.398438 224.941406 77.132812 224.453125 C 77.773438 224.035156 78.675781 224.164062 79.402344 224.21875 C 79.414062 224.21875 79.421875 224.21875 79.425781 224.21875 C 81.035156 224.332031 83.75 224.695312 84.464844 226.363281 Z M 110.609375 235.054688 C 110.957031 234.863281 111.289062 234.648438 111.597656 234.40625 C 112.21875 233.925781 112.75 233.347656 113.175781 232.710938 C 114.160156 231.222656 114.410156 229.542969 114.191406 227.832031 C 113.761719 224.433594 111.371094 221.601562 107.953125 220.707031 C 106.246094 220.261719 104.484375 220.21875 102.730469 220.152344 C 100.96875 220.089844 99.210938 220.03125 97.433594 220.085938 C 96.457031 220.113281 95.109375 219.914062 94.382812 220.699219 C 94.015625 221.09375 93.816406 221.613281 93.722656 222.140625 C 93.515625 223.371094 93.601562 224.699219 93.589844 225.945312 C 93.5625 228 93.539062 230.054688 93.515625 232.117188 C 93.480469 235.675781 93.339844 239.246094 93.394531 242.808594 C 93.410156 243.9375 93.238281 245.339844 93.722656 246.394531 C 94.390625 247.84375 96.480469 248.371094 97.847656 247.355469 C 98.679688 246.734375 98.898438 245.902344 98.894531 244.976562 C 98.882812 242.21875 98.925781 239.445312 98.90625 236.679688 C 98.90625 236.570312 99.003906 236.484375 99.117188 236.484375 C 100.738281 236.46875 102.277344 236.460938 103.824219 236.402344 C 104.195312 236.386719 104.371094 236.488281 104.542969 236.785156 C 105.574219 238.523438 106.617188 240.269531 107.695312 241.996094 C 108.664062 243.550781 109.582031 245.121094 110.902344 246.472656 C 111.230469 246.804688 111.578125 247.128906 112.011719 247.339844 C 113.34375 247.976562 115.339844 247.128906 115.605469 245.792969 C 115.765625 245.003906 115.292969 244.382812 114.894531 243.726562 C 114.429688 242.964844 113.957031 242.210938 113.484375 241.457031 C 112.53125 239.925781 111.570312 238.402344 110.660156 236.859375 C 110.445312 236.496094 110.105469 236.09375 109.972656 235.699219 C 109.949219 235.617188 109.941406 235.550781 109.957031 235.492188 C 110.007812 235.261719 110.335938 235.203125 110.609375 235.054688 Z M 98.898438 231.257812 C 98.902344 230.335938 98.890625 229.417969 98.882812 228.496094 C 98.875 227.570312 98.871094 226.644531 98.863281 225.722656 C 98.863281 225.421875 98.75 224.980469 99.007812 224.847656 C 99.234375 224.734375 99.785156 224.8125 100.042969 224.808594 C 101.550781 224.765625 103.089844 224.792969 104.589844 224.957031 C 105.730469 225.082031 107.042969 225.402344 107.773438 226.335938 C 108.492188 227.257812 108.644531 228.621094 108.136719 229.667969 C 107.464844 231.050781 105.910156 231.882812 104.335938 231.949219 C 104.1875 231.953125 104.042969 231.957031 103.898438 231.960938 C 103.894531 231.960938 103.890625 231.960938 103.886719 231.960938 C 102.925781 231.992188 101.964844 232.007812 101 232.019531 C 100.546875 232.023438 100.09375 232.03125 99.640625 232.035156 C 99.46875 232.035156 99.296875 232.035156 99.125 232.035156 C 99.011719 232.035156 98.910156 231.953125 98.910156 231.84375 C 98.898438 231.652344 98.898438 231.457031 98.898438 231.257812 Z M 244.617188 185.761719 C 246.054688 184.917969 247.480469 184.050781 248.925781 183.214844 C 249.53125 182.863281 250.125 182.460938 250.542969 181.90625 C 250.964844 181.351562 251.183594 180.621094 250.984375 179.980469 C 250.757812 179.242188 250.015625 178.753906 249.242188 178.652344 C 248.148438 178.507812 247.097656 179 246.183594 179.546875 C 242.152344 181.96875 237.960938 184.214844 233.792969 186.375 C 232.925781 186.820312 232.027344 187.300781 231.390625 188.0625 C 231.128906 188.378906 230.925781 188.742188 230.820312 189.136719 C 230.414062 190.6875 231.691406 191.582031 232.9375 191.507812 C 233.972656 191.449219 235.011719 190.859375 235.949219 190.433594 C 236.03125 190.398438 236.113281 190.363281 236.195312 190.320312 C 236.773438 190.054688 237.355469 189.785156 237.933594 189.507812 C 238.253906 189.355469 238.589844 189.195312 238.902344 189.039062 C 239.027344 188.972656 239.15625 188.914062 239.285156 188.851562 C 239.402344 188.792969 239.511719 188.722656 239.632812 188.679688 C 239.667969 188.664062 239.703125 188.660156 239.742188 188.667969 C 239.773438 188.679688 239.800781 188.707031 239.824219 188.734375 C 239.929688 188.890625 240.007812 189.082031 240.105469 189.253906 C 240.199219 189.4375 240.296875 189.617188 240.398438 189.800781 C 240.691406 190.34375 240.984375 190.886719 241.277344 191.425781 C 241.570312 191.972656 241.863281 192.515625 242.15625 193.054688 C 242.777344 194.207031 243.398438 195.355469 244.023438 196.507812 C 245.195312 198.675781 246.375 200.84375 247.550781 203.015625 C 248.105469 204.039062 248.710938 205.050781 249.214844 206.09375 C 249.636719 206.957031 250.351562 207.621094 251.480469 207.644531 C 252.496094 207.660156 253.507812 207.113281 254.050781 206.25 C 254.816406 205.042969 254.269531 203.96875 253.78125 202.902344 C 253.152344 201.535156 252.425781 200.210938 251.703125 198.894531 C 249.359375 194.621094 246.898438 190.394531 244.507812 186.152344 C 244.472656 186.085938 244.429688 186.007812 244.453125 185.929688 C 244.472656 185.851562 244.546875 185.804688 244.617188 185.761719 Z M 136.328125 239.886719 C 136.09375 237.859375 135.859375 235.820312 135.617188 233.804688 C 135.207031 230.457031 134.902344 227.074219 134.433594 223.71875 C 134.253906 222.421875 134.160156 221.011719 133.777344 219.757812 C 133.601562 219.1875 133.296875 218.566406 132.730469 218.304688 C 132.195312 218.054688 131.570312 218 130.996094 218.136719 C 130.230469 218.316406 129.585938 218.835938 129.253906 219.539062 C 129.238281 219.574219 129.222656 219.609375 129.214844 219.644531 C 128.867188 220.777344 129.042969 222.003906 129.109375 223.171875 C 129.183594 224.398438 129.273438 225.625 129.414062 226.84375 C 129.984375 231.78125 130.457031 236.734375 130.910156 241.671875 C 131.007812 242.738281 131.28125 244.382812 132.285156 245.058594 C 132.441406 245.160156 132.605469 245.238281 132.765625 245.324219 C 133.5 245.722656 134.394531 245.6875 135.230469 245.679688 C 138.144531 245.648438 141.066406 245.328125 143.925781 244.734375 C 145.066406 244.5 146.199219 244.214844 147.316406 243.890625 C 148.269531 243.613281 149.472656 243.378906 150.273438 242.820312 C 150.671875 242.539062 150.777344 242.050781 150.828125 241.613281 C 150.914062 240.84375 150.605469 239.972656 149.890625 239.546875 C 149.347656 239.21875 148.675781 239.109375 148.023438 239.125 C 147.257812 239.140625 146.484375 239.308594 145.726562 239.421875 C 144.5625 239.59375 143.402344 239.761719 142.238281 239.921875 C 140.917969 240.105469 139.589844 240.28125 138.261719 240.445312 C 138.195312 240.453125 137.683594 240.488281 137.214844 240.539062 C 136.777344 240.585938 136.382812 240.292969 136.335938 239.894531 C 136.328125 239.894531 136.328125 239.890625 136.328125 239.886719 Z M 136.328125 239.886719 " fill-opacity="1" fill-rule="nonzero"/></svg>