<svg xmlns="http://www.w3.org/2000/svg" xmlns:xlink="http://www.w3.org/1999/xlink" width="400" zoomAndPan="magnify" viewBox="0 0 300 299.999988" height="400" preserveAspectRatio="xMidYMid meet" version="1.0"><defs><clipPath id="3d0bd13c74"><path d="M 40.058594 47 L 259.808594 47 L 259.808594 253 L 40.058594 253 Z M 40.058594 47 " clip-rule="nonzero"/></clipPath></defs><rect x="-30" width="360" fill="#ffffff" y="-29.999999" height="359.999986" fill-opacity="1"/><rect x="-30" width="360" fill="#ffffff" y="-29.999999" height="359.999986" fill-opacity="1"/><path fill="#fe723e" d="M 151.011719 246.230469 C 138.269531 246.132812 124.277344 243.355469 110.941406 237.5 C 107.5625 236.015625 104.097656 234.820312 100.644531 233.558594 C 98.652344 232.832031 96.683594 232.03125 94.726562 231.203125 C 93.773438 230.796875 92.867188 230.277344 91.957031 229.769531 C 90.105469 228.734375 88.28125 227.660156 86.429688 226.625 C 83.496094 224.984375 80.9375 222.832031 78.464844 220.589844 C 75.238281 217.652344 72.1875 214.535156 69.574219 211.023438 C 68.273438 209.28125 66.9375 207.566406 65.738281 205.761719 C 64.59375 204.039062 63.554688 202.238281 62.5625 200.417969 C 61.785156 199 61.097656 197.523438 60.472656 196.03125 C 58.929688 192.339844 57.390625 188.648438 55.96875 184.914062 C 55.339844 183.261719 54.941406 181.519531 54.535156 179.796875 C 53.882812 177.035156 53.101562 174.277344 52.757812 171.46875 C 52.183594 166.839844 51.910156 162.167969 52.40625 157.492188 C 52.625 155.425781 52.613281 153.324219 52.945312 151.277344 C 53.519531 147.726562 54.261719 144.199219 54.957031 140.671875 C 55.285156 139.027344 55.585938 137.378906 56.039062 135.773438 C 56.894531 132.722656 57.769531 129.671875 58.785156 126.667969 C 59.71875 123.917969 60.820312 121.21875 61.894531 118.511719 C 62.613281 116.703125 63.359375 114.902344 64.1875 113.140625 C 65.726562 109.867188 67.21875 106.558594 69.429688 103.652344 C 74.96875 96.371094 81.226562 89.773438 88.273438 83.925781 C 92.167969 80.695312 96.226562 77.699219 100.53125 75.046875 C 101.777344 74.277344 103.125 73.671875 104.457031 73.050781 C 105.351562 72.632812 106.277344 72.273438 107.222656 71.96875 C 109.78125 71.148438 112.34375 70.355469 114.914062 69.578125 C 116.390625 69.128906 117.875 68.679688 119.378906 68.320312 C 122.070312 67.6875 124.765625 67.105469 127.46875 66.535156 C 129.726562 66.058594 131.980469 65.535156 134.257812 65.179688 C 137.464844 64.679688 140.683594 64.289062 143.90625 63.90625 C 149.78125 63.203125 155.679688 62.863281 161.597656 62.882812 C 167.367188 62.90625 173.109375 63.371094 178.789062 64.378906 C 181.632812 64.886719 184.5 65.289062 187.257812 66.207031 C 188.820312 66.730469 190.390625 67.230469 191.957031 67.734375 C 193.15625 68.125 194.363281 68.507812 195.566406 68.894531 C 197.609375 69.550781 199.484375 70.546875 201.285156 71.710938 C 208.210938 76.171875 214.558594 81.335938 220.128906 87.417969 C 229.574219 97.742188 236.75 109.425781 241.171875 122.75 C 243.332031 129.246094 244.875 135.886719 245.648438 142.695312 C 245.859375 144.53125 246.136719 146.390625 246.070312 148.226562 C 245.960938 151.230469 246.25 154.207031 246.324219 157.195312 C 246.414062 160.667969 246.296875 164.152344 246.105469 167.621094 C 245.84375 172.292969 244.953125 176.882812 243.75 181.402344 C 240.953125 191.917969 236.191406 201.46875 229.570312 210.09375 C 222.058594 219.882812 212.816406 227.664062 202.0625 233.667969 C 191.742188 239.433594 180.699219 243.113281 169.035156 244.976562 C 163.628906 245.824219 158.199219 246.214844 151.011719 246.230469 Z M 151.011719 246.230469 " fill-opacity="1" fill-rule="nonzero"/><path fill="#efba2d" d="M 131.164062 176.960938 C 131.371094 177.667969 131.117188 178.808594 130.214844 179.28125 C 129.050781 179.898438 127.789062 180.078125 126.511719 180.207031 C 126.035156 180.257812 125.546875 180.21875 125.070312 180.21875 C 123.203125 180.460938 121.527344 179.78125 119.867188 179.097656 C 119.445312 178.925781 119.097656 178.542969 118.757812 178.214844 C 117.757812 177.25 116.789062 176.261719 116.121094 175.019531 C 115.34375 173.585938 114.453125 172.207031 113.746094 170.742188 C 113.390625 170.007812 113.097656 169.265625 112.578125 168.625 C 112.066406 167.992188 111.5625 167.347656 111.136719 166.660156 C 110.507812 165.636719 109.617188 164.882812 108.769531 164.074219 C 108.347656 163.675781 108.074219 163.097656 107.617188 162.765625 C 106.304688 161.804688 105.367188 160.417969 103.878906 159.644531 C 103.285156 159.335938 102.917969 158.636719 102.355469 158.238281 C 100.996094 157.277344 99.898438 156.046875 98.746094 154.878906 C 98.300781 154.429688 98.035156 153.816406 97.671875 153.289062 C 97.304688 152.761719 96.855469 152.285156 96.554688 151.722656 C 96.183594 151.023438 95.949219 150.257812 95.621094 149.53125 C 95.105469 148.402344 94.832031 147.210938 94.742188 145.984375 C 94.691406 145.21875 94.722656 144.421875 94.855469 143.667969 C 95.09375 142.308594 95.328125 140.929688 95.773438 139.628906 C 96.113281 138.640625 96.578125 137.640625 97.429688 136.914062 C 97.699219 136.679688 97.917969 136.371094 98.113281 136.066406 C 98.917969 134.816406 100.28125 134.277344 101.433594 133.484375 C 101.828125 133.210938 102.355469 133.128906 102.808594 132.933594 C 103.214844 132.75 103.582031 132.441406 104 132.339844 C 105.203125 132.058594 106.441406 131.921875 107.632812 131.605469 C 108.570312 131.355469 109.503906 131.242188 110.445312 131.316406 C 112.527344 131.480469 114.625 131.628906 116.589844 132.410156 C 117.710938 132.855469 118.738281 133.511719 119.804688 134.089844 C 121.25 134.871094 122.363281 136.058594 123.609375 137.070312 C 124.425781 137.738281 125.019531 138.660156 125.753906 139.433594 C 126.671875 140.394531 127.140625 141.625 127.699219 142.777344 C 128.871094 145.195312 129.199219 147.796875 128.789062 150.464844 C 128.59375 151.742188 127.710938 152.328125 126.710938 152.351562 C 125.433594 152.378906 124.621094 151.359375 124.691406 150.171875 C 124.765625 148.957031 124.75 147.761719 124.546875 146.570312 C 124.292969 145.058594 123.820312 143.558594 122.875 142.417969 C 121.804688 141.121094 120.816406 139.6875 119.242188 138.832031 C 118.625 138.492188 118.179688 137.832031 117.484375 137.503906 C 115.855469 136.746094 114.339844 135.722656 112.4375 135.703125 C 111.871094 135.691406 111.304688 135.410156 110.746094 135.4375 C 108.578125 135.535156 106.449219 135.777344 104.421875 136.703125 C 103.484375 137.132812 102.480469 137.460938 101.75 138.1875 C 100.828125 139.101562 99.886719 140.035156 99.609375 141.425781 C 99.449219 142.234375 98.976562 142.988281 98.867188 143.796875 C 98.691406 145.101562 98.570312 146.445312 99.320312 147.671875 C 99.445312 147.882812 99.5 148.140625 99.570312 148.378906 C 99.941406 149.65625 100.753906 150.695312 101.492188 151.757812 C 101.992188 152.472656 102.679688 153.070312 103.324219 153.671875 C 103.878906 154.1875 104.5 154.632812 105.085938 155.121094 C 105.925781 155.820312 106.765625 156.523438 107.59375 157.238281 C 108.644531 158.144531 109.703125 159.03125 110.707031 159.988281 C 111.355469 160.605469 111.902344 161.328125 112.5 162.007812 C 112.601562 162.121094 112.703125 162.234375 112.8125 162.339844 C 114.132812 163.585938 115.25 164.992188 116.183594 166.542969 C 116.882812 167.707031 117.535156 168.898438 118.1875 170.085938 C 118.472656 170.609375 118.640625 171.195312 118.945312 171.707031 C 119.328125 172.34375 119.789062 172.929688 120.21875 173.535156 C 120.4375 173.847656 120.683594 174.148438 120.886719 174.46875 C 121.695312 175.710938 123.007812 175.914062 124.28125 175.933594 C 125.9375 175.960938 127.597656 175.738281 129.253906 175.660156 C 130.136719 175.605469 130.941406 176.1875 131.164062 176.960938 Z M 207.53125 143.539062 C 207.402344 142.574219 207.277344 141.582031 206.9375 140.679688 C 206.117188 138.457031 204.972656 136.414062 203.070312 134.90625 C 202.546875 134.496094 201.988281 134.121094 201.40625 133.804688 C 200.714844 133.433594 199.921875 133.222656 199.257812 132.808594 C 198.152344 132.128906 196.945312 131.890625 195.695312 131.746094 C 195.246094 131.695312 194.796875 131.632812 194.359375 131.550781 C 192.742188 131.25 191.121094 131.128906 189.496094 131.507812 C 189.03125 131.621094 188.554688 131.703125 188.078125 131.753906 C 186.597656 131.914062 185.292969 132.535156 184.03125 133.257812 C 183.378906 133.628906 182.679688 133.917969 182.074219 134.433594 C 181.613281 134.820312 180.988281 135.042969 180.527344 135.507812 C 180 136.039062 179.429688 136.523438 178.863281 137.007812 C 178.441406 137.375 177.914062 137.648438 177.585938 138.082031 C 176.757812 139.171875 176 140.324219 175.238281 141.46875 C 174.953125 141.894531 174.707031 142.355469 174.507812 142.824219 C 174.363281 143.160156 174.386719 143.574219 174.21875 143.890625 C 173.503906 145.207031 173.511719 146.65625 173.441406 148.078125 C 173.398438 148.980469 173.414062 149.917969 173.632812 150.78125 C 173.773438 151.34375 174.222656 152.050781 174.714844 152.265625 C 176.238281 152.929688 177.804688 151.585938 177.484375 149.894531 C 177.082031 147.761719 177.613281 145.792969 178.570312 143.988281 C 179.226562 142.75 179.921875 141.445312 181.089844 140.535156 C 181.496094 140.21875 181.863281 139.855469 182.25 139.515625 C 182.707031 139.113281 183.136719 138.664062 183.632812 138.3125 C 184.519531 137.675781 185.386719 136.992188 186.484375 136.726562 C 186.507812 136.722656 186.53125 136.707031 186.550781 136.691406 C 188.125 135.75 189.902344 135.433594 191.667969 135.460938 C 193.253906 135.480469 194.847656 135.847656 196.414062 136.175781 C 197.339844 136.367188 198.214844 136.789062 199.113281 137.117188 C 199.199219 137.148438 199.265625 137.242188 199.339844 137.304688 C 200.003906 137.859375 200.707031 138.382812 201.3125 138.996094 C 201.789062 139.476562 202.300781 139.949219 202.476562 140.671875 C 202.71875 141.640625 203.03125 142.578125 203.222656 143.574219 C 203.511719 145.082031 203.273438 146.476562 202.9375 147.859375 C 202.695312 148.839844 202.164062 149.789062 201.582031 150.632812 C 200.835938 151.707031 199.988281 152.742188 199.042969 153.636719 C 197.894531 154.714844 196.574219 155.605469 195.378906 156.628906 C 194.101562 157.714844 192.847656 158.828125 191.640625 159.988281 C 190.699219 160.890625 189.824219 161.867188 188.96875 162.851562 C 188.289062 163.640625 187.667969 164.476562 187.0625 165.324219 C 186.445312 166.1875 185.832031 167.0625 185.292969 167.976562 C 184.886719 168.664062 184.640625 169.441406 184.253906 170.144531 C 183.621094 171.296875 182.941406 172.429688 182.246094 173.554688 C 181.667969 174.492188 180.933594 175.339844 179.84375 175.617188 C 178.351562 175.996094 176.824219 176.109375 175.273438 175.839844 C 174.4375 175.695312 173.566406 175.683594 172.71875 175.664062 C 172.445312 175.660156 172.101562 175.78125 171.914062 175.96875 C 171.40625 176.476562 171.027344 177.109375 171.203125 177.855469 C 171.410156 178.738281 171.875 179.445312 172.863281 179.664062 C 174.304688 179.988281 175.734375 180.40625 177.355469 180.171875 C 178.625 180.503906 179.917969 180.054688 181.171875 179.628906 C 182.65625 179.125 183.804688 178.078125 184.875 176.96875 C 185.09375 176.742188 185.257812 176.460938 185.441406 176.199219 C 185.75 175.761719 186.097656 175.339844 186.351562 174.871094 C 186.753906 174.132812 187.089844 173.367188 187.441406 172.601562 C 187.75 171.933594 188.445312 171.457031 188.398438 170.613281 C 188.394531 170.539062 188.511719 170.460938 188.570312 170.375 C 188.859375 169.964844 189.160156 169.558594 189.425781 169.128906 C 189.734375 168.621094 189.9375 168.023438 190.316406 167.574219 C 191.292969 166.410156 192.316406 165.277344 193.378906 164.179688 C 194.410156 163.113281 195.464844 162.066406 196.578125 161.089844 C 198.066406 159.78125 199.640625 158.578125 201.132812 157.273438 C 202.054688 156.46875 202.894531 155.558594 203.753906 154.679688 C 204.144531 154.28125 204.574219 153.894531 204.863281 153.425781 C 205.316406 152.6875 205.65625 151.878906 206.058594 151.109375 C 206.578125 150.09375 207.199219 149.132812 207.226562 147.921875 C 207.246094 147.175781 207.492188 146.4375 207.554688 145.691406 C 207.601562 144.96875 207.625 144.242188 207.53125 143.539062 Z M 178.214844 225.667969 C 177.074219 225.949219 176.332031 225.160156 175.441406 224.792969 C 175.0625 224.640625 174.875 224.578125 174.527344 224.855469 C 174.21875 225.105469 173.765625 225.292969 173.367188 225.3125 C 171.394531 225.410156 169.421875 225.421875 167.449219 225.5 C 165.636719 225.570312 163.828125 225.683594 162.015625 225.773438 C 161.789062 225.785156 161.558594 225.777344 161.332031 225.78125 C 158.578125 225.835938 155.816406 225.890625 153.0625 225.949219 C 151.164062 225.988281 149.269531 226.03125 147.371094 226.078125 C 145.683594 226.125 143.988281 226.179688 142.300781 226.242188 C 140.9375 226.289062 139.578125 226.359375 138.214844 226.402344 C 136.371094 226.457031 134.523438 226.484375 132.683594 226.539062 C 132.105469 226.558594 131.53125 226.703125 130.960938 226.675781 C 130.480469 226.65625 130.011719 226.441406 129.527344 226.359375 C 129.25 226.316406 128.921875 226.300781 128.679688 226.410156 C 127.742188 226.835938 126.835938 227.332031 125.910156 227.777344 C 125.421875 228.019531 124.941406 228.003906 124.507812 227.625 C 123.625 226.855469 123.710938 225.847656 124.765625 225.203125 C 125.757812 224.597656 126.824219 224.109375 127.8125 223.492188 C 131.453125 221.195312 134.71875 218.445312 137.613281 215.257812 C 139.167969 213.542969 140.652344 211.785156 141.777344 209.761719 C 142.300781 208.824219 142.695312 207.804688 143.039062 206.789062 C 143.175781 206.394531 143.085938 205.894531 142.996094 205.460938 C 142.820312 204.578125 143.265625 203.707031 144.039062 203.535156 C 144.875 203.347656 145.648438 203.828125 145.867188 204.703125 C 146.191406 206.015625 146.042969 207.304688 145.582031 208.558594 C 145.347656 209.191406 145.0625 209.800781 144.761719 210.523438 C 150.253906 210.542969 155.65625 210.90625 160.921875 210.605469 C 160.761719 209.261719 160.5625 208.054688 160.484375 206.84375 C 160.433594 205.972656 161.117188 205.355469 161.941406 205.363281 C 162.851562 205.371094 163.414062 205.886719 163.355469 206.835938 C 163.246094 208.566406 164.054688 209.960938 164.882812 211.335938 C 166.230469 213.582031 167.996094 215.523438 169.917969 217.273438 C 172.34375 219.488281 174.964844 221.472656 178.019531 222.78125 C 178.53125 223 179 223.265625 179.238281 223.839844 C 179.597656 224.738281 179.148438 225.4375 178.214844 225.667969 Z M 180.894531 123.015625 C 180.890625 125.707031 180.894531 128.398438 180.894531 131.09375 C 180.894531 132.378906 180.097656 133.09375 178.832031 132.96875 C 178.230469 132.90625 177.625 132.851562 177.019531 132.851562 C 172.226562 132.847656 167.425781 132.851562 162.628906 132.855469 C 162.503906 132.792969 162.375 132.675781 162.25 132.671875 C 160.953125 132.660156 159.660156 132.660156 158.371094 132.671875 C 158.261719 132.671875 158.15625 132.769531 158.046875 132.820312 C 151.777344 132.816406 145.507812 132.816406 139.238281 132.8125 C 133.578125 132.808594 127.917969 132.808594 122.257812 132.804688 C 121.402344 132.804688 120.296875 131.671875 120.257812 130.722656 C 120.195312 129.210938 120.167969 127.695312 120.109375 126.179688 C 120.082031 125.554688 120.03125 124.925781 119.960938 124.300781 C 119.882812 123.578125 119.957031 122.839844 120.386719 122.285156 C 120.839844 121.695312 121.539062 121.378906 122.332031 121.378906 C 125.859375 121.382812 129.386719 121.390625 132.914062 121.378906 C 146.558594 121.332031 160.207031 121.28125 173.851562 121.222656 C 175.546875 121.210938 177.234375 121.105469 178.929688 121.082031 C 180.222656 121.066406 180.894531 121.753906 180.894531 123.015625 Z M 158.367188 132.671875 C 158.257812 132.671875 158.152344 132.769531 158.042969 132.820312 C 158.550781 132.871094 159.058594 132.960938 159.566406 132.957031 C 160.589844 132.949219 161.609375 132.890625 162.628906 132.855469 C 162.503906 132.792969 162.375 132.675781 162.25 132.671875 C 160.949219 132.660156 159.65625 132.664062 158.367188 132.671875 Z M 158.367188 132.671875 " fill-opacity="1" fill-rule="nonzero"/><path fill="#05413f" d="M 181.824219 248.207031 C 177.714844 248.179688 173.601562 248.238281 169.488281 248.242188 C 163.800781 248.25 158.117188 248.242188 152.425781 248.242188 C 152.425781 248.261719 152.425781 248.285156 152.425781 248.300781 C 142.804688 248.378906 133.183594 248.457031 123.558594 248.53125 C 123.203125 248.535156 122.851562 248.507812 122.496094 248.519531 C 119.988281 248.59375 118.335938 245.496094 119.035156 243.472656 C 119.878906 241.039062 120.46875 238.519531 121.132812 236.027344 C 121.753906 233.703125 122.308594 231.367188 122.914062 229.042969 C 123.15625 228.117188 123.375 227.171875 123.753906 226.304688 C 124.214844 225.238281 125.066406 224.609375 126.292969 224.574219 C 132.96875 224.386719 139.640625 224.152344 146.3125 224 C 155.554688 223.785156 164.789062 223.621094 174.027344 223.449219 C 175.417969 223.425781 176.816406 223.492188 178.210938 223.480469 C 179.367188 223.472656 180.007812 224.296875 180.359375 225.128906 C 181.351562 227.457031 181.921875 229.929688 182.472656 232.40625 C 182.925781 234.425781 183.636719 236.386719 184.226562 238.375 C 184.347656 238.785156 184.4375 239.207031 184.53125 239.625 C 184.855469 241.03125 185.195312 242.425781 185.488281 243.835938 C 186.082031 246.625 184.425781 248.222656 181.824219 248.207031 Z M 134.988281 210.183594 C 135.90625 210.664062 136.84375 211.125 137.824219 211.464844 C 142.488281 213.074219 147.335938 213.457031 152.21875 213.542969 C 157.5 213.628906 162.628906 212.777344 167.613281 211.046875 C 168.851562 210.617188 170.003906 210.054688 170.988281 209.1875 C 172.800781 207.582031 173.671875 205.578125 173.425781 203.15625 C 173.15625 200.480469 171.707031 198.433594 169.820312 196.644531 C 169.703125 196.535156 169.371094 196.503906 169.234375 196.59375 C 167.628906 197.621094 165.824219 198.097656 164.027344 198.636719 C 157.355469 200.640625 150.625 201.191406 143.824219 199.464844 C 141.402344 198.84375 139.039062 197.988281 136.660156 197.214844 C 136.183594 197.0625 135.800781 197.109375 135.382812 197.382812 C 133.949219 198.308594 133.230469 199.71875 132.773438 201.28125 C 132.152344 203.429688 132.203125 205.550781 132.921875 207.714844 C 133.304688 208.878906 133.980469 209.648438 134.988281 210.183594 Z M 134.988281 210.183594 " fill-opacity="1" fill-rule="nonzero"/><path fill="#f4f0d2" d="M 183.125 94.535156 C 181.859375 96.042969 180.59375 97.550781 179.324219 99.058594 C 177.945312 100.707031 176.570312 102.351562 175.191406 103.996094 C 175.027344 104.191406 174.875 104.394531 174.722656 104.589844 C 174.328125 105.113281 173.738281 105.214844 173.21875 105.03125 C 172.875 104.910156 172.507812 104.488281 172.414062 104.132812 C 172.269531 103.570312 172.34375 102.949219 172.335938 102.351562 C 172.332031 102.125 172.355469 101.894531 172.363281 101.667969 C 172.363281 99.914062 172.351562 98.164062 172.371094 96.410156 C 172.375 95.78125 172.449219 95.15625 172.496094 94.375 C 171.628906 95.070312 170.84375 95.695312 170.066406 96.316406 C 168.496094 97.585938 166.925781 98.855469 165.359375 100.132812 C 164.929688 100.480469 164.550781 100.914062 164.082031 101.191406 C 163.359375 101.628906 162.410156 101.164062 162.328125 100.304688 C 162.25 99.496094 162.296875 98.660156 162.363281 97.839844 C 162.460938 96.710938 162.617188 95.59375 162.761719 94.46875 C 162.933594 93.121094 163.121094 91.777344 163.296875 90.429688 C 163.476562 89.058594 163.652344 87.6875 163.824219 86.3125 C 163.945312 85.339844 164.011719 84.355469 164.179688 83.390625 C 164.339844 82.4375 164.835938 82.003906 165.539062 82.0625 C 166.074219 82.105469 166.414062 82.398438 166.398438 82.925781 C 166.371094 83.882812 166.289062 84.839844 166.207031 85.792969 C 166.140625 86.566406 166.058594 87.34375 165.945312 88.117188 C 165.832031 88.929688 165.667969 89.738281 165.539062 90.550781 C 165.464844 91.019531 165.40625 91.496094 165.367188 91.972656 C 165.285156 92.972656 165.230469 93.976562 165.132812 94.976562 C 165.054688 95.707031 164.921875 96.425781 164.816406 97.152344 C 164.875 97.167969 164.941406 97.191406 165.003906 97.207031 C 166.78125 95.753906 168.554688 94.300781 170.332031 92.855469 C 171.074219 92.246094 171.808594 91.628906 172.585938 91.066406 C 173.078125 90.710938 173.628906 90.390625 174.261719 90.796875 C 174.910156 91.210938 175.011719 91.8125 174.988281 92.554688 C 174.921875 94.796875 174.9375 97.046875 174.910156 99.292969 C 174.90625 99.609375 174.839844 99.925781 174.9375 100.347656 C 175.183594 100.125 175.464844 99.9375 175.664062 99.6875 C 177.285156 97.695312 178.871094 95.675781 180.496094 93.6875 C 181.613281 92.316406 182.757812 90.972656 183.917969 89.632812 C 184.144531 89.367188 184.449219 89.15625 184.75 88.988281 C 185.300781 88.675781 185.949219 88.808594 186.324219 89.257812 C 186.617188 89.613281 186.617188 90.308594 186.261719 90.742188 C 185.234375 92.019531 184.175781 93.273438 183.125 94.535156 Z M 205.960938 107.386719 C 204.636719 108.183594 203.199219 108.644531 201.632812 108.574219 C 201.179688 108.554688 200.882812 108.695312 200.859375 109.175781 C 200.816406 109.902344 200.8125 110.628906 200.777344 111.355469 C 200.761719 111.753906 200.699219 112.148438 200.679688 112.542969 C 200.644531 113.144531 200.648438 113.746094 200.597656 114.34375 C 200.527344 115.242188 200.46875 116.148438 200.328125 117.035156 C 200.253906 117.515625 199.839844 117.714844 199.355469 117.726562 C 198.875 117.742188 198.378906 117.6875 198.230469 117.160156 C 198.074219 116.613281 198.023438 116.027344 197.992188 115.457031 C 197.972656 115.0625 198.082031 114.660156 198.101562 114.253906 C 198.210938 112.390625 198.316406 110.523438 198.40625 108.65625 C 198.4375 108.054688 197.859375 107.390625 197.261719 107.382812 C 197.039062 107.378906 196.746094 107.589844 196.605469 107.785156 C 195.378906 109.484375 194.179688 111.210938 192.960938 112.917969 C 192.546875 113.492188 191.875 113.636719 191.292969 113.316406 C 190.796875 113.042969 190.574219 112.328125 190.925781 111.710938 C 191.40625 110.855469 191.972656 110.042969 192.535156 109.234375 C 194.082031 107.019531 195.640625 104.804688 197.207031 102.601562 C 198.640625 100.582031 200.082031 98.570312 201.535156 96.5625 C 202.199219 95.640625 202.703125 95.453125 203.796875 95.835938 C 205.863281 96.558594 207.664062 97.660156 208.542969 99.792969 C 208.855469 100.546875 208.996094 101.378906 209.15625 101.945312 C 208.898438 104.464844 207.894531 106.214844 205.960938 107.386719 Z M 206.503906 101.382812 C 206.179688 100.046875 205.289062 99.210938 204.101562 98.625 C 203.308594 98.238281 203.15625 98.265625 202.675781 98.996094 C 202.160156 99.765625 201.691406 100.570312 201.160156 101.332031 C 200.378906 102.449219 199.570312 103.546875 198.757812 104.640625 C 198.492188 104.996094 198.515625 105.25 198.925781 105.40625 C 199.765625 105.722656 200.609375 106.011719 201.449219 106.316406 C 201.472656 106.261719 201.488281 106.207031 201.511719 106.152344 C 202.789062 106.171875 203.945312 105.804688 204.992188 105.070312 C 206.230469 104.191406 206.832031 102.730469 206.503906 101.382812 Z M 112.515625 106.34375 C 112.542969 106.90625 112.179688 107.375 111.609375 107.347656 C 111.0625 107.320312 110.507812 107.207031 109.980469 107.054688 C 107.507812 106.332031 105.046875 105.582031 102.574219 104.847656 C 102.371094 104.789062 102.144531 104.792969 101.925781 104.769531 C 101.878906 104.832031 101.828125 104.898438 101.78125 104.960938 C 102.488281 106.324219 103.191406 107.695312 103.902344 109.054688 C 104.132812 109.503906 104.378906 109.945312 104.632812 110.382812 C 105.132812 111.246094 105 112.1875 104.332031 112.492188 C 103.679688 112.785156 102.757812 112.273438 102.359375 111.5 C 101.09375 109.027344 99.808594 106.566406 98.488281 104.121094 C 97.546875 102.386719 96.554688 100.679688 95.5625 98.972656 C 95.300781 98.519531 94.984375 98.085938 94.648438 97.6875 C 94.191406 97.140625 94.082031 96.566406 94.5 96.039062 C 96.246094 93.839844 98.390625 92.375 101.328125 92.433594 C 103.109375 92.46875 104.882812 94.066406 105.347656 95.800781 C 105.878906 97.777344 105.488281 99.578125 104.664062 101.359375 C 104.632812 101.429688 104.597656 101.496094 104.558594 101.5625 C 103.9375 102.617188 103.929688 102.636719 105.125 103.007812 C 107.222656 103.65625 109.332031 104.269531 111.429688 104.917969 C 112.3125 105.1875 112.472656 105.433594 112.515625 106.34375 Z M 103.167969 97.421875 C 103.175781 95.804688 102.074219 94.335938 100.179688 95.03125 C 99.316406 95.347656 98.511719 95.828125 97.6875 96.25 C 97.230469 96.484375 97.191406 96.808594 97.445312 97.25 C 98.144531 98.480469 98.796875 99.734375 99.496094 100.96875 C 99.816406 101.535156 100.1875 102.066406 100.570312 102.664062 C 102.027344 101.453125 102.160156 101.339844 102.695312 99.765625 C 102.953125 99.019531 103.164062 98.207031 103.167969 97.421875 Z M 187.820312 110.523438 C 186.066406 111.273438 184.402344 111.121094 183.195312 109.710938 C 182.808594 109.261719 182.496094 108.699219 182.316406 108.136719 C 182.089844 107.425781 182.03125 106.65625 181.960938 106.261719 C 182.003906 104.027344 182.53125 102.261719 183.25 100.566406 C 184.355469 97.960938 185.832031 95.566406 187.898438 93.605469 C 189.046875 92.515625 190.257812 91.535156 191.910156 91.171875 C 193.867188 90.742188 195.816406 91.792969 196.433594 93.957031 C 196.773438 95.132812 196.65625 96.320312 196.527344 97.480469 C 196.109375 101.304688 194.214844 104.453125 191.804688 107.347656 C 190.691406 108.6875 189.4375 109.832031 187.820312 110.523438 Z M 189.96875 105.730469 C 191.996094 103.269531 193.621094 100.628906 194.058594 97.417969 C 194.1875 96.433594 194.066406 95.410156 193.957031 94.410156 C 193.898438 93.898438 193.511719 93.636719 192.917969 93.628906 C 191.726562 93.621094 190.832031 94.222656 190.023438 94.960938 C 188.191406 96.640625 186.8125 98.667969 185.785156 100.925781 C 185.09375 102.445312 184.472656 103.992188 184.546875 105.855469 C 184.546875 106.074219 184.527344 106.429688 184.550781 106.785156 C 184.636719 108.171875 185.476562 108.734375 186.773438 108.277344 C 186.941406 108.21875 187.101562 108.148438 187.261719 108.066406 C 188.347656 107.496094 189.183594 106.683594 189.96875 105.730469 Z M 93.824219 111.695312 C 93.324219 111.191406 92.601562 110.863281 91.871094 111.046875 C 90.304688 111.441406 89.035156 112.378906 87.996094 113.585938 C 87.527344 114.128906 87.679688 114.875 88.203125 115.246094 C 88.699219 115.601562 89.382812 115.410156 89.898438 114.992188 C 90.535156 114.480469 91.277344 114.089844 91.992188 113.675781 C 92.097656 113.613281 92.347656 113.695312 92.460938 113.789062 C 92.984375 114.230469 93.480469 114.699219 94 115.148438 C 94.378906 115.476562 94.410156 115.824219 94.261719 116.300781 C 93.203125 119.632812 89.378906 121.03125 86.175781 118.757812 C 84.386719 117.484375 83.433594 115.710938 83.050781 113.578125 C 82.691406 111.566406 83.292969 109.847656 84.617188 108.355469 C 85.242188 107.660156 86.042969 107.25 86.960938 107.042969 C 87.824219 106.847656 88.28125 106.078125 88.054688 105.308594 C 87.890625 104.757812 87.0625 104.40625 86.332031 104.597656 C 85.921875 104.710938 85.492188 104.808594 85.113281 105 C 81.984375 106.558594 80.59375 109.179688 80.445312 112.59375 C 80.503906 113.171875 80.519531 113.753906 80.621094 114.324219 C 81.046875 116.710938 82.199219 118.6875 84.027344 120.269531 C 85.570312 121.609375 87.386719 122.398438 89.410156 122.429688 C 92.078125 122.472656 94.167969 121.234375 95.667969 119.035156 C 95.996094 118.5625 96.191406 118.21875 96.894531 118.570312 C 97.632812 118.9375 98.539062 118.246094 98.453125 117.457031 C 98.402344 117.015625 98.296875 116.5 98.019531 116.191406 C 96.660156 114.652344 95.261719 113.152344 93.824219 111.695312 Z M 220.554688 114.378906 C 219.34375 114.410156 218.132812 114.46875 216.921875 114.527344 C 215.78125 114.582031 214.636719 114.636719 213.496094 114.707031 C 212.777344 114.75 212.0625 114.820312 211.347656 114.878906 C 211.339844 114.835938 211.332031 114.792969 211.320312 114.746094 C 211.949219 114.140625 212.585938 113.550781 213.195312 112.921875 C 213.988281 112.105469 214.753906 111.261719 215.542969 110.4375 C 216.011719 109.945312 216.578125 109.527344 216.941406 108.972656 C 217.148438 108.652344 217.160156 108.078125 217.023438 107.707031 C 216.9375 107.464844 216.441406 107.304688 216.105469 107.226562 C 215.476562 107.09375 214.96875 107.296875 214.660156 107.921875 C 214.5625 108.121094 214.367188 108.269531 214.199219 108.425781 C 212.019531 110.507812 209.824219 112.574219 207.664062 114.675781 C 205.988281 116.304688 204.355469 117.972656 202.703125 119.628906 C 202.632812 119.699219 202.554688 119.769531 202.5 119.851562 C 202.152344 120.335938 202.121094 120.839844 202.449219 121.339844 C 202.730469 121.773438 203.316406 121.945312 203.863281 121.710938 C 204.152344 121.589844 204.425781 121.382812 204.652344 121.164062 C 205.832031 120.03125 206.996094 118.882812 208.292969 117.613281 C 208.585938 119.320312 208.820312 120.808594 209.089844 122.292969 C 209.320312 123.578125 209.542969 124.875 209.851562 126.140625 C 210.011719 126.8125 210.59375 127.046875 211.304688 126.867188 C 211.761719 126.75 212.191406 126.136719 212.121094 125.625 C 211.949219 124.386719 211.761719 123.148438 211.558594 121.914062 C 211.355469 120.671875 211.125 119.433594 210.917969 118.191406 C 210.839844 117.71875 210.914062 117.320312 211.519531 117.28125 C 213.128906 117.179688 214.742188 117.078125 216.355469 116.96875 C 217.789062 116.871094 219.222656 116.78125 220.652344 116.652344 C 221.367188 116.589844 221.785156 116.007812 221.730469 115.246094 C 221.675781 114.640625 221.324219 114.359375 220.554688 114.378906 Z M 136.925781 98.34375 C 137.3125 99.164062 137.15625 99.941406 136.519531 100.277344 C 135.90625 100.597656 135.082031 100.261719 134.691406 99.480469 C 134 98.097656 133.316406 96.710938 132.691406 95.296875 C 132.496094 94.863281 132.269531 94.789062 131.875 94.925781 C 131.035156 95.207031 130.199219 95.5 129.355469 95.769531 C 129.023438 95.875 128.980469 96.039062 128.992188 96.386719 C 129.054688 97.90625 129.089844 99.425781 129.074219 100.941406 C 129.070312 101.652344 128.460938 102.183594 127.804688 102.179688 C 127.25 102.175781 126.746094 101.648438 126.664062 100.972656 C 126.65625 100.925781 126.65625 100.871094 126.65625 100.820312 C 126.65625 100.160156 126.65625 99.5 126.65625 98.839844 C 126.65625 98.382812 126.636719 97.925781 126.664062 97.472656 C 126.699219 96.871094 126.636719 96.347656 126.121094 95.902344 C 125.707031 95.542969 125.765625 94.730469 126.246094 94.335938 C 126.617188 94.03125 126.667969 93.699219 126.65625 93.28125 C 126.601562 90.417969 126.574219 87.550781 126.5 84.691406 C 126.460938 83.21875 127.246094 82.84375 128.402344 82.441406 C 128.59375 82.375 128.929688 82.492188 129.085938 82.640625 C 129.386719 82.929688 129.675781 83.273438 129.863281 83.644531 C 131.074219 86.066406 132.261719 88.503906 133.445312 90.941406 C 133.652344 91.367188 133.84375 91.671875 134.429688 91.699219 C 135.199219 91.734375 135.617188 92.730469 135.175781 93.460938 C 134.941406 93.84375 134.949219 94.113281 135.128906 94.488281 C 135.746094 95.769531 136.324219 97.0625 136.925781 98.34375 Z M 131.4375 92.46875 C 130.636719 90.847656 129.886719 89.316406 129.132812 87.789062 C 129.070312 87.800781 129.003906 87.816406 128.945312 87.832031 C 128.945312 89.46875 128.949219 91.109375 128.9375 92.75 C 128.9375 93.070312 129.0625 93.261719 129.390625 93.160156 C 130.054688 92.960938 130.703125 92.71875 131.4375 92.46875 Z M 122.917969 100.6875 C 122.378906 100.652344 121.789062 100.671875 121.289062 100.851562 C 119.992188 101.320312 118.734375 101.894531 117.4375 102.441406 C 117.214844 102.125 116.984375 101.851562 116.816406 101.542969 C 115.980469 100.015625 115.171875 98.472656 114.320312 96.949219 C 114.136719 96.621094 114.25 96.5 114.507812 96.363281 C 115.132812 96.03125 115.765625 95.707031 116.375 95.347656 C 116.914062 95.03125 117.453125 94.695312 117.957031 94.328125 C 118.425781 93.984375 118.234375 93.417969 118.125 93.042969 C 118.042969 92.765625 117.53125 92.503906 117.179688 92.445312 C 116.203125 92.289062 115.46875 92.949219 114.671875 93.363281 C 114.179688 93.617188 113.703125 93.902344 113.191406 94.117188 C 113.058594 94.175781 112.738281 94.074219 112.65625 93.949219 C 112.074219 93.003906 111.519531 92.039062 110.980469 91.0625 C 110.925781 90.960938 110.980469 90.675781 111.0625 90.636719 C 112.085938 90.148438 113.132812 89.699219 114.164062 89.21875 C 114.730469 88.957031 115.3125 88.714844 115.820312 88.367188 C 116.347656 88.007812 116.464844 87.203125 116.167969 86.75 C 115.820312 86.222656 115.222656 86.058594 114.566406 86.351562 C 112.445312 87.308594 110.332031 88.269531 108.21875 89.242188 C 107.507812 89.566406 107.375 90.425781 107.914062 91.109375 C 108.132812 91.386719 108.390625 91.640625 108.570312 91.945312 C 109.144531 92.929688 109.683594 93.933594 110.246094 94.921875 C 111.945312 97.925781 113.679688 100.921875 115.347656 103.945312 C 116.101562 105.316406 116.84375 105.355469 118.03125 104.910156 C 119.574219 104.339844 121.042969 103.582031 122.511719 102.84375 C 122.894531 102.652344 123.230469 102.285156 123.472656 101.921875 C 123.769531 101.488281 123.429688 100.722656 122.917969 100.6875 Z M 149.382812 78.570312 C 148.882812 78.566406 148.382812 78.683594 147.882812 78.707031 C 145.28125 78.808594 142.683594 78.890625 140.082031 78.984375 C 140.082031 78.996094 140.082031 79.003906 140.082031 79.019531 C 139.78125 79.019531 139.472656 79.011719 139.171875 79.019531 C 138.453125 79.050781 137.757812 79.6875 137.789062 80.277344 C 137.820312 80.871094 138.527344 81.46875 139.226562 81.449219 C 140.539062 81.414062 141.855469 81.367188 143.167969 81.296875 C 143.667969 81.269531 143.875 81.390625 143.890625 81.957031 C 143.949219 83.746094 144.089844 85.53125 144.171875 87.324219 C 144.289062 89.875 144.382812 92.421875 144.484375 94.972656 C 144.535156 96.238281 144.585938 97.496094 144.640625 98.761719 C 144.644531 98.882812 144.679688 99.011719 144.714844 99.128906 C 144.914062 99.828125 145.4375 100.15625 146.152344 100.046875 C 146.667969 99.96875 147.085938 99.460938 147.066406 98.839844 C 147.042969 97.984375 146.953125 97.128906 146.929688 96.273438 C 146.882812 94.898438 146.894531 93.523438 146.84375 92.152344 C 146.796875 90.800781 146.6875 89.449219 146.625 88.097656 C 146.585938 87.273438 146.601562 86.449219 146.558594 85.625 C 146.492188 84.316406 146.402344 83.007812 146.316406 81.699219 C 146.292969 81.332031 146.402344 81.152344 146.824219 81.144531 C 147.679688 81.125 148.535156 81.054688 149.390625 81 C 150.113281 80.949219 150.582031 80.472656 150.582031 79.78125 C 150.574219 79.089844 150.109375 78.578125 149.382812 78.570312 Z M 149.382812 78.570312 " fill-opacity="1" fill-rule="nonzero"/><g clip-path="url(#3d0bd13c74)"><path fill="#fec531" d="M 259.667969 147.792969 C 259.617188 144.328125 259.457031 140.84375 259.132812 137.390625 C 258.726562 133.042969 258.285156 128.683594 257.117188 124.441406 C 256.554688 122.402344 256.21875 120.304688 255.382812 118.332031 C 254.691406 116.6875 254.121094 114.992188 253.472656 113.328125 C 252.804688 111.613281 252.113281 109.910156 251.421875 108.203125 C 250.894531 106.898438 250.390625 105.585938 249.824219 104.300781 C 249.277344 103.058594 248.695312 101.828125 248.0625 100.628906 C 247.246094 99.070312 246.421875 97.507812 245.511719 96 C 244.328125 94.042969 243.105469 92.109375 241.808594 90.21875 C 240.789062 88.726562 239.636719 87.324219 238.542969 85.882812 C 237.824219 84.949219 237.128906 84 236.375 83.097656 C 235.328125 81.851562 234.21875 80.652344 233.167969 79.410156 C 232.761719 78.929688 232.492188 78.339844 232.074219 77.875 C 231.140625 76.824219 230.152344 75.824219 229.191406 74.800781 C 229.175781 74.785156 229.160156 74.761719 229.144531 74.742188 C 228.3125 73.835938 227.523438 72.890625 226.652344 72.027344 C 225.761719 71.144531 224.800781 70.335938 223.867188 69.5 C 222.746094 68.492188 221.660156 67.457031 220.503906 66.503906 C 218.992188 65.257812 217.425781 64.078125 215.875 62.875 C 215.519531 62.597656 215.148438 62.347656 214.800781 62.0625 C 214.527344 61.84375 214.316406 61.535156 214.023438 61.367188 C 212.554688 60.492188 211.0625 59.644531 209.578125 58.789062 C 208.078125 57.929688 206.597656 57.027344 205.070312 56.222656 C 203.84375 55.574219 202.578125 55.023438 201.308594 54.464844 C 199.742188 53.78125 198.1875 53.042969 196.570312 52.492188 C 194.066406 51.628906 191.507812 50.914062 188.878906 50.515625 C 185.308594 49.976562 181.730469 49.492188 178.152344 49.015625 C 176.746094 48.824219 175.332031 48.683594 173.917969 48.558594 C 171.242188 48.320312 168.566406 48.070312 165.886719 47.898438 C 161.546875 47.628906 157.203125 47.300781 152.859375 47.214844 C 149.089844 47.136719 145.304688 46.835938 141.542969 47.453125 C 139.773438 47.742188 137.984375 47.988281 136.230469 48.367188 C 123.046875 51.21875 110.511719 55.808594 98.683594 62.296875 C 89.308594 67.4375 80.683594 73.617188 72.996094 81.042969 C 68.414062 85.472656 63.894531 89.984375 60.640625 95.558594 C 60.285156 96.167969 59.90625 96.769531 59.496094 97.34375 C 58.792969 98.316406 57.992188 99.226562 57.339844 100.230469 C 56.441406 101.625 55.640625 103.070312 54.808594 104.507812 C 54.046875 105.835938 53.277344 107.167969 52.558594 108.523438 C 51.675781 110.191406 50.804688 111.863281 50.003906 113.574219 C 49.359375 114.964844 48.777344 116.394531 48.269531 117.835938 C 47.613281 119.691406 46.988281 121.558594 46.484375 123.460938 C 45.753906 126.191406 45.140625 128.957031 44.496094 131.707031 C 44.347656 132.347656 44.253906 133.003906 44.140625 133.652344 C 43.710938 136.085938 43.234375 138.515625 42.867188 140.960938 C 42.417969 143.917969 42.074219 146.890625 41.667969 149.851562 C 41.476562 151.269531 41.226562 152.683594 41.042969 154.105469 C 40.9375 154.910156 40.910156 155.726562 40.847656 156.53125 C 40.484375 161.164062 40.144531 165.792969 40.402344 170.441406 C 40.566406 173.390625 40.714844 176.332031 41.292969 179.253906 C 41.945312 182.542969 42.128906 185.917969 43.183594 189.140625 C 43.863281 191.226562 44.394531 193.359375 45.082031 195.4375 C 45.601562 197.015625 46.230469 198.558594 46.867188 200.089844 C 47.507812 201.628906 48.136719 203.175781 48.925781 204.632812 C 50.011719 206.644531 51.210938 208.59375 52.417969 210.535156 C 53.148438 211.699219 53.992188 212.796875 54.769531 213.933594 C 55.023438 214.308594 55.167969 214.761719 55.449219 215.097656 C 56.253906 216.058594 57.121094 216.964844 57.925781 217.929688 C 58.632812 218.777344 59.265625 219.679688 59.960938 220.535156 C 60.386719 221.066406 60.824219 221.585938 61.308594 222.0625 C 62.316406 223.058594 63.339844 224.039062 64.382812 225 C 66.101562 226.585938 67.808594 228.1875 69.585938 229.699219 C 70.5 230.476562 71.539062 231.109375 72.546875 231.769531 C 74.082031 232.769531 75.601562 233.808594 77.203125 234.6875 C 78.566406 235.4375 80.039062 235.992188 81.46875 236.628906 C 82.800781 237.21875 84.140625 237.804688 85.472656 238.390625 C 86.949219 239.042969 88.414062 239.707031 89.894531 240.335938 C 91.238281 240.90625 92.59375 241.433594 93.945312 241.980469 C 95.535156 242.628906 97.109375 243.304688 98.707031 243.914062 C 100.472656 244.589844 102.253906 245.21875 104.035156 245.855469 C 105.550781 246.394531 107.074219 246.921875 108.59375 247.4375 C 110.410156 248.058594 112.210938 248.734375 114.054688 249.25 C 116.503906 249.933594 118.96875 250.636719 121.472656 251.066406 C 124.667969 251.613281 127.890625 252.019531 131.125 252.253906 C 135.6875 252.578125 140.269531 252.726562 144.84375 252.871094 C 147.453125 252.957031 150.074219 252.886719 152.6875 252.886719 C 155.816406 252.78125 158.945312 253.089844 162.082031 252.683594 C 164.511719 252.367188 166.996094 252.480469 169.449219 252.320312 C 172.953125 252.085938 176.445312 251.742188 179.847656 250.761719 C 182.171875 250.089844 184.546875 249.574219 186.875 248.925781 C 188.964844 248.34375 191.03125 247.691406 193.097656 247.03125 C 194.972656 246.425781 196.824219 245.722656 198.707031 245.132812 C 206.566406 242.679688 213.90625 239.167969 220.671875 234.472656 C 227.609375 229.65625 233.628906 223.886719 238.796875 217.21875 C 243.566406 211.066406 247.414062 204.375 250.535156 197.246094 C 253.679688 190.078125 255.824219 182.601562 257.484375 174.980469 C 258.621094 169.765625 259.140625 164.457031 259.4375 159.136719 C 259.664062 155.355469 259.71875 151.570312 259.667969 147.792969 Z M 244.148438 152.511719 C 244.070312 157.472656 243.515625 162.378906 242.695312 167.265625 C 242.007812 171.378906 241.117188 175.433594 239.710938 179.367188 C 236.65625 187.933594 232.917969 196.160156 227.808594 203.722656 C 224.332031 208.871094 220.417969 213.660156 215.90625 217.9375 C 213.976562 219.769531 212.089844 221.699219 209.945312 223.246094 C 202.121094 228.867188 193.632812 233.09375 184.132812 235.113281 C 180.613281 235.863281 177.152344 236.898438 173.617188 237.558594 C 170.761719 238.09375 167.84375 238.375 164.9375 238.554688 C 160.964844 238.800781 156.980469 238.847656 154.1875 238.941406 C 149.160156 238.851562 145.328125 238.816406 141.496094 238.703125 C 138.300781 238.609375 135.105469 238.515625 131.917969 238.253906 C 127.03125 237.851562 122.222656 236.988281 117.582031 235.320312 C 115.050781 234.410156 112.46875 233.644531 109.9375 232.742188 C 104.796875 230.917969 99.777344 228.785156 94.796875 226.554688 C 92.761719 225.640625 90.765625 224.613281 88.679688 223.835938 C 85.425781 222.621094 82.507812 220.84375 79.910156 218.605469 C 77.492188 216.523438 75.210938 214.265625 73.03125 211.933594 C 71.464844 210.257812 70.242188 208.265625 68.71875 206.539062 C 66.253906 203.742188 64.449219 200.550781 62.878906 197.222656 C 60.210938 191.5625 58.429688 185.632812 57.457031 179.449219 C 56.648438 174.316406 56.191406 169.171875 56.445312 163.980469 C 56.660156 159.597656 57.03125 155.226562 57.714844 150.882812 C 58.28125 147.300781 58.714844 143.699219 59.324219 140.125 C 60.640625 132.445312 62.5 124.910156 66.09375 117.9375 C 67.566406 115.082031 69.371094 112.394531 71.078125 109.664062 C 72.503906 107.386719 73.964844 105.136719 75.492188 102.921875 C 77.65625 99.792969 79.882812 96.714844 82.09375 93.617188 C 82.640625 92.855469 83.214844 92.113281 83.769531 91.351562 C 84.820312 89.917969 86.210938 88.847656 87.628906 87.816406 C 89.859375 86.1875 92.085938 84.542969 94.386719 83.023438 C 98.15625 80.523438 102.175781 78.472656 106.273438 76.566406 C 112.941406 73.460938 119.9375 71.261719 126.914062 69.019531 C 132.246094 67.304688 137.699219 65.988281 143.261719 65.183594 C 145.015625 64.929688 146.792969 64.851562 148.554688 64.660156 C 149.148438 64.601562 149.726562 64.414062 150.320312 64.339844 C 150.84375 64.277344 151.375 64.25 151.90625 64.265625 C 154.0625 64.332031 156.21875 64.359375 158.371094 64.507812 C 162.769531 64.820312 167.171875 65.136719 171.558594 65.574219 C 175.367188 65.953125 179.15625 66.496094 182.953125 66.976562 C 186.8125 67.457031 190.46875 68.621094 193.996094 70.246094 C 197.691406 71.949219 201.292969 73.820312 204.644531 76.121094 C 206.855469 77.640625 208.882812 79.425781 210.976562 81.117188 C 211.996094 81.941406 213.050781 82.746094 213.964844 83.679688 C 217.441406 87.230469 220.789062 90.910156 223.851562 94.832031 C 225.921875 97.492188 228.027344 100.132812 229.925781 102.914062 C 232.515625 106.722656 234.382812 110.9375 236.191406 115.160156 C 237.417969 118.027344 238.585938 120.921875 239.691406 123.839844 C 241.304688 128.113281 242.058594 132.601562 242.902344 137.0625 C 243.855469 142.167969 244.230469 147.320312 244.148438 152.511719 Z M 183.320312 173.855469 C 183.214844 175.207031 183.128906 176.582031 182.808594 177.890625 C 182.570312 178.859375 182.246094 179.796875 182.242188 180.8125 C 182.242188 180.984375 182.058594 181.144531 181.988281 181.324219 C 181.707031 182.035156 181.464844 182.761719 181.164062 183.464844 C 180.816406 184.269531 180.433594 185.058594 180.050781 185.847656 C 179.742188 186.488281 179.460938 187.15625 179.078125 187.75 C 178.386719 188.824219 177.746094 189.96875 176.867188 190.875 C 175.472656 192.308594 173.9375 193.625 172.378906 194.890625 C 171.609375 195.511719 170.652344 195.898438 169.78125 196.40625 C 169.101562 196.800781 168.429688 197.214844 167.75 197.613281 C 167.539062 197.734375 167.316406 197.828125 167.085938 197.914062 C 166.335938 198.195312 165.582031 198.476562 164.824219 198.734375 C 164.257812 198.929688 163.683594 199.109375 163.105469 199.257812 C 160.828125 199.835938 158.582031 200.535156 156.179688 200.515625 C 154.574219 200.507812 152.964844 200.785156 151.359375 200.78125 C 149.675781 200.777344 147.964844 200.730469 146.308594 200.445312 C 144.519531 200.136719 142.785156 199.519531 141.023438 199.050781 C 140.753906 198.980469 140.460938 199.015625 140.199219 198.941406 C 138.945312 198.585938 137.695312 198.230469 136.460938 197.832031 C 136.160156 197.734375 135.914062 197.480469 135.644531 197.300781 C 135.5 197.203125 135.359375 197.09375 135.199219 197.027344 C 134.65625 196.804688 134.101562 196.601562 133.558594 196.375 C 132.988281 196.132812 132.417969 195.886719 131.867188 195.609375 C 131.386719 195.371094 130.921875 195.109375 130.464844 194.832031 C 129.898438 194.492188 129.285156 194.191406 128.808594 193.75 C 128.09375 193.082031 127.21875 192.714844 126.417969 192.203125 C 126.242188 192.09375 126.167969 191.835938 126.003906 191.695312 C 125.648438 191.390625 125.242188 191.15625 124.90625 190.835938 C 123.976562 189.945312 123.15625 188.910156 122.144531 188.140625 C 121.128906 187.367188 120.566406 186.289062 119.882812 185.3125 C 119.375 184.589844 119.203125 183.609375 118.972656 182.71875 C 118.203125 179.761719 117.980469 176.730469 118.175781 173.695312 C 118.296875 171.851562 118.53125 169.996094 118.941406 168.191406 C 119.234375 166.894531 119.378906 165.503906 120.246094 164.386719 C 120.324219 164.289062 120.382812 164.15625 120.394531 164.039062 C 120.476562 162.65625 121.214844 161.484375 121.671875 160.234375 C 122.460938 158.09375 122.96875 155.941406 123.058594 153.664062 C 123.109375 152.410156 123.34375 151.167969 123.476562 149.921875 C 123.585938 148.898438 123.746094 147.871094 123.761719 146.84375 C 123.800781 144.257812 123.828125 141.660156 123.757812 139.078125 C 123.710938 137.320312 123.480469 135.566406 123.34375 133.808594 C 123.320312 133.476562 123.304688 133.140625 123.289062 132.808594 C 128.605469 132.8125 133.929688 132.816406 139.246094 132.816406 C 145.515625 132.820312 151.785156 132.820312 158.054688 132.828125 C 158.5625 132.875 159.070312 132.96875 159.582031 132.960938 C 160.601562 132.953125 161.621094 132.898438 162.644531 132.863281 C 167.4375 132.855469 172.238281 132.851562 177.035156 132.855469 C 177.253906 132.855469 177.472656 132.871094 177.691406 132.882812 C 177.546875 133.929688 177.472656 134.984375 177.433594 136.039062 C 177.339844 138.59375 177.277344 141.152344 177.261719 143.710938 C 177.253906 145.378906 177.28125 147.050781 177.429688 148.710938 C 177.542969 149.996094 177.679688 151.304688 178.304688 152.496094 C 178.488281 152.832031 178.425781 153.292969 178.542969 153.675781 C 178.816406 154.554688 179.148438 155.414062 179.410156 156.296875 C 179.558594 156.773438 179.578125 157.292969 179.707031 157.773438 C 179.878906 158.421875 180.132812 159.042969 180.304688 159.683594 C 180.78125 161.480469 181.199219 163.289062 181.707031 165.070312 C 182.007812 166.125 182.484375 167.128906 182.789062 168.183594 C 183.050781 169.0625 183.253906 169.976562 183.339844 170.890625 C 183.417969 171.867188 183.394531 172.871094 183.320312 173.855469 Z M 183.320312 173.855469 " fill-opacity="1" fill-rule="nonzero"/></g></svg>