<svg xmlns="http://www.w3.org/2000/svg" xmlns:xlink="http://www.w3.org/1999/xlink" width="400" zoomAndPan="magnify" viewBox="0 0 300 299.999988" height="400" preserveAspectRatio="xMidYMid meet" version="1.0"><defs><clipPath id="d6705a989d"><path d="M 67.5 67.5 L 232.5 67.5 L 232.5 232.5 L 67.5 232.5 Z M 67.5 67.5 " clip-rule="nonzero"/></clipPath><clipPath id="0e7953efeb"><path d="M 150 67.5 C 104.4375 67.5 67.5 104.4375 67.5 150 C 67.5 195.5625 104.4375 232.5 150 232.5 C 195.5625 232.5 232.5 195.5625 232.5 150 C 232.5 104.4375 195.5625 67.5 150 67.5 Z M 150 67.5 " clip-rule="nonzero"/></clipPath><clipPath id="4931336706"><path d="M 0.5 0.5 L 165.5 0.5 L 165.5 165.5 L 0.5 165.5 Z M 0.5 0.5 " clip-rule="nonzero"/></clipPath><clipPath id="c070348763"><path d="M 83 0.5 C 37.4375 0.5 0.5 37.4375 0.5 83 C 0.5 128.5625 37.4375 165.5 83 165.5 C 128.5625 165.5 165.5 128.5625 165.5 83 C 165.5 37.4375 128.5625 0.5 83 0.5 Z M 83 0.5 " clip-rule="nonzero"/></clipPath><clipPath id="f63d7d3987"><rect x="0" width="166" y="0" height="166"/></clipPath></defs><g clip-path="url(#d6705a989d)"><g clip-path="url(#0e7953efeb)"><g transform="matrix(1, 0, 0, 1, 67, 67)"><g clip-path="url(#f63d7d3987)"><g clip-path="url(#4931336706)"><g clip-path="url(#c070348763)"><path fill="#7ed957" d="M 0.5 0.5 L 165.5 0.5 L 165.5 165.5 L 0.5 165.5 Z M 0.5 0.5 " fill-opacity="1" fill-rule="nonzero"/></g></g></g></g></g></g></svg>