<svg xmlns="http://www.w3.org/2000/svg" xmlns:xlink="http://www.w3.org/1999/xlink" width="400" zoomAndPan="magnify" viewBox="0 0 300 299.999988" height="400" preserveAspectRatio="xMidYMid meet" version="1.0"><defs><clipPath id="58b8110f7a"><path d="M 46.570312 46.570312 L 253.429688 46.570312 L 253.429688 253.429688 L 46.570312 253.429688 Z M 46.570312 46.570312 " clip-rule="nonzero"/></clipPath><clipPath id="571a714256"><path d="M 150 46.570312 L 253.429688 125.582031 L 213.921875 253.429688 L 86.078125 253.429688 L 46.570312 125.582031 Z M 150 46.570312 " clip-rule="nonzero"/></clipPath><clipPath id="eb948a0e48"><path d="M 0.570312 0.570312 L 207.429688 0.570312 L 207.429688 207.429688 L 0.570312 207.429688 Z M 0.570312 0.570312 " clip-rule="nonzero"/></clipPath><clipPath id="66488a59ad"><path d="M 104 0.570312 L 207.429688 79.582031 L 167.921875 207.429688 L 40.078125 207.429688 L 0.570312 79.582031 Z M 104 0.570312 " clip-rule="nonzero"/></clipPath><clipPath id="c0d78948f6"><rect x="0" width="208" y="0" height="208"/></clipPath></defs><g clip-path="url(#58b8110f7a)"><g clip-path="url(#571a714256)"><g transform="matrix(1, 0, 0, 1, 46, 46)"><g clip-path="url(#c0d78948f6)"><g clip-path="url(#eb948a0e48)"><g clip-path="url(#66488a59ad)"><path fill="#0cc0df" d="M 0.570312 0.570312 L 207.429688 0.570312 L 207.429688 207.429688 L 0.570312 207.429688 Z M 0.570312 0.570312 " fill-opacity="1" fill-rule="nonzero"/></g></g></g></g></g></g></svg>