<svg xmlns="http://www.w3.org/2000/svg" xmlns:xlink="http://www.w3.org/1999/xlink" width="400" zoomAndPan="magnify" viewBox="0 0 300 299.999988" height="400" preserveAspectRatio="xMidYMid meet" version="1.0"><defs><clipPath id="4e77094ff8"><path d="M 41.242188 85 L 258.742188 85 L 258.742188 259.445312 L 41.242188 259.445312 Z M 41.242188 85 " clip-rule="nonzero"/></clipPath></defs><rect x="-30" width="360" fill="#ffffff" y="-29.999999" height="359.999986" fill-opacity="1"/><rect x="-30" width="360" fill="#ffffff" y="-29.999999" height="359.999986" fill-opacity="1"/><path fill="#b17d57" d="M 219.050781 117.25 C 218.636719 115.632812 218.128906 114.039062 217.554688 112.464844 L 217.566406 112.46875 C 215.882812 106.898438 211.238281 99.886719 209.257812 97.046875 C 208.976562 96.601562 208.679688 96.167969 208.347656 95.761719 C 196.355469 78.976562 173.910156 71.683594 173.910156 71.683594 C 163.652344 68.25 154.15625 67.300781 146.214844 67.492188 C 146.042969 67.480469 145.871094 67.464844 145.699219 67.453125 C 145.101562 67.417969 144.507812 67.417969 143.917969 67.449219 C 143.875 67.4375 143.851562 67.425781 143.851562 67.425781 L 143.867188 67.453125 C 142.925781 67.507812 141.992188 67.632812 141.0625 67.789062 C 130.035156 68.765625 123.085938 71.6875 123.085938 71.6875 C 120.453125 72.492188 117.972656 73.4375 115.632812 74.496094 C 115.492188 74.523438 115.351562 74.554688 115.222656 74.617188 C 114.007812 75.214844 112.816406 75.871094 111.597656 76.464844 C 110.453125 77.023438 109.371094 77.667969 108.332031 78.378906 C 96.171875 85.917969 89.171875 95.832031 86.734375 99.730469 C 86.734375 99.730469 82.535156 104.976562 78.644531 114.773438 C 78.296875 115.605469 77.957031 116.441406 77.625 117.28125 C 77.460938 117.703125 77.34375 118.148438 77.234375 118.585938 C 76.898438 119.5625 76.570312 120.574219 76.253906 121.621094 C 76.0625 122.238281 75.871094 122.855469 75.683594 123.476562 C 75.183594 125.164062 74.625 126.839844 74.21875 128.558594 C 73.792969 130.34375 73.449219 132.15625 73.195312 133.976562 C 70.695312 154.234375 76.789062 170.570312 78.296875 174.21875 C 78.40625 174.472656 78.511719 174.730469 78.625 174.984375 C 78.792969 175.375 78.96875 175.761719 79.160156 176.144531 C 79.820312 177.453125 80.464844 178.777344 81.125 180.085938 C 81.519531 181.007812 82.550781 183.246094 84.464844 186.199219 C 84.488281 186.242188 84.511719 186.28125 84.539062 186.324219 C 84.8125 186.761719 85.109375 187.1875 85.414062 187.609375 C 88.242188 191.6875 92.605469 196.800781 99.027344 201.695312 C 99.0625 201.726562 99.089844 201.761719 99.128906 201.789062 C 100.546875 202.839844 101.921875 203.992188 103.445312 204.871094 C 103.445312 204.871094 112.644531 211.886719 126.714844 215.5625 C 128.273438 216.054688 129.894531 216.375 131.527344 216.636719 C 133.121094 216.933594 134.765625 217.1875 136.460938 217.375 C 140.3125 218.042969 156.726562 220.429688 172.582031 215.574219 C 173.695312 215.253906 174.792969 214.863281 175.882812 214.449219 C 176 214.40625 176.121094 214.359375 176.246094 214.3125 C 176.851562 214.078125 177.453125 213.835938 178.058594 213.597656 C 179.332031 213.09375 180.605469 212.566406 181.859375 212.011719 L 181.851562 212.015625 C 181.851562 212.015625 181.914062 211.988281 182.03125 211.933594 C 182.96875 211.519531 183.898438 211.089844 184.816406 210.628906 C 185.65625 210.210938 186.445312 209.703125 187.222656 209.171875 C 189.757812 207.699219 192.941406 205.679688 196.238281 203.152344 C 196.925781 202.707031 197.550781 202.1875 198.148438 201.640625 C 201.054688 199.261719 203.964844 196.5 206.519531 193.386719 C 206.578125 193.324219 206.632812 193.269531 206.6875 193.207031 C 218.039062 179.277344 220.558594 165.847656 221.097656 161.328125 C 221.351562 159.9375 221.53125 158.523438 221.695312 157.117188 C 221.699219 157.066406 221.707031 157.015625 221.710938 156.964844 C 225.003906 135.421875 219.050781 117.25 219.050781 117.25 Z M 146.304688 170.585938 C 145.285156 170.496094 144.292969 170.292969 143.320312 169.949219 C 138.015625 169.003906 134.558594 166.417969 132.296875 163.492188 C 125.816406 154.148438 129.179688 143.113281 129.5 142.128906 C 129.953125 140.859375 130.429688 139.839844 130.792969 139.148438 C 130.890625 138.960938 130.988281 138.773438 131.101562 138.59375 C 131.28125 138.277344 131.390625 138.105469 131.390625 138.105469 C 135.976562 130.835938 143.785156 129.179688 149.117188 128.976562 C 149.152344 128.957031 149.191406 128.933594 149.230469 128.914062 C 149.230469 128.914062 149.242188 128.9375 149.25 128.96875 C 152.515625 128.859375 154.820312 129.289062 154.820312 129.289062 C 166.066406 132.035156 169.542969 139.925781 170.617188 144.542969 C 170.617188 144.554688 172.648438 155.082031 166.992188 163.109375 C 161.582031 171.746094 151.359375 171.386719 146.304688 170.585938 Z M 146.304688 170.585938 " fill-opacity="1" fill-rule="nonzero"/><path fill="#fdae23" d="M 216.59375 127.832031 C 216.269531 126.613281 215.875 125.40625 215.589844 124.179688 C 214.996094 121.65625 214.460938 119.117188 213.882812 116.589844 C 213.71875 115.867188 213.527344 115.152344 213.339844 114.433594 C 213.277344 114.21875 213.214844 113.996094 213.15625 113.75 C 213.03125 113.277344 212.902344 112.808594 212.773438 112.335938 C 209.914062 102.734375 201.714844 96.707031 198.421875 94.65625 C 198.121094 94.480469 197.769531 94.375 197.492188 94.175781 C 196.683594 93.597656 195.871094 93.007812 195.105469 92.375 C 194.59375 91.949219 194.089844 91.511719 193.632812 91.03125 C 191.824219 89.308594 190.375 87.335938 190.042969 85.257812 C 188.324219 80.101562 182.566406 82.28125 182.566406 82.28125 C 175.800781 83.265625 171.296875 77.609375 171.296875 77.609375 C 165.15625 71.488281 148.847656 70.179688 148.847656 70.179688 C 140.582031 68.34375 133.597656 75.3125 133.597656 75.3125 C 132.609375 76.050781 131.65625 76.839844 130.679688 77.589844 C 130.152344 77.996094 129.652344 78.558594 129.050781 78.730469 C 126.304688 79.503906 123.480469 79.144531 120.683594 79.152344 C 118.796875 79.160156 116.914062 79 115.074219 79.640625 C 114.144531 79.960938 113.277344 80.363281 112.472656 80.847656 C 112.472656 80.847656 112.460938 80.851562 112.445312 80.859375 C 112.429688 80.871094 112.414062 80.878906 112.402344 80.890625 C 112.289062 80.957031 112.066406 81.097656 111.734375 81.324219 C 111.679688 81.367188 111.617188 81.40625 111.558594 81.449219 C 109.4375 82.945312 104.125 87.25 101.113281 94.691406 C 101.113281 94.691406 93.128906 100.289062 91.222656 102.511719 C 90.507812 103.160156 89.894531 103.949219 89.320312 104.738281 C 87.835938 106.773438 86.140625 108.605469 85.320312 111.15625 C 84.464844 113.8125 83.949219 116.507812 83.410156 119.214844 C 83.089844 120.84375 83.046875 122.527344 82.699219 124.144531 C 82.40625 125.492188 82.011719 126.867188 81.382812 128.082031 C 80.375 130.039062 79.121094 131.863281 78 133.761719 C 76.269531 136.6875 74.976562 139.753906 74.890625 143.222656 C 74.828125 145.808594 75.402344 148.160156 77.152344 150.183594 C 77.71875 150.832031 78.15625 151.660156 78.421875 152.480469 C 78.699219 153.351562 78.75 154.304688 78.8125 155.226562 C 79.007812 158.082031 79.066406 160.949219 79.375 163.792969 C 79.558594 165.441406 80.078125 167.058594 80.523438 168.667969 C 81.371094 171.722656 82.457031 174.691406 84.179688 177.382812 C 84.179688 177.382812 92.476562 195.65625 105.074219 194.394531 C 105.074219 194.394531 108.730469 193.75 113.046875 201.617188 C 116.699219 206.136719 122.882812 214.316406 132.710938 214.113281 C 133.839844 214.167969 134.984375 214.007812 136.117188 213.90625 C 137.191406 213.804688 138.257812 213.652344 139.328125 213.523438 C 139.324219 213.484375 139.324219 213.449219 139.320312 213.414062 C 139.984375 213.34375 140.683594 213.273438 141.394531 213.195312 C 141.402344 213.195312 150.324219 211.121094 157.046875 211.976562 C 157.6875 212.152344 170.507812 215.46875 180.542969 207.867188 C 180.628906 207.820312 180.71875 207.773438 180.804688 207.726562 C 181.070312 207.578125 181.292969 207.339844 181.5 207.109375 C 181.5 207.109375 184.453125 205.265625 189.757812 195.664062 C 190.445312 194.648438 191.191406 193.660156 191.984375 192.71875 C 193.5625 190.953125 195.929688 188.855469 198.914062 187.804688 C 199.640625 187.605469 200.378906 187.425781 201.109375 187.25 C 201.109375 187.25 206.753906 188.355469 212.316406 177.375 C 217.875 166.398438 218.925781 154.484375 218.996094 150.695312 C 219.0625 146.90625 221.460938 138.632812 216.59375 127.832031 Z M 175.785156 151.550781 C 174.722656 156.324219 170.089844 168.105469 163.730469 170.808594 C 157.367188 173.515625 144.128906 176.21875 138.5625 173.992188 C 133.003906 171.765625 123.128906 162.460938 123.921875 154.851562 C 124.722656 147.25 124.195312 134.195312 131.378906 130.855469 C 131.378906 130.855469 132.8125 130.390625 138.558594 127.515625 C 144.304688 124.636719 152.265625 123.179688 156.40625 125.742188 C 160.546875 128.304688 169.664062 132.523438 170.679688 135.027344 C 171.699219 137.542969 176.84375 146.777344 175.785156 151.550781 Z M 175.785156 151.550781 " fill-opacity="1" fill-rule="nonzero"/><g clip-path="url(#4e77094ff8)"><path fill="#000000" d="M 80.96875 179.785156 C 81.046875 180.1875 81.15625 181.386719 80.589844 183.863281 C 80.414062 184.964844 80.152344 186.054688 79.664062 187.105469 C 78.878906 188.800781 77.828125 190.332031 76.25 191.242188 C 75.503906 191.671875 74.660156 191.957031 73.796875 192.179688 C 69.992188 193.257812 64.066406 190.8125 60.664062 189.132812 C 59.789062 188.671875 58.914062 188.1875 58.011719 187.722656 C 57.988281 188.707031 57.382812 189.3125 56.488281 189.785156 C 55.050781 190.542969 53.292969 190.320312 52.304688 189.007812 C 50.214844 186.246094 49.566406 183.191406 50.796875 179.890625 C 51.015625 179.320312 51.628906 178.90625 52.050781 178.40625 C 52.199219 178.226562 52.308594 178.007812 52.433594 177.8125 L 52.425781 177.824219 C 52.597656 177.945312 52.769531 178.171875 52.945312 178.171875 C 55.546875 178.183594 56.644531 180.035156 57.125 182.074219 C 57.636719 184.257812 59.042969 185.394531 60.78125 186.339844 C 62.511719 187.273438 64.238281 188.289062 66.085938 188.933594 C 68.652344 189.832031 71.351562 190.226562 74.054688 189.441406 C 75.910156 188.894531 77.003906 187.496094 77.574219 185.734375 C 77.722656 185.28125 77.847656 184.824219 77.964844 184.359375 C 78.089844 183.800781 78.882812 180.066406 79.011719 175.828125 C 79.0625 175.933594 79.105469 176.039062 79.15625 176.140625 C 79.761719 177.351562 80.359375 178.570312 80.96875 179.785156 Z M 253.460938 148.875 C 253.40625 148.0625 253.136719 146.726562 252 146.128906 C 251.175781 145.863281 250.269531 145.65625 249.417969 145.722656 C 248.777344 145.777344 248.007812 146.148438 247.582031 146.628906 C 246.238281 148.132812 245.347656 149.925781 244.742188 151.855469 C 244.675781 152.066406 244.574219 152.300781 244.410156 152.433594 C 244.410156 152.433594 242.945312 155.71875 236.382812 158.582031 C 235.992188 158.757812 235.59375 158.917969 235.191406 159.066406 C 235.132812 159.089844 235.070312 159.121094 235 159.144531 C 227.855469 161.890625 222.171875 160.066406 221.34375 159.769531 C 221.265625 160.296875 221.183594 160.816406 221.089844 161.335938 C 221.035156 161.761719 220.96875 162.265625 220.878906 162.839844 C 221.09375 162.882812 221.324219 162.917969 221.558594 162.945312 C 221.558594 162.945312 232.125 164.753906 238.476562 161.109375 C 238.476562 161.109375 241.878906 159.40625 244.199219 156.734375 C 244.386719 157.695312 245.007812 159.4375 247.128906 159.296875 C 250.035156 159.101562 252.046875 156.074219 252.445312 154.550781 C 252.445312 154.550781 252.914062 153.265625 253.214844 151.648438 C 253.21875 151.636719 253.222656 151.621094 253.222656 151.605469 C 253.238281 151.539062 253.242188 151.472656 253.257812 151.40625 C 253.265625 151.363281 253.269531 151.320312 253.28125 151.277344 C 253.304688 151.128906 253.328125 150.980469 253.347656 150.832031 C 253.4375 150.1875 253.488281 149.515625 253.460938 148.875 Z M 141.054688 220.804688 C 140.261719 223.328125 139.402344 225.832031 138.519531 228.332031 C 138.242188 229.125 137.765625 229.851562 137.472656 230.644531 C 136.714844 232.710938 135.277344 234.226562 133.515625 235.414062 C 130.703125 237.3125 127.78125 237.074219 124.808594 235.710938 C 122.679688 234.738281 120.882812 233.292969 119.046875 231.898438 C 118.109375 231.1875 117.257812 230.359375 116.367188 229.582031 C 115.652344 228.953125 114.945312 228.320312 114.050781 227.523438 C 109.566406 231.089844 105.644531 235.167969 101.9375 239.613281 C 102.25 239.851562 102.46875 240.019531 102.691406 240.179688 C 103.699219 240.910156 104.855469 240.882812 106.019531 240.859375 C 109.355469 240.796875 112 239.402344 113.824219 236.621094 C 114.722656 235.25 115.425781 233.746094 116.214844 232.308594 C 116.25 232.3125 116.289062 232.304688 116.308594 232.320312 C 116.417969 232.410156 116.523438 232.503906 116.621094 232.601562 C 119.457031 235.3125 122.351562 237.957031 126.066406 239.429688 C 127.945312 240.175781 129.90625 240.433594 131.9375 240.027344 C 133.625 239.6875 134.921875 238.726562 136.207031 237.671875 C 138.128906 236.089844 139.652344 234.171875 140.742188 231.980469 C 142.523438 228.398438 143.566406 224.542969 144.511719 220.671875 C 144.722656 219.820312 144.890625 218.957031 145.09375 218.023438 C 143.898438 217.914062 142.851562 217.8125 141.660156 217.703125 C 141.445312 218.847656 141.351562 219.859375 141.054688 220.804688 Z M 93.671875 103.230469 C 94.699219 102.03125 95.699219 100.792969 96.550781 99.472656 C 97.167969 98.503906 97.554688 97.386719 97.429688 96.167969 C 97.347656 95.328125 96.964844 94.804688 96.421875 94.699219 C 95.917969 94.605469 95.488281 95.050781 95.511719 95.5625 C 95.5625 96.773438 95.054688 97.875 94.402344 98.847656 C 93.492188 100.226562 92.347656 101.457031 91.222656 102.683594 C 91.164062 102.75 91.109375 102.816406 91.058594 102.882812 C 90.574219 103.53125 91.179688 104.460938 91.964844 104.265625 C 92.640625 104.097656 93.21875 103.761719 93.671875 103.230469 Z M 104.386719 98.542969 C 102.710938 100.914062 101.785156 103.4375 102.90625 106.285156 C 103.03125 106.601562 103.359375 106.796875 103.695312 106.726562 C 104.398438 106.578125 104.550781 106.203125 104.546875 105.375 C 104.539062 104.511719 104.558594 103.59375 104.847656 102.800781 C 105.347656 101.421875 106.074219 100.128906 107.179688 99.089844 C 107.347656 98.929688 107.476562 98.738281 107.589844 98.527344 C 107.835938 98.097656 107.566406 97.558594 107.082031 97.476562 C 106.085938 97.308594 104.996094 97.6875 104.386719 98.542969 Z M 98.40625 94.109375 C 99.113281 94.652344 99.921875 95.074219 100.695312 95.527344 C 102.546875 96.609375 104.519531 96.773438 106.5625 96.214844 C 107.515625 95.953125 107.984375 95.617188 108.101562 94.976562 C 108.1875 94.523438 107.8125 94.121094 107.347656 94.128906 C 107.113281 94.132812 106.878906 94.148438 106.652344 94.203125 C 104.871094 94.667969 103.128906 94.714844 101.511719 93.722656 C 100.589844 93.15625 99.71875 92.511719 98.8125 91.871094 C 98.53125 91.671875 98.136719 91.753906 97.941406 92.035156 C 97.390625 92.832031 97.535156 93.4375 98.40625 94.109375 Z M 102.597656 108.085938 C 102.253906 107.117188 101.65625 106.386719 100.820312 105.824219 C 98.625 104.34375 96.316406 103.964844 93.855469 105.089844 C 93.097656 105.433594 92.726562 105.808594 92.710938 106.34375 C 92.695312 106.800781 93.121094 107.15625 93.578125 107.097656 C 93.898438 107.054688 94.222656 107.003906 94.53125 106.894531 C 96.265625 106.273438 97.894531 106.359375 99.410156 107.433594 C 100.128906 107.941406 100.8125 108.503906 101.546875 109.082031 C 101.828125 109.304688 102.242188 109.355469 102.527344 109.132812 C 102.789062 108.933594 102.785156 108.617188 102.597656 108.085938 Z M 118.429688 114.222656 C 118.550781 114.296875 118.667969 114.363281 118.796875 114.425781 C 118.816406 114.433594 118.832031 114.445312 118.855469 114.453125 L 118.859375 114.449219 C 119.15625 114.578125 119.472656 114.679688 119.820312 114.722656 C 122.019531 115.003906 124.0625 114.660156 125.796875 113.042969 C 127.375 111.578125 127.972656 108.695312 126.902344 106.839844 C 125.710938 104.78125 124 103.609375 121.617188 103.75 C 121.144531 103.75 120.742188 103.699219 120.355469 103.761719 C 119.972656 103.820312 119.589844 103.949219 119.234375 104.105469 C 117.097656 105.042969 115.519531 106.886719 115.519531 109.089844 L 115.507812 109.082031 C 115.507812 109.082031 115.316406 112.460938 118.429688 114.222656 Z M 52.429688 177.8125 C 52.429688 177.808594 52.425781 177.808594 52.425781 177.800781 C 52.425781 177.8125 52.417969 177.820312 52.417969 177.824219 Z M 204.589844 238.777344 C 204.453125 237.800781 204.238281 236.859375 203.953125 235.933594 C 203.9375 235.882812 203.917969 235.835938 203.90625 235.785156 C 203.878906 235.710938 203.863281 235.640625 203.835938 235.574219 C 201.3125 227.714844 195.101562 224.671875 195.101562 224.671875 C 193.503906 226.523438 192.019531 228.179688 190.613281 229.90625 C 188.90625 232 187.101562 234 184.8125 235.453125 C 181.496094 237.558594 179.316406 237.316406 175.84375 235.109375 C 174.089844 233.996094 172.765625 232.339844 171.773438 230.503906 C 170.644531 228.410156 169.414062 226.332031 168.652344 224.097656 C 167.859375 221.757812 167.578125 219.242188 167.050781 216.71875 C 165.976562 216.929688 164.742188 217.167969 163.441406 217.421875 C 163.871094 219.246094 164.210938 220.953125 164.675781 222.621094 C 165.488281 225.53125 166.730469 228.265625 168.136719 230.9375 C 169.757812 234.015625 171.933594 236.546875 175.101562 238.105469 C 177.476562 239.273438 179.90625 239.945312 182.605469 239.214844 C 184.597656 238.675781 186.460938 237.828125 187.925781 236.472656 C 189.589844 234.929688 190.933594 233.039062 192.386719 231.28125 C 192.855469 230.714844 193.238281 230.074219 193.734375 229.355469 C 193.734375 229.355469 194.222656 238.542969 201.355469 240.648438 L 201.355469 240.644531 C 202.332031 240.945312 203.367188 241.085938 204.429688 240.992188 C 204.488281 240.265625 204.6875 239.503906 204.589844 238.777344 Z M 258.089844 141.050781 C 257.707031 139.363281 257.273438 137.722656 256.03125 136.410156 C 254.910156 135.222656 253.296875 135.019531 252.53125 136.113281 C 251.378906 137.765625 250.671875 139.574219 250.445312 141.53125 C 251.199219 141.441406 251.9375 141.4375 252.625 141.746094 C 252.792969 141.179688 252.917969 140.597656 253.089844 140.042969 C 253.089844 140.042969 253.554688 138.003906 254.269531 138.132812 C 254.824219 138.234375 255.347656 138.890625 255.699219 141.777344 C 255.832031 142.621094 255.9375 143.46875 255.957031 144.3125 C 255.964844 144.476562 255.957031 144.640625 255.964844 144.800781 C 255.964844 144.835938 255.96875 144.867188 255.96875 144.902344 L 255.964844 144.890625 C 255.980469 146.847656 255.882812 148.808594 255.722656 150.757812 C 255.679688 151.257812 255.625 151.761719 255.5625 152.261719 L 255.5625 152.257812 C 255.5625 152.257812 253.941406 167.757812 245.171875 188.152344 C 245.171875 188.152344 235.882812 209.183594 228.144531 221.167969 C 227.804688 221.746094 227.441406 222.3125 227.050781 222.847656 C 226.941406 222.996094 226.835938 223.144531 226.726562 223.289062 C 226.296875 223.90625 225.871094 224.492188 225.457031 225.03125 C 225.453125 225.035156 225.453125 225.039062 225.449219 225.039062 C 225.4375 225.054688 223.976562 227.515625 220.890625 231.023438 C 220.640625 231.335938 220.390625 231.65625 220.132812 231.960938 C 219.539062 232.664062 218.871094 233.296875 218.175781 233.914062 C 212.851562 239.257812 204.46875 245.847656 192.554688 250.234375 C 188.050781 251.566406 183.765625 253.332031 179.210938 254.046875 C 175.277344 254.65625 171.347656 255.171875 167.578125 255.683594 C 158.132812 256.53125 148.457031 256.007812 140.414062 255.128906 C 125.636719 254.164062 111.261719 249.261719 111.261719 249.261719 C 89.898438 243.878906 75.746094 230.769531 75.746094 230.769531 C 56.296875 214.113281 47.324219 194.621094 47.324219 194.621094 L 47.328125 194.625 C 46.945312 193.921875 46.589844 193.226562 46.28125 192.523438 C 45.929688 191.660156 45.59375 190.800781 45.253906 189.9375 C 42.695312 182.5 43.617188 176.011719 43.722656 175.351562 C 43.886719 174.664062 44.085938 173.984375 44.328125 173.328125 C 44.734375 172.558594 45.273438 172.078125 45.792969 171.777344 C 45.792969 171.777344 48.285156 170.550781 50.601562 174.328125 C 50.886719 174.808594 51.164062 175.292969 51.445312 175.769531 C 51.535156 175.925781 51.617188 176.082031 51.699219 176.238281 C 52.191406 176.042969 52.722656 175.917969 53.308594 175.898438 C 53.199219 175.363281 53.058594 174.847656 52.882812 174.351562 L 52.886719 174.351562 L 52.878906 174.34375 C 52.324219 172.816406 51.433594 171.472656 50.128906 170.324219 C 48.261719 168.675781 45.433594 168.769531 43.980469 169.941406 C 42.335938 171.265625 41.765625 173.191406 41.457031 175.15625 C 41.457031 175.15625 41.414062 175.4375 41.367188 175.949219 C 41.351562 176.097656 41.335938 176.238281 41.328125 176.386719 C 41.269531 177.175781 41.222656 178.3125 41.261719 179.714844 C 41.246094 180.824219 41.21875 181.949219 41.421875 183.027344 C 41.488281 183.382812 41.570312 183.738281 41.648438 184.097656 C 41.992188 186.425781 42.605469 189.0625 43.652344 191.824219 C 43.660156 191.851562 43.667969 191.878906 43.679688 191.90625 C 43.726562 192.035156 43.78125 192.160156 43.828125 192.289062 C 44 192.726562 44.179688 193.167969 44.371094 193.597656 C 44.410156 193.683594 44.445312 193.765625 44.484375 193.851562 C 44.484375 193.851562 52.210938 211.691406 64.746094 223.464844 C 64.859375 223.59375 78.101562 238.351562 93.863281 245.828125 C 94.609375 246.21875 95.378906 246.554688 96.160156 246.863281 C 96.164062 246.867188 96.171875 246.867188 96.179688 246.871094 C 96.734375 247.089844 97.296875 247.296875 97.855469 247.496094 L 97.851562 247.496094 C 97.851562 247.496094 114.601562 255.234375 134.648438 257.847656 L 134.648438 257.84375 C 136.636719 258.183594 138.644531 258.410156 140.683594 258.503906 C 144.019531 258.65625 147.34375 259.019531 150.679688 259.191406 C 152.820312 259.308594 154.96875 259.273438 157.113281 259.257812 C 158.820312 259.25 160.535156 259.234375 162.230469 259.105469 C 162.230469 259.105469 176.574219 258.980469 189.8125 254.328125 L 189.796875 254.335938 C 189.796875 254.335938 208.167969 248.519531 217.609375 238.449219 C 220.378906 236.050781 225.90625 230.308594 234.285156 217.359375 C 234.285156 217.359375 241.515625 203.390625 247.863281 188.566406 C 250.703125 182.175781 252.796875 176.058594 254.28125 171.050781 C 254.464844 170.585938 254.644531 170.117188 254.777344 169.640625 C 255.542969 166.84375 256.257812 164.027344 256.863281 161.195312 C 257.011719 160.488281 257.140625 159.78125 257.257812 159.066406 C 257.289062 158.914062 257.300781 158.828125 257.300781 158.828125 L 257.292969 158.851562 C 257.527344 157.441406 257.71875 156.027344 257.910156 154.613281 C 258.191406 152.492188 258.453125 150.359375 258.582031 148.21875 C 258.71875 145.824219 258.632812 143.421875 258.089844 141.050781 Z M 178.058594 106.433594 C 177.960938 106.15625 177.808594 105.898438 177.625 105.65625 C 177.019531 104.75 176.289062 104.222656 176.289062 104.222656 L 176.289062 104.230469 C 175.550781 103.636719 174.71875 103.257812 173.804688 103.035156 L 173.816406 103.03125 C 171.859375 102.429688 170.171875 102.972656 168.992188 103.632812 C 168.332031 103.945312 167.742188 104.394531 167.285156 104.917969 C 167.261719 104.941406 167.246094 104.960938 167.246094 104.960938 L 167.257812 104.957031 C 166.988281 105.273438 166.757812 105.617188 166.601562 105.980469 C 165.8125 107.777344 165.882812 109.738281 167.113281 111.460938 C 168.550781 113.484375 170.558594 114.191406 172.972656 114.027344 C 173.5625 113.988281 174.121094 113.878906 174.636719 113.695312 L 174.636719 113.699219 C 174.710938 113.667969 174.773438 113.640625 174.839844 113.613281 C 174.929688 113.574219 175.019531 113.539062 175.105469 113.496094 C 177.25 112.492188 178.273438 110.671875 178.425781 108.375 C 178.472656 107.644531 178.308594 106.996094 178.058594 106.433594 Z M 154.210938 116.640625 C 154.210938 116.640625 156.953125 113.886719 155.253906 112.503906 C 154.230469 112.398438 154.15625 112.5625 153.609375 113.332031 C 152.886719 114.351562 152.15625 115.503906 151.136719 116.148438 C 148.945312 117.546875 146.53125 118.066406 144.042969 116.699219 C 143.292969 116.289062 142.542969 115.878906 141.78125 115.472656 C 141.777344 115.472656 141.082031 114.894531 140.457031 114.753906 C 140.433594 114.746094 140.414062 114.730469 140.390625 114.722656 C 140.375 114.726562 140.367188 114.730469 140.351562 114.734375 C 140.085938 114.699219 139.839844 114.753906 139.679688 114.988281 C 139.664062 114.992188 139.648438 115 139.632812 115.003906 C 139.617188 115.050781 139.605469 115.109375 139.589844 115.160156 C 139.566406 115.21875 139.554688 115.285156 139.535156 115.351562 C 139.535156 115.355469 139.53125 115.363281 139.53125 115.367188 C 139.519531 115.40625 139.511719 115.433594 139.503906 115.472656 C 139.503906 115.472656 139.097656 116.457031 140.242188 117.382812 C 140.390625 117.523438 140.546875 117.652344 140.734375 117.730469 C 140.910156 117.8125 141.089844 117.898438 141.269531 117.980469 C 141.269531 117.980469 141.273438 117.980469 141.273438 117.984375 C 141.273438 117.984375 143.429688 119.460938 146.601562 119.695312 C 146.601562 119.695312 148.277344 119.964844 150.296875 119.3125 C 151.484375 118.945312 152.574219 118.304688 153.554688 117.351562 C 153.632812 117.269531 153.710938 117.183594 153.792969 117.097656 C 153.917969 116.96875 154.035156 116.839844 154.15625 116.695312 C 154.183594 116.675781 154.199219 116.65625 154.210938 116.640625 Z M 175.191406 86.886719 C 174.386719 86.386719 171.988281 87.886719 171.933594 87.917969 C 171.464844 88.160156 170.996094 88.398438 170.515625 88.617188 C 167.457031 90.007812 164.507812 91.597656 161.75 93.523438 C 161.390625 93.777344 161.097656 94.140625 160.816406 94.484375 C 160.453125 94.929688 160.480469 95.484375 160.800781 95.875 C 161.027344 96.148438 161.5 96.300781 161.878906 96.339844 C 162.25 96.378906 162.671875 96.269531 163.019531 96.105469 C 165.074219 95.140625 167.128906 94.164062 169.148438 93.132812 C 170.160156 92.617188 171.125 91.996094 172.070312 91.363281 C 172.988281 90.757812 173.859375 90.078125 174.941406 89.296875 C 174.941406 89.296875 175.527344 88.878906 175.703125 88.035156 C 175.875 87.183594 175.191406 86.886719 175.191406 86.886719 Z M 130.765625 95.21875 C 129.460938 93.902344 128.148438 92.597656 126.792969 91.335938 C 125.59375 90.222656 124.371094 89.125 123.082031 88.117188 C 121.867188 87.167969 120.855469 85.835938 119.109375 85.792969 C 117.871094 86.515625 117.644531 87.292969 118.429688 88.210938 C 118.835938 88.679688 119.265625 89.136719 119.734375 89.539062 C 121.929688 91.421875 124.128906 93.300781 126.347656 95.148438 C 127.375 96.011719 128.398438 96.898438 129.832031 97.277344 L 129.832031 97.28125 C 129.832031 97.28125 131.367188 98.007812 131.453125 96.367188 C 131.164062 95.867188 131.027344 95.480469 130.765625 95.21875 Z M 130.765625 95.21875 " fill-opacity="1" fill-rule="nonzero"/></g><path fill="#fe28c0" d="M 219.113281 81.996094 C 217.183594 84.242188 215.453125 86.25 213.640625 88.363281 C 212.667969 87.511719 211.742188 86.699219 210.714844 85.796875 C 212.609375 83.53125 214.480469 81.308594 216.171875 79.289062 C 216.484375 75.488281 216.769531 71.9375 217.070312 68.203125 C 218.527344 68.707031 219.429688 69.769531 220.398438 70.683594 C 220.222656 73.246094 220.046875 75.757812 219.863281 78.359375 C 222.234375 78.226562 224.546875 78.09375 226.902344 77.960938 C 227.835938 79.226562 228.710938 80.40625 229.679688 81.71875 C 225.9375 81.816406 222.445312 81.910156 219.113281 81.996094 Z M 95.933594 165.417969 C 96.382812 164.851562 96.296875 164.382812 95.695312 163.933594 C 95.082031 163.480469 94.523438 162.953125 93.929688 162.46875 C 92.8125 161.570312 91.679688 160.683594 90.488281 159.742188 C 90.1875 160.171875 90.011719 160.421875 89.804688 160.710938 C 90.921875 162.3125 95.136719 165.542969 95.933594 165.417969 Z M 99.171875 138.085938 C 99.023438 138.484375 98.839844 138.964844 98.644531 139.488281 C 100.714844 140.398438 102.714844 141.285156 104.746094 142.179688 C 104.917969 141.710938 105.082031 141.273438 105.289062 140.714844 C 103.253906 139.839844 101.253906 138.980469 99.171875 138.085938 Z M 186.726562 149.390625 C 186.257812 149.144531 185.8125 148.910156 185.324219 148.660156 C 184.28125 150.695312 183.25 152.722656 182.167969 154.828125 C 182.574219 155.027344 182.890625 155.183594 183.296875 155.378906 C 184.464844 153.34375 185.597656 151.367188 186.726562 149.390625 Z M 200.757812 178.003906 C 200.605469 175.96875 200.460938 174.058594 200.324219 172.148438 C 199.746094 172.242188 199.21875 172.328125 198.59375 172.429688 C 198.765625 174.324219 198.941406 176.234375 199.132812 178.285156 C 199.769531 178.175781 200.246094 178.089844 200.757812 178.003906 Z M 151.101562 203.890625 C 148.832031 203.890625 146.625 203.890625 144.324219 203.890625 C 144.414062 204.410156 144.488281 204.8125 144.578125 205.324219 C 146.875 205.324219 149.097656 205.324219 151.433594 205.324219 C 151.324219 204.828125 151.222656 204.402344 151.101562 203.890625 Z M 209.476562 158.683594 C 209.953125 158.738281 210.335938 158.78125 210.84375 158.832031 C 211.328125 157 211.804688 155.234375 212.300781 153.367188 C 211.742188 153.269531 211.316406 153.195312 210.816406 153.109375 C 210.335938 155 209.492188 156.734375 209.476562 158.683594 Z M 121.058594 50.636719 C 121.054688 50.632812 121.050781 50.628906 121.046875 50.628906 C 121.046875 50.621094 121.058594 50.636719 121.058594 50.636719 Z M 248.382812 162.09375 C 248.65625 161 248.847656 159.878906 249.128906 158.789062 C 249.574219 157.074219 250.074219 155.375 250.550781 153.667969 C 251.140625 151.550781 251.613281 149.394531 252.351562 147.328125 C 252.941406 145.6875 253.371094 144.054688 253.460938 142.316406 C 252.335938 141.242188 251.023438 141.433594 249.695312 141.636719 C 247.816406 148.367188 245.945312 155.058594 244.097656 161.675781 C 245.15625 163.140625 246.539062 162.996094 247.945312 163.035156 C 248.089844 162.738281 248.296875 162.433594 248.382812 162.09375 Z M 56.039062 194.300781 C 57.132812 193.621094 58.160156 192.984375 59.257812 192.308594 C 58.511719 190.847656 57.746094 189.601562 57.230469 188.265625 C 56.546875 186.492188 55.996094 184.65625 55.507812 182.816406 C 55.167969 181.542969 55.03125 180.214844 54.816406 178.910156 C 54.65625 177.945312 54.515625 176.980469 54.359375 175.980469 C 52.921875 175.746094 51.789062 176.082031 50.785156 176.707031 C 51.597656 182.90625 52.585938 188.871094 56.039062 194.300781 Z M 64.09375 144.539062 C 57.320312 144.625 50.675781 143.558594 43.929688 142.144531 C 43.929688 142.144531 43.785156 131.621094 49.660156 127.984375 C 49.695312 127.960938 49.734375 127.941406 49.769531 127.917969 C 49.910156 127.835938 50.046875 127.753906 50.191406 127.675781 C 50.292969 127.625 50.398438 127.578125 50.496094 127.53125 C 50.554688 127.5 50.609375 127.472656 50.664062 127.449219 L 50.660156 127.457031 C 51.804688 126.957031 53.050781 126.734375 54.332031 126.683594 C 57.234375 126.570312 59.6875 127.640625 61.851562 129.523438 C 62.535156 130.113281 63.085938 130.769531 63.523438 131.480469 C 63.523438 131.480469 63.644531 131.664062 63.816406 132.035156 C 64.257812 132.90625 64.527344 133.855469 64.644531 134.871094 C 65.007812 136.984375 65.09375 140.152344 64.09375 144.539062 Z M 61.464844 137.617188 C 61.132812 134.808594 60.472656 132.195312 57.28125 131.039062 C 57.015625 130.941406 56.757812 130.871094 56.492188 130.8125 L 56.488281 130.808594 C 56.488281 130.808594 49.125 128.757812 47.871094 139.242188 L 61.480469 140.597656 C 61.484375 139.507812 61.574219 138.550781 61.464844 137.617188 Z M 68.160156 118.855469 C 67.878906 120.015625 67.5 121.910156 65.265625 123.714844 C 63.238281 125.355469 60.542969 125.328125 59.515625 125.246094 C 59.515625 125.246094 59.515625 125.246094 59.511719 125.246094 C 59.246094 125.226562 59.085938 125.199219 59.085938 125.199219 L 59.097656 125.1875 C 57.808594 125.019531 56.652344 124.644531 55.417969 124.109375 C 52.535156 122.847656 51.019531 120.539062 50.097656 117.871094 C 49.25 115.414062 49.136719 112.714844 50.957031 110.535156 C 52.035156 109.097656 53.605469 108.347656 54.96875 107.953125 C 55.851562 107.648438 56.714844 107.515625 57.554688 107.519531 C 57.691406 107.515625 57.773438 107.515625 57.773438 107.515625 L 57.769531 107.519531 C 58.152344 107.535156 58.53125 107.578125 58.90625 107.644531 L 58.902344 107.636719 C 58.902344 107.636719 58.917969 107.644531 58.9375 107.648438 C 59.75 107.800781 60.542969 108.074219 61.328125 108.4375 C 62.972656 109.128906 65.074219 110.34375 66.414062 112.339844 L 66.410156 112.339844 C 66.941406 113.03125 67.386719 113.789062 67.710938 114.640625 C 68.261719 116.070312 68.46875 117.480469 68.160156 118.855469 Z M 64.605469 117.792969 C 64.703125 114.699219 61.925781 112.652344 61.925781 112.652344 L 61.925781 112.65625 C 60.886719 111.78125 59.605469 111.355469 58.203125 111.195312 C 57.449219 111.109375 56.59375 111.183594 55.894531 111.460938 C 54.097656 112.1875 53.1875 114.214844 53.203125 116.144531 C 53.222656 118.171875 54.871094 120.136719 56.808594 121.152344 L 56.804688 121.152344 C 56.804688 121.152344 57.664062 121.695312 58.902344 121.886719 L 58.902344 121.890625 C 58.917969 121.890625 58.9375 121.890625 58.949219 121.890625 C 59.640625 121.992188 60.441406 121.980469 61.285156 121.714844 C 64.785156 120.902344 64.605469 117.792969 64.605469 117.792969 Z M 64.640625 86.222656 C 63.859375 87.351562 63.175781 88.335938 62.359375 89.519531 L 73.40625 97.476562 L 57.242188 98.5625 C 56.515625 99.828125 55.488281 102.15625 55.488281 102.15625 C 60.8125 105.042969 66.089844 107.902344 71.515625 110.84375 C 72.152344 109.539062 72.683594 108.449219 73.21875 107.351562 C 70.140625 105.558594 67.207031 103.859375 64.21875 102.117188 L 76.585938 101 C 76.585938 101 77.941406 99.785156 78.945312 96.894531 C 74.179688 93.335938 69.449219 89.808594 64.640625 86.222656 Z M 87.144531 81.691406 C 84.679688 75.929688 77.035156 69.769531 77.035156 69.769531 C 76.125 70.804688 75.371094 71.664062 74.59375 72.542969 C 74.59375 72.542969 80.160156 76.804688 82.953125 81.296875 C 83.660156 82.433594 83.964844 83.792969 83.730469 85.117188 C 83.515625 86.34375 82.867188 87.605469 81.121094 87.753906 C 76.726562 88.140625 71.496094 83.296875 69.484375 81.238281 C 69.382812 81.140625 69.289062 81.039062 69.183594 80.925781 C 69.011719 80.746094 68.875 80.601562 68.78125 80.496094 C 68.382812 80.996094 67.308594 82.367188 66.472656 83.671875 C 66.535156 83.898438 66.703125 84.121094 66.980469 84.359375 C 69.660156 86.632812 72.386719 88.839844 75.609375 90.34375 C 76.996094 90.988281 78.394531 91.433594 79.855469 91.433594 C 79.855469 91.433594 83.085938 91.929688 85.667969 88.878906 C 87.34375 86.898438 88.164062 84.121094 87.144531 81.691406 Z M 88.410156 64.046875 C 89.898438 62.300781 90.597656 61.429688 92.5625 59.195312 C 91.617188 58.359375 90.851562 57.09375 90.203125 56.539062 C 87.527344 58.742188 79.628906 66.726562 78.523438 68.351562 C 79.371094 69.277344 80.242188 70.226562 81.21875 71.289062 C 82.722656 69.695312 84.0625 68.285156 85.425781 66.84375 C 85.425781 66.84375 93.476562 75.507812 95.757812 77.515625 C 95.929688 77.644531 96.089844 77.78125 96.269531 77.910156 C 97.046875 77 97.8125 76.101562 98.570312 75.210938 C 95.121094 71.417969 91.777344 67.746094 88.410156 64.046875 Z M 156.636719 57.183594 C 154.15625 60.351562 151.210938 61.96875 146.707031 60.371094 C 144.410156 59.558594 143.042969 57.691406 142.332031 55.429688 C 141.816406 53.789062 141.398438 52.085938 141.652344 50.324219 C 141.902344 48.609375 142.265625 46.941406 143.195312 45.566406 C 143.195312 45.566406 144.472656 43.554688 146.996094 42.28125 C 147.144531 42.21875 151.144531 40.578125 154.914062 43.457031 C 155.933594 44.277344 156.792969 45.265625 157.464844 46.441406 C 157.878906 47.171875 158.074219 48.050781 158.265625 48.886719 C 158.960938 51.894531 158.519531 54.78125 156.636719 57.183594 Z M 155.042969 51.402344 C 155.011719 49.691406 154.082031 45.484375 150.644531 45.457031 C 147.207031 45.425781 146.457031 47.089844 146.457031 47.089844 C 145.765625 47.851562 145.410156 48.820312 145.242188 49.777344 C 145.152344 50.191406 145.105469 50.617188 145.117188 51.050781 C 145.082031 52.480469 145.347656 53.632812 145.347656 53.632812 C 146.753906 58.402344 150.617188 57.660156 150.617188 57.660156 C 154.390625 56.90625 155.078125 53.109375 155.042969 51.402344 Z M 173.015625 50.746094 C 171.632812 52.511719 169.722656 52.816406 167.804688 53.210938 C 166.792969 53.421875 165.722656 53.359375 164.695312 53.421875 C 164.695312 53.421875 164.730469 59.730469 164.488281 61.550781 C 163.492188 61.589844 161.003906 61.519531 161.003906 61.519531 C 160.898438 60.222656 160.953125 56.558594 161.054688 52.796875 C 161.027344 52.320312 160.996094 51.839844 161.003906 51.363281 C 161.027344 48.941406 161.09375 46.515625 161.160156 44.089844 L 161.160156 44.078125 C 161.164062 43.988281 161.164062 43.898438 161.167969 43.808594 C 161.167969 43.734375 161.179688 43.664062 161.195312 43.59375 L 161.261719 42.453125 C 163.460938 42.277344 166.730469 42.570312 166.730469 42.570312 C 166.734375 42.570312 166.734375 42.570312 166.738281 42.570312 C 167.246094 42.601562 168.421875 42.75 169.828125 43.210938 C 171.148438 43.691406 172.023438 44.347656 172.578125 44.910156 C 172.898438 45.191406 173.171875 45.554688 173.390625 45.96875 C 173.425781 46.023438 173.441406 46.066406 173.441406 46.066406 L 173.4375 46.066406 C 174.109375 47.433594 174.140625 49.3125 173.015625 50.746094 Z M 170.578125 47.457031 C 170.578125 47.457031 169.90625 45.808594 167.28125 45.566406 C 167.28125 45.566406 165.734375 45.363281 164.648438 45.507812 L 164.648438 50.492188 C 164.648438 50.492188 168.996094 50.808594 170.277344 49.3125 C 170.875 48.621094 170.890625 47.988281 170.578125 47.457031 Z M 140.371094 45.980469 C 140.214844 44.644531 140.320312 43.132812 140.199219 42.109375 C 135.328125 42.109375 130.066406 42.535156 125.253906 42.535156 C 125.160156 43.964844 125.324219 45.242188 125.242188 46.539062 C 127.265625 46.539062 129.097656 46.382812 130.808594 46.382812 C 131.101562 51.363281 131.398438 56.375 131.699219 61.519531 C 132.992188 61.429688 134.207031 61.347656 135.308594 61.269531 L 134.632812 46.277344 Z M 121.058594 50.636719 C 121.054688 50.632812 121.054688 50.628906 121.050781 50.621094 C 121.050781 50.621094 121.046875 50.621094 121.046875 50.628906 Z M 124.429688 58.492188 C 124.347656 56.445312 123.035156 55.003906 121.421875 54.078125 C 120.71875 53.671875 119.972656 53.347656 119.210938 53.046875 C 116.644531 52.320312 115.742188 51.878906 115.488281 51.734375 C 115.484375 51.730469 115.476562 51.730469 115.46875 51.726562 C 115.421875 51.699219 115.402344 51.683594 115.402344 51.683594 C 115.265625 51.59375 115.125 51.476562 115.007812 51.339844 C 114.992188 51.324219 114.984375 51.308594 114.972656 51.300781 C 114.941406 51.257812 114.910156 51.214844 114.878906 51.171875 C 114.871094 51.164062 114.863281 51.152344 114.859375 51.144531 C 114.496094 50.558594 114.445312 49.683594 115.480469 48.757812 C 117.140625 47.261719 119.15625 48.570312 119.15625 48.570312 C 119.917969 49.015625 120.5625 49.765625 121.054688 50.628906 C 121.988281 49.976562 122.917969 49.328125 123.832031 48.691406 C 123.230469 46.953125 122.0625 45.894531 120.613281 45.164062 C 118.363281 44.027344 116.078125 44.183594 113.777344 45.132812 C 111.046875 46.253906 109.554688 49.425781 110.570312 52.179688 C 111.0625 53.519531 112.128906 54.429688 113.304688 55.085938 C 114.570312 55.792969 115.953125 56.308594 117.324219 56.804688 C 117.78125 56.972656 118.214844 57.15625 118.605469 57.386719 C 118.605469 57.386719 120.28125 58.167969 120.542969 59.144531 C 120.804688 60.117188 120.28125 61.753906 117.707031 61.6875 L 117.707031 61.679688 C 117.234375 61.699219 116.726562 61.621094 116.226562 61.433594 C 116.058594 61.371094 115.894531 61.304688 115.726562 61.238281 L 115.726562 61.242188 C 112.492188 60.246094 110.65625 57.652344 110.65625 57.652344 C 109.90625 58.550781 109.195312 59.398438 108.507812 60.21875 C 109.765625 62.183594 112.277344 64.230469 114.289062 64.800781 C 115.171875 65.054688 116.046875 65.195312 116.914062 65.203125 C 116.914062 65.203125 123.054688 65.675781 124.199219 60.539062 L 124.195312 60.539062 C 124.378906 59.914062 124.457031 59.234375 124.429688 58.492188 Z M 215.355469 69.523438 C 215.316406 69.640625 215.273438 69.753906 215.226562 69.867188 L 215.226562 69.863281 C 215.121094 70.21875 214.972656 70.5625 214.773438 70.890625 C 213.796875 72.507812 212.351562 73.28125 210.402344 73.066406 C 209.570312 76.386719 208.773438 79.589844 207.910156 83.03125 C 206.949219 82.230469 206.035156 81.476562 205.050781 80.664062 C 205.792969 77.800781 206.53125 74.976562 207.273438 72.09375 C 205.8125 71.207031 204.378906 70.328125 202.808594 69.375 L 198.683594 76.1875 C 198.683594 76.1875 196.320312 74.332031 195.890625 74.167969 L 200.378906 66.933594 C 202.234375 63.902344 204.097656 60.867188 205.976562 57.796875 C 207.003906 58.382812 207.878906 58.878906 208.773438 59.390625 C 208.628906 59.808594 208.515625 60.140625 208.445312 60.347656 C 208.445312 60.347656 211.214844 61.429688 213.84375 63.851562 C 215.398438 65.289062 216.039062 67.523438 215.355469 69.523438 Z M 211.917969 67.003906 C 210.808594 64.875 208.652344 64.253906 206.808594 63.125 C 206.398438 63.75 206.0625 64.277344 205.722656 64.792969 C 205.382812 65.304688 205.039062 65.8125 204.75 66.230469 C 205.6875 66.886719 206.558594 67.570312 207.5 68.132812 C 208.339844 68.636719 209.230469 69.085938 210.152344 69.410156 C 210.832031 69.648438 211.539062 69.375 211.933594 68.765625 C 212.277344 68.230469 212.253906 67.652344 211.917969 67.003906 Z M 190.210938 49.511719 C 189.722656 50.628906 189.242188 51.746094 188.746094 52.875 C 190.492188 53.648438 192.054688 54.34375 193.675781 55.066406 C 191.554688 59.917969 189.480469 64.664062 187.347656 69.535156 C 187.347656 69.535156 190.25 70.917969 190.574219 71.117188 L 190.75 70.769531 C 190.761719 70.777344 190.769531 70.777344 190.773438 70.78125 C 193.066406 66.15625 195.320312 61.589844 197.644531 56.902344 C 199.367188 57.71875 201.070312 58.53125 202.804688 59.359375 C 203.386719 58.234375 203.910156 57.238281 204.433594 56.234375 C 199.722656 54.007812 195.011719 51.785156 190.210938 49.511719 Z M 241.367188 103.878906 C 239.457031 104.660156 237.722656 105.34375 236.015625 106.082031 C 234.304688 106.816406 232.609375 107.605469 230.6875 108.476562 C 231.386719 107.078125 231.976562 105.921875 232.554688 104.761719 C 233.285156 103.289062 233.988281 101.808594 234.742188 100.351562 C 235.613281 98.667969 236.542969 97.019531 237.410156 95.335938 C 237.554688 95.054688 237.6875 94.609375 237.570312 94.375 C 237.089844 93.457031 236.507812 92.597656 235.890625 91.605469 C 235.890625 91.605469 234.054688 92.574219 231.65625 93.839844 C 230.644531 94.332031 229.640625 94.824219 228.648438 95.339844 C 226.714844 96.351562 224.804688 97.398438 222.910156 98.46875 C 221.707031 99.109375 220.84375 99.570312 220.601562 99.710938 L 220.824219 100.082031 C 220.824219 100.082031 220.824219 100.082031 220.824219 100.085938 C 221.289062 100.847656 221.695312 101.515625 222.179688 102.308594 L 232.085938 97.726562 C 232.011719 97.828125 231.941406 97.925781 231.875 98.027344 C 231.742188 98.328125 231.636719 98.648438 231.464844 98.925781 C 230.441406 100.589844 229.34375 102.210938 228.382812 103.910156 C 227.289062 105.851562 226.308594 107.859375 225.296875 109.839844 C 225.160156 110.109375 224.976562 110.496094 225.074219 110.710938 C 225.472656 111.585938 225.96875 112.414062 226.410156 113.226562 C 231.984375 111.164062 237.34375 109.1875 242.816406 107.171875 C 242.269531 105.921875 241.808594 104.886719 241.367188 103.878906 Z M 246.902344 123.925781 C 247.164062 122.859375 247.203125 121.75 246.964844 120.589844 C 246.054688 116.21875 242.816406 113.214844 238.171875 113.109375 C 235.777344 113.058594 233.601562 113.640625 231.597656 114.816406 C 228.9375 116.378906 227.230469 118.636719 227.503906 121.867188 C 227.695312 124.167969 228.847656 126.035156 230.8125 127.332031 C 231.070312 127.5 231.328125 127.664062 231.660156 127.875 C 230.6875 128.164062 229.882812 128.402344 228.882812 128.707031 C 229.117188 129.542969 229.347656 130.355469 229.589844 131.214844 C 231.71875 130.730469 233.640625 130.40625 235.496094 129.851562 C 236.746094 129.476562 238.058594 129.246094 239.296875 128.820312 C 240.050781 128.59375 240.683594 128.390625 241.09375 128.21875 L 240.4375 126.25 C 240.386719 126.078125 240.335938 125.90625 240.289062 125.726562 C 239.707031 123.582031 239.167969 121.421875 238.539062 119.289062 C 238.492188 119.128906 238.402344 118.980469 238.285156 118.839844 L 235.710938 119.621094 C 236.210938 121.671875 236.707031 123.691406 237.21875 125.789062 C 236.875 125.832031 236.550781 125.914062 236.230469 125.910156 C 234.835938 125.90625 233.605469 125.40625 232.410156 124.699219 C 231.230469 124.003906 230.574219 122.667969 230.53125 121.355469 C 230.492188 119.566406 232.171875 118.207031 232.382812 118.042969 C 234.546875 116.550781 236.894531 115.683594 239.722656 116.371094 C 241.816406 116.875 243.011719 118.273438 243.785156 120.007812 C 244.613281 121.855469 244.574219 123.761719 242.710938 125.226562 C 243.09375 126.0625 243.449219 126.859375 243.789062 127.609375 C 243.785156 127.609375 246.074219 126.976562 246.902344 123.925781 Z M 232.585938 85.359375 C 231.121094 83.546875 230.617188 83.042969 230.617188 83.042969 C 226.011719 86.539062 221.488281 89.96875 216.914062 93.4375 C 217.816406 94.519531 218.574219 95.417969 219.363281 96.359375 C 219.617188 96.179688 219.734375 96.101562 219.84375 96.015625 C 219.84375 96.015625 226.050781 91.617188 230.101562 88.636719 C 230.445312 88.417969 230.789062 88.191406 231.128906 87.96875 C 231.839844 87.488281 232.46875 86.878906 233.269531 86.214844 C 232.992188 85.960938 232.777344 85.664062 232.585938 85.359375 Z M 193.320312 117.496094 C 193.109375 117.398438 192.894531 117.296875 192.679688 117.207031 C 192.671875 117.207031 192.664062 117.203125 192.664062 117.203125 C 186.152344 115.089844 180.289062 117.824219 179.902344 118.007812 C 179.898438 118.015625 179.886719 118.019531 179.878906 118.019531 C 179.878906 118.019531 179.445312 118.199219 178.957031 118.597656 C 178.734375 118.757812 178.554688 118.941406 178.40625 119.136719 C 177.960938 119.65625 177.582031 120.375 177.582031 121.316406 C 177.65625 121.53125 177.707031 121.808594 177.828125 122.050781 C 178.027344 122.457031 178.273438 122.796875 178.558594 123.089844 C 178.558594 123.089844 178.628906 123.167969 178.777344 123.285156 C 179.027344 123.496094 179.300781 123.675781 179.605469 123.824219 C 180.65625 124.402344 182.605469 125.148438 185.890625 125.355469 C 191.488281 125.703125 194.453125 124.28125 195.5625 123.089844 C 196.269531 122.328125 196.402344 121.386719 196.371094 120.695312 C 196.136719 119.105469 194.316406 117.996094 193.320312 117.496094 Z M 104.667969 127.894531 C 105.550781 127.949219 106.429688 127.988281 107.308594 128.03125 C 107.359375 128.035156 107.410156 128.035156 107.460938 128.035156 C 110.039062 128.015625 113.761719 127.582031 115.714844 125.429688 C 115.726562 125.417969 115.738281 125.398438 115.753906 125.378906 C 115.945312 125.074219 117.035156 123.027344 113.199219 120.847656 C 112.636719 120.542969 112.191406 120.347656 112.085938 120.304688 C 112.066406 120.296875 112.046875 120.289062 112.023438 120.28125 C 106.089844 118.511719 100.625 119.820312 100.242188 119.917969 C 99.695312 120.078125 99.160156 120.269531 98.640625 120.488281 C 97.476562 120.976562 96.46875 122.234375 96.339844 123.351562 C 96.339844 123.386719 96.890625 127.03125 104.667969 127.894531 Z M 128.273438 179.347656 L 134.722656 185.328125 L 135.597656 184.257812 C 135.011719 183.445312 129.566406 178.523438 129.566406 178.523438 Z M 96.171875 179.210938 L 102.714844 179.625 L 102.871094 178.207031 L 95.972656 178.113281 M 174.332031 173.289062 C 174.035156 173.351562 173.707031 173.417969 172.949219 173.578125 C 173.773438 175.53125 174.523438 177.363281 175.328125 179.164062 L 176.515625 178.539062 C 175.804688 176.816406 175.085938 175.097656 174.332031 173.289062 Z M 181.078125 183.476562 L 186.960938 186.179688 L 187.824219 185 L 181.566406 182.328125 Z M 146.90625 195.488281 L 148.113281 195.273438 L 147.046875 189.179688 L 145.777344 189.238281 Z M 146.90625 195.488281 " fill-opacity="1" fill-rule="nonzero"/><path fill="#ffffff" d="M 186.75 163.011719 C 187.386719 163.191406 187.792969 163.308594 188.226562 163.429688 C 187.710938 166.339844 187.1875 169.253906 186.671875 172.144531 C 186.148438 171.996094 185.660156 171.863281 185.222656 171.738281 C 185.730469 168.847656 186.238281 165.949219 186.75 163.011719 Z M 166.726562 186.386719 C 166.476562 185.703125 166.257812 185.089844 166.054688 184.535156 C 163.105469 186.277344 160.261719 187.957031 157.417969 189.640625 C 157.535156 190.328125 157.632812 190.863281 157.773438 191.675781 C 160.832031 189.871094 163.765625 188.136719 166.726562 186.386719 Z M 172.160156 194.816406 C 170.164062 197.238281 168.222656 199.601562 166.226562 202.019531 C 166.75 202.476562 167.117188 202.808594 167.578125 203.21875 C 169.359375 200.871094 171.128906 198.539062 172.96875 196.121094 C 172.808594 195.859375 172.554688 195.445312 172.160156 194.816406 Z M 90.785156 145.050781 C 89.507812 143.089844 88.113281 140.945312 86.707031 138.785156 C 86.148438 139.164062 85.644531 139.496094 85.191406 139.800781 C 86.5625 142.023438 87.738281 144.441406 89.679688 146.472656 C 90.101562 145.929688 90.410156 145.527344 90.785156 145.050781 Z M 141.382812 103.625 C 141.894531 104.125 142.257812 104.480469 142.605469 104.820312 C 144.921875 103.5 147.171875 102.222656 149.628906 100.824219 C 149.386719 100.332031 149.148438 99.832031 148.816406 99.132812 C 146.253906 100.683594 143.933594 102.085938 141.382812 103.625 Z M 197.742188 160.304688 C 198.449219 160.152344 198.960938 160.046875 199.46875 159.9375 C 199.175781 157.207031 198.890625 154.5625 198.59375 151.796875 C 198.039062 151.871094 197.566406 151.925781 196.863281 152.019531 C 197.15625 154.84375 197.445312 157.523438 197.742188 160.304688 Z M 129.46875 193.675781 C 129.007812 193.734375 128.597656 193.785156 128.054688 193.855469 C 128.929688 196.445312 129.785156 198.96875 130.679688 201.609375 C 131.300781 201.402344 131.734375 201.261719 132.339844 201.0625 C 131.34375 198.511719 130.402344 196.085938 129.46875 193.675781 Z M 141.457031 84.6875 C 141.816406 85.082031 142.214844 85.519531 142.675781 86.023438 C 143.933594 83.808594 145.074219 81.796875 146.238281 79.761719 C 145.605469 79.425781 145.144531 79.183594 144.621094 78.90625 C 143.554688 80.851562 142.53125 82.71875 141.457031 84.6875 Z M 108.054688 157.152344 C 110.238281 156.296875 112.539062 156.074219 114.527344 155.089844 C 114.527344 154.757812 114.539062 154.585938 114.523438 154.414062 C 114.507812 154.25 114.476562 154.09375 114.417969 153.734375 C 112.074219 154.398438 109.808594 155.042969 107.433594 155.722656 C 107.714844 156.371094 107.882812 156.757812 108.054688 157.152344 Z M 118.925781 172.578125 C 118.421875 170.550781 117.917969 168.550781 117.390625 166.472656 C 116.917969 166.613281 116.484375 166.746094 116.035156 166.886719 C 116.703125 168.964844 116.757812 171.136719 117.660156 173.074219 C 118.210938 172.859375 118.59375 172.710938 118.925781 172.578125 Z M 115.742188 183.503906 C 115.433594 183.277344 115.144531 183.078125 114.753906 182.792969 C 113.699219 185.023438 112.671875 187.1875 111.621094 189.421875 C 111.941406 189.601562 112.179688 189.730469 112.621094 189.980469 C 114.039062 187.976562 114.558594 185.5625 115.742188 183.503906 Z M 172.109375 104.941406 C 170.65625 103.222656 168.980469 104.570312 168.980469 104.570312 C 167.839844 105.582031 168.378906 106.902344 168.460938 107.085938 C 168.902344 107.691406 169.648438 108.164062 170.355469 108.171875 C 171.402344 108.1875 172.410156 107.164062 172.457031 106.03125 C 172.476562 105.644531 172.34375 105.269531 172.109375 104.941406 Z M 121.238281 106.113281 C 120.144531 104.585938 118.664062 105.34375 118.457031 105.460938 C 117.976562 105.832031 117.578125 106.34375 117.488281 106.832031 C 117.316406 107.722656 117.652344 108.347656 118.664062 108.933594 C 119.140625 109.132812 119.917969 109.214844 120.929688 108.5625 C 121.417969 108.121094 121.667969 107.59375 121.589844 107.058594 C 121.546875 106.746094 121.417969 106.414062 121.238281 106.113281 Z M 118.007812 143.742188 C 118.324219 143.941406 119.726562 143.9375 119.726562 143.9375 L 120.699219 135.945312 L 119.128906 135.644531 Z M 185.410156 135.507812 C 185.410156 136.148438 185.410156 136.71875 185.410156 137.359375 C 188.113281 136.585938 190.800781 135.8125 193.597656 135.007812 L 193.601562 133.144531 C 190.835938 133.941406 188.132812 134.722656 185.410156 135.507812 Z M 207.691406 129.917969 C 207.8125 132.65625 207.929688 135.304688 208.050781 138.046875 C 208.421875 138.074219 208.796875 138.101562 209.316406 138.132812 L 208.714844 129.589844 C 208.417969 129.683594 208.136719 129.777344 207.691406 129.917969 Z M 166.929688 122.304688 C 166.574219 122.5625 166.351562 122.726562 166 122.984375 L 170.460938 128.039062 C 170.984375 127.511719 171.335938 127.15625 171.640625 126.847656 C 170.167969 125.015625 168.59375 123.585938 166.929688 122.304688 Z M 189.109375 100.78125 C 189.039062 100.890625 188.949219 100.964844 188.84375 101.035156 L 187.914062 101.914062 C 190.023438 104.183594 191.851562 106.554688 194.292969 108.359375 C 194.578125 107.929688 194.792969 107.605469 195.007812 107.273438 C 193.007812 105.078125 191.089844 102.960938 189.109375 100.78125 Z M 189.109375 100.78125 " fill-opacity="1" fill-rule="nonzero"/></svg>