<svg xmlns="http://www.w3.org/2000/svg" xmlns:xlink="http://www.w3.org/1999/xlink" width="400" zoomAndPan="magnify" viewBox="0 0 300 299.999988" height="400" preserveAspectRatio="xMidYMid meet" version="1.0"><defs><clipPath id="1439331cf6"><path d="M 208 143 L 256.480469 143 L 256.480469 220 L 208 220 Z M 208 143 " clip-rule="nonzero"/></clipPath><clipPath id="f7db245da4"><path d="M 43.480469 152 L 93 152 L 93 230.910156 L 43.480469 230.910156 Z M 43.480469 152 " clip-rule="nonzero"/></clipPath></defs><rect x="-30" width="360" fill="#ffffff" y="-29.999999" height="359.999986" fill-opacity="1"/><rect x="-30" width="360" fill="#ffffff" y="-29.999999" height="359.999986" fill-opacity="1"/><g clip-path="url(#1439331cf6)"><path fill="#0081c8" d="M 225.054688 174.945312 C 224.613281 178.929688 224.179688 182.910156 223.734375 186.894531 C 222.878906 194.546875 222.023438 202.199219 221.167969 209.847656 C 221.136719 210.132812 221.09375 210.417969 221.039062 210.699219 C 220.160156 215.109375 217.390625 216.902344 212.980469 215.914062 C 210.171875 215.285156 208.75 213.574219 208.75 210.601562 C 208.761719 204.085938 209.386719 197.605469 210.015625 191.136719 C 210.851562 182.519531 211.558594 173.890625 212.820312 165.320312 C 213.558594 160.308594 214.328125 155.296875 215.398438 150.34375 C 215.609375 149.367188 215.894531 148.394531 216.253906 147.460938 C 217.488281 144.242188 219.53125 142.917969 222.859375 143.082031 C 225.863281 143.230469 227.800781 144.734375 228.597656 147.984375 C 230.523438 155.828125 232.300781 163.707031 234.351562 171.523438 C 236.109375 178.226562 237.816406 184.941406 239.546875 191.65625 C 239.617188 191.914062 239.730469 192.164062 240.097656 192.410156 C 240.488281 189.21875 240.871094 186.03125 241.265625 182.839844 C 242.5 172.921875 243.730469 163.003906 244.980469 153.089844 C 245.085938 152.242188 245.296875 151.394531 245.570312 150.582031 C 246.507812 147.789062 248.902344 146.316406 251.683594 146.777344 C 254.460938 147.234375 256.476562 149.578125 256.261719 152.484375 C 255.960938 156.582031 255.453125 160.667969 255.015625 164.757812 C 253.964844 174.457031 252.820312 184.144531 251.019531 193.738281 C 249.714844 200.691406 248.472656 207.660156 246.652344 214.503906 C 245.640625 218.324219 242.324219 220.101562 238.820312 218.8125 C 236.855469 218.089844 235.71875 216.566406 235.199219 214.640625 C 234.195312 210.902344 233.285156 207.140625 232.363281 203.382812 C 230.136719 194.28125 227.921875 185.179688 225.703125 176.074219 C 225.601562 175.664062 225.464844 175.261719 225.34375 174.855469 C 225.246094 174.886719 225.152344 174.917969 225.054688 174.949219 Z M 222.261719 149.625 C 222.867188 149.753906 223.375 149.523438 223.527344 148.859375 C 223.707031 148.070312 223.09375 147.925781 222.503906 147.800781 C 220.765625 147.429688 220.023438 147.820312 219.457031 149.53125 C 219.1875 150.34375 218.996094 151.1875 218.84375 152.035156 C 217.628906 158.957031 217.023438 165.960938 216.242188 172.9375 C 215.765625 177.207031 215.648438 181.519531 214.738281 185.734375 C 214.554688 186.578125 214.988281 186.914062 215.671875 187.011719 C 216.4375 187.117188 216.765625 186.695312 216.839844 185.925781 C 217.605469 177.9375 218.347656 169.945312 219.1875 161.960938 C 219.582031 158.207031 220.0625 154.460938 220.882812 150.769531 C 221.027344 150.117188 221.074219 149.214844 222.261719 149.625 Z M 222.261719 149.625 " fill-opacity="1" fill-rule="nonzero"/></g><path fill="#0081c8" d="M 94.824219 194.6875 C 94.921875 185.171875 96.070312 176.585938 99.898438 168.558594 C 102.300781 163.519531 105.597656 159.148438 110.148438 155.839844 C 121.128906 147.863281 137.171875 152.855469 141.671875 165.632812 C 143.257812 170.125 140.742188 174.902344 136.167969 176.105469 C 133.46875 176.8125 131.195312 175.925781 129.804688 173.5 C 128.726562 171.621094 127.574219 169.8125 126.054688 168.265625 C 122.324219 164.476562 119.609375 164.671875 116.585938 169.011719 C 113.117188 173.992188 111.460938 179.691406 110.453125 185.558594 C 109.269531 192.445312 109.132812 199.359375 110.800781 206.21875 C 111.15625 207.664062 111.675781 209.050781 112.421875 210.34375 C 114.953125 214.757812 120.582031 215.210938 123.65625 211.15625 C 125.882812 208.222656 127.046875 204.875 126.980469 201.128906 C 126.960938 200.140625 126.679688 199.777344 125.667969 199.820312 C 123.707031 199.902344 121.742188 199.929688 119.789062 199.644531 C 116.5 199.160156 114.546875 196.863281 114.480469 193.378906 C 114.410156 189.707031 116.058594 187.523438 119.480469 186.984375 C 124.5625 186.179688 129.683594 186.121094 134.804688 186.4375 C 137.609375 186.609375 139.515625 188.109375 140.695312 190.605469 C 141.398438 192.101562 141.734375 193.691406 141.808594 195.328125 C 142.117188 202.027344 141.042969 208.503906 138.15625 214.582031 C 132.296875 226.921875 119.851562 229.792969 109.683594 226.308594 C 104.019531 224.367188 100.671875 220.03125 98.429688 214.730469 C 95.621094 208.09375 94.882812 201.078125 94.820312 194.683594 Z M 100.269531 190.296875 C 100.28125 188.808594 100.390625 186.273438 100.757812 183.765625 C 101.816406 176.484375 104.164062 169.730469 109.203125 164.183594 C 113.121094 159.878906 117.699219 157.1875 123.839844 158.839844 C 124.40625 158.992188 125.082031 159.019531 125.246094 158.269531 C 125.410156 157.527344 124.761719 157.292969 124.203125 157.152344 C 122.386719 156.691406 120.542969 156.429688 118.660156 156.695312 C 114.359375 157.304688 111.039062 159.632812 108.179688 162.71875 C 102.707031 168.625 99.984375 175.765625 98.957031 183.625 C 97.796875 192.472656 98.34375 201.183594 101.324219 209.65625 C 102.238281 212.265625 103.613281 214.597656 105.761719 216.40625 C 106.292969 216.855469 106.871094 217.101562 107.375 216.441406 C 107.824219 215.847656 107.496094 215.351562 106.972656 214.988281 C 104.84375 213.511719 103.867188 211.289062 103.054688 208.964844 C 101.066406 203.257812 100.285156 197.363281 100.261719 190.292969 Z M 125.085938 217.085938 C 125.882812 217.003906 126.417969 216.367188 126.988281 215.804688 C 130.691406 212.160156 132.351562 207.5625 133.164062 202.570312 C 133.285156 201.855469 133.011719 201.324219 132.207031 201.300781 C 131.375 201.277344 130.882812 201.773438 131.035156 202.554688 C 131.257812 203.691406 130.980469 204.734375 130.691406 205.785156 C 129.652344 209.554688 127.878906 212.859375 124.65625 215.238281 C 124.238281 215.550781 123.96875 215.894531 124.15625 216.445312 C 124.292969 216.847656 124.546875 217.089844 125.089844 217.085938 Z M 127.789062 191.882812 C 129.582031 191.992188 131.394531 192.113281 133.207031 192.207031 C 133.859375 192.238281 134.347656 191.953125 134.375 191.242188 C 134.402344 190.429688 133.808594 190.398438 133.191406 190.378906 C 131.761719 190.339844 130.328125 190.25 128.898438 190.207031 C 126.171875 190.125 123.449219 190.214844 120.761719 190.691406 C 118.953125 191.007812 118.082031 193.042969 119.09375 194.394531 C 119.4375 194.851562 119.863281 195.125 120.449219 194.828125 C 120.96875 194.558594 121.117188 194.050781 120.855469 193.617188 C 120.15625 192.445312 120.929688 192.3125 121.765625 192.25 C 123.765625 192.109375 125.765625 192 127.792969 191.878906 Z M 133.949219 169.15625 C 133.882812 168.878906 133.847656 168.511719 133.539062 168.328125 C 132.667969 167.8125 132.316406 166.890625 131.785156 166.121094 C 131.183594 165.25 130.503906 164.460938 129.691406 163.789062 C 129.1875 163.371094 128.566406 163.042969 128.058594 163.652344 C 127.488281 164.339844 127.929688 164.929688 128.566406 165.289062 C 129.515625 165.828125 130.121094 166.667969 130.707031 167.539062 C 131.183594 168.253906 131.65625 168.96875 132.164062 169.65625 C 132.480469 170.085938 132.945312 170.1875 133.441406 169.988281 C 133.777344 169.851562 133.957031 169.578125 133.953125 169.152344 Z M 133.949219 169.15625 " fill-opacity="1" fill-rule="nonzero"/><path fill="#0081c8" d="M 141.699219 121.378906 C 141.699219 124.5625 141.667969 127.765625 141.707031 130.960938 C 141.753906 134.503906 141.929688 138.039062 141.925781 141.574219 C 141.925781 145.136719 140.214844 147.035156 136.710938 147.65625 C 135.425781 147.882812 134.136719 147.871094 132.851562 147.640625 C 129.625 147.066406 128.273438 145.554688 127.765625 141.980469 C 127.152344 137.617188 126.949219 133.21875 126.703125 128.828125 C 125.992188 116.222656 125.375 103.613281 124.671875 91.007812 C 124.609375 89.886719 124.816406 89.441406 126.019531 89.277344 C 131.003906 88.605469 134.585938 86.152344 135.929688 81.058594 C 135.96875 80.921875 136.011719 80.78125 136.039062 80.640625 C 136.574219 78.097656 136.578125 78.140625 139.214844 77.890625 C 144.039062 77.4375 148.773438 77.808594 153.398438 79.292969 C 155.140625 79.851562 156.75 80.675781 158.308594 81.625 C 168.339844 87.710938 167.308594 101.753906 159.257812 108.46875 C 157.558594 109.886719 155.75 111.132812 153.777344 112.128906 C 153.039062 112.5 152.953125 112.820312 153.390625 113.53125 C 157.28125 119.894531 160.90625 126.417969 165.089844 132.605469 C 165.839844 133.710938 166.515625 134.882812 167.0625 136.09375 C 168.222656 138.683594 167.652344 141.074219 165.527344 142.96875 C 164.148438 144.199219 162.535156 145.039062 160.785156 145.589844 C 158.308594 146.378906 156.757812 145.90625 155.332031 143.726562 C 153.363281 140.730469 151.511719 137.660156 149.65625 134.589844 C 147.054688 130.296875 144.496094 125.976562 141.921875 121.671875 C 141.832031 121.523438 141.714844 121.394531 141.699219 121.375 Z M 129.804688 107.765625 C 129.699219 104.324219 129.324219 99.601562 129.488281 94.867188 C 129.511719 94.234375 129.414062 93.6875 128.628906 93.65625 C 127.851562 93.628906 127.691406 94.175781 127.65625 94.796875 C 127.648438 94.988281 127.671875 95.179688 127.675781 95.371094 C 127.804688 103.164062 128.132812 110.945312 128.679688 118.71875 C 129.210938 126.203125 129.789062 133.683594 130.636719 141.140625 C 130.949219 143.855469 132.292969 145.1875 134.851562 145.273438 C 135.652344 145.296875 136.574219 145.070312 136.570312 144.152344 C 136.570312 143.179688 135.6875 143.460938 135.023438 143.53125 C 133.359375 143.703125 132.457031 142.980469 132.308594 141.355469 C 131.320312 130.601562 130.382812 119.839844 129.800781 107.769531 Z M 160.113281 143.273438 C 161.277344 143.125 162.597656 142.867188 163.546875 141.789062 C 164.023438 141.246094 164.1875 140.492188 163.601562 139.980469 C 162.980469 139.441406 162.597656 140.121094 162.21875 140.527344 C 160.894531 141.941406 159.164062 141.917969 157.886719 140.457031 C 157.605469 140.136719 157.359375 139.777344 157.125 139.421875 C 153.410156 133.808594 149.875 128.074219 146.390625 122.3125 C 145.851562 121.421875 145.367188 120.476562 144.988281 119.503906 C 144.699219 118.769531 144.421875 118.019531 143.523438 118.433594 C 142.625 118.847656 143 119.617188 143.382812 120.269531 C 144.722656 122.527344 146.027344 124.808594 147.40625 127.042969 C 150.117188 131.425781 152.863281 135.789062 155.59375 140.164062 C 156.613281 141.800781 157.789062 143.203125 160.113281 143.273438 Z M 160.113281 143.273438 " fill-opacity="1" fill-rule="nonzero"/><g clip-path="url(#f7db245da4)"><path fill="#0081c8" d="M 92.070312 210.851562 C 91.960938 214.179688 92.1875 219.40625 91.546875 224.589844 C 91.089844 228.3125 88.777344 230.546875 85.453125 230.707031 C 82.882812 230.832031 81.382812 229.789062 80.648438 227.328125 C 80.167969 225.703125 80.15625 224.023438 80.140625 222.347656 C 80.0625 214.363281 80.03125 206.371094 79.808594 198.390625 C 79.773438 197.152344 79.460938 196.613281 78.175781 196.523438 C 73.785156 196.210938 69.398438 195.832031 65.011719 195.433594 C 63.859375 195.328125 63.957031 196.21875 63.796875 196.832031 C 62.210938 203.035156 60.683594 209.257812 59.09375 215.460938 C 58.429688 218.050781 57.898438 220.6875 56.816406 223.152344 C 55.375 226.4375 52.628906 228.082031 49.167969 227.78125 C 46.015625 227.511719 44.203125 225.742188 43.84375 222.597656 C 43.484375 219.453125 44.171875 216.402344 44.742188 213.355469 C 47.652344 197.839844 51.992188 182.765625 58.84375 168.484375 C 60.605469 164.8125 62.652344 161.296875 65.230469 158.128906 C 66.878906 156.109375 68.792969 154.382812 71.207031 153.300781 C 74.769531 151.699219 78.453125 152.332031 81.320312 154.96875 C 84.289062 157.691406 85.804688 161.238281 86.992188 164.953125 C 89.132812 171.632812 90.160156 178.535156 90.933594 185.480469 C 91.800781 193.28125 92.1875 201.113281 92.074219 210.84375 Z M 75.480469 166.285156 C 75.0625 166.726562 74.824219 166.957031 74.613281 167.203125 C 74.335938 167.53125 74.042969 167.855469 73.8125 168.210938 C 70.144531 173.960938 68.261719 180.421875 66.359375 186.878906 C 66.171875 187.523438 66.53125 187.59375 67.015625 187.628906 C 70.640625 187.859375 74.261719 188.09375 77.882812 188.347656 C 78.980469 188.425781 79.316406 187.957031 79.183594 186.902344 C 78.867188 184.347656 78.671875 181.773438 78.308594 179.226562 C 77.695312 174.9375 76.769531 170.710938 75.480469 166.285156 Z M 75.476562 158.828125 C 76.214844 158.894531 77.171875 159.210938 77.222656 158.03125 C 77.269531 156.917969 76.257812 157.023438 75.535156 156.972656 C 74.671875 156.917969 73.824219 157.097656 73.003906 157.386719 C 70.910156 158.128906 69.277344 159.511719 67.863281 161.164062 C 65.957031 163.394531 64.492188 165.917969 63.1875 168.53125 C 55.929688 183.023438 52.183594 198.625 48.726562 214.316406 C 48.5625 215.0625 48.679688 215.726562 49.492188 215.910156 C 50.433594 216.128906 50.539062 215.359375 50.679688 214.679688 C 52.867188 204.25 55.273438 193.878906 58.816406 183.808594 C 60.957031 177.71875 63.328125 171.722656 66.585938 166.125 C 68.011719 163.675781 69.65625 161.386719 72.109375 159.820312 C 73.132812 159.167969 74.210938 158.679688 75.476562 158.828125 Z M 75.476562 158.828125 " fill-opacity="1" fill-rule="nonzero"/></g><path fill="#0081c8" d="M 186.621094 203.4375 C 186.636719 210.335938 186.734375 215.121094 186.410156 219.894531 C 186.316406 221.292969 186.058594 222.644531 185.523438 223.9375 C 184.410156 226.644531 181.691406 228.167969 178.8125 227.691406 C 177.320312 227.445312 176.296875 226.597656 175.695312 225.226562 C 175.085938 223.84375 174.929688 222.378906 174.890625 220.886719 C 174.695312 213.335938 174.464844 205.78125 174.316406 198.226562 C 174.292969 196.953125 173.976562 196.472656 172.621094 196.539062 C 168.652344 196.722656 164.675781 196.730469 160.703125 196.523438 C 159.667969 196.46875 159.453125 196.882812 159.3125 197.796875 C 158.183594 205.167969 157.167969 212.554688 155.652344 219.863281 C 155.417969 220.988281 155.152344 222.105469 154.683594 223.15625 C 153.445312 225.933594 150.414062 227.539062 147.382812 227.03125 C 144.429688 226.542969 142.851562 224.730469 142.5 221.347656 C 142.164062 218.132812 142.671875 214.953125 143.042969 211.773438 C 144.710938 197.386719 147.734375 183.296875 152.515625 169.609375 C 154.265625 164.59375 156.390625 159.722656 159.710938 155.484375 C 161.792969 152.824219 164.222656 150.601562 167.664062 149.964844 C 171.816406 149.199219 175.175781 150.726562 177.8125 153.929688 C 180.457031 157.140625 181.488281 161.035156 182.339844 164.972656 C 185.242188 178.339844 186.472656 191.890625 186.621094 203.4375 Z M 169.8125 161.496094 C 168.511719 163.042969 167.796875 164.636719 167.132812 166.246094 C 164.410156 172.859375 162.808594 179.796875 161.167969 186.726562 C 160.980469 187.511719 161.128906 187.835938 162.011719 187.886719 C 165.453125 188.09375 168.894531 188.191406 172.34375 188.222656 C 173.308594 188.230469 173.695312 187.953125 173.609375 186.882812 C 173.152344 181.355469 172.550781 175.847656 171.667969 170.367188 C 171.203125 167.464844 170.675781 164.574219 169.816406 161.496094 Z M 146.488281 212.25 C 146.488281 212.957031 146.738281 213.433594 147.449219 213.480469 C 148.128906 213.523438 148.5625 213.195312 148.5625 212.480469 C 148.550781 210.363281 148.992188 208.300781 149.320312 206.230469 C 151.148438 194.695312 153.664062 183.320312 157.363281 172.230469 C 158.769531 168.011719 160.367188 163.847656 162.894531 160.144531 C 164.289062 158.101562 165.671875 155.980469 168.605469 155.878906 C 169.464844 155.851562 169.660156 154.890625 169.007812 154.273438 C 168.457031 153.753906 167.828125 153.753906 167.144531 154.039062 C 165.199219 154.851562 163.605469 156.082031 162.339844 157.777344 C 159.734375 161.265625 157.925781 165.15625 156.476562 169.222656 C 152.539062 180.285156 149.867188 191.671875 147.875 203.230469 C 147.355469 206.242188 146.941406 209.273438 146.484375 212.25 Z M 146.488281 212.25 " fill-opacity="1" fill-rule="nonzero"/><path fill="#0081c8" d="M 102.082031 151.4375 C 98.277344 151.457031 95.957031 149.675781 94.992188 145.839844 C 94.011719 141.921875 93.867188 137.890625 93.613281 133.886719 C 92.691406 119.332031 91.816406 104.765625 90.917969 90.207031 C 90.796875 88.230469 90.792969 88.265625 88.761719 88.460938 C 84.710938 88.851562 80.660156 89.210938 76.605469 89.554688 C 75.21875 89.671875 73.828125 89.660156 72.488281 89.171875 C 68.074219 87.5625 66.457031 81.507812 69.398438 77.640625 C 70.953125 75.59375 73.085938 74.480469 75.511719 73.886719 C 80.824219 72.59375 86.246094 71.921875 91.671875 71.378906 C 101.007812 70.445312 110.34375 69.523438 119.726562 69.152344 C 121.542969 69.078125 123.355469 68.996094 125.179688 69.203125 C 127.851562 69.507812 129.679688 70.90625 130.789062 73.320312 C 131.789062 75.496094 131.921875 77.75 131.355469 80.046875 C 130.71875 82.621094 128.910156 83.964844 126.433594 84.496094 C 122.253906 85.394531 117.984375 85.542969 113.746094 85.9375 C 112.363281 86.066406 110.980469 86.210938 109.59375 86.261719 C 108.367188 86.304688 107.890625 86.714844 107.953125 88.058594 C 108.367188 97.140625 108.789062 106.21875 109.464844 115.28125 C 110.121094 124.007812 110.824219 132.730469 111.441406 141.460938 C 111.894531 147.929688 108.589844 151.394531 102.074219 151.429688 Z M 99.816406 141.15625 C 99.566406 138.394531 99.265625 135.636719 99.0625 132.871094 C 97.949219 117.75 96.980469 102.613281 96.328125 87.464844 C 96.308594 87.082031 96.277344 86.699219 96.234375 86.320312 C 96.164062 85.699219 95.796875 85.355469 95.175781 85.394531 C 94.574219 85.4375 94.199219 85.820312 94.1875 86.425781 C 94.175781 87.285156 94.214844 88.148438 94.257812 89.007812 C 94.511719 93.878906 94.722656 98.757812 95.035156 103.625 C 95.847656 116.179688 96.671875 128.730469 97.808594 141.261719 C 97.875 141.972656 97.972656 142.699219 98.882812 142.644531 C 99.75 142.589844 99.863281 141.875 99.816406 141.160156 Z M 113.257812 73.902344 C 107.601562 74.242188 103.347656 74.441406 99.105469 74.765625 C 91.808594 75.324219 84.515625 75.945312 77.367188 77.605469 C 75.832031 77.960938 74.28125 78.324219 72.957031 79.242188 C 71.421875 80.3125 71.179688 82.234375 72.378906 83.617188 C 72.855469 84.167969 73.453125 84.550781 74.105469 83.996094 C 74.671875 83.511719 74.589844 82.808594 74.074219 82.347656 C 72.992188 81.386719 73.648438 80.886719 74.507812 80.460938 C 75.0625 80.191406 75.664062 80.003906 76.265625 79.855469 C 82.457031 78.3125 88.78125 77.636719 95.113281 77.046875 C 104.023438 76.21875 112.945312 75.648438 121.902344 75.824219 C 122.699219 75.84375 123.625 75.777344 123.589844 74.757812 C 123.554688 73.769531 122.582031 73.914062 121.894531 73.910156 C 118.550781 73.890625 115.203125 73.902344 113.257812 73.902344 Z M 113.257812 73.902344 " fill-opacity="1" fill-rule="nonzero"/><path fill="#0081c8" d="M 191.371094 94.960938 C 194.285156 91.535156 197.089844 88.21875 199.921875 84.917969 C 201.914062 82.589844 203.882812 80.238281 206.140625 78.15625 C 208.339844 76.128906 210.898438 75.289062 213.8125 76.332031 C 218.085938 77.859375 219.582031 82.082031 217.320312 86.167969 C 216.320312 87.976562 214.992188 89.558594 213.65625 91.125 C 208.535156 97.136719 203.414062 103.144531 198.253906 109.121094 C 197.523438 109.964844 197.167969 110.84375 197.0625 111.933594 C 196.105469 122.039062 194.277344 132.011719 192.417969 141.976562 C 192.253906 142.867188 192.011719 143.75 191.722656 144.609375 C 190.652344 147.816406 187.867188 149.566406 184.496094 149.195312 C 182.527344 148.980469 180.832031 148.148438 179.335938 146.886719 C 177.746094 145.542969 177.339844 143.753906 177.636719 141.816406 C 178.539062 135.910156 179.511719 130.011719 180.445312 124.109375 C 181.164062 119.578125 181.859375 115.039062 182.582031 110.507812 C 182.714844 109.671875 182.582031 108.9375 182.179688 108.171875 C 179.003906 102.109375 175.484375 96.246094 171.9375 90.394531 C 170.75 88.433594 169.523438 86.480469 168.800781 84.28125 C 167.167969 79.316406 170.40625 74.613281 175.628906 74.367188 C 178.019531 74.253906 179.894531 75.140625 181.191406 77.222656 C 184.527344 82.585938 187.625 88.085938 190.632812 93.636719 C 190.851562 94.042969 191.082031 94.449219 191.367188 94.960938 Z M 180.871094 140.707031 C 180.714844 144.390625 181.753906 145.714844 184.527344 146.167969 C 185.351562 146.304688 185.980469 146.054688 186.082031 145.132812 C 186.15625 144.441406 185.707031 144.25 185.09375 144.214844 C 182.722656 144.089844 182.222656 143.527344 182.535156 141.214844 C 183.835938 131.605469 185.558594 122.058594 187.117188 112.488281 C 187.183594 112.078125 187.199219 111.640625 187.621094 111.355469 C 188.066406 111.058594 188.226562 110.609375 188.023438 110.101562 C 187.859375 109.695312 187.464844 109.585938 187.070312 109.582031 C 186.507812 109.582031 186.023438 109.796875 185.832031 110.371094 C 185.683594 110.820312 185.589844 111.296875 185.507812 111.761719 C 184.660156 116.804688 183.792969 121.84375 182.984375 126.890625 C 182.207031 131.746094 181.492188 136.613281 180.867188 140.703125 Z M 171.074219 82.097656 C 171.101562 83.136719 171.652344 84.148438 172.167969 85.175781 C 175.597656 92.011719 180.355469 98.085938 183.628906 105.015625 C 183.941406 105.667969 184.5 105.742188 185.082031 105.453125 C 185.777344 105.101562 185.648438 104.570312 185.308594 104.007812 C 183.128906 100.417969 180.976562 96.808594 178.777344 93.230469 C 176.878906 90.136719 175.007812 87.023438 173.398438 83.765625 C 172.363281 81.671875 172.683594 80.839844 174.707031 79.683594 C 175.15625 79.425781 175.617188 79.464844 176.085938 79.40625 C 176.570312 79.351562 177.128906 79.261719 177.097656 78.636719 C 177.074219 78.175781 176.628906 77.964844 176.183594 77.863281 C 174.226562 77.425781 171.085938 79.941406 171.078125 82.097656 Z M 210.382812 78.949219 C 209.261719 78.832031 208.457031 79.601562 207.6875 80.398438 C 204.433594 83.769531 201.253906 87.214844 198.234375 90.796875 C 196.601562 92.738281 195.015625 94.707031 193.398438 96.660156 C 193.011719 97.132812 192.636719 97.65625 193.238281 98.144531 C 193.835938 98.628906 194.402344 98.355469 194.824219 97.773438 C 194.90625 97.65625 194.984375 97.535156 195.074219 97.421875 C 199.320312 91.996094 203.785156 86.761719 208.644531 81.867188 C 210.269531 80.230469 210.417969 80.246094 212.019531 81.984375 C 212.386719 82.378906 212.828125 82.53125 213.308594 82.25 C 213.878906 81.914062 213.683594 81.441406 213.421875 81.007812 C 212.761719 79.894531 211.921875 79.023438 210.386719 78.945312 Z M 210.382812 78.949219 " fill-opacity="1" fill-rule="nonzero"/><path fill="#0081c8" d="M 204.234375 196.128906 C 203.9375 203.535156 203.640625 210.9375 203.339844 218.339844 C 203.300781 219.246094 203.28125 220.160156 203.167969 221.058594 C 202.785156 224.105469 201.117188 225.734375 198.054688 226.121094 C 194.65625 226.554688 192.308594 224.898438 191.558594 221.523438 C 191.160156 219.742188 191.105469 217.917969 191.050781 216.105469 C 190.636719 202.386719 190.460938 188.667969 191.550781 174.96875 C 191.660156 173.59375 191.828125 172.207031 192.128906 170.859375 C 192.867188 167.585938 195.515625 165.679688 198.992188 165.8125 C 202.199219 165.933594 204.089844 167.691406 204.609375 171.203125 C 204.816406 172.617188 204.851562 174.0625 204.847656 175.492188 C 204.828125 182.375 204.613281 189.257812 204.234375 196.132812 Z M 194.371094 192.835938 C 194.378906 200.195312 194.347656 206.84375 195.003906 213.472656 C 195.121094 214.660156 195.222656 215.855469 195.429688 217.03125 C 195.570312 217.839844 196.1875 218.136719 196.945312 217.890625 C 197.613281 217.671875 197.828125 217.039062 197.5 216.496094 C 196.808594 215.359375 196.84375 214.105469 196.753906 212.890625 C 195.808594 199.792969 196.09375 186.695312 196.804688 173.601562 C 196.863281 172.476562 197.128906 171.660156 198.414062 171.460938 C 198.964844 171.375 199.644531 171.066406 199.480469 170.355469 C 199.296875 169.53125 198.523438 169.714844 197.925781 169.8125 C 195.929688 170.136719 195.292969 170.960938 195.015625 173.765625 C 194.367188 180.34375 194.441406 186.945312 194.367188 192.835938 Z M 194.371094 192.835938 " fill-opacity="1" fill-rule="nonzero"/><path fill="#0081c8" d="M 63.585938 120.554688 C 66.316406 120.578125 69.042969 120.625 71.660156 121.539062 C 73.859375 122.304688 74.070312 123.21875 72.292969 124.691406 C 68.765625 127.617188 64.523438 129.144531 60.269531 130.613281 C 57.1875 131.675781 54.035156 132.46875 50.714844 132.21875 C 49.945312 132.160156 49.191406 132.039062 48.472656 131.765625 C 46.007812 130.832031 45.121094 128.058594 46.601562 125.871094 C 47.691406 124.261719 49.3125 123.339844 51.070312 122.648438 C 55.089844 121.070312 59.289062 120.523438 63.582031 120.554688 Z M 50.199219 128.8125 C 50.375 128.785156 50.570312 128.78125 50.75 128.71875 C 54.667969 127.332031 58.601562 125.996094 62.675781 125.113281 C 63.121094 125.019531 63.535156 124.769531 63.445312 124.246094 C 63.339844 123.613281 62.765625 123.605469 62.304688 123.683594 C 57.996094 124.390625 53.882812 125.808594 49.789062 127.277344 C 49.347656 127.433594 48.886719 127.777344 49.078125 128.355469 C 49.242188 128.855469 49.753906 128.792969 50.195312 128.8125 Z M 50.199219 128.8125 " fill-opacity="1" fill-rule="nonzero"/><path fill="#0081c8" d="M 63.121094 144.722656 C 63.261719 143.308594 63.816406 141.835938 64.695312 140.507812 C 67.792969 135.832031 71.835938 132.1875 76.824219 129.601562 C 77.328125 129.335938 77.867188 129.132812 78.410156 128.9375 C 80.414062 128.214844 80.800781 128.554688 80.527344 130.667969 C 79.691406 137.21875 76.367188 142.375 71.542969 146.675781 C 70.390625 147.703125 69.058594 148.476562 67.496094 148.714844 C 64.902344 149.109375 63.015625 147.464844 63.121094 144.714844 Z M 73.878906 135.21875 C 73.351562 135.277344 73.0625 135.691406 72.726562 136.019531 C 70.425781 138.273438 68.5 140.828125 66.730469 143.511719 C 66.390625 144.023438 65.796875 144.59375 66.476562 145.113281 C 67.152344 145.625 67.8125 145.101562 68.15625 144.519531 C 69.871094 141.621094 71.832031 138.921875 74.324219 136.632812 C 74.601562 136.375 74.679688 136.070312 74.519531 135.726562 C 74.398438 135.453125 74.203125 135.25 73.878906 135.21875 Z M 73.878906 135.21875 " fill-opacity="1" fill-rule="nonzero"/><path fill="#0081c8" d="M 224.890625 119.226562 C 221.195312 119.328125 217.527344 119.105469 214.023438 117.765625 C 212.507812 117.1875 212.453125 116.894531 213.625 115.746094 C 214.941406 114.457031 216.492188 113.523438 218.191406 112.835938 C 222.441406 111.128906 226.820312 110.011719 231.429688 109.988281 C 232.785156 109.984375 234.101562 110.171875 235.363281 110.675781 C 236.769531 111.238281 237.882812 112.082031 238.054688 113.722656 C 238.222656 115.367188 237.292969 116.433594 236.023438 117.242188 C 233.863281 118.628906 231.378906 118.960938 228.90625 119.203125 C 227.582031 119.332031 226.230469 119.222656 224.894531 119.222656 Z M 223.800781 116.34375 C 226.800781 115.90625 229.878906 115.511719 232.988281 115.4375 C 233.214844 115.433594 233.460938 115.332031 233.65625 115.214844 C 234.144531 114.921875 234.464844 114.496094 234.230469 113.90625 C 233.996094 113.3125 233.503906 113.398438 233.023438 113.582031 C 232.027344 113.964844 230.972656 113.976562 229.929688 114.089844 C 227.792969 114.328125 225.664062 114.609375 223.53125 114.878906 C 223.019531 114.941406 222.539062 115.140625 222.605469 115.738281 C 222.675781 116.375 223.246094 116.324219 223.792969 116.34375 Z M 223.800781 116.34375 " fill-opacity="1" fill-rule="nonzero"/><path fill="#0081c8" d="M 63.535156 101.875 C 66.011719 101.90625 67.8125 102.566406 69.441406 103.597656 C 73.566406 106.222656 76.824219 109.648438 78.746094 114.199219 C 79.464844 115.890625 79.109375 116.367188 77.273438 116.324219 C 75.585938 116.285156 73.957031 115.871094 72.367188 115.347656 C 69.085938 114.257812 66.011719 112.722656 63.152344 110.777344 C 62.277344 110.179688 61.507812 109.464844 60.816406 108.664062 C 59.621094 107.277344 58.894531 105.742188 59.777344 103.945312 C 60.632812 102.199219 62.304688 101.917969 63.535156 101.875 Z M 63.386719 104.867188 C 63 104.863281 62.6875 104.886719 62.601562 105.226562 C 62.449219 105.828125 62.890625 106.125 63.328125 106.292969 C 66.152344 107.375 68.707031 108.933594 71.238281 110.550781 C 71.640625 110.808594 72.191406 111.292969 72.597656 110.640625 C 72.964844 110.050781 72.398438 109.699219 71.988281 109.382812 C 69.546875 107.515625 66.890625 106.054688 63.988281 105.042969 C 63.761719 104.964844 63.535156 104.910156 63.386719 104.867188 Z M 63.386719 104.867188 " fill-opacity="1" fill-rule="nonzero"/><path fill="#0081c8" d="M 199.539062 161.496094 C 195.777344 161.507812 192.628906 158.441406 192.59375 154.722656 C 192.550781 150.917969 195.613281 147.714844 199.277344 147.722656 C 203.054688 147.738281 206.152344 150.898438 206.152344 154.746094 C 206.152344 158.398438 203.132812 161.484375 199.542969 161.496094 Z M 195.5625 154.71875 C 195.59375 154.878906 195.597656 155.328125 195.769531 155.703125 C 196.050781 156.320312 196.632812 156.46875 197.222656 156.230469 C 197.804688 155.996094 197.765625 155.457031 197.53125 155.011719 C 197.046875 154.082031 197.070312 153.207031 197.9375 152.59375 C 198.808594 151.976562 199.761719 151.730469 200.589844 152.785156 C 200.851562 153.113281 201.253906 153.160156 201.625 152.910156 C 202.0625 152.617188 202.070312 152.191406 201.902344 151.765625 C 201.578125 150.949219 200.851562 150.691406 200.074219 150.582031 C 197.644531 150.257812 195.621094 152.011719 195.5625 154.71875 Z M 195.5625 154.71875 " fill-opacity="1" fill-rule="nonzero"/><path fill="#0081c8" d="M 213.140625 123.902344 C 217.714844 124.234375 221.945312 125.546875 225.589844 128.433594 C 226.648438 129.273438 227.515625 130.289062 227.929688 131.621094 C 228.621094 133.847656 227.605469 135.640625 225.355469 136.21875 C 223.992188 136.570312 222.667969 136.367188 221.421875 135.839844 C 216.886719 133.910156 213.304688 130.847656 210.808594 126.582031 C 209.628906 124.5625 209.90625 124.109375 212.28125 123.902344 C 212.5625 123.878906 212.851562 123.902344 213.140625 123.902344 Z M 225.09375 132.492188 C 225.015625 131.886719 224.496094 131.773438 224.0625 131.628906 C 222.277344 131.035156 220.640625 130.160156 219.101562 129.089844 C 218.632812 128.761719 218.167969 128.417969 217.65625 128.171875 C 217.296875 128 216.894531 128.089844 216.660156 128.488281 C 216.410156 128.90625 216.585938 129.238281 216.933594 129.472656 C 219.117188 130.949219 221.398438 132.253906 223.839844 133.253906 C 224.496094 133.519531 224.941406 133.1875 225.09375 132.492188 Z M 225.09375 132.492188 " fill-opacity="1" fill-rule="nonzero"/><path fill="#0081c8" d="M 218.703125 97.179688 C 221.332031 97.1875 222.863281 99.300781 222.109375 101.691406 C 221.816406 102.617188 221.355469 103.457031 220.695312 104.152344 C 217.375 107.667969 213.417969 110.148438 208.699219 111.316406 C 206.695312 111.816406 206.507812 111.585938 207.042969 109.542969 C 208.300781 104.757812 211.042969 101.046875 215.222656 98.402344 C 216.324219 97.707031 217.515625 97.230469 218.703125 97.179688 Z M 219.117188 100.582031 C 219.140625 100.273438 219.0625 100.019531 218.769531 99.863281 C 218.476562 99.707031 218.160156 99.765625 218 100.011719 C 216.628906 102.085938 214.800781 103.625 212.574219 104.722656 C 212.328125 104.84375 212.277344 105.191406 212.425781 105.492188 C 212.566406 105.773438 212.78125 105.914062 213.097656 105.929688 C 214.421875 105.992188 219.082031 101.847656 219.117188 100.582031 Z M 219.117188 100.582031 " fill-opacity="1" fill-rule="nonzero"/></svg>