<svg xmlns="http://www.w3.org/2000/svg" xmlns:xlink="http://www.w3.org/1999/xlink" width="400" zoomAndPan="magnify" viewBox="0 0 300 299.999988" height="400" preserveAspectRatio="xMidYMid meet" version="1.0"><defs><clipPath id="972838c22a"><path d="M 48.273438 48.273438 L 251.523438 48.273438 L 251.523438 251.523438 L 48.273438 251.523438 Z M 48.273438 48.273438 " clip-rule="nonzero"/></clipPath></defs><rect x="-30" width="360" fill="#ffffff" y="-29.999999" height="359.999986" fill-opacity="1"/><rect x="-30" width="360" fill="#ffffff" y="-29.999999" height="359.999986" fill-opacity="1"/><g clip-path="url(#972838c22a)"><path fill="#269f20" d="M 251.53125 149.902344 C 251.53125 151.566406 251.492188 153.230469 251.410156 154.890625 C 251.328125 156.550781 251.207031 158.210938 251.042969 159.867188 C 250.882812 161.523438 250.679688 163.171875 250.4375 164.8125 C 250.191406 166.460938 249.910156 168.101562 249.582031 169.730469 C 249.257812 171.359375 248.894531 172.984375 248.492188 174.59375 C 248.085938 176.210938 247.644531 177.808594 247.160156 179.398438 C 246.679688 180.992188 246.15625 182.570312 245.59375 184.136719 C 245.035156 185.703125 244.433594 187.253906 243.800781 188.792969 C 243.164062 190.324219 242.488281 191.847656 241.777344 193.351562 C 241.070312 194.855469 240.320312 196.339844 239.539062 197.804688 C 238.753906 199.273438 237.9375 200.71875 237.078125 202.148438 C 236.226562 203.574219 235.335938 204.980469 234.410156 206.359375 C 233.484375 207.746094 232.527344 209.105469 231.539062 210.4375 C 230.550781 211.773438 229.527344 213.085938 228.472656 214.371094 C 227.417969 215.660156 226.328125 216.917969 225.210938 218.152344 C 224.097656 219.382812 222.949219 220.585938 221.769531 221.761719 C 220.59375 222.941406 219.386719 224.085938 218.160156 225.203125 C 216.925781 226.320312 215.667969 227.402344 214.378906 228.464844 C 213.09375 229.523438 211.78125 230.542969 210.449219 231.53125 C 209.113281 232.523438 207.753906 233.480469 206.367188 234.402344 C 204.988281 235.328125 203.582031 236.214844 202.15625 237.070312 C 200.730469 237.921875 199.28125 238.746094 197.8125 239.53125 C 196.347656 240.3125 194.863281 241.0625 193.359375 241.769531 C 191.855469 242.480469 190.335938 243.160156 188.800781 243.792969 C 187.261719 244.429688 185.710938 245.027344 184.144531 245.585938 C 182.578125 246.144531 181 246.664062 179.40625 247.152344 C 177.816406 247.636719 176.214844 248.078125 174.601562 248.484375 C 172.988281 248.886719 171.363281 249.25 169.738281 249.574219 C 168.105469 249.898438 166.46875 250.183594 164.820312 250.429688 C 163.179688 250.671875 161.527344 250.875 159.875 251.035156 C 158.21875 251.199219 156.5625 251.320312 154.898438 251.402344 C 153.234375 251.484375 151.574219 251.523438 149.910156 251.523438 C 148.25 251.523438 146.585938 251.484375 144.925781 251.402344 C 143.265625 251.320312 141.605469 251.199219 139.953125 251.035156 C 138.296875 250.875 136.648438 250.671875 135.003906 250.429688 C 133.355469 250.183594 131.714844 249.898438 130.089844 249.574219 C 128.457031 249.25 126.835938 248.886719 125.222656 248.484375 C 123.609375 248.078125 122.007812 247.636719 120.417969 247.152344 C 118.828125 246.667969 117.246094 246.144531 115.679688 245.585938 C 114.113281 245.027344 112.566406 244.425781 111.027344 243.792969 C 109.492188 243.15625 107.96875 242.480469 106.464844 241.769531 C 104.957031 241.0625 103.476562 240.3125 102.011719 239.53125 C 100.542969 238.746094 99.097656 237.925781 97.667969 237.070312 C 96.246094 236.21875 94.835938 235.328125 93.453125 234.402344 C 92.074219 233.476562 90.710938 232.519531 89.375 231.53125 C 88.039062 230.542969 86.726562 229.519531 85.441406 228.464844 C 84.15625 227.40625 82.898438 226.320312 81.667969 225.203125 C 80.433594 224.089844 79.230469 222.941406 78.054688 221.761719 C 76.878906 220.585938 75.734375 219.378906 74.613281 218.152344 C 73.496094 216.917969 72.414062 215.660156 71.355469 214.371094 C 70.296875 213.085938 69.277344 211.773438 68.285156 210.4375 C 67.296875 209.105469 66.339844 207.746094 65.417969 206.359375 C 64.492188 204.980469 63.601562 203.574219 62.746094 202.148438 C 61.894531 200.722656 61.070312 199.273438 60.285156 197.804688 C 59.503906 196.339844 58.753906 194.855469 58.046875 193.351562 C 57.335938 191.847656 56.660156 190.328125 56.027344 188.792969 C 55.386719 187.253906 54.792969 185.703125 54.230469 184.136719 C 53.671875 182.570312 53.152344 180.992188 52.664062 179.398438 C 52.183594 177.808594 51.738281 176.207031 51.332031 174.59375 C 50.933594 172.980469 50.566406 171.355469 50.242188 169.730469 C 49.917969 168.097656 49.632812 166.460938 49.390625 164.8125 C 49.144531 163.171875 48.945312 161.519531 48.78125 159.867188 C 48.617188 158.210938 48.496094 156.554688 48.414062 154.890625 C 48.335938 153.226562 48.273438 151.566406 48.273438 149.902344 C 48.273438 148.242188 48.3125 146.578125 48.394531 144.917969 C 48.476562 143.257812 48.597656 141.597656 48.761719 139.941406 C 48.921875 138.289062 49.125 136.640625 49.371094 134.996094 C 49.613281 133.347656 49.898438 131.707031 50.222656 130.082031 C 50.546875 128.449219 50.910156 126.824219 51.3125 125.214844 C 51.71875 123.597656 52.160156 122 52.644531 120.410156 C 53.128906 118.820312 53.652344 117.238281 54.210938 115.671875 C 54.769531 114.105469 55.371094 112.554688 56.003906 111.019531 C 56.640625 109.484375 57.316406 107.960938 58.027344 106.457031 C 58.738281 104.949219 59.484375 103.46875 60.265625 102.003906 C 61.050781 100.535156 61.871094 99.089844 62.726562 97.660156 C 63.578125 96.238281 64.472656 94.828125 65.398438 93.445312 C 66.320312 92.066406 67.28125 90.703125 68.265625 89.367188 C 69.257812 88.03125 70.277344 86.71875 71.335938 85.433594 C 72.390625 84.148438 73.472656 82.890625 74.59375 81.660156 C 75.710938 80.425781 76.859375 79.222656 78.035156 78.046875 C 79.210938 76.871094 80.417969 75.726562 81.648438 74.605469 C 82.878906 73.488281 84.140625 72.40625 85.421875 71.347656 C 86.703125 70.285156 88.019531 69.269531 89.355469 68.277344 C 90.6875 67.289062 92.054688 66.328125 93.433594 65.410156 C 94.816406 64.484375 96.222656 63.59375 97.648438 62.738281 C 99.074219 61.886719 100.523438 61.0625 101.992188 60.277344 C 103.457031 59.496094 104.941406 58.746094 106.445312 58.039062 C 107.949219 57.328125 109.46875 56.652344 111.007812 56.015625 C 112.542969 55.378906 114.09375 54.785156 115.660156 54.222656 C 117.226562 53.664062 118.804688 53.144531 120.398438 52.65625 C 121.988281 52.175781 123.589844 51.730469 125.203125 51.324219 C 126.816406 50.925781 128.441406 50.558594 130.070312 50.234375 C 131.699219 49.910156 133.335938 49.625 134.984375 49.382812 C 136.628906 49.136719 138.277344 48.933594 139.929688 48.773438 C 141.585938 48.609375 143.242188 48.488281 144.90625 48.40625 C 146.570312 48.328125 148.238281 48.273438 149.902344 48.273438 C 151.566406 48.273438 153.230469 48.3125 154.890625 48.394531 C 156.550781 48.476562 158.210938 48.597656 159.867188 48.761719 C 161.523438 48.921875 163.171875 49.125 164.8125 49.371094 C 166.460938 49.613281 168.101562 49.898438 169.730469 50.222656 C 171.359375 50.546875 172.984375 50.910156 174.59375 51.3125 C 176.210938 51.71875 177.808594 52.160156 179.398438 52.644531 C 180.992188 53.128906 182.570312 53.652344 184.136719 54.210938 C 185.703125 54.769531 187.253906 55.371094 188.792969 56.003906 C 190.324219 56.640625 191.847656 57.316406 193.351562 58.027344 C 194.855469 58.738281 196.339844 59.484375 197.804688 60.265625 C 199.273438 61.050781 200.71875 61.871094 202.148438 62.726562 C 203.574219 63.578125 204.980469 64.472656 206.359375 65.398438 C 207.746094 66.320312 209.105469 67.28125 210.4375 68.265625 C 211.773438 69.257812 213.085938 70.277344 214.371094 71.335938 C 215.660156 72.390625 216.917969 73.472656 218.152344 74.59375 C 219.382812 75.710938 220.585938 76.859375 221.761719 78.035156 C 222.941406 79.210938 224.085938 80.417969 225.203125 81.648438 C 226.320312 82.878906 227.402344 84.140625 228.464844 85.421875 C 229.523438 86.703125 230.542969 88.019531 231.53125 89.355469 C 232.523438 90.6875 233.480469 92.054688 234.402344 93.433594 C 235.328125 94.816406 236.214844 96.222656 237.070312 97.648438 C 237.921875 99.074219 238.746094 100.523438 239.53125 101.992188 C 240.3125 103.457031 241.0625 104.941406 241.769531 106.445312 C 242.480469 107.945312 243.160156 109.46875 243.792969 111.007812 C 244.429688 112.542969 245.027344 114.09375 245.585938 115.660156 C 246.144531 117.226562 246.664062 118.804688 247.152344 120.398438 C 247.636719 121.988281 248.078125 123.589844 248.484375 125.203125 C 248.886719 126.816406 249.25 128.441406 249.574219 130.070312 C 249.898438 131.699219 250.183594 133.335938 250.429688 134.984375 C 250.671875 136.628906 250.875 138.277344 251.035156 139.929688 C 251.199219 141.585938 251.320312 143.242188 251.402344 144.90625 C 251.484375 146.570312 251.53125 148.238281 251.53125 149.902344 Z M 251.53125 149.902344 " fill-opacity="1" fill-rule="nonzero"/></g><path fill="#f9be2b" d="M 201.621094 157.46875 L 197.535156 154.894531 L 193.320312 157.257812 C 192.65625 157.628906 191.859375 157.03125 192.054688 156.304688 L 193.277344 151.679688 L 189.6875 148.457031 C 189.125 147.949219 189.457031 147.023438 190.214844 146.980469 L 195.054688 146.699219 L 197.054688 142.359375 C 197.367188 141.675781 198.367188 141.699219 198.644531 142.398438 L 200.421875 146.835938 L 205.242188 147.363281 C 206 147.449219 206.285156 148.390625 205.695312 148.867188 L 201.949219 151.902344 L 202.929688 156.582031 C 203.085938 157.316406 202.261719 157.875 201.621094 157.46875 Z M 120.886719 136.757812 C 120.824219 136.765625 120.761719 136.800781 120.730469 136.859375 C 120.691406 136.925781 116.515625 143.507812 110.238281 140.097656 C 110.203125 140.082031 106.3125 138.324219 100.738281 138.503906 C 95.601562 138.671875 87.9375 140.570312 80.589844 148.65625 C 80.507812 148.746094 78.445312 150.917969 76.835938 155.011719 C 75.359375 158.785156 74.023438 164.964844 76.074219 172.964844 C 76.078125 172.984375 76.589844 174.957031 75.324219 176.589844 C 74.136719 178.121094 71.832031 178.882812 68.480469 178.84375 C 68.394531 178.832031 66.398438 178.574219 64.792969 180.242188 C 62.859375 182.253906 62.378906 186.0625 63.363281 191.574219 C 63.378906 191.671875 63.460938 191.746094 63.5625 191.753906 C 63.566406 191.753906 63.570312 191.753906 63.578125 191.753906 C 63.671875 191.753906 63.753906 191.691406 63.78125 191.605469 C 63.796875 191.554688 65.464844 186.574219 69.683594 184.976562 C 72.328125 183.972656 75.417969 184.496094 78.847656 186.511719 C 78.960938 186.597656 81.769531 188.632812 89.917969 187.097656 C 89.9375 187.09375 89.960938 187.085938 89.980469 187.078125 C 90.316406 186.898438 123.488281 168.828125 126.144531 150.703125 C 126.890625 145.609375 125.183594 140.933594 121.0625 136.8125 C 121.019531 136.773438 120.953125 136.75 120.886719 136.757812 Z M 215.796875 175.585938 L 218.007812 170.472656 C 218.359375 169.664062 217.5625 168.832031 216.738281 169.136719 L 211.519531 171.078125 L 207.332031 167.359375 C 206.671875 166.769531 205.632812 167.265625 205.679688 168.140625 L 205.949219 173.734375 L 201.136719 176.550781 C 200.378906 176.992188 200.53125 178.136719 201.386719 178.375 L 206.777344 179.871094 L 207.996094 185.332031 C 208.191406 186.199219 209.320312 186.40625 209.800781 185.675781 L 212.863281 181.011719 L 218.433594 181.570312 C 219.3125 181.660156 219.859375 180.648438 219.304688 179.960938 Z M 240.8125 149.761719 L 233.324219 145.542969 L 233.550781 136.914062 C 233.589844 135.554688 231.972656 134.820312 230.980469 135.746094 L 224.652344 141.621094 L 216.539062 138.746094 C 215.261719 138.292969 214.066406 139.605469 214.636719 140.84375 L 218.238281 148.683594 L 213.003906 155.539062 C 212.179688 156.625 213.058594 158.164062 214.402344 158.007812 L 222.949219 156.980469 L 227.832031 164.097656 C 228.601562 165.21875 230.339844 164.859375 230.601562 163.523438 L 232.269531 155.058594 L 240.5 152.585938 C 241.796875 152.191406 241.992188 150.425781 240.8125 149.761719 Z M 180.078125 151.132812 C 173.722656 148.722656 162.628906 138.996094 162.519531 138.898438 C 162.488281 138.871094 162.449219 138.851562 162.402344 138.847656 C 155.175781 137.996094 140.761719 137.429688 140.621094 137.425781 C 140.527344 137.417969 140.449219 137.476562 140.414062 137.558594 C 140.378906 137.636719 140.394531 137.730469 140.457031 137.796875 C 148.84375 146.3125 161.117188 156.890625 171.992188 158.953125 C 173.328125 159.203125 174.511719 159.304688 175.550781 159.304688 C 179.636719 159.304688 181.507812 157.742188 181.601562 157.664062 C 181.621094 157.644531 181.636719 157.625 181.648438 157.605469 C 182.546875 156.015625 182.777344 154.597656 182.335938 153.398438 C 181.742188 151.773438 180.144531 151.15625 180.078125 151.132812 Z M 180.078125 151.132812 " fill-opacity="1" fill-rule="nonzero"/><path fill="#952a8e" d="M 150.476562 170.183594 C 150.476562 170.210938 150.472656 170.238281 150.460938 170.265625 C 150.378906 170.496094 150.097656 170.863281 149.585938 170.910156 C 149.597656 170.996094 149.601562 171.089844 149.582031 171.195312 C 149.5 171.644531 149.074219 172.074219 148.316406 172.476562 C 148.429688 172.785156 148.582031 173.375 148.273438 173.785156 C 148.082031 174.046875 147.75 174.175781 147.292969 174.175781 C 147.125 174.175781 146.941406 174.160156 146.738281 174.125 C 146.375 174.0625 146.039062 173.84375 145.648438 173.589844 C 145.148438 173.261719 144.585938 172.898438 143.847656 172.789062 C 143.3125 172.710938 143.226562 172.761719 142.945312 172.929688 C 142.609375 173.132812 142.042969 173.46875 140.414062 173.855469 C 139.730469 174.019531 137.988281 174.109375 136.550781 171.484375 C 136.539062 171.464844 134.65625 168.320312 137.6875 165.878906 C 137.75 165.824219 137.839844 165.816406 137.914062 165.847656 C 138.542969 166.144531 140.25 166.875 140.945312 166.878906 C 141.222656 166.503906 142.351562 165.164062 144.382812 165.1875 C 144.429688 165.1875 150.335938 165.125 150.476562 170.183594 Z M 120.378906 192.574219 C 120.292969 187.246094 115.933594 182.636719 115.886719 182.589844 C 115.84375 182.546875 115.78125 182.519531 115.722656 182.523438 C 111.667969 182.695312 108.585938 185.65625 108.457031 185.785156 C 108.417969 185.824219 108.390625 185.882812 108.390625 185.9375 C 108.390625 185.996094 108.417969 186.050781 108.457031 186.09375 C 112.113281 189.699219 110.503906 192.511719 110.445312 192.609375 C 109.867188 193.359375 109.683594 194.070312 109.90625 194.722656 C 110.351562 196.050781 112.328125 196.597656 112.398438 196.613281 C 114 197.167969 114.347656 200.6875 114.351562 200.714844 C 114.429688 201.964844 115.566406 202.636719 115.617188 202.664062 C 115.648438 202.683594 115.683594 202.691406 115.726562 202.691406 C 115.75 202.691406 115.773438 202.6875 115.800781 202.679688 C 115.859375 202.660156 115.90625 202.609375 115.929688 202.550781 C 116.503906 200.992188 117.828125 201.265625 117.847656 201.265625 C 118.667969 201.628906 119.289062 201.164062 119.488281 200.890625 C 120.878906 199.363281 122.324219 199.277344 122.335938 199.273438 C 122.421875 199.269531 122.496094 199.21875 122.527344 199.140625 C 122.933594 198.125 124.628906 198.328125 124.648438 198.332031 C 124.707031 198.339844 124.769531 198.320312 124.816406 198.28125 C 124.863281 198.238281 124.890625 198.179688 124.890625 198.117188 C 124.890625 194.34375 121.1875 192.855469 120.378906 192.574219 Z M 181.554688 154.660156 L 181.523438 154.601562 L 181.464844 154.574219 C 172.246094 150.136719 160.117188 139.667969 159.996094 139.5625 L 159.921875 139.496094 L 159.824219 139.511719 C 156.214844 140.152344 145.695312 138.351562 145.589844 138.332031 L 145.125 138.25 L 145.386719 138.644531 C 151.039062 147.15625 169.25 154.351562 169.449219 154.429688 C 173.949219 155.84375 177.230469 156.554688 179.261719 156.554688 C 180.390625 156.554688 181.132812 156.335938 181.484375 155.898438 C 181.9375 155.347656 181.570312 154.6875 181.554688 154.660156 Z M 181.554688 154.660156 " fill-opacity="1" fill-rule="nonzero"/><path fill="#b0439d" d="M 104.300781 209.03125 C 104.300781 209.03125 103.113281 204.21875 98.671875 203.097656 C 98.671875 203.097656 97.21875 202.558594 98.792969 197.894531 C 98.792969 197.894531 102.234375 189.667969 100.082031 186.269531 C 100.082031 186.269531 113.265625 190.140625 121.796875 181.496094 C 121.796875 181.496094 128.148438 182.691406 131.402344 183.195312 C 131.402344 183.195312 139.097656 185.078125 142.777344 187.773438 C 142.777344 187.773438 143.902344 187.1875 145.800781 185.03125 C 146.339844 184.402344 147.519531 182.1875 147.519531 182.1875 C 147.519531 182.1875 147.265625 177.527344 142.230469 177.203125 C 142.230469 177.203125 139.914062 176.972656 138.539062 179.738281 C 138.539062 179.738281 137.816406 181.523438 130.777344 177.863281 C 130.777344 177.863281 139.214844 175.183594 138.53125 163.863281 C 138.53125 163.863281 138.199219 159.792969 137.605469 157.292969 C 137.605469 157.292969 135.847656 150.503906 137.1875 146.023438 C 137.1875 146.023438 146.222656 151.109375 149.941406 153.601562 C 149.941406 153.601562 153.609375 155.65625 154.683594 156.042969 C 154.683594 156.042969 176.289062 165.835938 181.667969 158.605469 C 181.667969 158.605469 181.9375 157.453125 181.214844 158.121094 C 181.214844 158.121094 168.125 166.851562 140.148438 137.746094 C 140.148438 137.746094 170.859375 143.96875 186.429688 130.792969 C 186.429688 130.792969 193.171875 125.363281 186.605469 118.320312 C 186.605469 118.320312 185.152344 116.320312 176.960938 115.617188 C 176.960938 115.617188 172.070312 115.113281 169.539062 115.023438 C 169.539062 115.023438 157.429688 113.683594 151.789062 111.59375 C 151.789062 111.59375 126.042969 106.21875 119.652344 127.691406 C 119.652344 127.691406 118.933594 131.375 118.652344 134.765625 C 118.652344 134.765625 118.617188 142.859375 115.9375 146.015625 C 115.9375 146.015625 113.59375 147.71875 110.355469 146.851562 C 110.355469 146.851562 89.757812 142.546875 81.121094 165.945312 C 81.121094 165.945312 75.746094 180.230469 87.476562 188.53125 C 87.476562 188.53125 90.503906 194.78125 91.964844 203.851562 C 91.964844 203.851562 89.527344 207.191406 90.972656 208.320312 C 90.972656 208.320312 94.675781 209.953125 95.214844 212.433594 C 95.214844 212.4375 103.691406 210.789062 104.300781 209.03125 M 104.300781 209.03125 C 104.300781 209.03125 103.113281 204.21875 98.671875 203.097656 C 98.671875 203.097656 97.21875 202.558594 98.792969 197.894531 C 98.792969 197.894531 102.234375 189.667969 100.082031 186.269531 C 100.082031 186.269531 113.265625 190.140625 121.796875 181.496094 C 121.796875 181.496094 128.148438 182.691406 131.402344 183.195312 C 131.402344 183.195312 139.097656 185.078125 142.777344 187.773438 C 142.777344 187.773438 143.902344 187.1875 145.800781 185.03125 C 146.339844 184.402344 147.519531 182.1875 147.519531 182.1875 C 147.519531 182.1875 147.265625 177.527344 142.230469 177.203125 C 142.230469 177.203125 139.914062 176.972656 138.539062 179.738281 C 138.539062 179.738281 137.816406 181.523438 130.777344 177.863281 C 130.777344 177.863281 139.214844 175.183594 138.53125 163.863281 C 138.53125 163.863281 138.199219 159.792969 137.605469 157.292969 C 137.605469 157.292969 135.847656 150.503906 137.1875 146.023438 C 137.1875 146.023438 146.222656 151.109375 149.941406 153.601562 C 149.941406 153.601562 153.609375 155.65625 154.683594 156.042969 C 154.683594 156.042969 176.289062 165.835938 181.667969 158.605469 C 181.667969 158.605469 181.9375 157.453125 181.214844 158.121094 C 181.214844 158.121094 168.125 166.851562 140.148438 137.746094 C 140.148438 137.746094 170.859375 143.96875 186.429688 130.792969 C 186.429688 130.792969 193.171875 125.363281 186.605469 118.320312 C 186.605469 118.320312 185.152344 116.320312 176.960938 115.617188 C 176.960938 115.617188 172.070312 115.113281 169.539062 115.023438 C 169.539062 115.023438 157.429688 113.683594 151.789062 111.59375 C 151.789062 111.59375 126.042969 106.21875 119.652344 127.691406 C 119.652344 127.691406 118.933594 131.375 118.652344 134.765625 C 118.652344 134.765625 118.617188 142.859375 115.9375 146.015625 C 115.9375 146.015625 113.59375 147.71875 110.355469 146.851562 C 110.355469 146.851562 89.757812 142.546875 81.121094 165.945312 C 81.121094 165.945312 75.746094 180.230469 87.476562 188.53125 C 87.476562 188.53125 90.503906 194.78125 91.964844 203.851562 C 91.964844 203.851562 89.527344 207.191406 90.972656 208.320312 C 90.972656 208.320312 94.675781 209.953125 95.214844 212.433594 C 95.214844 212.4375 103.691406 210.789062 104.300781 209.03125 Z M 104.300781 209.03125 " fill-opacity="1" fill-rule="nonzero"/><path fill="#952a8e" d="M 101.304688 184.796875 C 101.375 185.625 101.511719 186.449219 101.519531 187.234375 C 101.519531 187.621094 101.5 188 101.480469 188.355469 C 101.453125 188.714844 101.476562 189.050781 101.40625 189.355469 C 101.15625 190.589844 100.929688 191.375 100.929688 191.375 C 100.929688 191.375 100.917969 190.53125 100.976562 189.332031 C 100.992188 188.726562 100.867188 188.019531 100.855469 187.265625 C 100.820312 186.515625 100.648438 185.71875 100.550781 184.917969 C 100.410156 184.125 100.273438 183.328125 100.105469 182.585938 C 99.910156 181.851562 99.808594 181.144531 99.628906 180.5625 C 99.324219 179.367188 99.125 178.570312 99.125 178.570312 C 99.125 178.570312 99.574219 179.273438 100.035156 180.425781 C 100.546875 181.5625 100.984375 183.167969 101.304688 184.796875 Z M 118.070312 198.800781 C 117.914062 198.558594 117.757812 198.320312 117.605469 198.09375 C 117.4375 197.878906 117.226562 197.71875 117.078125 197.570312 C 116.757812 197.273438 116.472656 197.167969 116.472656 197.167969 C 116.449219 197.207031 116.933594 198.226562 117.398438 199.164062 C 117.539062 199.394531 117.71875 199.605469 117.792969 199.839844 C 117.886719 200.070312 118.03125 200.265625 118.128906 200.449219 C 118.351562 200.796875 118.5625 201.03125 118.5625 201.03125 C 118.5625 201.03125 118.589844 200.746094 118.539062 200.3125 C 118.484375 199.882812 118.371094 199.296875 118.070312 198.800781 Z M 119.175781 180.875 C 118.730469 180.644531 118.214844 180.449219 117.734375 180.164062 C 117.292969 179.808594 116.777344 179.492188 116.328125 179.089844 C 115.96875 178.609375 115.433594 178.226562 115.234375 177.617188 C 114.90625 177.078125 114.792969 176.449219 114.6875 175.824219 C 114.65625 175.191406 114.589844 174.539062 114.734375 173.910156 C 114.820312 173.273438 115 172.664062 115.210938 172.070312 C 115.621094 170.902344 116.117188 169.835938 116.636719 168.964844 C 117.625 167.203125 118.460938 166.113281 118.460938 166.113281 C 118.460938 166.113281 117.441406 167.039062 116.269531 168.738281 C 115.699219 169.589844 115.050781 170.625 114.59375 171.847656 C 114.359375 172.457031 114.15625 173.101562 114.046875 173.796875 C 113.875 174.464844 113.910156 175.203125 113.941406 175.914062 C 114.070312 176.632812 114.222656 177.339844 114.613281 177.949219 C 114.871094 178.632812 115.464844 179.058594 115.886719 179.582031 C 116.390625 180.015625 116.96875 180.316406 117.46875 180.644531 C 118.007812 180.914062 118.546875 181.074219 119.027344 181.273438 C 119.980469 181.707031 120.871094 181.6875 121.445312 181.851562 C 122.035156 181.953125 122.371094 182.007812 122.371094 182.007812 C 122.371094 182.007812 122.046875 181.898438 121.480469 181.707031 C 120.921875 181.484375 120.070312 181.351562 119.175781 180.875 Z M 121.480469 196.714844 C 121.324219 196.46875 121.167969 196.230469 121.019531 196.003906 C 120.847656 195.792969 120.636719 195.628906 120.484375 195.480469 C 120.167969 195.1875 119.882812 195.078125 119.882812 195.078125 C 119.859375 195.125 120.339844 196.136719 120.8125 197.078125 C 120.949219 197.308594 121.128906 197.519531 121.203125 197.761719 C 121.296875 197.988281 121.445312 198.183594 121.542969 198.359375 C 121.765625 198.714844 121.976562 198.949219 121.976562 198.949219 C 121.976562 198.949219 122.003906 198.660156 121.953125 198.226562 C 121.898438 197.792969 121.78125 197.207031 121.480469 196.714844 Z M 88.097656 190.039062 C 87.972656 189.738281 87.90625 189.441406 87.730469 189.148438 L 87.496094 188.707031 C 87.4375 188.582031 87.355469 188.394531 87.066406 188.210938 L 87.140625 188.242188 C 86.585938 187.792969 85.984375 187.390625 85.46875 186.898438 C 84.953125 186.40625 84.425781 185.925781 83.984375 185.363281 C 83.039062 184.296875 82.238281 183.105469 81.609375 181.824219 C 80.335938 179.269531 79.652344 176.40625 79.625 173.488281 C 79.421875 174.9375 79.460938 176.429688 79.703125 177.882812 C 79.933594 179.335938 80.347656 180.777344 80.996094 182.121094 C 81.289062 182.808594 81.691406 183.433594 82.066406 184.078125 C 82.496094 184.679688 82.894531 185.320312 83.417969 185.855469 C 83.890625 186.433594 84.457031 186.925781 85.007812 187.421875 C 85.554688 187.925781 86.1875 188.324219 86.773438 188.78125 L 86.839844 188.820312 C 86.835938 188.859375 86.820312 188.835938 86.855469 188.875 L 86.96875 189.0625 L 87.199219 189.4375 C 87.359375 189.667969 87.453125 189.980469 87.59375 190.257812 C 87.835938 190.820312 88.121094 191.367188 88.328125 191.957031 C 88.757812 193.117188 89.199219 194.28125 89.675781 195.441406 C 89.378906 194.226562 89.054688 193.019531 88.722656 191.816406 C 88.558594 191.214844 88.304688 190.628906 88.097656 190.039062 Z M 100.886719 207.050781 C 100.527344 206.632812 100.125 206.25 99.753906 206.050781 C 99.398438 205.839844 99.109375 205.78125 99.109375 205.78125 C 99.109375 205.78125 99.253906 206.035156 99.46875 206.363281 C 99.683594 206.703125 99.992188 207.097656 100.28125 207.503906 C 100.601562 207.890625 100.859375 208.296875 101.09375 208.609375 C 101.269531 208.929688 101.464844 209.167969 101.464844 209.167969 C 101.464844 209.167969 101.515625 208.902344 101.496094 208.457031 C 101.441406 208.035156 101.199219 207.511719 100.886719 207.050781 Z M 97.886719 208.441406 C 97.730469 208.203125 97.574219 207.960938 97.421875 207.742188 C 97.253906 207.515625 97.042969 207.363281 96.894531 207.214844 C 96.574219 206.921875 96.289062 206.8125 96.289062 206.8125 C 96.265625 206.855469 96.746094 207.875 97.214844 208.8125 C 97.355469 209.039062 97.527344 209.253906 97.609375 209.492188 C 97.703125 209.726562 97.847656 209.921875 97.945312 210.101562 C 98.167969 210.453125 98.382812 210.683594 98.382812 210.683594 C 98.382812 210.683594 98.414062 210.398438 98.355469 209.964844 C 98.304688 209.527344 98.183594 208.941406 97.886719 208.441406 Z M 147.449219 171.191406 C 147.257812 171.058594 147.0625 170.9375 146.882812 170.824219 C 146.6875 170.71875 146.472656 170.6875 146.316406 170.632812 C 145.980469 170.53125 145.734375 170.578125 145.734375 170.578125 C 145.730469 170.625 146.359375 171.265625 146.976562 171.78125 C 147.347656 171.988281 147.613281 172.292969 147.914062 172.453125 C 148.191406 172.625 148.441406 172.710938 148.441406 172.710938 C 148.441406 172.710938 148.398438 172.480469 148.238281 172.167969 C 148.085938 171.855469 147.820312 171.453125 147.449219 171.191406 Z M 144.671875 180.695312 C 144.421875 180.535156 144.179688 180.378906 143.945312 180.226562 C 143.699219 180.105469 143.433594 180.046875 143.230469 179.972656 C 142.8125 179.835938 142.507812 179.859375 142.507812 179.859375 C 142.5 179.910156 143.394531 180.621094 144.207031 181.300781 C 144.433594 181.449219 144.683594 181.566406 144.847656 181.757812 C 145.023438 181.933594 145.234375 182.058594 145.394531 182.1875 C 145.742188 182.425781 146.03125 182.5625 146.03125 182.5625 C 146.03125 182.5625 145.945312 182.285156 145.71875 181.902344 C 145.5 181.523438 145.160156 181.019531 144.671875 180.695312 Z M 148.871094 170.222656 C 148.71875 169.910156 148.453125 169.511719 148.085938 169.242188 C 147.890625 169.121094 147.699219 168.992188 147.519531 168.875 C 147.324219 168.777344 147.113281 168.742188 146.957031 168.679688 C 146.625 168.589844 146.375 168.625 146.375 168.625 C 146.371094 168.671875 146.996094 169.316406 147.617188 169.839844 C 147.984375 170.046875 148.253906 170.347656 148.554688 170.503906 C 148.835938 170.679688 149.082031 170.773438 149.082031 170.773438 C 149.082031 170.773438 149.035156 170.535156 148.871094 170.222656 Z M 143.089844 182.988281 C 142.851562 182.820312 142.613281 182.660156 142.390625 182.503906 C 142.15625 182.367188 141.898438 182.300781 141.699219 182.21875 C 141.289062 182.066406 140.984375 182.074219 140.984375 182.074219 C 140.976562 182.128906 141.8125 182.882812 142.609375 183.570312 C 142.824219 183.730469 143.066406 183.859375 143.234375 184.050781 C 143.410156 184.226562 143.617188 184.351562 143.773438 184.484375 C 144.117188 184.726562 144.402344 184.859375 144.402344 184.859375 C 144.402344 184.859375 144.316406 184.582031 144.097656 184.207031 C 143.882812 183.828125 143.554688 183.332031 143.089844 182.988281 Z M 131.652344 163.679688 C 132.109375 164.796875 132.28125 165.988281 132.289062 167.15625 C 132.292969 167.738281 132.230469 168.320312 132.121094 168.886719 C 132.046875 169.46875 131.867188 170.023438 131.699219 170.578125 C 131.492188 171.125 131.28125 171.664062 130.988281 172.171875 C 130.757812 172.710938 130.421875 173.191406 130.121094 173.695312 C 129.476562 174.675781 128.695312 175.566406 127.917969 176.457031 L 127.902344 176.480469 C 127.808594 176.585938 127.824219 176.75 127.925781 176.835938 C 127.949219 176.859375 127.988281 176.878906 128.019531 176.890625 C 129.234375 177.242188 130.460938 177.5625 131.707031 177.84375 C 130.671875 177.382812 129.617188 176.960938 128.550781 176.554688 C 128.894531 176.222656 129.246094 175.890625 129.578125 175.539062 C 129.949219 175.058594 130.359375 174.59375 130.710938 174.09375 C 131.039062 173.574219 131.414062 173.085938 131.667969 172.515625 C 131.960938 171.964844 132.167969 171.378906 132.371094 170.796875 C 132.734375 169.609375 132.914062 168.359375 132.792969 167.132812 C 132.683594 165.90625 132.320312 164.691406 131.652344 163.679688 Z M 135.484375 144.496094 C 135.140625 144.117188 134.773438 143.707031 134.382812 143.265625 C 134.046875 142.792969 133.691406 142.292969 133.328125 141.777344 C 132.933594 141.273438 132.710938 140.652344 132.386719 140.082031 C 132.09375 139.488281 131.945312 138.835938 131.71875 138.210938 C 131.636719 137.558594 131.394531 136.910156 131.429688 136.25 C 131.378906 135.597656 131.417969 134.953125 131.503906 134.335938 C 131.691406 133.097656 132.007812 131.949219 132.460938 131.027344 C 132.871094 130.09375 133.296875 129.347656 133.636719 128.851562 C 133.964844 128.347656 134.1875 128.074219 134.1875 128.074219 C 134.1875 128.074219 133.089844 128.976562 132.070312 130.835938 C 131.804688 131.289062 131.585938 131.816406 131.355469 132.386719 C 131.160156 132.957031 130.945312 133.574219 130.855469 134.234375 C 130.742188 134.894531 130.683594 135.582031 130.71875 136.28125 C 130.671875 136.992188 130.902344 137.6875 130.980469 138.402344 C 131.230469 139.066406 131.414062 139.765625 131.742188 140.382812 C 132.09375 140.980469 132.359375 141.632812 132.777344 142.148438 C 133.171875 142.675781 133.558594 143.183594 133.964844 143.632812 C 134.398438 144.046875 134.808594 144.441406 135.191406 144.804688 C 135.921875 145.554688 136.722656 145.960938 137.183594 146.347656 C 137.679688 146.695312 137.964844 146.890625 137.964844 146.890625 C 137.964844 146.890625 137.714844 146.652344 137.277344 146.234375 C 136.847656 145.800781 136.152344 145.28125 135.484375 144.496094 Z M 143.542969 130.550781 C 143.796875 130.550781 144.0625 130.523438 144.324219 130.460938 C 145.210938 130.25 145.96875 129.703125 146.457031 128.914062 C 146.960938 128.097656 147.113281 127.125 146.890625 126.179688 C 146.433594 124.265625 144.542969 123.0625 142.671875 123.503906 C 141.78125 123.714844 141.023438 124.261719 140.539062 125.046875 C 140.035156 125.863281 139.882812 126.839844 140.105469 127.785156 C 140.496094 129.429688 141.949219 130.550781 143.542969 130.550781 Z M 140.679688 120.125 C 140.828125 119.9375 141.035156 119.847656 141.234375 119.753906 C 141.433594 119.664062 141.609375 119.5 141.835938 119.503906 C 142.050781 119.472656 142.261719 119.390625 142.480469 119.394531 L 143.144531 119.457031 C 143.574219 119.597656 144.015625 119.714844 144.394531 119.964844 C 145.183594 120.386719 145.871094 120.921875 146.417969 121.425781 C 147.523438 122.421875 148.183594 123.203125 148.183594 123.203125 C 148.183594 123.203125 147.726562 122.289062 146.71875 121.128906 C 146.203125 120.5625 145.582031 119.894531 144.71875 119.394531 C 144.308594 119.113281 143.8125 118.941406 143.304688 118.769531 L 142.480469 118.664062 C 142.199219 118.652344 141.917969 118.734375 141.640625 118.773438 C 141.34375 118.796875 141.121094 118.988281 140.867188 119.113281 C 140.625 119.25 140.378906 119.382812 140.210938 119.59375 C 139.832031 119.976562 139.460938 120.34375 139.242188 120.78125 C 138.667969 121.601562 138.472656 122.496094 138.191406 123.207031 C 137.964844 123.933594 137.898438 124.574219 137.796875 125.003906 C 137.71875 125.433594 137.675781 125.6875 137.675781 125.6875 C 137.675781 125.6875 138.042969 124.75 138.589844 123.347656 C 138.75 123.011719 138.925781 122.648438 139.109375 122.269531 C 139.269531 121.871094 139.558594 121.535156 139.785156 121.152344 C 140.007812 120.738281 140.347656 120.441406 140.679688 120.125 Z M 140.679688 120.125 " fill-opacity="1" fill-rule="nonzero"/><path fill="#ffffff" d="M 111.394531 196.046875 C 111.128906 196.125 110.730469 196.230469 110.296875 196.34375 C 110.734375 196.296875 111.175781 196.25 111.617188 196.230469 C 110.296875 196.605469 108.949219 196.785156 107.613281 197.066406 L 107.546875 197.070312 C 107.449219 197.054688 107.382812 196.964844 107.398438 196.867188 C 107.496094 195.941406 107.933594 195.058594 108.578125 194.402344 C 108.613281 194.371094 108.640625 194.34375 108.671875 194.316406 C 108.691406 194.292969 108.71875 194.269531 108.738281 194.25 C 109.183594 193.835938 109.589844 193.628906 109.625 193.613281 C 109.667969 193.59375 109.714844 193.59375 109.761719 193.59375 C 109.765625 193.59375 109.765625 193.59375 109.769531 193.59375 C 109.929688 193.523438 110.101562 193.464844 110.277344 193.425781 C 110.160156 193.484375 110.054688 193.546875 109.949219 193.609375 C 111.089844 193.6875 111.722656 194.421875 111.824219 195.121094 C 111.894531 195.582031 111.71875 195.953125 111.394531 196.046875 Z M 92.769531 207.761719 C 92.667969 207.058594 92.03125 206.320312 90.890625 206.246094 C 91 206.183594 91.105469 206.117188 91.222656 206.058594 C 91.046875 206.101562 90.875 206.160156 90.710938 206.230469 C 90.664062 206.230469 90.617188 206.230469 90.574219 206.25 C 90.539062 206.265625 90.144531 206.464844 89.707031 206.871094 C 88.960938 207.539062 88.453125 208.5 88.34375 209.511719 C 88.324219 209.601562 88.394531 209.695312 88.496094 209.714844 L 88.558594 209.714844 C 89.894531 209.429688 91.246094 209.246094 92.5625 208.871094 C 92.117188 208.894531 91.679688 208.9375 91.242188 208.988281 C 91.675781 208.871094 92.074219 208.761719 92.335938 208.6875 C 92.660156 208.597656 92.839844 208.222656 92.769531 207.761719 Z M 150.945312 171.714844 C 151.457031 171.894531 151.96875 172.066406 152.476562 172.261719 C 152.570312 172.296875 152.675781 172.25 152.710938 172.15625 C 152.714844 172.132812 152.71875 172.097656 152.71875 172.074219 C 152.691406 171.6875 152.601562 171.304688 152.46875 170.933594 C 152.089844 169.769531 151.21875 169.140625 151.171875 169.109375 C 151.144531 169.085938 151.113281 169.074219 151.078125 169.070312 C 151.035156 169.066406 151 169.066406 150.957031 169.0625 C 150.859375 169.007812 150.761719 168.949219 150.65625 168.910156 C 150.722656 168.953125 150.78125 169.007812 150.835938 169.058594 C 150.035156 169.046875 149.585938 169.5625 149.445312 170.050781 C 149.417969 170.132812 149.40625 170.214844 149.398438 170.296875 C 149.398438 170.296875 149.398438 170.296875 149.394531 170.296875 C 149.394531 170.296875 149.394531 170.296875 149.398438 170.296875 C 149.394531 170.347656 149.390625 170.398438 149.394531 170.445312 C 148.714844 170.507812 148.320312 170.980469 148.1875 171.425781 C 148.050781 171.875 148.164062 172.296875 148.457031 172.429688 C 148.597656 172.492188 148.777344 172.574219 148.984375 172.667969 C 148.769531 172.617188 148.550781 172.570312 148.328125 172.535156 C 149.265625 173.003906 150.253906 173.277344 151.21875 173.648438 C 151.308594 173.679688 151.414062 173.640625 151.449219 173.542969 C 151.460938 173.519531 151.460938 173.488281 151.460938 173.457031 C 151.433594 173.082031 151.347656 172.703125 151.21875 172.34375 C 151.136719 172.109375 151.046875 171.902344 150.945312 171.714844 Z M 148.753906 185.632812 C 148.773438 185.609375 148.785156 185.585938 148.792969 185.558594 C 148.890625 185.167969 148.925781 184.757812 148.90625 184.347656 C 148.890625 183.144531 148.28125 182.300781 148.246094 182.257812 C 148.226562 182.230469 148.199219 182.207031 148.167969 182.191406 C 148.128906 182.171875 148.09375 182.164062 148.050781 182.148438 C 147.976562 182.066406 147.902344 181.980469 147.816406 181.90625 C 147.863281 181.972656 147.898438 182.039062 147.9375 182.101562 C 147.183594 181.847656 146.597656 182.191406 146.316406 182.609375 C 146.050781 182.996094 146.027344 183.429688 146.261719 183.648438 C 146.371094 183.75 146.527344 183.890625 146.695312 184.042969 C 146.574219 183.96875 146.453125 183.90625 146.328125 183.835938 C 146.316406 183.824219 146.304688 183.8125 146.289062 183.800781 C 146.292969 183.808594 146.296875 183.816406 146.308594 183.824219 C 146.238281 183.789062 146.171875 183.742188 146.101562 183.710938 C 146.199219 183.808594 146.304688 183.894531 146.410156 183.984375 C 146.410156 183.988281 146.414062 183.988281 146.414062 183.996094 C 145.65625 183.738281 145.074219 184.085938 144.785156 184.5 C 144.519531 184.886719 144.496094 185.324219 144.726562 185.539062 C 144.835938 185.640625 144.988281 185.777344 145.160156 185.925781 C 144.96875 185.8125 144.773438 185.703125 144.574219 185.601562 C 145.320312 186.328125 146.179688 186.898438 146.980469 187.550781 C 147.058594 187.609375 147.167969 187.601562 147.230469 187.519531 C 147.25 187.496094 147.265625 187.472656 147.269531 187.445312 C 147.359375 187.074219 147.394531 186.6875 147.382812 186.300781 C 147.390625 185.417969 147.070312 184.726562 146.871094 184.378906 C 147.40625 184.8125 147.96875 185.214844 148.503906 185.652344 C 148.578125 185.722656 148.691406 185.710938 148.753906 185.632812 Z M 124.800781 197.753906 C 124.765625 197.722656 124.726562 197.703125 124.691406 197.679688 C 124.632812 197.582031 124.582031 197.484375 124.515625 197.394531 C 124.546875 197.46875 124.566406 197.542969 124.59375 197.613281 C 123.917969 197.195312 123.265625 197.402344 122.894531 197.75 C 122.542969 198.070312 122.425781 198.480469 122.609375 198.746094 C 122.695312 198.867188 122.808594 199.035156 122.9375 199.21875 C 122.777344 199.0625 122.613281 198.914062 122.441406 198.769531 C 123.003906 199.648438 123.714844 200.394531 124.347656 201.210938 C 124.402344 201.289062 124.515625 201.304688 124.597656 201.242188 C 124.617188 201.226562 124.636719 201.199219 124.652344 201.175781 C 124.820312 200.835938 124.941406 200.464844 125.019531 200.085938 C 125.308594 198.886719 124.886719 197.894531 124.863281 197.84375 C 124.847656 197.800781 124.828125 197.773438 124.800781 197.753906 Z M 104.542969 208.917969 C 104.507812 208.886719 104.46875 208.867188 104.429688 208.839844 C 104.375 208.746094 104.324219 208.648438 104.257812 208.558594 C 104.285156 208.628906 104.304688 208.703125 104.328125 208.769531 C 103.65625 208.355469 103.011719 208.5625 102.636719 208.902344 C 102.292969 209.214844 102.171875 209.636719 102.347656 209.898438 C 102.433594 210.027344 102.554688 210.195312 102.6875 210.382812 C 102.523438 210.222656 102.355469 210.070312 102.179688 209.925781 C 102.738281 210.804688 103.449219 211.550781 104.082031 212.363281 C 104.144531 212.449219 104.253906 212.460938 104.339844 212.394531 C 104.359375 212.378906 104.378906 212.351562 104.390625 212.332031 C 104.570312 211.976562 104.691406 211.59375 104.769531 211.199219 C 105.035156 210.015625 104.625 209.046875 104.605469 209 C 104.59375 208.96875 104.574219 208.941406 104.542969 208.917969 Z M 101.191406 210.75 C 101.15625 210.722656 101.121094 210.703125 101.082031 210.679688 C 101.03125 210.585938 100.976562 210.488281 100.910156 210.398438 C 100.9375 210.46875 100.957031 210.539062 100.980469 210.609375 C 100.304688 210.191406 99.660156 210.398438 99.285156 210.738281 C 98.9375 211.058594 98.816406 211.46875 98.996094 211.738281 C 99.082031 211.859375 99.195312 212.027344 99.324219 212.207031 C 99.164062 212.054688 99 211.90625 98.832031 211.757812 C 99.390625 212.636719 100.101562 213.386719 100.734375 214.203125 C 100.789062 214.277344 100.90625 214.296875 100.984375 214.234375 C 101.007812 214.21875 101.023438 214.195312 101.035156 214.167969 C 101.210938 213.816406 101.339844 213.429688 101.410156 213.035156 C 101.679688 211.851562 101.265625 210.882812 101.246094 210.828125 C 101.242188 210.800781 101.222656 210.773438 101.191406 210.75 Z M 97.871094 211.328125 C 97.847656 211.308594 97.820312 211.296875 97.796875 211.277344 C 97.726562 211.148438 97.65625 211.019531 97.574219 210.902344 C 97.613281 211 97.644531 211.097656 97.679688 211.195312 C 96.90625 210.699219 96.167969 210.929688 95.746094 211.316406 C 95.363281 211.667969 95.234375 212.121094 95.433594 212.40625 C 95.554688 212.585938 95.738281 212.847656 95.9375 213.128906 C 95.707031 212.898438 95.464844 212.671875 95.21875 212.453125 C 95.871094 213.433594 96.671875 214.28125 97.390625 215.199219 C 97.457031 215.28125 97.566406 215.292969 97.644531 215.234375 C 97.667969 215.21875 97.6875 215.191406 97.695312 215.167969 C 97.960938 214.652344 98.128906 214.070312 98.1875 213.484375 C 98.328125 212.34375 97.957031 211.460938 97.933594 211.410156 C 97.921875 211.382812 97.898438 211.351562 97.871094 211.328125 Z M 121.4375 199.703125 C 121.410156 199.683594 121.390625 199.675781 121.367188 199.660156 C 121.292969 199.523438 121.222656 199.386719 121.132812 199.261719 C 121.175781 199.363281 121.210938 199.46875 121.246094 199.574219 C 120.449219 199.054688 119.6875 199.292969 119.253906 199.691406 C 118.867188 200.050781 118.730469 200.519531 118.929688 200.808594 C 119.066406 201.007812 119.269531 201.300781 119.496094 201.621094 C 119.238281 201.359375 118.976562 201.101562 118.695312 200.855469 C 119.378906 201.863281 120.203125 202.746094 120.949219 203.691406 C 121.011719 203.765625 121.125 203.785156 121.203125 203.722656 C 121.230469 203.710938 121.246094 203.683594 121.257812 203.65625 C 121.535156 203.113281 121.707031 202.507812 121.769531 201.890625 C 121.902344 200.730469 121.523438 199.835938 121.496094 199.78125 C 121.484375 199.753906 121.464844 199.726562 121.4375 199.703125 Z M 118.492188 202.503906 C 118.488281 202.433594 118.484375 202.359375 118.480469 202.285156 C 118.417969 201.464844 118.175781 200.902344 118.15625 200.855469 C 118.144531 200.824219 118.121094 200.800781 118.097656 200.777344 C 118.085938 200.769531 118.074219 200.761719 118.0625 200.75 C 117.980469 200.578125 117.882812 200.410156 117.773438 200.25 C 117.828125 200.378906 117.871094 200.507812 117.917969 200.640625 C 117.023438 200.03125 116.15625 200.304688 115.667969 200.753906 C 115.238281 201.148438 115.085938 201.667969 115.300781 201.988281 C 115.488281 202.261719 115.777344 202.679688 116.09375 203.121094 C 115.746094 202.757812 115.394531 202.398438 115.015625 202.0625 C 115.804688 203.1875 116.730469 204.183594 117.578125 205.25 C 117.640625 205.328125 117.75 205.34375 117.832031 205.28125 C 117.851562 205.265625 117.871094 205.242188 117.882812 205.21875 C 118.304688 204.398438 118.523438 203.449219 118.488281 202.523438 C 118.492188 202.515625 118.492188 202.511719 118.492188 202.503906 Z M 144.886719 189.710938 C 144.964844 189.769531 145.078125 189.761719 145.136719 189.679688 C 145.15625 189.65625 145.171875 189.628906 145.175781 189.601562 C 145.328125 188.988281 145.359375 188.335938 145.273438 187.703125 C 145.253906 187.566406 145.230469 187.4375 145.203125 187.308594 C 145.195312 187.28125 145.191406 187.257812 145.183594 187.230469 C 144.972656 186.335938 144.550781 185.757812 144.519531 185.71875 C 144.5 185.691406 144.472656 185.671875 144.445312 185.652344 C 144.421875 185.640625 144.402344 185.636719 144.382812 185.628906 C 144.277344 185.503906 144.167969 185.386719 144.046875 185.277344 C 144.117188 185.375 144.175781 185.476562 144.242188 185.574219 C 143.332031 185.226562 142.625 185.636719 142.289062 186.136719 C 141.988281 186.578125 141.960938 187.070312 142.222656 187.308594 C 142.410156 187.484375 142.691406 187.734375 143 188.007812 C 142.675781 187.800781 142.347656 187.597656 142.003906 187.414062 C 142.90625 188.265625 143.921875 188.945312 144.886719 189.710938 Z M 149.574219 175.339844 C 149.578125 175.316406 149.582031 175.285156 149.582031 175.257812 C 149.554688 174.859375 149.457031 174.460938 149.3125 174.078125 C 148.929688 172.9375 148.082031 172.324219 148.035156 172.292969 C 148.007812 172.273438 147.976562 172.261719 147.941406 172.257812 C 147.898438 172.253906 147.863281 172.253906 147.820312 172.25 C 147.722656 172.191406 147.625 172.136719 147.519531 172.09375 C 147.582031 172.140625 147.636719 172.191406 147.699219 172.246094 C 146.898438 172.234375 146.449219 172.742188 146.308594 173.230469 C 146.175781 173.675781 146.289062 174.097656 146.578125 174.230469 C 146.71875 174.292969 146.902344 174.375 147.113281 174.46875 C 146.894531 174.421875 146.671875 174.375 146.449219 174.339844 C 147.386719 174.796875 148.378906 175.078125 149.34375 175.445312 C 149.433594 175.484375 149.535156 175.433594 149.574219 175.339844 Z M 157.203125 139.628906 C 158.105469 139.855469 159.175781 141.835938 159.511719 142.578125 C 159.542969 142.640625 159.601562 142.691406 159.675781 142.703125 C 159.6875 142.703125 159.699219 142.707031 159.710938 142.707031 C 159.773438 142.707031 159.828125 142.683594 159.871094 142.636719 C 160.433594 142.027344 160.796875 140.949219 160.972656 139.917969 C 162.070312 140.632812 163.03125 142.496094 163.042969 142.515625 C 163.078125 142.578125 163.128906 142.617188 163.199219 142.628906 C 163.210938 142.632812 163.226562 142.632812 163.238281 142.632812 C 163.292969 142.632812 163.34375 142.613281 163.382812 142.582031 C 164.164062 141.882812 164.683594 140.625 164.929688 139.492188 C 166.183594 139.925781 167.390625 142.273438 167.402344 142.296875 C 167.429688 142.359375 167.488281 142.398438 167.558594 142.410156 C 167.570312 142.414062 167.585938 142.414062 167.597656 142.414062 C 167.652344 142.414062 167.699219 142.394531 167.738281 142.363281 C 168.847656 141.375 169.433594 139.289062 169.460938 138.003906 C 169.46875 138.003906 169.476562 138.007812 169.484375 138.007812 C 170.820312 138.230469 172.15625 140.84375 172.167969 140.867188 C 172.199219 140.929688 172.253906 140.96875 172.320312 140.980469 C 172.335938 140.984375 172.351562 140.984375 172.363281 140.984375 C 172.414062 140.984375 172.464844 140.964844 172.503906 140.933594 C 173.488281 140.058594 174.058594 138.292969 174.191406 137.007812 C 175.035156 137.433594 175.980469 139.195312 176.292969 139.890625 C 176.320312 139.957031 176.378906 140.003906 176.453125 140.015625 C 176.464844 140.015625 176.476562 140.019531 176.484375 140.019531 C 176.546875 140.019531 176.605469 139.996094 176.644531 139.953125 C 177.597656 138.902344 177.964844 136.425781 177.804688 135.273438 C 177.863281 135.34375 177.949219 135.417969 178.109375 135.457031 C 178.996094 135.6875 180.058594 137.667969 180.390625 138.410156 C 180.417969 138.472656 180.480469 138.523438 180.550781 138.535156 C 180.566406 138.535156 180.578125 138.539062 180.585938 138.539062 C 180.644531 138.539062 180.703125 138.515625 180.742188 138.46875 C 181.609375 137.527344 181.988281 135.425781 181.941406 134.171875 C 182.824219 134.414062 183.878906 136.378906 184.214844 137.117188 C 184.242188 137.183594 184.300781 137.230469 184.375 137.246094 C 184.386719 137.246094 184.398438 137.25 184.40625 137.25 C 184.46875 137.25 184.527344 137.222656 184.566406 137.179688 C 185.714844 135.929688 186.011719 132.605469 185.574219 131.988281 C 185.394531 131.742188 184.976562 131.519531 183.996094 131.859375 C 183.234375 132.121094 182.1875 132.730469 181.75 133.28125 C 181.75 133.28125 181.75 133.277344 181.75 133.277344 C 181.570312 133.03125 181.152344 132.808594 180.171875 133.148438 C 179.234375 133.472656 177.855469 134.332031 177.734375 134.953125 C 177.710938 134.875 177.683594 134.800781 177.648438 134.757812 C 177.46875 134.507812 177.054688 134.289062 176.074219 134.621094 C 175.457031 134.835938 174.640625 135.285156 174.121094 135.742188 C 174.09375 135.683594 174.066406 135.628906 174.035156 135.589844 C 173.527344 135.003906 172.089844 135.523438 171.277344 135.890625 C 171.207031 135.921875 169.902344 136.507812 169.320312 137.105469 C 169.300781 137.074219 169.285156 137.042969 169.265625 137.015625 C 168.761719 136.433594 167.328125 136.953125 166.523438 137.308594 C 166.46875 137.332031 165.714844 137.671875 165.097656 138.089844 C 165.09375 137.691406 165.03125 137.382812 164.910156 137.234375 C 164.402344 136.652344 162.96875 137.171875 162.152344 137.535156 C 162.105469 137.558594 161.601562 137.785156 161.082031 138.09375 C 161.054688 137.792969 161 137.558594 160.90625 137.433594 C 160.644531 137.082031 160.085938 137.042969 159.285156 137.320312 C 158.289062 137.671875 156.792969 138.609375 156.824219 139.230469 C 156.824219 139.316406 156.867188 139.546875 157.203125 139.628906 Z M 153.722656 138.175781 C 153.632812 138.183594 151.894531 138.273438 151.230469 138.726562 C 150.691406 138.15625 148.183594 138.21875 147.359375 138.378906 C 147.070312 138.4375 146.796875 138.523438 146.773438 138.753906 C 146.757812 138.902344 146.851562 139.027344 147.058594 139.121094 C 148.011719 139.554688 148.347656 141.203125 148.351562 141.21875 C 148.363281 141.273438 148.398438 141.324219 148.445312 141.355469 C 148.480469 141.378906 148.523438 141.390625 148.5625 141.390625 C 148.578125 141.390625 148.59375 141.390625 148.609375 141.386719 C 149.820312 141.128906 150.816406 140.132812 151.179688 139.472656 C 151.207031 139.488281 151.230469 139.507812 151.257812 139.523438 C 152.414062 140.207031 152.726562 143.128906 152.730469 143.15625 C 152.738281 143.222656 152.777344 143.285156 152.832031 143.320312 C 152.867188 143.339844 152.90625 143.351562 152.945312 143.351562 C 152.972656 143.351562 153 143.347656 153.023438 143.339844 C 154.914062 142.625 156.644531 139.648438 156.375 138.894531 C 156.117188 138.164062 154.601562 138.132812 153.722656 138.175781 Z M 174.84375 157.703125 C 175.078125 157.808594 176.707031 158.515625 177.871094 158.515625 C 178.242188 158.515625 178.570312 158.441406 178.792969 158.25 C 178.855469 158.195312 178.878906 158.105469 178.855469 158.023438 C 178.828125 157.933594 178.140625 155.820312 177.042969 155.480469 C 176.679688 155.367188 176.324219 155.445312 175.980469 155.714844 C 175.945312 155.738281 175.179688 156.363281 174.734375 157.421875 C 174.683594 157.53125 174.734375 157.65625 174.84375 157.703125 Z M 180.34375 153.65625 C 180.410156 153.617188 180.449219 153.546875 180.445312 153.46875 C 180.445312 153.109375 180.398438 151.292969 179.6875 150.867188 C 179.539062 150.78125 179.289062 150.710938 178.960938 150.878906 C 178.9375 150.898438 178.316406 151.238281 177.820312 152.019531 C 177.769531 152.101562 177.78125 152.207031 177.84375 152.28125 C 178.09375 152.554688 179.222656 153.738281 180.011719 153.738281 C 180.132812 153.746094 180.246094 153.71875 180.34375 153.65625 Z M 176.863281 151.953125 C 176.984375 151.953125 177.101562 151.925781 177.203125 151.863281 C 177.269531 151.824219 177.308594 151.753906 177.304688 151.675781 C 177.304688 151.449219 177.269531 149.4375 176.519531 148.988281 C 176.363281 148.894531 176.113281 148.828125 175.777344 149.003906 C 175.746094 149.023438 175.105469 149.371094 174.59375 150.183594 C 174.542969 150.265625 174.554688 150.371094 174.617188 150.441406 C 174.878906 150.722656 176.042969 151.953125 176.863281 151.953125 Z M 174.097656 150.042969 C 174.164062 150.003906 174.207031 149.933594 174.207031 149.859375 C 174.207031 149.613281 174.164062 147.449219 173.359375 146.96875 C 173.199219 146.871094 172.929688 146.792969 172.574219 146.984375 C 172.546875 147 171.851562 147.378906 171.308594 148.25 C 171.253906 148.332031 171.265625 148.4375 171.332031 148.511719 C 171.605469 148.8125 172.867188 150.136719 173.742188 150.136719 C 173.871094 150.136719 173.992188 150.109375 174.097656 150.042969 Z M 171.132812 147.667969 C 171.207031 147.628906 171.253906 147.554688 171.25 147.46875 C 171.246094 147.226562 171.175781 145.097656 170.261719 144.503906 C 170.058594 144.375 169.714844 144.261719 169.25 144.460938 C 169.214844 144.476562 168.347656 144.863281 167.667969 145.757812 C 167.597656 145.847656 167.609375 145.972656 167.695312 146.050781 C 167.910156 146.246094 169.625 147.753906 170.726562 147.753906 C 170.875 147.75 171.011719 147.726562 171.132812 147.667969 Z M 167.167969 145.292969 C 167.304688 145.292969 167.429688 145.265625 167.546875 145.195312 C 167.609375 145.152344 167.652344 145.085938 167.652344 145.007812 C 167.648438 144.757812 167.605469 142.539062 166.761719 142.027344 C 166.589844 141.921875 166.304688 141.84375 165.921875 142.039062 C 165.890625 142.054688 165.148438 142.4375 164.558594 143.339844 C 164.503906 143.425781 164.511719 143.535156 164.582031 143.609375 C 164.878906 143.921875 166.234375 145.292969 167.167969 145.292969 Z M 169.382812 156.230469 C 169.632812 156.359375 171.363281 157.265625 172.554688 157.265625 C 172.902344 157.265625 173.203125 157.1875 173.40625 156.988281 C 173.460938 156.933594 173.484375 156.851562 173.457031 156.773438 C 173.375 156.5 172.609375 154.117188 171.46875 153.789062 C 171.234375 153.722656 170.867188 153.71875 170.476562 154.0625 C 170.441406 154.089844 169.683594 154.777344 169.28125 155.972656 C 169.25 156.066406 169.289062 156.179688 169.382812 156.230469 Z M 163.945312 153.511719 C 164.175781 153.707031 165.984375 155.195312 167.144531 155.195312 C 167.335938 155.195312 167.507812 155.15625 167.65625 155.0625 C 167.722656 155.015625 167.761719 154.9375 167.753906 154.859375 C 167.726562 154.582031 167.480469 152.125 166.445312 151.582031 C 166.230469 151.46875 165.882812 151.386719 165.429688 151.640625 C 165.394531 151.660156 164.53125 152.167969 163.890625 153.234375 C 163.84375 153.328125 163.863281 153.445312 163.945312 153.511719 Z M 160.09375 149.242188 C 160.054688 149.253906 159.097656 149.535156 158.277344 150.371094 C 158.195312 150.449219 158.191406 150.582031 158.269531 150.664062 C 158.488281 150.898438 160.246094 152.78125 161.410156 152.78125 C 161.511719 152.78125 161.613281 152.765625 161.699219 152.730469 C 161.78125 152.703125 161.835938 152.628906 161.84375 152.550781 C 161.863281 152.304688 162.039062 150.148438 161.15625 149.417969 C 160.867188 149.183594 160.511719 149.125 160.09375 149.242188 Z M 155.894531 145.910156 C 155.699219 145.753906 155.367188 145.605469 154.867188 145.769531 C 154.824219 145.785156 153.863281 146.121094 153.023438 147.0625 C 152.953125 147.144531 152.949219 147.261719 153.019531 147.34375 C 153.226562 147.59375 154.945312 149.640625 156.121094 149.640625 C 156.234375 149.640625 156.339844 149.617188 156.441406 149.582031 C 156.515625 149.554688 156.566406 149.484375 156.574219 149.402344 C 156.601562 149.121094 156.820312 146.652344 155.894531 145.910156 Z M 150.628906 146.03125 C 150.738281 146.03125 150.847656 146.015625 150.945312 145.972656 C 151.019531 145.945312 151.070312 145.875 151.078125 145.796875 C 151.109375 145.515625 151.320312 143.042969 150.398438 142.308594 C 150.207031 142.15625 149.871094 142.003906 149.375 142.171875 C 149.335938 142.183594 148.367188 142.515625 147.53125 143.457031 C 147.464844 143.539062 147.460938 143.65625 147.527344 143.738281 C 147.734375 143.988281 149.449219 146.03125 150.628906 146.03125 Z M 143.320312 126.695312 C 143.402344 126.695312 143.480469 126.6875 143.5625 126.667969 C 144.136719 126.527344 144.492188 125.949219 144.351562 125.378906 C 144.285156 125.097656 144.117188 124.863281 143.871094 124.710938 C 143.628906 124.5625 143.34375 124.511719 143.066406 124.582031 C 142.792969 124.648438 142.558594 124.816406 142.40625 125.054688 C 142.257812 125.300781 142.207031 125.589844 142.277344 125.863281 C 142.394531 126.359375 142.835938 126.695312 143.320312 126.695312 Z M 173.203125 233.296875 C 173.964844 234.238281 174.617188 235.207031 175.164062 236.199219 L 174.578125 236.289062 C 174.277344 236.332031 173.617188 236.453125 172.59375 236.65625 C 171.5625 236.867188 170.738281 237.015625 170.128906 237.105469 C 169.785156 237.15625 169.265625 237.210938 168.570312 237.261719 L 167.933594 237.332031 C 165.789062 233.925781 163.953125 231.410156 162.421875 229.777344 L 162.570312 230.738281 C 162.800781 232.261719 163.191406 234.21875 163.734375 236.601562 L 163.722656 236.566406 C 163.765625 236.734375 163.816406 237.023438 163.878906 237.441406 C 163.109375 237.964844 161.765625 238.371094 159.847656 238.664062 L 158.972656 238.765625 L 157.011719 239.054688 C 156.746094 239.101562 156.273438 236.902344 155.601562 232.445312 C 154.992188 228.410156 154.34375 224.382812 153.660156 220.355469 C 152.976562 216.320312 152.496094 213.90625 152.226562 213.105469 L 153.191406 212.800781 C 154.640625 212.390625 155.835938 212.066406 156.773438 211.828125 C 157.71875 211.578125 158.703125 211.382812 159.707031 211.222656 C 160.789062 211.058594 161.722656 210.972656 162.496094 210.953125 C 163.945312 210.910156 165.347656 211.203125 166.710938 211.828125 C 168.078125 212.449219 169.222656 213.292969 170.152344 214.359375 C 171.085938 215.429688 171.644531 216.597656 171.832031 217.855469 C 172.007812 219.058594 171.8125 220.429688 171.238281 221.976562 C 170.886719 222.9375 170.347656 223.765625 169.621094 224.476562 C 168.898438 225.1875 167.980469 225.6875 166.867188 225.980469 C 167.710938 227.0625 168.667969 228.179688 169.746094 229.328125 C 169.960938 229.59375 170.125 229.773438 170.234375 229.855469 C 171.457031 231.210938 172.445312 232.355469 173.203125 233.296875 Z M 164.292969 218.941406 C 164.144531 217.933594 163.804688 217.324219 163.261719 217.101562 C 162.917969 216.953125 162.574219 216.878906 162.234375 216.878906 C 161.894531 216.878906 161.519531 216.914062 161.101562 216.96875 L 159.566406 217.472656 C 159.714844 218.207031 159.828125 218.828125 159.914062 219.34375 C 160.117188 220.675781 160.277344 221.480469 160.398438 221.753906 C 160.824219 221.742188 161.34375 221.683594 161.957031 221.589844 C 162.519531 221.507812 163.042969 221.394531 163.515625 221.238281 C 163.851562 221.097656 164.085938 220.816406 164.222656 220.398438 C 164.351562 219.972656 164.375 219.488281 164.292969 218.941406 Z M 141.082031 211.195312 L 138.945312 210.882812 L 136.882812 210.546875 L 135.425781 210.34375 L 133.847656 210.085938 C 133.734375 210.632812 133.578125 211.515625 133.390625 212.734375 C 133.253906 213.570312 133.15625 214.324219 133.097656 214.996094 C 133.035156 215.671875 133.03125 216.082031 133.085938 216.230469 C 133.425781 216.417969 134.019531 216.585938 134.855469 216.722656 L 136.332031 216.914062 C 136.8125 216.996094 137.1875 217.125 137.453125 217.292969 C 136.941406 221.574219 136.332031 225.941406 135.613281 230.402344 L 135.027344 233.707031 L 134.734375 235.507812 C 134.667969 235.820312 134.617188 236.171875 134.589844 236.550781 C 134.566406 236.9375 134.582031 237.207031 134.632812 237.347656 C 135.6875 237.339844 136.832031 237.4375 138.0625 237.640625 L 139.128906 237.804688 C 140.082031 237.964844 140.929688 238.039062 141.671875 238.027344 C 143.03125 228.527344 143.882812 222.699219 144.226562 220.550781 C 144.402344 219.4375 144.550781 218.710938 144.664062 218.375 C 144.667969 218.300781 144.992188 218.316406 145.636719 218.417969 L 147.363281 218.742188 C 147.824219 218.820312 148.449219 219 149.246094 219.28125 C 149.59375 218.171875 149.886719 216.902344 150.117188 215.472656 C 150.234375 214.75 150.339844 213.957031 150.429688 213.109375 L 149.9375 213.03125 C 147.6875 212.398438 144.734375 211.78125 141.082031 211.195312 Z M 134.78125 90.03125 C 134.503906 90.144531 133.890625 90.425781 132.941406 90.871094 C 132 91.316406 131.242188 91.664062 130.667969 91.890625 C 130.347656 92.03125 129.855469 92.210938 129.191406 92.429688 L 128.601562 92.640625 C 125.695312 89.859375 123.300781 87.867188 121.417969 86.660156 L 121.796875 87.554688 C 122.386719 88.976562 123.230469 90.777344 124.332031 92.957031 L 124.316406 92.933594 C 124.398438 93.082031 124.519531 93.355469 124.6875 93.753906 C 124.058594 94.433594 122.847656 95.148438 121.058594 95.890625 L 120.230469 96.203125 L 118.40625 96.96875 C 118.15625 97.074219 117.167969 95.046875 115.433594 90.882812 C 113.875 87.117188 112.277344 83.363281 110.636719 79.613281 C 108.996094 75.867188 107.945312 73.644531 107.5 72.945312 L 108.363281 72.417969 C 109.671875 71.664062 110.753906 71.058594 111.613281 70.589844 C 112.46875 70.128906 113.359375 69.703125 114.292969 69.304688 C 115.3125 68.886719 116.191406 68.578125 116.941406 68.375 C 118.34375 67.980469 119.78125 67.921875 121.253906 68.195312 C 122.730469 68.472656 124.046875 69.019531 125.199219 69.832031 C 126.355469 70.648438 127.175781 71.640625 127.664062 72.8125 C 128.132812 73.929688 128.269531 75.316406 128.089844 76.957031 C 127.976562 77.960938 127.652344 78.902344 127.125 79.769531 C 126.59375 80.636719 125.828125 81.347656 124.828125 81.898438 C 125.90625 82.75 127.101562 83.597656 128.425781 84.441406 C 128.699219 84.652344 128.898438 84.785156 129.03125 84.835938 C 130.53125 85.855469 131.765625 86.726562 132.726562 87.457031 C 133.6875 88.191406 134.558594 88.976562 135.335938 89.8125 Z M 120.886719 77.113281 C 120.917969 76.667969 120.828125 76.1875 120.621094 75.679688 C 120.230469 74.738281 119.75 74.230469 119.164062 74.160156 C 118.789062 74.089844 118.4375 74.101562 118.113281 74.191406 C 117.785156 74.277344 117.429688 74.394531 117.050781 74.546875 L 115.667969 75.402344 C 115.988281 76.074219 116.253906 76.65625 116.453125 77.136719 C 116.96875 78.378906 117.316406 79.121094 117.496094 79.367188 C 117.914062 79.25 118.410156 79.070312 118.984375 78.824219 C 119.511719 78.609375 119.992188 78.371094 120.417969 78.109375 C 120.703125 77.882812 120.859375 77.554688 120.886719 77.113281 Z M 194.109375 93.007812 C 192.949219 94.480469 192.058594 95.585938 191.429688 96.335938 C 189.867188 98.203125 188.332031 99.917969 186.824219 101.476562 C 187.542969 101.816406 188.09375 102.148438 188.484375 102.476562 L 188.972656 102.945312 L 189.285156 103.25 C 189.589844 103.542969 190.085938 103.972656 190.777344 104.550781 C 191.976562 105.546875 192.839844 106.027344 193.367188 105.980469 C 194.910156 103.902344 196.519531 101.863281 198.195312 99.867188 C 199.644531 98.132812 201.667969 95.792969 204.265625 92.839844 C 206.222656 90.621094 208.132812 88.394531 210 86.164062 L 210.210938 85.910156 L 209.09375 84.980469 C 208.488281 84.507812 207.714844 83.832031 206.78125 82.941406 C 206.402344 82.648438 206.089844 82.382812 205.839844 82.132812 C 205.59375 81.882812 205.394531 81.691406 205.25 81.5625 C 204.964844 81.320312 204.679688 81.121094 204.394531 80.945312 C 202.691406 82.632812 201.050781 84.421875 199.476562 86.308594 C 198.425781 87.5625 197.089844 89.234375 195.476562 91.316406 Z M 159.6875 89.949219 L 160.75 90.230469 C 161.167969 90.324219 161.820312 90.460938 162.699219 90.632812 C 164.230469 90.925781 165.210938 90.925781 165.644531 90.632812 C 165.984375 88.0625 166.398438 85.503906 166.886719 82.945312 C 167.3125 80.722656 167.945312 77.691406 168.792969 73.847656 C 169.421875 70.957031 170.003906 68.082031 170.546875 65.230469 L 170.617188 64.894531 L 169.183594 64.625 C 168.421875 64.507812 167.414062 64.285156 166.160156 63.964844 C 165.691406 63.894531 165.289062 63.8125 164.953125 63.707031 C 164.621094 63.601562 164.359375 63.539062 164.167969 63.503906 C 163.804688 63.433594 163.449219 63.390625 163.117188 63.382812 C 162.460938 65.683594 161.898438 68.042969 161.4375 70.464844 C 161.128906 72.082031 160.777344 74.1875 160.375 76.785156 L 159.992188 78.921875 C 159.691406 80.78125 159.449219 82.191406 159.265625 83.148438 C 158.8125 85.539062 158.308594 87.785156 157.765625 89.882812 C 158.550781 89.828125 159.195312 89.851562 159.6875 89.949219 Z M 172.058594 93.085938 C 173.851562 93.941406 175.253906 94.53125 176.257812 94.871094 L 176.804688 93.691406 L 180.433594 86.648438 C 180.777344 86.734375 181.109375 86.855469 181.433594 86.996094 C 181.753906 87.136719 182.03125 87.246094 182.261719 87.320312 C 183.480469 87.765625 184.246094 88.035156 184.558594 88.117188 C 184.945312 88.246094 185.167969 88.25 185.21875 88.140625 C 185.441406 87.535156 185.667969 86.996094 185.894531 86.523438 L 186.199219 85.886719 L 186.535156 85.269531 L 186.972656 84.476562 L 187.285156 83.792969 C 187.621094 83.101562 187.785156 82.605469 187.777344 82.304688 C 186.949219 82.042969 186.011719 81.667969 184.964844 81.171875 C 184.453125 80.933594 183.9375 80.644531 183.40625 80.308594 C 183.398438 80.21875 183.453125 79.992188 183.570312 79.625 C 183.691406 79.261719 183.835938 78.898438 184.011719 78.539062 C 184.1875 78.152344 184.359375 77.871094 184.527344 77.699219 L 184.738281 77.507812 C 185.414062 77.746094 186.40625 78.152344 187.707031 78.714844 L 189.578125 79.480469 L 190.207031 79.734375 L 191.484375 80.25 L 194.007812 81.292969 C 194.34375 80.683594 194.695312 79.984375 195.070312 79.199219 C 195.5 78.222656 195.78125 77.59375 195.910156 77.304688 C 196.035156 77.019531 196.121094 76.835938 196.164062 76.757812 L 196.46875 76.117188 C 195.011719 74.929688 192.902344 73.683594 190.140625 72.378906 C 188.457031 71.578125 186.667969 70.816406 184.773438 70.078125 C 182.875 69.339844 181.40625 68.816406 180.371094 68.511719 C 177.367188 74.847656 175.292969 79.191406 174.152344 81.546875 L 172.058594 85.949219 L 169.4375 91.414062 C 169.632812 91.789062 170.503906 92.34375 172.058594 93.085938 Z M 97.160156 117.910156 L 97.730469 117 C 98.25 116.1875 98.65625 115.441406 98.941406 114.761719 C 90.746094 109.746094 85.730469 106.65625 83.894531 105.480469 C 82.949219 104.878906 82.34375 104.460938 82.082031 104.226562 C 82.011719 104.191406 82.15625 103.898438 82.507812 103.355469 L 83.492188 101.910156 C 83.75 101.507812 84.160156 101 84.726562 100.390625 C 83.847656 99.625 82.796875 98.859375 81.578125 98.078125 C 80.949219 97.6875 80.265625 97.273438 79.527344 96.847656 L 79.261719 97.261719 C 77.792969 99.082031 76.054688 101.558594 74.0625 104.6875 L 72.929688 106.527344 L 71.808594 108.296875 L 71.046875 109.535156 L 70.179688 110.878906 C 70.628906 111.199219 71.378906 111.695312 72.421875 112.359375 C 73.140625 112.8125 73.792969 113.203125 74.382812 113.523438 C 74.976562 113.84375 75.351562 114.011719 75.527344 114.027344 C 75.835938 113.777344 76.214844 113.304688 76.671875 112.59375 L 77.433594 111.304688 C 77.703125 110.886719 77.96875 110.597656 78.230469 110.433594 C 81.960938 112.582031 85.726562 114.871094 89.53125 117.300781 L 92.34375 119.140625 L 93.890625 120.125 C 94.144531 120.3125 94.441406 120.496094 94.789062 120.671875 C 95.136719 120.847656 95.386719 120.929688 95.527344 120.929688 C 95.941406 119.972656 96.488281 118.960938 97.160156 117.910156 Z M 113.777344 95.710938 C 113.664062 95.582031 113.21875 95.101562 112.433594 94.253906 L 110.753906 95.785156 C 110.109375 96.335938 109.546875 96.800781 109.050781 97.1875 C 108.5625 97.578125 108.152344 97.894531 107.816406 98.140625 C 106.847656 98.878906 105.867188 99.675781 104.882812 100.515625 C 104.367188 100.066406 103.773438 99.460938 103.113281 98.6875 L 101.980469 97.109375 C 101.980469 97.039062 102.042969 96.953125 102.171875 96.84375 L 102.933594 96.226562 C 103.957031 95.351562 104.699219 94.574219 105.160156 93.894531 L 103.277344 91.585938 C 102.710938 90.921875 102.132812 90.347656 101.554688 89.859375 L 101.160156 90.152344 C 100.609375 90.5625 100.199219 90.886719 99.925781 91.117188 L 98.246094 92.929688 C 97.84375 92.691406 97.445312 92.34375 97.058594 91.886719 C 96.558594 91.300781 95.96875 90.527344 95.300781 89.558594 L 98.964844 86.375 C 100.359375 85.183594 101.523438 83.976562 102.449219 82.753906 C 102.160156 82.417969 101.777344 81.933594 101.296875 81.296875 C 100.78125 80.625 100.410156 80.148438 100.164062 79.863281 C 99.710938 79.335938 99.277344 78.902344 98.867188 78.566406 C 97.597656 79.492188 96.332031 80.5 95.054688 81.582031 C 93.59375 82.835938 91.507812 84.71875 88.804688 87.226562 L 86.375 89.445312 C 88.160156 91.785156 90.15625 94.253906 92.371094 96.84375 C 93.441406 98.09375 94.992188 99.847656 97.027344 102.117188 C 100.609375 106.152344 102.644531 108.480469 103.15625 109.109375 C 104.933594 107.789062 106.664062 106.40625 108.34375 104.96875 L 112.015625 101.761719 C 113.613281 100.335938 114.832031 99.261719 115.667969 98.546875 C 115.226562 97.617188 114.597656 96.671875 113.777344 95.710938 Z M 188.503906 217.683594 C 188.449219 214.210938 188.351562 211.351562 188.210938 209.101562 C 188.078125 206.851562 187.785156 204.59375 187.339844 202.324219 C 186.738281 202.507812 186.070312 202.789062 185.332031 203.148438 C 184.125 203.75 182.96875 204.472656 181.859375 205.324219 C 181.867188 205.535156 182.027344 206.8125 182.34375 209.15625 C 182.625 211.257812 182.769531 212.449219 182.769531 212.734375 C 181.925781 211.964844 180.996094 211.070312 179.980469 210.042969 C 178.964844 209.011719 178.148438 208.128906 177.539062 207.394531 C 176.882812 207.367188 176.164062 207.546875 175.386719 207.933594 C 175.050781 208.101562 174.546875 208.402344 173.871094 208.832031 C 173.019531 209.371094 172.382812 209.730469 171.957031 209.90625 C 172.621094 210.699219 173.300781 211.425781 173.992188 212.082031 C 174.6875 212.734375 175.707031 213.65625 177.042969 214.851562 C 178.140625 215.777344 179.070312 216.589844 179.832031 217.28125 C 180.585938 217.976562 181.296875 218.714844 181.960938 219.503906 L 182.296875 223.644531 C 182.722656 228.3125 183.066406 231.589844 183.316406 233.460938 C 183.925781 233.234375 184.453125 233.015625 184.894531 232.796875 L 186.296875 232.070312 C 186.847656 231.742188 187.292969 231.5 187.628906 231.332031 C 188.121094 231.085938 188.648438 230.867188 189.210938 230.671875 C 188.933594 228.699219 188.742188 226.722656 188.648438 224.734375 C 188.558594 222.738281 188.507812 220.386719 188.503906 217.683594 Z M 207.6875 213.578125 L 207.195312 212.972656 C 206.679688 213.40625 206.152344 213.808594 205.617188 214.179688 C 205.050781 214.582031 204.621094 214.902344 204.332031 215.136719 C 203.726562 215.648438 203.277344 216.1875 202.976562 216.769531 C 203.378906 217.261719 203.785156 217.8125 204.183594 218.417969 C 204.558594 218.949219 204.835938 219.320312 205.011719 219.527344 C 205.261719 219.835938 205.480469 220.039062 205.675781 220.132812 C 205.871094 220.230469 206.058594 220.199219 206.257812 220.042969 L 208.390625 218.238281 L 209.21875 217.546875 L 209.554688 217.308594 L 210.191406 216.78125 C 209.636719 216.117188 208.9375 215.234375 208.085938 214.128906 Z M 224.441406 103.324219 C 224.21875 101.652344 223.613281 100.128906 222.628906 98.753906 C 222.023438 97.910156 221.3125 97.183594 220.496094 96.570312 C 219.660156 95.917969 218.917969 95.5 218.277344 95.328125 C 217.738281 95.214844 217.132812 95.183594 216.460938 95.226562 C 215.789062 95.265625 215.15625 95.355469 214.558594 95.496094 C 214.167969 95.601562 213.75 95.757812 213.304688 95.964844 C 212.859375 96.175781 212.488281 96.398438 212.203125 96.640625 L 210.816406 97.59375 C 209.566406 98.453125 207.984375 99.570312 206.070312 100.941406 C 203.742188 102.609375 201.613281 104.210938 199.671875 105.757812 C 198.347656 106.917969 197.761719 108.339844 197.914062 110.039062 C 198.066406 111.746094 198.703125 113.378906 199.832031 114.960938 C 200.171875 115.441406 200.503906 115.84375 200.828125 116.15625 C 201.753906 117.359375 202.902344 118.230469 204.269531 118.777344 C 205.636719 119.328125 207.042969 119.523438 208.484375 119.363281 C 209.933594 119.203125 211.234375 118.71875 212.390625 117.894531 C 213.15625 117.335938 213.804688 116.6875 214.339844 115.945312 C 214.03125 115.175781 213.621094 114.425781 213.105469 113.703125 L 212.074219 112.324219 C 211.738281 111.859375 211.429688 111.351562 211.15625 110.789062 C 210.757812 110.953125 210.25 111.253906 209.644531 111.6875 C 208.871094 112.238281 208.226562 112.558594 207.703125 112.648438 L 207.738281 112.683594 C 206.785156 112.816406 206.078125 112.515625 205.605469 111.773438 C 205.527344 111.28125 205.65625 110.714844 205.988281 110.082031 C 206.316406 109.453125 206.730469 108.910156 207.230469 108.457031 C 208.035156 107.792969 209.058594 107.011719 210.308594 106.117188 C 211.542969 105.226562 212.777344 104.386719 214.019531 103.59375 C 215.257812 102.804688 215.929688 102.402344 216.035156 102.386719 C 216.402344 102.214844 216.855469 102.402344 217.402344 102.945312 L 217.378906 102.914062 C 217.425781 102.972656 217.460938 103.019531 217.492188 103.046875 C 217.53125 103.070312 217.554688 103.097656 217.570312 103.125 C 218.039062 103.726562 218.101562 104.289062 217.761719 104.828125 C 217.425781 105.367188 216.808594 105.988281 215.914062 106.6875 L 214.839844 107.597656 C 215.539062 109.148438 216.160156 110.308594 216.710938 111.070312 C 217.113281 111.636719 217.707031 112.28125 218.503906 113 C 219.480469 112.730469 220.351562 112.320312 221.113281 111.777344 C 222.402344 110.851562 223.335938 109.628906 223.914062 108.113281 C 224.5 106.59375 224.667969 105 224.441406 103.324219 Z M 135.53125 70.953125 C 135.167969 66.882812 134.878906 64.4375 134.667969 63.628906 L 135.652344 63.402344 C 137.121094 63.109375 138.34375 62.871094 139.304688 62.699219 C 140.269531 62.527344 141.257812 62.40625 142.277344 62.339844 C 143.375 62.257812 144.304688 62.238281 145.078125 62.285156 C 146.527344 62.359375 147.902344 62.761719 149.210938 63.492188 C 150.527344 64.21875 151.601562 65.152344 152.4375 66.292969 C 153.285156 67.429688 153.75 68.632812 153.839844 69.890625 C 153.929688 71.105469 153.621094 72.460938 152.921875 73.957031 C 152.496094 74.894531 151.894531 75.679688 151.121094 76.332031 C 150.339844 76.980469 149.386719 77.410156 148.25 77.617188 C 149.003906 78.761719 149.878906 79.945312 150.871094 81.167969 C 151.050781 81.460938 151.195312 81.652344 151.300781 81.738281 C 152.410156 83.171875 153.308594 84.394531 153.988281 85.394531 C 154.667969 86.394531 155.242188 87.414062 155.714844 88.453125 L 155.121094 88.496094 C 154.820312 88.515625 154.152344 88.582031 153.117188 88.699219 C 152.070312 88.832031 151.242188 88.910156 150.628906 88.957031 C 150.277344 88.980469 149.757812 88.988281 149.0625 88.988281 L 148.433594 89 C 146.558594 85.4375 144.921875 82.789062 143.527344 81.046875 L 143.597656 82.019531 C 143.703125 83.554688 143.925781 85.523438 144.277344 87.9375 L 144.277344 87.90625 C 144.3125 88.078125 144.347656 88.375 144.378906 88.800781 C 143.554688 89.257812 142.179688 89.558594 140.242188 89.699219 L 139.359375 89.722656 L 137.386719 89.871094 C 137.117188 89.882812 136.828125 87.644531 136.515625 83.148438 C 136.214844 79.082031 135.890625 75.015625 135.53125 70.953125 Z M 141.628906 68.542969 C 141.722656 69.28125 141.789062 69.914062 141.832031 70.4375 C 141.921875 71.78125 142.023438 72.601562 142.121094 72.894531 C 142.546875 72.910156 143.066406 72.894531 143.6875 72.847656 C 144.261719 72.8125 144.792969 72.734375 145.28125 72.625 C 145.628906 72.507812 145.890625 72.238281 146.050781 71.828125 C 146.214844 71.417969 146.277344 70.941406 146.242188 70.382812 C 146.164062 69.371094 145.871094 68.734375 145.355469 68.480469 C 145.027344 68.300781 144.691406 68.199219 144.351562 68.175781 C 144.015625 68.148438 143.636719 68.148438 143.21875 68.175781 Z M 204.125 213.476562 C 204.714844 212.992188 205.367188 212.402344 206.085938 211.71875 C 204.464844 209.949219 202.5 207.671875 200.191406 204.882812 C 198.0625 202.3125 196.023438 199.789062 194.074219 197.308594 L 193.738281 196.910156 L 193.335938 196.367188 C 192.742188 196.617188 192.125 197 191.492188 197.519531 C 191.070312 197.875 190.542969 198.371094 189.910156 199.011719 L 188.625 200.085938 C 189.785156 201.671875 191.257812 203.542969 193.046875 205.710938 L 194.707031 207.726562 L 196.414062 209.714844 C 197.191406 210.617188 198.347656 211.996094 199.886719 213.855469 L 201.644531 215.683594 L 202.363281 215.089844 L 202.921875 214.597656 L 203.449219 214.082031 C 203.730469 213.851562 203.960938 213.648438 204.125 213.476562 Z M 204.125 213.476562 " fill-opacity="1" fill-rule="nonzero"/><path fill="#f9be2b" d="M 98.488281 160.671875 C 98.566406 160.992188 98.527344 161.320312 98.382812 161.550781 C 98.285156 161.707031 98.148438 161.816406 97.992188 161.851562 C 97.945312 161.863281 97.902344 161.867188 97.855469 161.867188 C 97.492188 161.867188 97.132812 161.519531 97.011719 161.015625 C 96.878906 160.445312 97.097656 159.925781 97.507812 159.828125 C 97.667969 159.792969 97.835938 159.824219 97.996094 159.921875 C 98.230469 160.066406 98.417969 160.34375 98.488281 160.671875 Z M 101.007812 155.722656 C 100.253906 155.902344 99.785156 156.636719 99.953125 157.359375 C 100.035156 157.699219 100.25 157.992188 100.554688 158.179688 C 100.777344 158.3125 101.03125 158.386719 101.285156 158.386719 C 101.398438 158.386719 101.511719 158.371094 101.625 158.34375 C 102 158.257812 102.316406 158.035156 102.515625 157.714844 C 102.707031 157.410156 102.761719 157.058594 102.683594 156.714844 C 102.511719 155.992188 101.761719 155.546875 101.007812 155.722656 Z M 96.941406 151.792969 C 96.191406 151.972656 95.722656 152.707031 95.890625 153.429688 C 96.042969 154.042969 96.605469 154.457031 97.230469 154.457031 C 97.339844 154.457031 97.453125 154.445312 97.5625 154.414062 C 98.316406 154.238281 98.789062 153.507812 98.621094 152.78125 C 98.449219 152.0625 97.695312 151.617188 96.941406 151.792969 Z M 94.394531 156.304688 C 94.050781 156.382812 93.75 156.597656 93.566406 156.894531 C 93.390625 157.179688 93.335938 157.511719 93.414062 157.832031 C 93.488281 158.148438 93.683594 158.421875 93.96875 158.597656 C 94.179688 158.726562 94.414062 158.789062 94.660156 158.789062 C 94.765625 158.789062 94.871094 158.777344 94.972656 158.753906 C 95.671875 158.59375 96.117188 157.910156 95.957031 157.230469 C 95.796875 156.554688 95.097656 156.140625 94.394531 156.304688 Z M 91.636719 159.480469 C 91.371094 159.320312 91.066406 159.265625 90.773438 159.335938 C 90.152344 159.480469 89.769531 160.136719 89.921875 160.800781 C 90.058594 161.367188 90.550781 161.757812 91.085938 161.757812 C 91.171875 161.757812 91.257812 161.75 91.339844 161.730469 C 91.628906 161.660156 91.882812 161.476562 92.042969 161.214844 C 92.21875 160.933594 92.269531 160.597656 92.191406 160.269531 C 92.117188 159.933594 91.917969 159.65625 91.636719 159.480469 Z M 107.699219 150.09375 C 107.191406 150.214844 106.875 150.714844 106.992188 151.203125 C 107.046875 151.433594 107.1875 151.628906 107.394531 151.757812 C 107.542969 151.851562 107.71875 151.898438 107.898438 151.898438 C 107.96875 151.898438 108.046875 151.890625 108.121094 151.875 C 108.371094 151.8125 108.589844 151.660156 108.722656 151.445312 C 108.847656 151.238281 108.886719 151 108.832031 150.769531 C 108.722656 150.277344 108.210938 149.976562 107.699219 150.09375 Z M 114.496094 149.753906 C 114.429688 149.472656 114.261719 149.238281 114.015625 149.085938 C 113.773438 148.9375 113.484375 148.890625 113.207031 148.957031 C 112.921875 149.023438 112.6875 149.195312 112.535156 149.441406 C 112.386719 149.683594 112.339844 149.96875 112.410156 150.246094 C 112.476562 150.523438 112.640625 150.757812 112.886719 150.910156 C 113.058594 151.019531 113.253906 151.070312 113.453125 151.070312 C 113.539062 151.070312 113.621094 151.0625 113.703125 151.042969 C 114.277344 150.910156 114.632812 150.328125 114.496094 149.753906 Z M 103.601562 151.394531 C 102.851562 151.578125 102.382812 152.308594 102.550781 153.03125 C 102.699219 153.648438 103.265625 154.0625 103.898438 154.0625 C 104.007812 154.0625 104.121094 154.050781 104.238281 154.023438 C 104.984375 153.839844 105.453125 153.109375 105.285156 152.386719 C 105.105469 151.664062 104.355469 151.222656 103.601562 151.394531 Z M 110.910156 155.230469 C 110.65625 155.292969 110.441406 155.441406 110.308594 155.65625 C 110.183594 155.863281 110.140625 156.105469 110.195312 156.339844 C 110.25 156.578125 110.402344 156.777344 110.617188 156.902344 C 110.761719 156.988281 110.929688 157.035156 111.097656 157.035156 C 111.175781 157.035156 111.253906 157.027344 111.328125 157.007812 C 111.578125 156.949219 111.792969 156.796875 111.925781 156.578125 C 112.054688 156.375 112.09375 156.132812 112.035156 155.90625 C 111.921875 155.414062 111.421875 155.113281 110.910156 155.230469 Z M 107.074219 156.878906 C 106.859375 156.746094 106.597656 156.703125 106.351562 156.765625 C 106.097656 156.824219 105.886719 156.972656 105.75 157.191406 C 105.621094 157.398438 105.582031 157.636719 105.636719 157.871094 C 105.738281 158.289062 106.121094 158.5625 106.542969 158.5625 C 106.613281 158.5625 106.691406 158.554688 106.765625 158.539062 C 107.015625 158.476562 107.230469 158.328125 107.367188 158.113281 C 107.492188 157.910156 107.53125 157.667969 107.476562 157.433594 C 107.421875 157.203125 107.277344 157.003906 107.074219 156.878906 Z M 107.074219 156.878906 " fill-opacity="1" fill-rule="nonzero"/></svg>